<?xml version="1.0" encoding="UTF-8" standalone="no"?>
<!DOCTYPE svg PUBLIC "-//W3C//DTD SVG 1.1//EN" "http://www.w3.org/Graphics/SVG/1.1/DTD/svg11.dtd">
<svg width="100%" height="100%" viewBox="0 0 21 21" version="1.1" xmlns="http://www.w3.org/2000/svg" xmlns:xlink="http://www.w3.org/1999/xlink" xml:space="preserve" xmlns:serif="http://www.serif.com/" style="fill-rule:evenodd;clip-rule:evenodd;stroke-linejoin:round;stroke-miterlimit:2;">
    <g transform="matrix(1,0,0,1,-5776.67,-3166.86)">
        <g id="Artboard1" transform="matrix(0.00835011,0,0,0.012768,5776.96,3166.86)">
            <rect x="-34.623" y="0" width="2514.94" height="1644.73" style="fill:none;"/>
            <g id="DESIGNED-BY-FREEPIK" serif:id="DESIGNED BY FREEPIK">
            </g>
            <g id="DESIGNED-BY-FREEPIK1" serif:id="DESIGNED BY FREEPIK">
            </g>
            <g id="DESIGNED-BY-FREEPIK2" serif:id="DESIGNED BY FREEPIK">
            </g>
            <g id="DESIGNED-BY-FREEPIK3" serif:id="DESIGNED BY FREEPIK">
            </g>
            <g id="Layer-1" serif:id="Layer 1">
            </g>
            <g id="DESIGNED-BY-FREEPIK4" serif:id="DESIGNED BY FREEPIK">
            </g>
            <g id="DESIGNED-BY-FREEPIK5" serif:id="DESIGNED BY FREEPIK">
            </g>
            <g transform="matrix(7.55799,0,0,4.94282,530.362,234.964)">
                <g id="DESIGNED-BY-FREEPIK6" serif:id="DESIGNED BY FREEPIK">
                    <g transform="matrix(1,0,0,1,12.7884,225.141)">
                        <path d="M0,-212.148L0,-209.72C0,-155.284 0.008,-100.848 -0.038,-46.412C-0.039,-44.711 0.488,-43.812 1.984,-42.996C26.974,-29.375 51.938,-15.706 76.875,-1.987C78.363,-1.168 79.437,-1.234 80.888,-2.032C105.758,-15.711 130.652,-29.347 155.573,-42.933C157.124,-43.778 157.738,-44.669 157.736,-46.497C157.68,-100.855 157.69,-155.214 157.69,-209.572L157.69,-212.148L0,-212.148ZM165.729,-225.141C169.152,-223.723 170.458,-221.161 170.455,-217.474C170.403,-158.856 170.403,-100.239 170.457,-41.621C170.46,-38.033 169.119,-35.698 165.966,-33.976C138.476,-18.961 111.017,-3.889 83.588,11.235C80.498,12.939 77.749,12.993 74.636,11.281C47.126,-3.857 19.587,-18.944 -7.988,-33.963C-11.379,-35.81 -12.783,-38.29 -12.778,-42.162C-12.706,-100.392 -12.7,-158.623 -12.788,-216.853C-12.795,-220.975 -11.383,-223.678 -7.574,-225.141L165.729,-225.141Z" style="fill-rule:nonzero;"/>
                    </g>
                    <g transform="matrix(1,0,0,1,38.5615,151.568)">
                        <path d="M0,-58.796C1.049,-58.254 1.845,-57.849 2.635,-57.433C18.583,-49.048 34.553,-40.706 50.447,-32.22C52.494,-31.127 53.973,-31.24 55.945,-32.293C71.838,-40.779 87.792,-49.154 103.729,-57.559C104.408,-57.917 105.103,-58.246 106.086,-58.734C106.159,-57.916 106.265,-57.279 106.266,-56.643C106.277,-48.048 106.237,-39.453 106.308,-30.858C106.32,-29.34 105.851,-28.536 104.492,-27.799C87.968,-18.848 71.473,-9.843 55.009,-0.782C53.587,0 52.558,-0.096 51.192,-0.846C34.787,-9.854 18.359,-18.821 1.901,-27.732C0.429,-28.529 -0.193,-29.38 -0.173,-31.112C-0.077,-39.473 -0.133,-47.836 -0.125,-56.199C-0.124,-56.949 -0.055,-57.7 0,-58.796" style="fill-rule:nonzero;"/>
                    </g>
                    <g transform="matrix(1,0,0,1,144.835,195.879)">
                        <path d="M0,-58.587L0,-44.024C0,-39.457 0.074,-34.887 -0.067,-30.324C-0.093,-29.462 -0.759,-28.238 -1.49,-27.834C-18.214,-18.613 -34.981,-9.468 -51.781,-0.384C-52.492,0 -53.775,-0.006 -54.488,-0.391C-71.355,-9.514 -88.185,-18.704 -104.993,-27.935C-105.612,-28.275 -106.333,-29.148 -106.338,-29.779C-106.418,-39.068 -106.385,-48.358 -106.366,-57.648C-106.366,-57.85 -106.211,-58.052 -106.043,-58.461C-105.178,-58.013 -104.375,-57.602 -103.576,-57.182C-87.424,-48.695 -71.262,-40.226 -55.14,-31.684C-53.667,-30.904 -52.57,-30.919 -51.1,-31.7C-34.989,-40.265 -18.838,-48.753 -2.695,-57.258C-1.951,-57.65 -1.187,-58.003 0,-58.587" style="fill-rule:nonzero;"/>
                    </g>
                    <g transform="matrix(1,0,0,1,100.494,67.5447)">
                        <path d="M0,-15.532L25.567,-15.532L25.79,-15.085C18.904,-10.1 12.018,-5.116 5.049,-0.071C7.715,8.151 10.348,16.267 13.183,25.009C5.742,19.603 -1.17,14.581 -8.194,9.477C-15.149,14.519 -22.066,19.535 -29.537,24.951C-28.35,21.239 -27.383,18.173 -26.388,15.116C-24.953,10.71 -23.561,6.289 -22.018,1.92C-21.498,0.446 -21.685,-0.351 -23.034,-1.294C-28.866,-5.368 -34.596,-9.587 -40.358,-13.761C-40.954,-14.193 -41.517,-14.669 -42.602,-15.523L-38.413,-15.523C-31.759,-15.523 -25.105,-15.579 -18.453,-15.482C-16.867,-15.458 -16.195,-15.914 -15.719,-17.452C-13.666,-24.092 -11.46,-30.684 -9.302,-37.291C-8.999,-38.219 -8.655,-39.135 -8.158,-40.541C-5.342,-31.907 -2.687,-23.771 0,-15.532" style="fill-rule:nonzero;"/>
                    </g>
                </g>
            </g>
        </g>
    </g>
</svg>
