<?xml version="1.0" encoding="UTF-8" standalone="no"?>
<!DOCTYPE svg PUBLIC "-//W3C//DTD SVG 1.1//EN" "http://www.w3.org/Graphics/SVG/1.1/DTD/svg11.dtd">
<svg width="100%" height="100%" viewBox="0 0 240 185" version="1.1" xmlns="http://www.w3.org/2000/svg" xmlns:xlink="http://www.w3.org/1999/xlink" xml:space="preserve" xmlns:serif="http://www.serif.com/" style="fill-rule:evenodd;clip-rule:evenodd;stroke-linejoin:round;stroke-miterlimit:2;">
    <g transform="matrix(1,0,0,1,-5837.94,-393.943)">
        <g id="Artboard1" transform="matrix(0.09539,0,0,0.112055,5841.24,393.943)">
            <rect x="-34.623" y="0" width="2514.94" height="1644.73" style="fill:none;"/>
            <g id="DESIGNED-BY-FREEPIK" serif:id="DESIGNED BY FREEPIK">
            </g>
            <g id="DESIGNED-BY-FREEPIK1" serif:id="DESIGNED BY FREEPIK">
            </g>
            <g id="DESIGNED-BY-FREEPIK2" serif:id="DESIGNED BY FREEPIK">
            </g>
            <g id="DESIGNED-BY-FREEPIK3" serif:id="DESIGNED BY FREEPIK">
            </g>
            <g id="Layer-1" serif:id="Layer 1">
            </g>
            <g id="DESIGNED-BY-FREEPIK4" serif:id="DESIGNED BY FREEPIK">
            </g>
            <g id="DESIGNED-BY-FREEPIK5" serif:id="DESIGNED BY FREEPIK">
            </g>
            <g transform="matrix(2.24218,0,0,1.90873,1017.41,476.497)">
                <g transform="matrix(8.49659,0,0,8.63589,-3662.37,-7490.35)">
                    <rect x="375.824" y="838.452" width="131.998" height="99.766" style="fill:rgb(228,228,228);"/>
                </g>
                <g transform="matrix(8.48176,0,0,8.48176,-3527.75,-373.025)">
                    <path d="M416.888,86.648L417.896,89.616L419.198,89.616L415.979,80.182L414.509,80.182L411.304,89.616L412.563,89.616L413.543,86.648L416.888,86.648ZM413.795,85.698L414.719,82.967C414.901,82.392 415.055,81.804 415.181,81.258L415.223,81.258C415.363,81.804 415.503,82.364 415.699,82.981L416.637,85.698L413.795,85.698Z" style="fill-rule:nonzero;"/>
                    <path d="M420.544,89.616L421.774,89.616L421.774,85.99C421.774,85.794 421.788,85.598 421.816,85.416C421.984,84.506 422.6,83.848 423.468,83.848C423.636,83.848 423.762,83.862 423.888,83.876L423.888,82.716C423.776,82.702 423.678,82.688 423.552,82.688C422.726,82.688 421.97,83.261 421.662,84.17L421.62,84.17L421.564,82.842L420.488,82.842C420.53,83.472 420.544,84.157 420.544,84.955L420.544,89.616Z" style="fill-rule:nonzero;"/>
                    <path d="M425.178,89.616L426.38,89.616L426.38,85.528C426.38,85.318 426.408,85.108 426.478,84.926C426.674,84.31 427.249,83.694 428.005,83.694C428.944,83.694 429.42,84.464 429.42,85.542L429.42,89.616L430.622,89.616L430.622,85.416C430.622,85.206 430.664,84.982 430.72,84.8C430.944,84.212 431.477,83.694 432.191,83.694C433.172,83.694 433.662,84.464 433.662,85.78L433.662,89.616L434.864,89.616L434.864,85.626C434.864,83.275 433.536,82.688 432.625,82.688C431.981,82.688 431.547,82.855 431.14,83.163C430.86,83.373 430.58,83.652 430.37,84.044L430.342,84.044C430.049,83.247 429.35,82.688 428.439,82.688C427.305,82.688 426.674,83.289 426.296,83.932L426.254,83.932L426.198,82.842L425.122,82.842C425.15,83.402 425.178,83.961 425.178,84.675L425.178,89.616Z" style="fill-rule:nonzero;"/>
                    <path d="M435.776,82.842L438.267,89.084C438.337,89.238 438.365,89.336 438.365,89.406C438.365,89.476 438.323,89.574 438.267,89.7C437.973,90.33 437.567,90.806 437.231,91.072C436.867,91.38 436.462,91.576 436.154,91.674L436.462,92.696C436.77,92.64 437.357,92.43 437.973,91.912C438.813,91.17 439.415,89.994 440.297,87.671L442.144,82.842L440.842,82.842L439.499,86.817C439.331,87.307 439.191,87.825 439.065,88.231L439.037,88.231C438.925,87.825 438.757,87.293 438.589,86.845L437.119,82.842L435.776,82.842Z" style="fill-rule:nonzero;"/>
                </g>
                <g transform="matrix(1,0,0,1,12.7884,225.141)">
                    <path d="M0,-212.148L0,-209.72C0,-155.284 0.008,-100.848 -0.038,-46.412C-0.039,-44.711 0.488,-43.812 1.984,-42.996C26.974,-29.375 51.938,-15.706 76.875,-1.987C78.363,-1.168 79.437,-1.234 80.888,-2.032C105.758,-15.711 130.652,-29.347 155.573,-42.933C157.124,-43.778 157.738,-44.669 157.736,-46.497C157.68,-100.855 157.69,-155.214 157.69,-209.572L157.69,-212.148L0,-212.148ZM165.729,-225.141C169.152,-223.723 170.458,-221.161 170.455,-217.474C170.403,-158.856 170.403,-100.239 170.457,-41.621C170.46,-38.033 169.119,-35.698 165.966,-33.976C138.476,-18.961 111.017,-3.889 83.588,11.235C80.498,12.939 77.749,12.993 74.636,11.281C47.126,-3.857 19.587,-18.944 -7.988,-33.963C-11.379,-35.81 -12.783,-38.29 -12.778,-42.162C-12.706,-100.392 -12.7,-158.623 -12.788,-216.853C-12.795,-220.975 -11.383,-223.678 -7.574,-225.141L165.729,-225.141Z" style="fill-rule:nonzero;"/>
                </g>
                <g transform="matrix(1,0,0,1,38.5615,151.568)">
                    <path d="M0,-58.796C1.049,-58.254 1.845,-57.849 2.635,-57.433C18.583,-49.048 34.553,-40.706 50.447,-32.22C52.494,-31.127 53.973,-31.24 55.945,-32.293C71.838,-40.779 87.792,-49.154 103.729,-57.559C104.408,-57.917 105.103,-58.246 106.086,-58.734C106.159,-57.916 106.265,-57.279 106.266,-56.643C106.277,-48.048 106.237,-39.453 106.308,-30.858C106.32,-29.34 105.851,-28.536 104.492,-27.799C87.968,-18.848 71.473,-9.843 55.009,-0.782C53.587,0 52.558,-0.096 51.192,-0.846C34.787,-9.854 18.359,-18.821 1.901,-27.732C0.429,-28.529 -0.193,-29.38 -0.173,-31.112C-0.077,-39.473 -0.133,-47.836 -0.125,-56.199C-0.124,-56.949 -0.055,-57.7 0,-58.796" style="fill-rule:nonzero;"/>
                </g>
                <g transform="matrix(1,0,0,1,144.835,195.879)">
                    <path d="M0,-58.587L0,-44.024C0,-39.457 0.074,-34.887 -0.067,-30.324C-0.093,-29.462 -0.759,-28.238 -1.49,-27.834C-18.214,-18.613 -34.981,-9.468 -51.781,-0.384C-52.492,0 -53.775,-0.006 -54.488,-0.391C-71.355,-9.514 -88.185,-18.704 -104.993,-27.935C-105.612,-28.275 -106.333,-29.148 -106.338,-29.779C-106.418,-39.068 -106.385,-48.358 -106.366,-57.648C-106.366,-57.85 -106.211,-58.052 -106.043,-58.461C-105.178,-58.013 -104.375,-57.602 -103.576,-57.182C-87.424,-48.695 -71.262,-40.226 -55.14,-31.684C-53.667,-30.904 -52.57,-30.919 -51.1,-31.7C-34.989,-40.265 -18.838,-48.753 -2.695,-57.258C-1.951,-57.65 -1.187,-58.003 0,-58.587" style="fill-rule:nonzero;"/>
                </g>
                <g transform="matrix(1,0,0,1,100.494,67.5447)">
                    <path d="M0,-15.532L25.567,-15.532L25.79,-15.085C18.904,-10.1 12.018,-5.116 5.049,-0.071C7.715,8.151 10.348,16.267 13.183,25.009C5.742,19.603 -1.17,14.581 -8.194,9.477C-15.149,14.519 -22.066,19.535 -29.537,24.951C-28.35,21.239 -27.383,18.173 -26.388,15.116C-24.953,10.71 -23.561,6.289 -22.018,1.92C-21.498,0.446 -21.685,-0.351 -23.034,-1.294C-28.866,-5.368 -34.596,-9.587 -40.358,-13.761C-40.954,-14.193 -41.517,-14.669 -42.602,-15.523L-38.413,-15.523C-31.759,-15.523 -25.105,-15.579 -18.453,-15.482C-16.867,-15.458 -16.195,-15.914 -15.719,-17.452C-13.666,-24.092 -11.46,-30.684 -9.302,-37.291C-8.999,-38.219 -8.655,-39.135 -8.158,-40.541C-5.342,-31.907 -2.687,-23.771 0,-15.532" style="fill-rule:nonzero;"/>
                </g>
            </g>
        </g>
    </g>
</svg>
