<?xml version="1.0" encoding="UTF-8" standalone="no"?>
<!DOCTYPE svg PUBLIC "-//W3C//DTD SVG 1.1//EN" "http://www.w3.org/Graphics/SVG/1.1/DTD/svg11.dtd">
<svg width="100%" height="100%" viewBox="0 0 21 21" version="1.1" xmlns="http://www.w3.org/2000/svg" xmlns:xlink="http://www.w3.org/1999/xlink" xml:space="preserve" xmlns:serif="http://www.serif.com/" style="fill-rule:evenodd;clip-rule:evenodd;stroke-linejoin:round;stroke-miterlimit:2;">
    <g transform="matrix(1,0,0,1,-5833.49,-3166.86)">
        <g id="Artboard1" transform="matrix(0.00835011,0,0,0.012768,5833.78,3166.86)">
            <rect x="-34.623" y="0" width="2514.94" height="1644.73" style="fill:none;"/>
            <g id="DESIGNED-BY-FREEPIK" serif:id="DESIGNED BY FREEPIK">
            </g>
            <g id="DESIGNED-BY-FREEPIK1" serif:id="DESIGNED BY FREEPIK">
            </g>
            <g id="DESIGNED-BY-FREEPIK2" serif:id="DESIGNED BY FREEPIK">
            </g>
            <g id="DESIGNED-BY-FREEPIK3" serif:id="DESIGNED BY FREEPIK">
            </g>
            <g id="Layer-1" serif:id="Layer 1">
            </g>
            <g id="DESIGNED-BY-FREEPIK4" serif:id="DESIGNED BY FREEPIK">
            </g>
            <g id="DESIGNED-BY-FREEPIK5" serif:id="DESIGNED BY FREEPIK">
            </g>
            <g id="apple.svg" transform="matrix(3.66609,0,0,2.39757,1222.85,822.367)">
                <g transform="matrix(1,0,0,1,-245,-245)">
                    <clipPath id="_clip1">
                        <rect x="0" y="0" width="490" height="490"/>
                    </clipPath>
                    <g clip-path="url(#_clip1)">
                        <path d="M251.526,117.173L240.873,117.173L240.873,106.523C240.873,36.883 277.756,0 347.396,0L358.045,0L358.045,10.653C358.045,80.289 321.162,117.173 251.526,117.173ZM336.341,21.705C290.005,24.9 265.773,49.132 262.441,95.604C309.58,92.409 333.278,68.707 336.341,21.705Z" style="fill-rule:nonzero;"/>
                        <path d="M336.742,490.001C319.582,489.99 302.683,485.831 287.477,477.885C265.059,465.882 238.123,465.882 215.708,477.885C200.498,485.831 183.599,489.99 166.439,490.001C94.806,490.001 38.613,391.733 38.613,266.306C38.613,190.007 96.003,127.826 166.439,127.826C179.628,127.826 192.727,130.03 205.187,134.352L244.735,148.064C249.264,149.628 254.187,149.628 258.716,148.064L298.127,134.352C310.548,130.05 323.596,127.846 336.742,127.826C375.221,127.826 411.172,146.336 435.674,178.558L444.994,190.939L430.08,195.199C391.789,206.235 366.284,242.366 368.714,282.143C371.141,321.921 400.85,354.681 440.199,360.974L452.319,362.971L448.59,374.689C426.487,445.792 383.48,490.001 336.742,490.001ZM251.526,447.391C267.501,447.516 283.214,451.491 297.327,458.977C309.475,465.39 323.007,468.726 336.742,468.694C371.628,468.694 404.783,434.741 424.755,379.351C378.888,366.482 347.24,324.594 347.396,276.955C347.579,235.535 371.64,197.938 409.175,180.422C389.604,160.45 363.905,149.129 336.742,149.129C325.956,149.133 315.244,150.931 305.051,154.458L265.507,168.17C256.488,171.267 246.693,171.267 237.678,168.17L197.998,154.458C187.804,150.931 177.092,149.129 166.306,149.129C107.585,149.129 59.787,201.726 59.787,266.306C59.787,376.024 108.518,468.694 166.306,468.694C180.042,468.729 193.578,465.394 205.721,458.977C219.835,451.491 235.548,447.516 251.526,447.391Z" style="fill-rule:nonzero;"/>
                    </g>
                </g>
            </g>
        </g>
    </g>
</svg>
