<?xml version="1.0" encoding="UTF-8" standalone="no"?>
<!DOCTYPE svg PUBLIC "-//W3C//DTD SVG 1.1//EN" "http://www.w3.org/Graphics/SVG/1.1/DTD/svg11.dtd">
<svg width="100%" height="100%" viewBox="0 0 21 21" version="1.1" xmlns="http://www.w3.org/2000/svg" xmlns:xlink="http://www.w3.org/1999/xlink" xml:space="preserve" xmlns:serif="http://www.serif.com/" style="fill-rule:evenodd;clip-rule:evenodd;stroke-linejoin:round;stroke-miterlimit:2;">
    <g transform="matrix(1,0,0,1,-5564.14,-3230.15)">
        <g id="Artboard1" transform="matrix(0.00835011,0,0,0.012768,5564.43,3230.15)">
            <rect x="-34.623" y="0" width="2514.94" height="1644.73" style="fill:none;"/>
            <g id="DESIGNED-BY-FREEPIK" serif:id="DESIGNED BY FREEPIK">
            </g>
            <g id="DESIGNED-BY-FREEPIK1" serif:id="DESIGNED BY FREEPIK">
            </g>
            <g id="DESIGNED-BY-FREEPIK2" serif:id="DESIGNED BY FREEPIK">
            </g>
            <g id="DESIGNED-BY-FREEPIK3" serif:id="DESIGNED BY FREEPIK">
            </g>
            <g id="Layer-1" serif:id="Layer 1">
            </g>
            <g id="DESIGNED-BY-FREEPIK4" serif:id="DESIGNED BY FREEPIK">
            </g>
            <g id="DESIGNED-BY-FREEPIK5" serif:id="DESIGNED BY FREEPIK">
            </g>
            <g transform="matrix(4.72679,0,0,5.68475,95.3629,66.521)">
                <g transform="matrix(1,0,0,0.543779,-17.4715,-6.25738)">
                    <path d="M475.034,340.07C464.354,334.9 452.775,331.84 440.934,331.059C446.099,318.289 448.909,304.689 449.229,290.918C451.635,218.47 394.24,165.888 369.818,143.36L367.258,141.056C363.725,137.779 360.499,134.554 357.478,131.328C363.787,126.017 367.427,118.173 367.411,109.926L367.411,109.414C367.372,97.922 360.288,87.561 349.594,83.354C355.459,66.992 359.562,50.051 361.83,32.819C361.906,32.191 361.944,31.559 361.944,30.927C361.944,22.276 354.826,15.157 346.175,15.157C343.281,15.157 340.442,15.954 337.971,17.459C330.127,21.804 321.743,25.092 313.037,27.238C304.644,29.422 295.83,29.422 287.437,27.238C278.674,25.091 270.237,21.785 262.349,17.408C257.166,14.278 250.62,14.398 245.555,17.715C240.519,20.927 237.794,26.797 238.592,32.717C240.895,50.014 245.013,67.021 250.88,83.456C240.156,87.635 233.045,98.008 233.011,109.517L233.011,110.029C233.008,119.258 237.576,127.914 245.197,133.12C242.893,135.578 240.077,138.24 237.107,141.056L234.65,143.36C209.92,165.888 152.832,218.419 155.187,290.867C155.187,294.656 155.648,298.291 156.058,301.926L116.173,301.926L116.173,285.491C116.173,279.874 111.55,275.251 105.933,275.251L33.229,275.251C27.611,275.251 22.989,279.874 22.989,285.491L22.989,460.083C22.989,465.701 27.611,470.323 33.229,470.323L105.933,470.323C111.55,470.323 116.173,465.701 116.173,460.083L116.173,446.771L227.686,491.776C236.303,495.017 245.413,496.749 254.618,496.896C275.098,496.896 293.018,488.038 313.958,477.594L316.314,476.416L316.826,476.416L475.546,385.229C483.962,380.818 489.187,371.997 489.011,362.496C489.084,352.962 483.625,344.204 475.034,340.07ZM339.405,117.76L261.12,117.76C256.982,117.76 253.57,114.371 253.542,110.234L253.542,109.722C253.541,109.67 253.541,109.619 253.541,109.568C253.541,105.411 256.961,101.99 261.118,101.99C261.119,101.99 261.119,101.99 261.12,101.99L339.405,101.99C343.534,101.99 346.931,105.388 346.931,109.517L346.931,110.029C346.933,110.097 346.934,110.165 346.934,110.234C346.934,114.362 343.536,117.76 339.408,117.76C339.407,117.76 339.406,117.76 339.405,117.76ZM282.01,47.206C293.918,50.381 306.453,50.381 318.362,47.206C325.823,45.248 333.117,42.697 340.173,39.578C337.476,53.855 333.589,67.882 328.55,81.51L271.718,81.51C266.716,67.874 262.846,53.849 260.147,39.578C267.224,42.688 274.534,45.239 282.01,47.206ZM248.474,158.72L250.982,156.416C257.178,150.779 262.961,144.705 268.288,138.24L336.128,138.24C341.431,144.612 347.162,150.616 353.28,156.211L355.891,158.566C378.266,179.046 430.746,227.174 428.646,290.202C428.501,305.026 424.608,319.576 417.331,332.493C409.479,334.142 401.86,336.756 394.65,340.275L339.456,366.848C336.411,350.313 321.964,338.129 305.152,337.92L245.76,337.92C227.353,318.966 203.122,306.706 176.947,303.104C176.252,298.834 175.825,294.525 175.667,290.202C173.619,227.174 226.048,179.2 248.474,158.72ZM43.674,450.048L43.674,295.731L95.898,295.731L95.898,449.843L43.674,450.048ZM465.92,366.746L307.2,457.984L305.152,459.008C277.146,472.986 260.198,481.434 235.264,472.627L116.173,424.96L116.173,322.56L160.41,322.56C188.277,322.57 214.85,334.505 233.37,355.328C235.307,357.504 238.085,358.753 240.998,358.758L305.152,358.758C312.163,358.863 318.148,364.025 319.283,370.944C319.376,373.774 318.549,376.559 316.928,378.88C315.307,381.201 316.928,378.88 316.621,379.29C314.136,382.427 310.382,384.304 306.381,384.41L191.846,384.41C186.229,384.41 181.606,389.032 181.606,394.65C181.606,400.267 186.229,404.89 191.846,404.89L306.278,404.89C315.149,404.919 323.673,401.396 329.933,395.11C330.598,394.445 331.264,393.728 331.878,393.011L403.558,358.502C410.001,355.231 416.909,352.969 424.038,351.795C438.344,349.723 452.947,352.026 465.92,358.4C467.401,359.071 468.349,360.563 468.326,362.189C468.473,364.042 467.533,365.822 465.92,366.746Z" style="fill-rule:nonzero;"/>
                </g>
                <g transform="matrix(1,0,0,0.543779,-17.4715,-6.25738)">
                    <path d="M317.44,283.392L293.888,283.392C293.871,283.392 293.854,283.392 293.837,283.392C290.663,283.392 288.051,280.781 288.051,277.607C288.051,277.607 288.051,277.606 288.051,277.606C288.051,271.989 283.429,267.366 277.811,267.366C272.194,267.366 267.571,271.989 267.571,277.606C267.599,292.024 279.47,303.872 293.888,303.872L295.424,303.872L295.424,311.552C295.424,317.169 300.047,321.792 305.664,321.792C311.281,321.792 315.904,317.169 315.904,311.552L315.904,303.872L317.44,303.872C331.849,303.872 343.706,292.015 343.706,277.606L343.706,260.608C343.678,246.21 331.838,234.37 317.44,234.342L293.888,234.342C293.871,234.343 293.854,234.343 293.837,234.343C290.663,234.343 288.051,231.731 288.051,228.557L288.051,211.558C288.079,208.376 290.705,205.773 293.888,205.773L317.44,205.773C320.603,205.8 323.198,208.395 323.226,211.558C323.226,217.176 327.848,221.798 333.466,221.798C339.083,221.798 343.706,217.176 343.706,211.558C343.706,197.15 331.849,185.293 317.44,185.293L315.904,185.293L315.904,177.613C315.904,171.995 311.281,167.373 305.664,167.373C300.047,167.373 295.424,171.995 295.424,177.613L295.424,185.293L293.888,185.293C279.47,185.293 267.599,197.141 267.571,211.558L267.571,228.557C267.599,242.974 279.47,254.822 293.888,254.822L317.44,254.822C320.603,254.85 323.198,257.445 323.226,260.608L323.226,277.606C323.226,280.78 320.614,283.392 317.44,283.392Z" style="fill-rule:nonzero;"/>
                </g>
            </g>
        </g>
    </g>
</svg>
