<?xml version="1.0" encoding="UTF-8" standalone="no"?>
<!DOCTYPE svg PUBLIC "-//W3C//DTD SVG 1.1//EN" "http://www.w3.org/Graphics/SVG/1.1/DTD/svg11.dtd">
<svg width="100%" height="100%" viewBox="0 0 21 21" version="1.1" xmlns="http://www.w3.org/2000/svg" xmlns:xlink="http://www.w3.org/1999/xlink" xml:space="preserve" xmlns:serif="http://www.serif.com/" style="fill-rule:evenodd;clip-rule:evenodd;stroke-linejoin:round;stroke-miterlimit:2;">
    <g transform="matrix(1,0,0,1,-5669.89,-3230.15)">
        <g id="Artboard1" transform="matrix(0.00835011,0,0,0.012768,5670.18,3230.15)">
            <rect x="-34.623" y="0" width="2514.94" height="1644.73" style="fill:none;"/>
            <g id="DESIGNED-BY-FREEPIK" serif:id="DESIGNED BY FREEPIK">
            </g>
            <g id="DESIGNED-BY-FREEPIK1" serif:id="DESIGNED BY FREEPIK">
            </g>
            <g id="DESIGNED-BY-FREEPIK2" serif:id="DESIGNED BY FREEPIK">
            </g>
            <g id="DESIGNED-BY-FREEPIK3" serif:id="DESIGNED BY FREEPIK">
            </g>
            <g id="Layer-1" serif:id="Layer 1">
            </g>
            <g id="DESIGNED-BY-FREEPIK4" serif:id="DESIGNED BY FREEPIK">
            </g>
            <g id="DESIGNED-BY-FREEPIK5" serif:id="DESIGNED BY FREEPIK">
            </g>
            <g transform="matrix(4.30236,0,0,-2.81368,121.442,1542.67)">
                <g id="g1280">
                    <g id="g1282">
                        <clipPath id="_clip1">
                            <rect x="0" y="0" width="512" height="512"/>
                        </clipPath>
                        <g clip-path="url(#_clip1)">
                            <g id="g1288" transform="matrix(1,0,0,1,7.5,429.5)">
                                <path d="M7.5,0L7.5,15C7.5,43.875 31.125,67.5 60,67.5C60,67.5 437,67.5 437,67.5C465.875,67.5 489.5,43.875 489.5,15L489.5,-362C489.5,-390.875 465.875,-414.5 437,-414.5L422,-414.5L422,-429.5L437,-429.5C474.125,-429.5 504.5,-399.125 504.5,-362C504.5,-362 504.5,15 504.5,15C504.5,52.125 474.125,82.5 437,82.5L60,82.5C22.875,82.5 -7.5,52.125 -7.5,15C-7.5,15 -7.5,0 -7.5,0L7.5,0ZM377,-414.5L60,-414.5C31.125,-414.5 7.5,-390.875 7.5,-362L7.5,-15L-7.5,-15L-7.5,-362C-7.5,-399.125 22.875,-429.5 60,-429.5C60,-429.5 377,-429.5 377,-429.5L377,-414.5ZM407,-414.5L392,-414.5L392,-429.5L407,-429.5L407,-414.5Z"/>
                            </g>
                            <g id="g1292" transform="matrix(1,0,0,1,422,467)">
                                <path d="M-0,-7.5L15,-7.5L15,7.5L0,7.5L-0,-7.5ZM30,-7.5L45,-7.5L45,7.5L30,7.5L30,-7.5Z"/>
                            </g>
                            <g id="g1296" transform="matrix(1,0,0,1,194.542,211.001)">
                                <path d="M90.653,242.139L32.261,242.139L-111.244,-152.141L-47.393,-152.141L-11.127,-52.5C-11.127,-52.5 134.041,-52.5 134.041,-52.5C134.041,-52.5 170.308,-152.141 170.308,-152.141L234.159,-152.141L90.653,242.139ZM42.765,227.139L80.149,227.139C80.149,227.139 212.737,-137.141 212.737,-137.141C212.737,-137.141 180.812,-137.141 180.812,-137.141C180.812,-137.141 144.545,-37.5 144.545,-37.5L-21.631,-37.5L-57.897,-137.141C-57.897,-137.141 -89.822,-137.141 -89.822,-137.141L42.765,227.139ZM61.458,190.782L-10.711,-7.5L133.626,-7.5L61.458,190.782ZM10.711,7.5L61.458,146.924C61.458,146.924 112.204,7.5 112.204,7.5L10.711,7.5Z"/>
                            </g>
                            <g id="g1300" transform="matrix(1,0,0,1,7.5,150.988)">
                                <path d="M6.054,-4.427L121.866,153.934C121.866,153.934 138.484,153.934 138.484,153.934C138.484,153.934 493.147,-58.406 493.147,-58.406L500.853,-45.536L142.632,168.934L114.252,168.934L-6.054,4.427L6.054,-4.427Z"/>
                            </g>
                            <g id="g1304" transform="matrix(1,0,0,1,89.9995,459.5)">
                                <path d="M0,7.5C-24.853,7.5 -45,-12.648 -45,-37.5C-45,-62.353 -24.853,-82.5 0,-82.5C24.853,-82.5 45,-62.353 45,-37.5C45,-12.648 24.853,7.5 0,7.5ZM0,-7.5C16.569,-7.5 30,-20.932 30,-37.5C30,-54.069 16.569,-67.5 0,-67.5C-16.569,-67.5 -30,-54.069 -30,-37.5C-30,-20.932 -16.569,-7.5 0,-7.5Z"/>
                            </g>
                            <g id="g1308" transform="matrix(1,0,0,1,255.222,248.262)">
                                <path d="M5.594,-4.996L130.694,135.07C130.694,135.07 147.762,135.07 147.762,135.07C147.762,135.07 245.425,76.598 245.425,76.598L253.131,89.468L151.91,150.07L123.98,150.07L-5.594,4.996L5.594,-4.996Z"/>
                            </g>
                        </g>
                    </g>
                </g>
            </g>
        </g>
    </g>
</svg>
