<?xml version="1.0" encoding="UTF-8" standalone="no"?>
<!DOCTYPE svg PUBLIC "-//W3C//DTD SVG 1.1//EN" "http://www.w3.org/Graphics/SVG/1.1/DTD/svg11.dtd">
<svg width="100%" height="100%" viewBox="0 0 21 21" version="1.1" xmlns="http://www.w3.org/2000/svg" xmlns:xlink="http://www.w3.org/1999/xlink" xml:space="preserve" xmlns:serif="http://www.serif.com/" style="fill-rule:evenodd;clip-rule:evenodd;stroke-linejoin:round;stroke-miterlimit:2;">
    <g transform="matrix(1,0,0,1,-5592.34,-3230.15)">
        <g id="Artboard1" transform="matrix(0.00835011,0,0,0.012768,5592.63,3230.15)">
            <rect x="-34.623" y="0" width="2514.94" height="1644.73" style="fill:none;"/>
            <g id="DESIGNED-BY-FREEPIK" serif:id="DESIGNED BY FREEPIK">
            </g>
            <g id="DESIGNED-BY-FREEPIK1" serif:id="DESIGNED BY FREEPIK">
            </g>
            <g id="DESIGNED-BY-FREEPIK2" serif:id="DESIGNED BY FREEPIK">
            </g>
            <g id="DESIGNED-BY-FREEPIK3" serif:id="DESIGNED BY FREEPIK">
            </g>
            <g id="Layer-1" serif:id="Layer 1">
            </g>
            <g id="DESIGNED-BY-FREEPIK4" serif:id="DESIGNED BY FREEPIK">
            </g>
            <g id="DESIGNED-BY-FREEPIK5" serif:id="DESIGNED BY FREEPIK">
            </g>
            <g transform="matrix(4.59415,0,0,5.52524,95.0588,132.622)">
                <g transform="matrix(1,0,0,0.543779,-10.5167,-20.0158)">
                    <path d="M491.243,152.216L20.757,152.216C16.961,152.216 13.838,149.093 13.838,145.297C13.838,144.296 14.055,143.307 14.474,142.398L55.988,52.452C57.117,50.006 59.576,48.432 62.27,48.432L449.73,48.432C452.424,48.432 454.883,50.006 456.012,52.452L497.526,142.398C497.945,143.307 498.162,144.296 498.162,145.297C498.162,149.093 495.039,152.216 491.243,152.216ZM31.571,138.378L480.429,138.378L445.302,62.27L66.698,62.27L31.571,138.378Z" style="fill-rule:nonzero;"/>
                </g>
                <g transform="matrix(1,0,0,0.543779,-10.5167,-20.0158)">
                    <path d="M54.362,235.243C32.141,235.217 13.864,216.94 13.838,194.719L13.838,145.297C13.838,141.502 16.961,138.378 20.757,138.378L87.967,138.378C91.763,138.378 94.886,141.502 94.886,145.297L94.886,194.719C94.86,216.94 76.583,235.217 54.362,235.243ZM27.676,152.216L27.676,194.719C27.676,209.359 39.722,221.405 54.362,221.405C69.002,221.405 81.048,209.359 81.048,194.719L81.048,152.216L27.676,152.216Z" style="fill-rule:nonzero;"/>
                </g>
                <g transform="matrix(1,0,0,0.543779,-10.5167,-20.0158)">
                    <path d="M121.572,235.243C99.351,235.217 81.075,216.94 81.048,194.719L81.048,145.297C81.048,141.502 84.172,138.378 87.967,138.378L155.178,138.378C158.973,138.378 162.096,141.502 162.096,145.297L162.096,194.719C162.07,216.94 143.793,235.217 121.572,235.243ZM94.886,152.216L94.886,194.719C94.886,209.359 106.933,221.405 121.572,221.405C136.212,221.405 148.259,209.359 148.259,194.719L148.259,152.216L94.886,152.216Z" style="fill-rule:nonzero;"/>
                </g>
                <g transform="matrix(1,0,0,0.543779,-10.5167,-20.0158)">
                    <path d="M188.79,235.243C166.569,235.217 148.292,216.94 148.266,194.719L148.266,145.297C148.266,141.502 151.389,138.378 155.184,138.378L222.395,138.378C226.19,138.378 229.314,141.502 229.314,145.297L229.314,194.719C229.287,216.94 211.01,235.217 188.79,235.243ZM162.103,152.216L162.103,194.719C162.103,209.359 174.15,221.405 188.79,221.405C203.429,221.405 215.476,209.359 215.476,194.719L215.476,152.216L162.103,152.216Z" style="fill-rule:nonzero;"/>
                </g>
                <g transform="matrix(1,0,0,0.543779,-10.5167,-20.0158)">
                    <path d="M256,235.243C233.779,235.217 215.502,216.94 215.476,194.719L215.476,145.297C215.476,141.502 218.599,138.378 222.395,138.378L289.605,138.378C293.401,138.378 296.524,141.502 296.524,145.297L296.524,194.719C296.498,216.94 278.221,235.217 256,235.243ZM229.314,152.216L229.314,194.719C229.314,209.359 241.36,221.405 256,221.405C270.64,221.405 282.686,209.359 282.686,194.719L282.686,152.216L229.314,152.216Z" style="fill-rule:nonzero;"/>
                </g>
                <g transform="matrix(1,0,0,0.543779,-10.5167,-20.0158)">
                    <path d="M323.21,235.243C300.99,235.217 282.713,216.94 282.686,194.719L282.686,145.297C282.686,141.502 285.81,138.378 289.605,138.378L356.816,138.378C360.611,138.378 363.734,141.502 363.734,145.297L363.734,194.719C363.708,216.94 345.431,235.217 323.21,235.243ZM296.524,152.216L296.524,194.719C296.524,209.359 308.571,221.405 323.21,221.405C337.85,221.405 349.897,209.359 349.897,194.719L349.897,152.216L296.524,152.216Z" style="fill-rule:nonzero;"/>
                </g>
                <g transform="matrix(1,0,0,0.543779,-10.5167,-20.0158)">
                    <path d="M390.428,235.243C368.207,235.217 349.93,216.94 349.904,194.719L349.904,145.297C349.904,141.502 353.027,138.378 356.822,138.378L424.033,138.378C427.828,138.378 430.952,141.502 430.952,145.297L430.952,194.719C430.925,216.94 412.649,235.217 390.428,235.243ZM363.734,152.216L363.734,194.719C363.734,209.359 375.781,221.405 390.421,221.405C405.06,221.405 417.107,209.359 417.107,194.719L417.107,152.216L363.734,152.216Z" style="fill-rule:nonzero;"/>
                </g>
                <g transform="matrix(1,0,0,0.543779,-10.5167,-20.0158)">
                    <path d="M457.638,235.243C435.417,235.217 417.14,216.94 417.114,194.719L417.114,145.297C417.114,141.502 420.237,138.378 424.033,138.378L491.243,138.378C495.039,138.378 498.162,141.502 498.162,145.297L498.162,194.719C498.136,216.94 479.859,235.217 457.638,235.243ZM430.952,152.216L430.952,194.719C430.952,209.359 442.998,221.405 457.638,221.405C472.278,221.405 484.324,209.359 484.324,194.719L484.324,152.216L430.952,152.216Z" style="fill-rule:nonzero;"/>
                </g>
                <g transform="matrix(1,0,0,0.543779,-10.5167,-20.0158)">
                    <path d="M470.486,484.324L40.891,484.324C37.095,484.324 33.972,481.201 33.972,477.405L33.972,221.405L47.81,221.405L47.81,470.486L463.568,470.486L463.568,221.405L477.405,221.405L477.405,477.405C477.405,481.201 474.282,484.324 470.486,484.324Z" style="fill-rule:nonzero;"/>
                </g>
                <g transform="matrix(1,0,0,0.543779,-10.5167,-20.0158)">
                    <path d="M415.135,484.324L297.514,484.324C293.718,484.324 290.595,481.201 290.595,477.405L290.595,283.676C290.595,279.88 293.718,276.757 297.514,276.757L415.135,276.757C418.931,276.757 422.054,279.88 422.054,283.676L422.054,477.405C422.054,481.201 418.931,484.324 415.135,484.324ZM304.432,470.486L408.216,470.486L408.216,290.595L304.432,290.595L304.432,470.486Z" style="fill-rule:nonzero;"/>
                </g>
                <g transform="matrix(1,0,0,0.543779,-10.5167,-20.0158)">
                    <path d="M256,425.514L83.027,425.514C79.231,425.514 76.108,422.39 76.108,418.595L76.108,280.216C76.108,276.421 79.231,273.297 83.027,273.297L256,273.297C259.796,273.297 262.919,276.421 262.919,280.216L262.919,418.595C262.919,422.39 259.796,425.514 256,425.514ZM89.946,411.676L249.081,411.676L249.081,287.135L89.946,287.135L89.946,411.676Z" style="fill-rule:nonzero;"/>
                </g>
            </g>
        </g>
    </g>
</svg>
