<?xml version="1.0" encoding="UTF-8" standalone="no"?>
<!DOCTYPE svg PUBLIC "-//W3C//DTD SVG 1.1//EN" "http://www.w3.org/Graphics/SVG/1.1/DTD/svg11.dtd">
<svg width="100%" height="100%" viewBox="0 0 21 21" version="1.1" xmlns="http://www.w3.org/2000/svg" xmlns:xlink="http://www.w3.org/1999/xlink" xml:space="preserve" xmlns:serif="http://www.serif.com/" style="fill-rule:evenodd;clip-rule:evenodd;stroke-linejoin:round;stroke-miterlimit:2;">
    <g transform="matrix(1,0,0,1,-5832.34,-3198.88)">
        <g id="Artboard1" transform="matrix(0.00835011,0,0,0.012768,5832.63,3198.88)">
            <rect x="-34.623" y="0" width="2514.94" height="1644.73" style="fill:none;"/>
            <g id="DESIGNED-BY-FREEPIK" serif:id="DESIGNED BY FREEPIK">
            </g>
            <g id="DESIGNED-BY-FREEPIK1" serif:id="DESIGNED BY FREEPIK">
            </g>
            <g id="DESIGNED-BY-FREEPIK2" serif:id="DESIGNED BY FREEPIK">
            </g>
            <g id="DESIGNED-BY-FREEPIK3" serif:id="DESIGNED BY FREEPIK">
            </g>
            <g id="Layer-1" serif:id="Layer 1">
            </g>
            <g id="DESIGNED-BY-FREEPIK4" serif:id="DESIGNED BY FREEPIK">
            </g>
            <g id="DESIGNED-BY-FREEPIK5" serif:id="DESIGNED BY FREEPIK">
            </g>
            <g>
                <g transform="matrix(126.677,0,0,82.8448,-408404,-55644.9)">
                    <path d="M3235.03,674.607L3227.05,674.607L3227.05,688.599L3235.03,688.599L3235.03,687.823L3227.83,687.823C3227.83,687.823 3227.83,675.382 3227.83,675.382L3235.03,675.382L3235.03,674.607Z"/>
                </g>
                <g transform="matrix(112.878,0,0,73.8209,-363796,-58069.2)">
                    <path d="M3237.26,796.42L3235.62,794.778L3237.08,793.335L3240.59,796.848L3240.59,796.849L3241.13,797.388L3240.59,797.955L3240.59,797.955L3240.59,797.956L3240.1,798.47L3240.08,798.47L3237.08,801.469L3235.62,800.025L3237.18,798.47L3231.74,798.47L3231.75,796.42L3237.26,796.42Z"/>
                </g>
            </g>
        </g>
    </g>
</svg>
