<?xml version="1.0" encoding="UTF-8" standalone="no"?>
<!DOCTYPE svg PUBLIC "-//W3C//DTD SVG 1.1//EN" "http://www.w3.org/Graphics/SVG/1.1/DTD/svg11.dtd">
<svg width="100%" height="100%" viewBox="0 0 97 97" version="1.1" xmlns="http://www.w3.org/2000/svg" xmlns:xlink="http://www.w3.org/1999/xlink" xml:space="preserve" xmlns:serif="http://www.serif.com/" style="fill-rule:evenodd;clip-rule:evenodd;stroke-linejoin:round;stroke-miterlimit:2;">
    <g id="Artboard1" transform="matrix(0.0276094,0,0,0.0195238,0,0)">
        <rect x="0" y="0" width="3507.87" height="4960.63" style="fill:none;"/>
        <g transform="matrix(3.49952,0,0,4.94881,3130.2,2285.16)">
            <path d="M0,56.511L-393.277,449.79L-786.556,56.509C-834.572,8.512 -861.015,-55.325 -861.015,-123.244C-861.015,-191.161 -834.572,-254.998 -786.553,-302.999C-737.828,-351.733 -673.008,-377.592 -606.899,-377.592C-574.533,-377.592 -541.851,-371.39 -510.61,-358.639C-467.76,-341.149 -431.049,-308.834 -407.241,-267.647C-404.358,-262.661 -399.037,-259.589 -393.277,-259.589C-387.518,-259.589 -382.195,-262.661 -379.313,-267.647C-355.496,-308.845 -318.779,-341.163 -275.928,-358.646C-245.329,-371.131 -212.972,-377.46 -179.754,-377.46C-111.836,-377.46 -47.998,-351.017 0.002,-302.997C48.022,-254.986 74.469,-191.148 74.469,-123.242C74.469,-55.338 48.022,8.5 0,56.511M22.814,-325.805C-31.279,-379.917 -103.219,-409.718 -179.754,-409.718C-217.17,-409.718 -253.629,-402.584 -288.113,-388.514C-329.796,-371.507 -366.406,-342.407 -393.277,-305.311C-420.14,-342.395 -456.743,-371.494 -498.421,-388.505C-605.524,-432.218 -727.579,-407.609 -809.362,-325.81C-863.472,-271.719 -893.273,-199.78 -893.273,-123.244C-893.273,-46.706 -863.472,25.233 -809.364,79.323L-404.682,484.006C-401.658,487.03 -397.555,488.729 -393.277,488.729C-388.999,488.729 -384.897,487.03 -381.871,484.006L22.81,79.323C76.924,25.219 106.727,-46.72 106.727,-123.242C106.727,-199.766 76.924,-271.705 22.814,-325.805" style="fill:white;fill-rule:nonzero;"/>
        </g>
    </g>
    <g id="Layer-1" serif:id="Layer 1">
    </g>
</svg>
