<?xml version="1.0" encoding="UTF-8" standalone="no"?>
<!DOCTYPE svg PUBLIC "-//W3C//DTD SVG 1.1//EN" "http://www.w3.org/Graphics/SVG/1.1/DTD/svg11.dtd">
<svg width="100%" height="100%" viewBox="0 0 97 97" version="1.1" xmlns="http://www.w3.org/2000/svg" xmlns:xlink="http://www.w3.org/1999/xlink" xml:space="preserve" xmlns:serif="http://www.serif.com/" style="fill-rule:evenodd;clip-rule:evenodd;stroke-linejoin:round;stroke-miterlimit:2;">
    <g transform="matrix(1,0,0,1,-269.638,0)">
        <g id="Artboard1" transform="matrix(0.0276094,0,0,0.0195238,269.638,0)">
            <rect x="0" y="0" width="3507.87" height="4960.63" style="fill:none;"/>
            <g transform="matrix(36.2195,0,0,51.2195,-11553,23378.7)">
                <g transform="matrix(0.22105,0,0,0.22105,404.841,-417.615)">
                    <path d="M-373.045,-119.432C-374.051,-119.432 -374.867,-120.248 -374.867,-121.254C-374.867,-124.932 -374.867,-133.208 -374.867,-136.886C-374.867,-137.37 -374.675,-137.833 -374.333,-138.175C-373.991,-138.516 -373.528,-138.708 -373.045,-138.708C-363.338,-138.708 -317.817,-138.708 -308.825,-138.708C-307.912,-138.708 -307.112,-138.098 -306.871,-137.218C-304.403,-128.238 -291.609,-81.668 -291.317,-80.577L-274.355,-80.577C-177.564,-80.577 -80.773,-80.563 16.018,-80.585C33.558,-80.589 38.609,-75.773 34.987,-61.821C33.037,-54.312 29.543,-41.303 26.986,-31.004C17.269,8.139 7.635,47.302 -2.06,86.45C-4.637,96.855 -9.534,100.663 -20.18,100.664C-97.911,100.67 -175.642,100.669 -253.374,100.665C-264.333,100.664 -269.102,96.941 -271.663,86.238C-287.616,19.569 -303.546,-47.105 -319.475,-113.78C-320.786,-119.27 -320.795,-119.422 -326.17,-119.426C-326.299,-119.426 -364.217,-119.431 -373.045,-119.432ZM-279.932,-61.3L14.922,-61.308C12.681,-52.762 10.406,-44.223 8.277,-35.649C8.277,-35.649 8.277,-35.649 8.277,-35.648C-1.406,3.357 -11.006,42.382 -20.666,81.387L-253.002,81.388L-287.478,-62.84C-285.146,-61.844 -282.589,-61.3 -279.932,-61.3Z" style="fill:white;"/>
                </g>
                <g transform="matrix(0.182729,0,0,0.182729,356.453,-379.204)">
                    <path d="M42.35,0.176L42.35,0.175C42.528,-34.205 14.79,-62.278 -19.801,-62.634C-54.46,-62.991 -82.82,-35.056 -82.992,-0.386C-83.164,34.363 -55.353,62.457 -20.621,62.624C14.066,62.79 42.168,34.934 42.35,0.176ZM19.03,0.054C19.142,-21.527 1.673,-39.091 -20.042,-39.316C-41.78,-39.539 -59.564,-22.016 -59.672,-0.269C-59.78,21.553 -42.32,39.2 -20.508,39.304C1.282,39.409 18.916,21.89 19.03,0.054Z" style="fill:white;"/>
                </g>
                <g transform="matrix(0.182832,0,0,0.182832,389.999,-379.205)">
                    <path d="M-42.284,-0.147C-42.284,-0.147 -42.284,-0.147 -42.284,-0.147C-42.384,34.552 -14.381,62.625 20.341,62.626C54.873,62.628 82.782,34.894 82.987,0.381C83.193,-34.338 55.408,-62.427 20.635,-62.628C20.634,-62.628 20.634,-62.628 20.634,-62.628C-14.047,-62.828 -42.185,-34.9 -42.284,-0.147ZM-18.978,-0.081L-18.978,-0.081C-19.04,21.702 -1.455,39.319 20.341,39.32C42.023,39.32 59.552,21.912 59.681,0.243C59.811,-21.566 42.343,-39.195 20.498,-39.322C-1.272,-39.447 -18.915,-21.896 -18.978,-0.081Z" style="fill:white;"/>
                </g>
            </g>
        </g>
        <g id="Layer-1" serif:id="Layer 1">
        </g>
    </g>
</svg>
