<?xml version="1.0" encoding="UTF-8" standalone="no"?>
<!DOCTYPE svg PUBLIC "-//W3C//DTD SVG 1.1//EN" "http://www.w3.org/Graphics/SVG/1.1/DTD/svg11.dtd">
<svg width="100%" height="100%" viewBox="0 0 97 97" version="1.1" xmlns="http://www.w3.org/2000/svg" xmlns:xlink="http://www.w3.org/1999/xlink" xml:space="preserve" xmlns:serif="http://www.serif.com/" style="fill-rule:evenodd;clip-rule:evenodd;stroke-linejoin:round;stroke-miterlimit:2;">
    <g transform="matrix(1,0,0,1,-134.278,0)">
        <g id="Artboard1" transform="matrix(0.0276094,0,0,0.0195238,134.278,0)">
            <rect x="0" y="0" width="3507.87" height="4960.63" style="fill:none;"/>
            <g transform="matrix(8.92115,0,0,12.6158,1613.92,4277.35)">
                <path d="M0,-286.248L31.433,-286.248C31.571,-295.796 24.581,-302.778 15.214,-302.579C6.264,-302.389 -0.517,-295.111 0,-286.248M-23.194,-14.5C-19.943,5.053 -0.898,18.792 20.008,17.025C36.756,15.609 54.129,-0.349 54.199,-14.5L-23.194,-14.5ZM15.594,-30.771L15.594,-30.893C31.838,-30.893 48.081,-30.907 64.324,-30.89C91.314,-30.862 118.304,-30.788 145.293,-30.792C152.209,-30.793 156.993,-34.072 158.92,-39.826C160.85,-45.589 158.982,-51.062 153.532,-55.286C149.188,-58.653 144.725,-61.864 140.404,-65.259C132.517,-71.454 127.597,-79.527 125.875,-89.403C123.538,-102.805 121.383,-116.238 119.16,-129.66C115.549,-151.455 112.507,-173.361 108.231,-195.024C97.654,-248.611 44.744,-280.651 -6.097,-267.958C-43.883,-258.525 -68.131,-234.451 -76.297,-196.581C-83.339,-163.922 -87.999,-130.722 -92.896,-97.64C-95.239,-81.816 -101.442,-69.167 -115.145,-60.512C-118.195,-58.585 -121.069,-56.315 -123.775,-53.923C-129.444,-48.912 -129.808,-40.651 -124.842,-35.145C-121.534,-31.477 -117.296,-30.732 -112.606,-30.738C-69.872,-30.795 -27.139,-30.771 15.594,-30.771M71.294,-14.648C70.764,-12.502 70.313,-10.584 69.818,-8.679C63.322,16.297 40.297,33.889 14.867,33.314C-11.52,32.717 -33.767,14.362 -39.06,-11.344C-39.595,-13.943 -40.552,-14.724 -43.205,-14.711C-66.696,-14.602 -90.188,-14.6 -113.68,-14.666C-128.895,-14.709 -140.638,-23.703 -143.566,-37.962C-145.989,-49.764 -142.221,-59.662 -132.825,-67.257C-129.039,-70.317 -125.138,-73.252 -121.135,-76.023C-114.325,-80.736 -110.9,-87.246 -109.595,-95.326C-104.223,-128.594 -99.205,-161.932 -93.046,-195.057C-85.234,-237.065 -60.462,-265.369 -20.61,-280.446C-17.39,-281.664 -16.327,-282.918 -16.271,-286.392C-15.987,-303.876 -4.084,-316.716 13.096,-318.527C28.369,-320.137 42.972,-309.595 46.698,-294.088C47.391,-291.204 47.647,-288.157 47.653,-285.184C47.658,-282.825 48.358,-281.75 50.662,-280.916C90.199,-266.609 115.062,-238.97 123.876,-197.878C128.504,-176.302 131.283,-154.33 134.899,-132.537C137.127,-119.116 139.332,-105.691 141.601,-92.277C142.601,-86.366 145.527,-81.525 150.249,-77.845C154.484,-74.544 158.833,-71.388 163.1,-68.128C174.02,-59.784 178.196,-47.223 174.164,-34.943C170.09,-22.532 159.109,-14.719 145.28,-14.671C122.164,-14.591 99.046,-14.648 75.93,-14.648L71.294,-14.648" style="fill:white;fill-rule:nonzero;"/>
            </g>
        </g>
        <g id="Layer-1" serif:id="Layer 1">
        </g>
    </g>
</svg>
