<?xml version="1.0" encoding="UTF-8" standalone="no"?>
<!DOCTYPE svg PUBLIC "-//W3C//DTD SVG 1.1//EN" "http://www.w3.org/Graphics/SVG/1.1/DTD/svg11.dtd">
<svg width="100%" height="100%" viewBox="0 0 21 21" version="1.1" xmlns="http://www.w3.org/2000/svg" xmlns:xlink="http://www.w3.org/1999/xlink" xml:space="preserve" xmlns:serif="http://www.serif.com/" style="fill-rule:evenodd;clip-rule:evenodd;stroke-linejoin:round;stroke-miterlimit:2;">
    <g transform="matrix(1,0,0,1,-5777.56,-3198.88)">
        <g id="Artboard1" transform="matrix(0.00835011,0,0,0.012768,5777.85,3198.88)">
            <rect x="-34.623" y="0" width="2514.94" height="1644.73" style="fill:none;"/>
            <g id="DESIGNED-BY-FREEPIK" serif:id="DESIGNED BY FREEPIK">
            </g>
            <g id="DESIGNED-BY-FREEPIK1" serif:id="DESIGNED BY FREEPIK">
            </g>
            <g id="DESIGNED-BY-FREEPIK2" serif:id="DESIGNED BY FREEPIK">
            </g>
            <g id="DESIGNED-BY-FREEPIK3" serif:id="DESIGNED BY FREEPIK">
            </g>
            <g id="Layer-1" serif:id="Layer 1">
            </g>
            <g id="DESIGNED-BY-FREEPIK4" serif:id="DESIGNED BY FREEPIK">
            </g>
            <g id="DESIGNED-BY-FREEPIK5" serif:id="DESIGNED BY FREEPIK">
            </g>
            <g transform="matrix(119.759,0,0,309.535,-196624,-16136.3)">
                <g transform="matrix(0.0628441,0,0,0.0159012,1658.69,54.875)">
                    <path d="M0,-5.518C0.016,-63.601 -47.255,-111.074 -105.222,-111.189C-163.919,-111.305 -211.4,-64.014 -211.47,-5.366C-211.54,52.778 -164.028,100.299 -105.841,100.283C-47.299,100.267 -0.017,53.002 0,-5.518M11.999,4.295C10.746,10.888 9.844,17.572 8.184,24.061C-4.078,71.97 -45.23,107.016 -94.463,111.668C-157.987,117.671 -214.658,72.292 -222.59,9.069C-230.507,-54.03 -186.139,-112.632 -123.52,-121.803C-120.832,-122.196 -118.163,-122.724 -115.485,-123.189L-95.988,-123.189C-95.165,-122.962 -94.355,-122.613 -93.518,-122.526C-44.355,-117.449 -3.745,-82.318 8.34,-34.215C9.91,-27.966 10.796,-21.544 11.999,-15.203L11.999,4.295Z" style="fill-rule:nonzero;"/>
                </g>
                <g transform="matrix(0.386871,0,0,0.0978888,141.578,34.1123)">
                    <path d="M3900.69,210.234C3902.22,209.553 3903.41,208.108 3903.41,206.021C3903.41,204.669 3902.92,203.498 3902.12,202.759C3901.12,201.807 3899.67,201.344 3897.45,201.344C3896.07,201.344 3894.57,201.492 3893.55,201.714C3893.46,201.733 3893.39,201.811 3893.39,201.902L3893.39,218.088C3893.39,218.194 3893.48,218.28 3893.59,218.28L3895.6,218.28C3895.7,218.28 3895.79,218.194 3895.79,218.088L3895.79,211.161C3895.79,211.161 3897.49,211.161 3897.49,211.161C3898.18,211.189 3898.72,211.329 3899.16,211.629C3899.81,212.086 3900.2,212.904 3900.46,214.201C3900.89,216.276 3901.24,217.683 3901.5,218.177C3901.53,218.24 3901.6,218.28 3901.67,218.28L3903.75,218.28C3903.82,218.28 3903.88,218.246 3903.91,218.191C3903.95,218.135 3903.95,218.065 3903.93,218.005C3903.63,217.377 3903.26,215.806 3902.76,213.536C3902.76,213.535 3902.76,213.535 3902.76,213.534C3902.39,211.92 3901.72,210.776 3900.69,210.234ZM3895.79,203.537C3896.16,203.455 3896.76,203.384 3897.59,203.384C3898.81,203.384 3899.79,203.688 3900.39,204.376C3900.78,204.829 3900.99,205.446 3900.99,206.24C3900.99,208.01 3899.69,209.17 3897.66,209.17C3897.66,209.17 3895.79,209.17 3895.79,209.17L3895.79,203.537Z" style="fill-rule:nonzero;"/>
                    <path d="M3908.23,207.763L3908.15,206.28C3908.14,206.178 3908.06,206.098 3907.96,206.098L3906.13,206.098C3906.08,206.098 3906.03,206.12 3905.99,206.159C3905.95,206.198 3905.93,206.25 3905.94,206.303C3906.01,207.421 3906.03,208.636 3906.03,210.143C3906.03,210.143 3906.03,222.915 3906.03,222.915C3906.03,223.022 3906.12,223.108 3906.22,223.108L3908.26,223.108C3908.36,223.108 3908.45,223.022 3908.45,222.915L3908.45,217.062C3909.2,218.006 3910.39,218.548 3911.76,218.548C3914.46,218.548 3917.04,216.403 3917.04,212.019C3917.04,208.307 3914.91,205.83 3912.08,205.83C3910.39,205.83 3909.09,206.523 3908.23,207.763ZM3908.35,216.61L3908.36,216.597L3908.35,216.589L3908.35,216.61ZM3908.45,211.24C3908.45,210.985 3908.52,210.684 3908.56,210.428C3908.93,208.889 3910.17,207.918 3911.48,207.918C3913.53,207.918 3914.6,209.866 3914.6,212.116C3914.6,214.695 3913.44,216.485 3911.39,216.485C3910.04,216.485 3908.86,215.519 3908.54,214.121C3908.54,214.12 3908.54,214.118 3908.54,214.117C3908.47,213.863 3908.45,213.563 3908.45,213.287L3908.45,211.24Z" style="fill-rule:nonzero;"/>
                </g>
            </g>
        </g>
    </g>
</svg>
