<?xml version="1.0" encoding="UTF-8" standalone="no"?>
<!DOCTYPE svg PUBLIC "-//W3C//DTD SVG 1.1//EN" "http://www.w3.org/Graphics/SVG/1.1/DTD/svg11.dtd">
<svg width="100%" height="100%" viewBox="0 0 97 97" version="1.1" xmlns="http://www.w3.org/2000/svg" xmlns:xlink="http://www.w3.org/1999/xlink" xml:space="preserve" xmlns:serif="http://www.serif.com/" style="fill-rule:evenodd;clip-rule:evenodd;stroke-linejoin:round;stroke-miterlimit:2;">
    <g transform="matrix(1,0,0,1,-404.999,0)">
        <g id="Artboard1" transform="matrix(0.0276094,0,0,0.0195238,404.999,0)">
            <rect x="0" y="0" width="3507.87" height="4960.63" style="fill:none;"/>
            <g transform="matrix(184.968,0,0,261.571,-644884,-6740.17)">
                <path d="M3493.78,35.803C3492.22,35.014 3491.15,33.398 3491.15,31.534C3491.15,28.893 3493.3,26.75 3495.94,26.75C3498.58,26.75 3500.72,28.893 3500.72,31.534C3500.72,33.398 3499.65,35.014 3498.09,35.803C3501.59,36.752 3504.17,39.953 3504.17,43.751L3503.37,43.751C3503.37,39.668 3500.07,36.35 3496,36.317C3495.98,36.317 3495.96,36.318 3495.94,36.318C3495.92,36.318 3495.9,36.317 3495.88,36.317C3491.8,36.35 3488.5,39.668 3488.5,43.751L3487.7,43.751C3487.7,39.953 3490.28,36.752 3493.78,35.803ZM3495.99,35.517C3498.17,35.486 3499.92,33.713 3499.92,31.534C3499.92,29.335 3498.14,27.55 3495.94,27.55C3493.74,27.55 3491.95,29.335 3491.95,31.534C3491.95,33.713 3493.71,35.486 3495.88,35.517C3495.9,35.517 3495.92,35.517 3495.94,35.517C3495.95,35.517 3495.97,35.517 3495.99,35.517Z" style="fill:white;"/>
            </g>
        </g>
        <g id="Layer-1" serif:id="Layer 1">
        </g>
    </g>
</svg>
