<?xml version="1.0" encoding="UTF-8" standalone="no"?>
<!DOCTYPE svg PUBLIC "-//W3C//DTD SVG 1.1//EN" "http://www.w3.org/Graphics/SVG/1.1/DTD/svg11.dtd">
<svg width="100%" height="100%" viewBox="0 0 21 21" version="1.1" xmlns="http://www.w3.org/2000/svg" xmlns:xlink="http://www.w3.org/1999/xlink" xml:space="preserve" xmlns:serif="http://www.serif.com/" style="fill-rule:evenodd;clip-rule:evenodd;stroke-linejoin:round;stroke-miterlimit:2;">
    <g transform="matrix(1,0,0,1,-5618.39,-3230.15)">
        <g id="Artboard1" transform="matrix(0.00835011,0,0,0.012768,5618.68,3230.15)">
            <rect x="-34.623" y="0" width="2514.94" height="1644.73" style="fill:none;"/>
            <g id="DESIGNED-BY-FREEPIK" serif:id="DESIGNED BY FREEPIK">
            </g>
            <g id="DESIGNED-BY-FREEPIK1" serif:id="DESIGNED BY FREEPIK">
            </g>
            <g id="DESIGNED-BY-FREEPIK2" serif:id="DESIGNED BY FREEPIK">
            </g>
            <g id="DESIGNED-BY-FREEPIK3" serif:id="DESIGNED BY FREEPIK">
            </g>
            <g id="Layer-1" serif:id="Layer 1">
            </g>
            <g id="DESIGNED-BY-FREEPIK4" serif:id="DESIGNED BY FREEPIK">
            </g>
            <g id="DESIGNED-BY-FREEPIK5" serif:id="DESIGNED BY FREEPIK">
            </g>
            <g transform="matrix(5.12057,0,0,6.15835,1060.34,302.607)">
                <g transform="matrix(1,0,0,0.543779,-224.263,-54.8082)">
                    <path d="M325.41,237.87C313.248,237.883 302.208,230.566 297.48,219.36C297.063,218.374 296.849,217.315 296.849,216.245C296.849,211.856 300.461,208.244 304.85,208.244C308.059,208.244 310.971,210.174 312.22,213.13C314.455,218.423 319.667,221.88 325.412,221.88C333.268,221.88 339.732,215.416 339.732,207.56C339.732,199.704 333.268,193.24 325.412,193.24L325.393,193.24C308.766,193.24 295.083,179.558 295.083,162.93C295.083,146.302 308.766,132.62 325.393,132.62C336.782,132.62 347.247,139.039 352.41,149.19C352.982,150.314 353.281,151.558 353.281,152.82C353.281,157.209 349.669,160.821 345.28,160.821C342.275,160.821 339.513,159.128 338.15,156.45C335.714,151.654 330.771,148.62 325.391,148.62C317.541,148.62 311.081,155.08 311.081,162.93C311.081,170.78 317.54,177.239 325.39,177.24C341.812,177.538 355.159,191.13 355.159,207.555C355.159,223.98 341.812,237.572 325.39,237.87L325.41,237.87Z" style="fill-rule:nonzero;"/>
                </g>
                <g transform="matrix(1,0,0,0.543779,-224.263,-54.8082)">
                    <path d="M325.41,148.62C321.021,148.62 317.41,145.009 317.41,140.62L317.41,124C317.41,119.611 321.021,116 325.41,116C329.799,116 333.41,119.611 333.41,124L333.41,140.62C333.41,145.009 329.799,148.62 325.41,148.62Z" style="fill-rule:nonzero;"/>
                </g>
                <g transform="matrix(1,0,0,0.543779,-224.263,-54.8082)">
                    <path d="M325.41,254.49C321.021,254.49 317.41,250.879 317.41,246.49L317.41,229.87C317.41,225.481 321.021,221.87 325.41,221.87C329.799,221.87 333.41,225.481 333.41,229.87L333.41,246.49C333.41,250.879 329.799,254.49 325.41,254.49Z" style="fill-rule:nonzero;"/>
                </g>
                <g transform="matrix(1,0,0,0.543779,-224.263,-54.8082)">
                    <path d="M325.41,284.58C270.94,284.52 226.136,239.72 226.07,185.25C226.07,182.64 226.17,180.03 226.37,177.48C226.751,173.388 230.226,170.222 234.336,170.222C238.724,170.222 242.336,173.833 242.336,178.222C242.336,178.388 242.33,178.554 242.32,178.72C242.15,180.86 242.07,183.06 242.07,185.25C242.134,230.925 279.735,268.474 325.41,268.474C371.129,268.474 408.75,230.853 408.75,185.134C408.75,181.582 408.523,178.033 408.07,174.51C407.617,170.987 408.07,174.44 408.07,174.4C407.158,167.445 405.367,160.634 402.74,154.13C402.74,154.04 402.66,153.96 402.63,153.88C389.912,122.524 359.294,101.902 325.457,101.902C299.529,101.902 275.035,114.01 259.29,134.61C257.783,136.654 255.39,137.863 252.851,137.863C248.462,137.863 244.851,134.252 244.851,129.863C244.851,128.049 245.468,126.287 246.6,124.87C265.371,100.329 294.561,85.906 325.458,85.906C365.683,85.906 402.103,110.352 417.34,147.58C417.383,147.664 417.42,147.751 417.45,147.84C420.669,155.729 422.854,164.001 423.95,172.45L423.95,172.6C424.48,176.796 424.748,181.021 424.75,185.25C424.684,239.72 379.88,284.52 325.41,284.58Z" style="fill-rule:nonzero;"/>
                </g>
                <g transform="matrix(1,0,0,0.543779,-224.263,-54.8082)">
                    <path d="M93.43,107.89C93.362,107.892 93.293,107.893 93.225,107.893C88.835,107.893 85.222,104.28 85.222,99.89C85.222,95.577 88.709,92 93.02,91.89C106.49,91.19 123.45,89.47 127.35,87.89C158,75.78 234.21,50.52 278.89,78.2C279.45,78.52 282.82,80.33 302.82,90.65C305.475,92.022 307.149,94.772 307.149,97.76C307.149,102.151 303.536,105.764 299.145,105.764C297.866,105.764 296.606,105.457 295.47,104.87C272,92.74 271,92.15 270.56,91.86C231,67.24 155.45,94 133.25,102.81C124.9,106.12 98.96,107.62 93.85,107.88L93.43,107.89Z" style="fill-rule:nonzero;"/>
                </g>
                <g transform="matrix(1,0,0,0.543779,-224.263,-54.8082)">
                    <path d="M109.76,206.92L93.43,206.92C89.041,206.92 85.43,203.309 85.43,198.92C85.43,194.531 89.041,190.92 93.43,190.92L109.76,190.92C124.348,190.857 138.732,187.464 151.81,181C165.81,174.12 206.49,170.55 212,170.46L260.43,169.61C268.572,169.487 275.203,162.755 275.203,154.612C275.203,154.514 275.202,154.417 275.2,154.32L275.2,152.32C275.077,144.178 268.345,137.547 260.202,137.547C260.104,137.547 260.007,137.548 259.91,137.55L197.49,138.64L197.35,138.64C197.327,138.64 197.303,138.64 197.28,138.64C192.891,138.64 189.28,135.029 189.28,130.64C189.28,126.278 192.848,122.678 197.21,122.64L259.63,121.55L260.18,121.55C276.981,121.585 290.866,135.242 291.18,152.04L291.18,154.04C291.462,171.054 277.713,185.295 260.7,185.61L212.27,186.45C204.61,186.59 168.51,190.61 158.86,195.36C143.586,202.896 126.792,206.85 109.76,206.92Z" style="fill-rule:nonzero;"/>
                </g>
                <g transform="matrix(1,0,0,0.543779,-224.263,-54.8082)">
                    <path d="M93.43,238.35L31,238.35C26.611,238.35 23,234.739 23,230.35L23,68.46C23,64.071 26.611,60.46 31,60.46L93.43,60.46C97.819,60.46 101.43,64.071 101.43,68.46L101.43,230.35C101.43,234.739 97.819,238.35 93.43,238.35ZM39,222.35L85.43,222.35L85.43,76.46L39,76.46L39,222.35Z" style="fill-rule:nonzero;"/>
                </g>
                <g transform="matrix(1,0,0,0.543779,-224.263,-54.8082)">
                    <path d="M62.22,212.6C57.831,212.6 54.22,208.989 54.22,204.6L54.22,168.08C54.22,163.691 57.831,160.08 62.22,160.08C66.609,160.08 70.22,163.691 70.22,168.08L70.22,204.6C70.22,208.989 66.609,212.6 62.22,212.6Z" style="fill-rule:nonzero;"/>
                </g>
                <g transform="matrix(1,0,0,0.543779,-224.263,-54.8082)">
                    <path d="M284.68,446.28C265.89,446.28 247.78,442.9 233.08,433.77C229.03,431.44 160.16,396.08 114.73,372.82C104.317,367.267 97.788,356.386 97.788,344.584C97.788,327.03 112.234,312.584 129.788,312.584C134.647,312.584 139.443,313.691 143.81,315.82L234.67,362.11C237.348,363.473 239.041,366.235 239.041,369.24C239.041,373.629 235.429,377.241 231.04,377.241C229.778,377.241 228.534,376.942 227.41,376.37L136.55,330C134.297,328.852 131.804,328.254 129.275,328.254C120.481,328.254 113.244,335.491 113.244,344.285C113.244,350.305 116.635,355.838 122,358.57C141.34,368.47 237.92,417.94 241.47,420.15C281.03,444.76 356.55,417.98 378.76,409.15C387.1,405.84 413.04,404.35 418.15,404.08C418.288,404.073 418.427,404.069 418.565,404.069C422.96,404.069 426.576,407.685 426.576,412.08C426.576,416.318 423.212,419.86 418.98,420.08C405.51,420.78 388.55,422.5 384.65,424.08C364.05,432.22 323,446.28 284.68,446.28Z" style="fill-rule:nonzero;"/>
                </g>
                <g transform="matrix(1,0,0,0.543779,-224.263,-54.8082)">
                    <path d="M251.86,390.39C235.059,390.355 221.174,376.698 220.86,359.9L220.86,357.9C220.578,340.886 234.327,326.645 251.34,326.33L299.77,325.49C307.43,325.35 343.53,321.33 353.18,316.58C368.46,309.052 385.257,305.109 402.29,305.05L418.62,305.05C423.009,305.05 426.62,308.661 426.62,313.05C426.62,317.439 423.009,321.05 418.62,321.05L402.24,321.05C387.649,321.122 373.266,324.525 360.19,331C346.19,337.88 305.51,341.45 300,341.54L251.57,342.39C243.428,342.513 236.797,349.245 236.797,357.388C236.797,357.486 236.798,357.583 236.8,357.68L236.8,359.68C236.963,367.917 243.852,374.572 252.09,374.45L314.51,373.36C314.557,373.359 314.603,373.359 314.65,373.359C319.039,373.359 322.651,376.971 322.651,381.36C322.651,385.696 319.126,389.284 314.79,389.36L252.37,390.45L251.86,390.39Z" style="fill-rule:nonzero;"/>
                </g>
                <g transform="matrix(1,0,0,0.543779,-224.263,-54.8082)">
                    <path d="M481,451.54L418.57,451.54C414.181,451.54 410.57,447.929 410.57,443.54L410.57,281.65C410.57,277.261 414.181,273.65 418.57,273.65L481,273.65C485.389,273.65 489,277.261 489,281.65L489,443.54C489,447.929 485.389,451.54 481,451.54ZM426.57,435.54L473,435.54L473,289.65L426.57,289.65L426.57,435.54Z" style="fill-rule:nonzero;"/>
                </g>
                <g transform="matrix(1,0,0,0.543779,-224.263,-54.8082)">
                    <path d="M449.78,351.92C445.391,351.92 441.78,348.309 441.78,343.92L441.78,307.4C441.78,303.011 445.391,299.4 449.78,299.4C454.169,299.4 457.78,303.011 457.78,307.4L457.78,343.92C457.78,348.309 454.169,351.92 449.78,351.92Z" style="fill-rule:nonzero;"/>
                </g>
            </g>
        </g>
    </g>
</svg>
