<?xml version="1.0" encoding="UTF-8" standalone="no"?>
<!DOCTYPE svg PUBLIC "-//W3C//DTD SVG 1.1//EN" "http://www.w3.org/Graphics/SVG/1.1/DTD/svg11.dtd">
<svg width="100%" height="100%" viewBox="0 0 21 21" version="1.1" xmlns="http://www.w3.org/2000/svg" xmlns:xlink="http://www.w3.org/1999/xlink" xml:space="preserve" xmlns:serif="http://www.serif.com/" style="fill-rule:evenodd;clip-rule:evenodd;stroke-linejoin:round;stroke-miterlimit:2;">
    <g transform="matrix(1,0,0,1,-5804.2,-3198.88)">
        <g id="Artboard1" transform="matrix(0.00835011,0,0,0.012768,5804.49,3198.88)">
            <rect x="-34.623" y="0" width="2514.94" height="1644.73" style="fill:none;"/>
            <g id="DESIGNED-BY-FREEPIK" serif:id="DESIGNED BY FREEPIK">
            </g>
            <g id="DESIGNED-BY-FREEPIK1" serif:id="DESIGNED BY FREEPIK">
            </g>
            <g id="DESIGNED-BY-FREEPIK2" serif:id="DESIGNED BY FREEPIK">
            </g>
            <g id="DESIGNED-BY-FREEPIK3" serif:id="DESIGNED BY FREEPIK">
            </g>
            <g id="Layer-1" serif:id="Layer 1">
            </g>
            <g id="DESIGNED-BY-FREEPIK4" serif:id="DESIGNED BY FREEPIK">
            </g>
            <g id="DESIGNED-BY-FREEPIK5" serif:id="DESIGNED BY FREEPIK">
            </g>
            <g transform="matrix(3.74247,0,0,2.44752,-12871.7,1618.07)">
                <g id="upload--1-.svg" serif:id="upload (1).svg" transform="matrix(1,0,0,1,3766.11,-325.104)">
                    <g transform="matrix(1,0,0,1,-256,-256)">
                        <clipPath id="_clip1">
                            <rect x="0" y="0" width="512" height="512"/>
                        </clipPath>
                        <g clip-path="url(#_clip1)">
                            <path d="M512,104.471L512,321.471C511.95,365.339 475.868,401.421 432,401.471L345.5,401.471C336.723,401.471 329.5,394.248 329.5,385.471C329.5,376.694 336.723,369.471 345.5,369.471L432,369.471C458.321,369.441 479.97,347.792 480,321.471L480,104.471C479.97,78.15 458.321,56.501 432,56.471L80,56.471C53.679,56.501 32.03,78.15 32,104.471L32,321.471C32.03,347.792 53.679,369.441 80,369.471L172.546,369.471C181.323,369.471 188.546,376.694 188.546,385.471C188.546,394.248 181.323,401.471 172.546,401.471L80,401.471C36.132,401.421 0.05,365.339 0,321.471L-0,104.471C0.049,60.603 36.132,24.52 80,24.471L432,24.471C475.868,24.52 511.951,60.603 512,104.471ZM344.907,284.4C351.529,278.64 352.239,268.451 346.479,261.828L268.072,171.686C265.035,168.194 260.628,166.187 256,166.187C251.372,166.187 246.965,168.194 243.928,171.686L165.521,261.83C163.017,264.734 161.639,268.444 161.639,272.278C161.639,281.055 168.861,288.278 177.639,288.278C182.243,288.278 186.63,286.291 189.666,282.83L240,224.963L240,471.529C240,480.306 247.223,487.529 256,487.529C264.777,487.529 272,480.306 272,471.529L272,224.963L322.334,282.83C325.371,286.322 329.779,288.33 334.406,288.33C338.265,288.33 341.996,286.934 344.907,284.402L344.907,284.4Z" style="fill-rule:nonzero;"/>
                        </g>
                    </g>
                    <g>
                    </g>
                </g>
            </g>
        </g>
    </g>
</svg>
