<svg width="14" height="18" viewBox="0 0 14 18" fill="none" xmlns="http://www.w3.org/2000/svg">
<path fill-rule="evenodd" clip-rule="evenodd" d="M9.96785 4.62333C9.96785 4.95621 9.69769 5.22637 9.3648 5.22637C9.03192 5.22637 8.76176 4.95621 8.76176 4.62333V3.41723C8.76176 2.19588 7.77193 1.20609 6.55058 1.20609C5.32922 1.20609 4.33939 2.19588 4.33939 3.41723V4.62333C4.33939 4.95621 4.06923 5.22637 3.73635 5.22637C3.40347 5.22637 3.1333 4.95621 3.1333 4.62333V3.41723C3.1333 1.53012 4.66346 0 6.55058 0C8.4377 0 9.96785 1.53012 9.96785 3.41723V4.62333Z" fill="white"/>
<path fill-rule="evenodd" clip-rule="evenodd" d="M12.454 5.70879L13.0973 15.3575C13.1303 15.8577 12.955 16.3481 12.6132 16.714C12.2707 17.0798 11.7923 17.2873 11.2922 17.2873H1.80904C1.30893 17.2873 0.830526 17.0798 0.487995 16.714C0.146256 16.3481 -0.0290416 15.8577 0.0039375 15.3575L0.647199 5.70879C0.710708 4.75839 1.50028 4.02026 2.45231 4.02026H10.6489C11.6009 4.02026 12.3905 4.75839 12.454 5.70879ZM8.54952 7.58065C8.1941 8.32763 7.43268 8.84463 6.55061 8.84463C5.66854 8.84463 4.90712 8.32763 4.5517 7.58065C4.40938 7.27995 4.04917 7.15211 3.74844 7.29522C3.44775 7.43754 3.3199 7.79774 3.46222 8.09847C4.01058 9.25312 5.18772 10.0507 6.55061 10.0507C7.91349 10.0507 9.09064 9.25312 9.639 8.09847C9.78132 7.79774 9.65347 7.43754 9.35278 7.29522C9.05204 7.15211 8.69184 7.27995 8.54952 7.58065Z" fill="white"/>
</svg>
