<?xml version="1.0" encoding="UTF-8" standalone="no"?>
<!DOCTYPE svg PUBLIC "-//W3C//DTD SVG 1.1//EN" "http://www.w3.org/Graphics/SVG/1.1/DTD/svg11.dtd">
<svg width="100%" height="100%" viewBox="0 0 21 21" version="1.1" xmlns="http://www.w3.org/2000/svg" xmlns:xlink="http://www.w3.org/1999/xlink" xml:space="preserve" xmlns:serif="http://www.serif.com/" style="fill-rule:evenodd;clip-rule:evenodd;stroke-linejoin:round;stroke-miterlimit:2;">
    <g transform="matrix(1,0,0,1,-5722.19,-3198.88)">
        <g id="Artboard1" transform="matrix(0.00835011,0,0,0.012768,5722.47,3198.88)">
            <rect x="-34.623" y="0" width="2514.94" height="1644.73" style="fill:none;"/>
            <g id="DESIGNED-BY-FREEPIK" serif:id="DESIGNED BY FREEPIK">
            </g>
            <g id="DESIGNED-BY-FREEPIK1" serif:id="DESIGNED BY FREEPIK">
            </g>
            <g id="DESIGNED-BY-FREEPIK2" serif:id="DESIGNED BY FREEPIK">
            </g>
            <g id="DESIGNED-BY-FREEPIK3" serif:id="DESIGNED BY FREEPIK">
            </g>
            <g id="Layer-1" serif:id="Layer 1">
            </g>
            <g id="DESIGNED-BY-FREEPIK4" serif:id="DESIGNED BY FREEPIK">
            </g>
            <g id="DESIGNED-BY-FREEPIK5" serif:id="DESIGNED BY FREEPIK">
            </g>
            <g transform="matrix(4.63132,0,0,3.02882,333.743,240.906)">
                <g id="Layer-11" serif:id="Layer 1">
                    <g transform="matrix(1,0,0,1,191.962,15.9363)">
                        <path d="M0,352.08C5.249,352.08 10.499,352.099 15.748,352.075C22.558,352.044 25.276,349.654 26.128,342.922C27.461,332.392 28.815,321.864 30.049,311.322C30.571,306.867 32.757,304.274 37.061,302.657C45.917,299.331 54.677,295.704 63.279,291.771C67.595,289.798 71.026,290.115 74.671,293.026C82.871,299.575 91.209,305.951 99.499,312.387C105.093,316.729 108.266,316.566 113.189,311.658C120.624,304.246 128.046,296.821 135.46,289.388C140.545,284.289 140.731,281.213 136.242,275.408C129.746,267.007 123.252,258.603 116.667,250.272C113.945,246.827 113.846,243.513 115.652,239.51C119.542,230.884 123.251,222.157 126.551,213.292C128.21,208.835 130.843,206.595 135.457,206.064C146.125,204.837 156.78,203.489 167.428,202.096C173.453,201.307 176.008,198.398 176.038,192.359C176.091,181.486 176.09,170.612 176.039,159.739C176.01,153.641 173.559,150.825 167.45,150.015C156.804,148.604 146.149,147.258 135.481,146.027C130.869,145.495 128.219,143.265 126.567,138.807C123.322,130.054 119.729,121.41 115.833,112.925C113.871,108.651 113.952,105.215 116.901,101.526C123.453,93.329 129.833,84.993 136.255,76.691C140.774,70.849 140.6,67.841 135.496,62.727C128.081,55.295 120.66,47.869 113.224,40.458C108.285,35.536 105.155,35.368 99.54,39.721C91.147,46.228 82.733,52.709 74.407,59.3C70.851,62.115 67.463,62.228 63.319,60.323C54.948,56.476 46.467,52.798 37.799,49.699C32.868,47.935 30.515,45.155 29.967,40.054C28.834,29.502 27.443,18.975 26.033,8.455C25.23,2.457 22.326,0.034 16.166,0.011C5.417,-0.029 -5.331,-0.028 -16.08,0.01C-22.429,0.033 -25.22,2.458 -26.045,8.765C-27.422,19.289 -28.79,29.817 -29.972,40.365C-30.507,45.138 -32.761,47.867 -37.37,49.555C-46.018,52.721 -54.569,56.225 -62.915,60.114C-67.327,62.17 -70.828,62.118 -74.636,59.074C-83.029,52.367 -91.559,45.83 -100.077,39.281C-105.096,35.422 -108.389,35.669 -112.882,40.147C-120.496,47.734 -128.089,55.342 -135.67,62.961C-140.434,67.749 -140.63,70.975 -136.463,76.36C-129.963,84.759 -123.493,93.182 -116.876,101.488C-113.95,105.161 -113.805,108.621 -115.777,112.9C-119.632,121.265 -123.263,129.764 -126.395,138.422C-128.119,143.19 -130.839,145.532 -135.78,146.076C-146.205,147.222 -156.604,148.609 -167.008,149.938C-173.508,150.768 -175.997,153.559 -176.017,160.071C-176.051,170.694 -176.049,181.318 -176.018,191.941C-175.999,198.504 -173.569,201.287 -167.074,202.124C-156.547,203.481 -146.019,204.834 -135.475,206.045C-130.867,206.574 -128.191,208.779 -126.546,213.247C-123.364,221.892 -119.9,230.461 -115.991,238.799C-113.859,243.346 -113.928,246.924 -117.08,250.846C-123.809,259.221 -130.341,267.756 -136.892,276.273C-140.592,281.082 -140.323,284.453 -136.005,288.79C-128.422,296.408 -120.819,304.005 -113.205,311.591C-108.282,316.497 -105.104,316.692 -99.513,312.371C-91.012,305.8 -82.532,299.202 -74.078,292.571C-70.761,289.969 -67.474,289.87 -63.618,291.595C-55.094,295.41 -46.531,299.198 -37.756,302.364C-32.666,304.2 -30.424,307.169 -29.888,312.406C-28.82,322.838 -27.398,333.236 -25.992,343.631C-25.18,349.634 -22.283,352.022 -16.123,352.071C-10.749,352.113 -5.374,352.079 0,352.08M-21.734,-15.936L21.761,-15.936C22.211,-15.729 22.641,-15.448 23.113,-15.326C33.832,-12.546 40.026,-5.565 41.686,5.256C43.029,14.016 44.047,22.831 44.983,31.645C45.261,34.252 46.261,35.506 48.733,36.398C54.122,38.344 59.468,40.483 64.626,42.968C66.964,44.094 68.377,43.752 70.243,42.258C76.971,36.871 83.806,31.616 90.632,26.352C101.492,17.976 114.026,18.725 123.804,28.393C131.802,36.3 139.748,44.262 147.662,52.253C157.328,62.013 158.09,74.43 149.692,85.42C144.306,92.467 138.753,99.389 133.46,106.504C132.709,107.514 132.465,109.508 132.913,110.697C135.111,116.526 137.5,122.294 140.117,127.947C140.706,129.219 142.371,130.6 143.717,130.811C150.498,131.875 157.339,132.547 164.154,133.396C171.229,134.278 178.307,135.032 183.972,140.207C188.206,144.076 190.379,148.994 191.99,154.292L191.99,197.787C191.759,198.356 191.469,198.909 191.305,199.497C188.286,210.321 181.036,216.316 170.063,217.856C161.532,219.054 152.978,220.114 144.411,221.015C141.816,221.288 140.527,222.261 139.636,224.748C137.746,230.025 135.623,235.237 133.24,240.309C132.145,242.64 132.113,244.198 133.793,246.271C139.299,253.062 144.636,259.994 149.924,266.957C158.01,277.603 157.243,290.073 147.908,299.55C139.928,307.651 131.882,315.689 123.791,323.679C113.981,333.366 101.548,334.098 90.633,325.694C83.705,320.359 76.79,315.006 69.938,309.574C68.301,308.276 67.012,307.96 64.946,308.922C59.527,311.446 53.975,313.71 48.379,315.821C46.37,316.579 45.327,317.52 45.094,319.704C44.377,326.408 43.546,333.1 42.661,339.784C41.828,346.074 41.43,352.458 37.479,357.925C33.525,363.396 28.004,366.217 21.761,368.016L-21.734,368.016C-22.182,367.807 -22.611,367.525 -23.082,367.401C-33.771,364.594 -40.013,357.66 -41.663,346.821C-42.997,338.06 -44.017,329.246 -44.959,320.432C-45.237,317.836 -46.223,316.54 -48.699,315.648C-53.972,313.749 -59.189,311.639 -64.261,309.258C-66.596,308.162 -68.154,308.15 -70.222,309.823C-77.116,315.401 -84.121,320.848 -91.215,326.171C-101.702,334.041 -114.18,333.149 -123.511,323.934C-131.602,315.942 -139.636,307.893 -147.635,299.811C-157.314,290.031 -158.05,277.674 -149.624,266.663C-144.386,259.817 -139.123,252.988 -133.732,246.263C-132.218,244.376 -131.943,242.947 -133.049,240.634C-135.518,235.467 -137.684,230.134 -139.612,224.74C-140.513,222.216 -141.867,221.309 -144.419,221.036C-152.983,220.12 -161.525,218.992 -170.071,217.908C-176.234,217.127 -181.919,214.91 -185.658,209.9C-188.345,206.299 -189.901,201.855 -191.962,197.787L-191.962,153.542C-191.72,153.139 -191.378,152.765 -191.249,152.328C-188.084,141.572 -180.797,135.654 -169.817,134.185C-161.283,133.044 -152.74,131.958 -144.18,131.046C-141.718,130.783 -140.536,129.8 -139.686,127.484C-137.714,122.107 -135.57,116.775 -133.132,111.595C-132.081,109.363 -132.065,107.918 -133.648,105.957C-139.059,99.255 -144.295,92.412 -149.534,85.574C-158.082,74.418 -157.337,62.061 -147.51,52.151C-139.684,44.259 -131.819,36.405 -123.932,28.574C-113.987,18.701 -101.675,17.899 -90.524,26.425C-83.582,31.733 -76.694,37.112 -69.839,42.532C-68.348,43.71 -67.157,44.193 -65.19,43.298C-59.524,40.72 -53.671,38.555 -48.004,35.979C-46.799,35.431 -45.433,33.928 -45.236,32.691C-44.197,26.163 -43.562,19.573 -42.686,13.019C-41.831,6.618 -41.626,0.056 -37.657,-5.546C-33.694,-11.138 -28.172,-14.206 -21.734,-15.936" style="fill-rule:nonzero;"/>
                    </g>
                    <g transform="matrix(1,0,0,1,255.886,192.099)">
                        <path d="M0,-0.151C-0.017,-35.518 -28.476,-64 -63.841,-64.042C-99.198,-64.085 -127.732,-35.656 -127.824,-0.293C-127.917,35.203 -99.281,63.867 -63.797,63.796C-28.444,63.725 0.017,35.198 0,-0.151M-61.587,79.859C-104.804,81.8 -141.941,46.841 -143.886,2.386C-145.791,-41.132 -110.894,-78.206 -66.239,-80.107C-22.901,-81.951 14.016,-47.201 16.056,-2.64C18.045,40.794 -16.828,77.848 -61.587,79.859" style="fill-rule:nonzero;"/>
                    </g>
                </g>
            </g>
        </g>
    </g>
</svg>
