<?xml version="1.0" encoding="UTF-8" standalone="no"?>
<!DOCTYPE svg PUBLIC "-//W3C//DTD SVG 1.1//EN" "http://www.w3.org/Graphics/SVG/1.1/DTD/svg11.dtd">
<svg width="100%" height="100%" viewBox="0 0 21 21" version="1.1" xmlns="http://www.w3.org/2000/svg" xmlns:xlink="http://www.w3.org/1999/xlink" xml:space="preserve" xmlns:serif="http://www.serif.com/" style="fill-rule:evenodd;clip-rule:evenodd;stroke-linejoin:round;stroke-miterlimit:2;">
    <g transform="matrix(1,0,0,1,-5643.83,-3230.15)">
        <g id="Artboard1" transform="matrix(0.00835011,0,0,0.012768,5644.12,3230.15)">
            <rect x="-34.623" y="0" width="2514.94" height="1644.73" style="fill:none;"/>
            <g id="DESIGNED-BY-FREEPIK" serif:id="DESIGNED BY FREEPIK">
            </g>
            <g id="DESIGNED-BY-FREEPIK1" serif:id="DESIGNED BY FREEPIK">
            </g>
            <g id="DESIGNED-BY-FREEPIK2" serif:id="DESIGNED BY FREEPIK">
            </g>
            <g id="DESIGNED-BY-FREEPIK3" serif:id="DESIGNED BY FREEPIK">
            </g>
            <g id="Layer-1" serif:id="Layer 1">
            </g>
            <g id="DESIGNED-BY-FREEPIK4" serif:id="DESIGNED BY FREEPIK">
            </g>
            <g id="DESIGNED-BY-FREEPIK5" serif:id="DESIGNED BY FREEPIK">
            </g>
            <g transform="matrix(4.75623,0,0,3.11051,5.24965,26.0786)">
                <path d="M447.174,66.583L441.099,66.583C452.679,47.73 448.403,22.42 429.819,8.631C409.794,-6.225 381.338,-1.443 367.363,19.441L335.817,66.584L64.826,66.584C42.551,66.584 24.43,84.705 24.43,106.98L24.43,365.249C24.43,387.523 42.551,405.645 64.826,405.645L221.737,405.645L209.881,455.441L184.292,455.441C167.616,455.441 154.048,469.008 154.048,485.685L154.048,491.999L122.504,491.999C116.981,491.999 112.504,496.477 112.504,501.999C112.504,507.521 116.981,511.999 122.504,511.999L389.497,511.999C395.02,511.999 399.497,507.521 399.497,501.999C399.497,496.477 395.02,491.999 389.497,491.999L357.953,491.999L357.953,485.685C357.953,469.008 344.385,455.441 327.709,455.441L302.12,455.441L290.264,405.645L447.175,405.645C469.45,405.645 487.571,387.523 487.571,365.249L487.571,106.979C487.571,84.704 469.45,66.583 447.174,66.583ZM303.895,242.378C288.26,253.323 258.97,238.446 230.998,253.372C224.174,217.918 228.477,184.573 264.001,177.214C268.592,176.257 273.535,175.824 277.743,175.908C289.766,184.828 301.928,193.851 313.918,202.748C319.167,218.016 317.197,233.067 303.895,242.378ZM313.973,135.192L342.279,156.194L320.511,182.734C311.549,176.086 303.845,170.37 294.883,163.72C296.744,160.939 312.272,137.733 313.973,135.192ZM383.986,30.563C391.559,19.243 407.006,16.609 417.902,24.694C428.802,32.779 430.754,48.325 422.117,58.856C406.792,77.538 370.359,121.959 354.976,140.713L325.107,118.552L383.986,30.563ZM337.952,485.685L337.952,491.999L174.048,491.999L174.048,485.685C174.048,480.037 178.644,475.441 184.292,475.441L327.708,475.441C333.356,475.441 337.952,480.037 337.952,485.685ZM281.561,455.441L230.439,455.441L242.295,405.645L269.705,405.645L281.561,455.441ZM467.572,365.249C467.572,376.496 458.422,385.645 447.175,385.645L64.827,385.645C53.58,385.645 44.43,376.496 44.43,365.249L44.43,318.42L73.006,318.42C78.528,318.42 83.005,313.942 83.005,308.42C83.005,302.898 78.528,298.42 73.006,298.42L44.428,298.42L44.428,106.979C44.428,95.732 53.578,86.582 64.825,86.582L322.435,86.582C312.855,100.899 284.906,142.666 276.054,155.895C256.457,156.072 236.892,162.899 224.085,177.851C206.656,198.195 203.594,230.163 214.984,272.864C216.931,280.166 226.042,282.781 231.554,277.516C257.411,252.809 289.614,279.759 318.453,256.417C336.056,242.167 340.222,219.514 333.584,198.33C342.557,187.39 416.247,97.548 425.241,86.582L447.173,86.582C458.42,86.582 467.57,95.732 467.57,106.979L467.57,298.419L153.002,298.419C147.479,298.419 143.002,302.897 143.002,308.419C143.002,313.941 147.479,318.419 153.002,318.419L467.572,318.419L467.572,365.249Z" style="fill-rule:nonzero;"/>
            </g>
        </g>
    </g>
</svg>
