<?xml version="1.0" encoding="UTF-8" standalone="no"?>
<!DOCTYPE svg PUBLIC "-//W3C//DTD SVG 1.1//EN" "http://www.w3.org/Graphics/SVG/1.1/DTD/svg11.dtd">
<svg width="100%" height="100%" viewBox="0 0 21 21" version="1.1" xmlns="http://www.w3.org/2000/svg" xmlns:xlink="http://www.w3.org/1999/xlink" xml:space="preserve" xmlns:serif="http://www.serif.com/" style="fill-rule:evenodd;clip-rule:evenodd;stroke-linejoin:round;stroke-miterlimit:2;">
    <g transform="matrix(1,0,0,1,-5750.02,-3198.88)">
        <g id="Artboard1" transform="matrix(0.00835011,0,0,0.012768,5750.31,3198.88)">
            <rect x="-34.623" y="0" width="2514.94" height="1644.73" style="fill:none;"/>
            <g id="DESIGNED-BY-FREEPIK" serif:id="DESIGNED BY FREEPIK">
            </g>
            <g id="DESIGNED-BY-FREEPIK1" serif:id="DESIGNED BY FREEPIK">
            </g>
            <g id="DESIGNED-BY-FREEPIK2" serif:id="DESIGNED BY FREEPIK">
            </g>
            <g id="DESIGNED-BY-FREEPIK3" serif:id="DESIGNED BY FREEPIK">
            </g>
            <g id="Layer-1" serif:id="Layer 1">
            </g>
            <g id="DESIGNED-BY-FREEPIK4" serif:id="DESIGNED BY FREEPIK">
            </g>
            <g id="DESIGNED-BY-FREEPIK5" serif:id="DESIGNED BY FREEPIK">
            </g>
            <g transform="matrix(108.308,0,0,70.8316,-178415,-9999.04)">
                <path d="M1656.51,145.147L1656.01,145.147C1653.45,145.147 1651.37,147.23 1651.37,149.784C1651.37,151.423 1652.23,152.868 1653.52,153.693C1651.02,154.691 1649.24,157.141 1649.24,159.987L1649.24,161.272C1649.24,161.466 1649.39,161.622 1649.59,161.622L1662.43,161.622C1662.62,161.622 1662.78,161.466 1662.78,161.272L1662.78,159.987C1662.78,157.141 1661,154.691 1658.5,153.693C1659.79,152.868 1660.64,151.423 1660.64,149.784C1660.64,149.222 1660.54,148.683 1660.36,148.183C1660.51,148.003 1660.63,147.808 1660.74,147.597C1661.18,146.719 1661.24,145.562 1660.66,144.148C1660.62,144.041 1660.53,143.962 1660.41,143.938C1660.3,143.914 1660.18,143.948 1660.1,144.028C1659.07,145.015 1657.43,145.146 1656.51,145.147ZM1667.94,161.272L1667.94,151.731C1667.94,151.719 1667.93,151.706 1667.93,151.694C1667.94,151.628 1667.93,151.561 1667.9,151.5L1666.65,148.998C1666.59,148.879 1666.47,148.804 1666.34,148.804C1666.2,148.804 1666.08,148.879 1666.02,148.998L1664.77,151.5C1664.74,151.561 1664.73,151.628 1664.74,151.694C1664.73,151.706 1664.73,151.719 1664.73,151.731L1664.73,161.272C1664.73,161.466 1664.89,161.622 1665.08,161.622L1667.59,161.622C1667.78,161.622 1667.94,161.466 1667.94,161.272ZM1665.43,159.12L1667.24,159.12C1667.24,159.12 1667.24,160.922 1667.24,160.922L1665.43,160.922L1665.43,159.12ZM1657.67,154.149L1657.67,154.588C1657.67,155.505 1656.92,156.255 1656.01,156.255C1655.09,156.255 1654.34,155.505 1654.34,154.588L1654.34,154.15C1651.81,154.879 1649.94,157.225 1649.94,159.987C1649.94,159.987 1649.94,160.922 1649.94,160.922C1649.94,160.922 1662.08,160.922 1662.08,160.922C1662.08,160.922 1662.08,159.987 1662.08,159.987C1662.08,157.235 1660.22,154.896 1657.7,154.158C1657.69,154.155 1657.68,154.152 1657.67,154.149ZM1665.87,158.42L1665.43,158.42L1665.43,152.081C1665.43,152.081 1667.24,152.081 1667.24,152.081C1667.24,152.081 1667.24,158.42 1667.24,158.42L1665.87,158.42ZM1655.04,154.32L1655.04,154.588C1655.04,155.12 1655.48,155.555 1656.01,155.555C1656.54,155.555 1656.97,155.12 1656.97,154.588L1656.97,154.32C1656.66,154.387 1656.34,154.422 1656.01,154.422C1655.67,154.422 1655.35,154.387 1655.04,154.32ZM1659.8,148.72C1659.02,149.315 1657.96,149.63 1656.82,149.63C1655.81,149.63 1654.87,149.361 1654.09,148.904C1653.5,149.217 1652.81,149.421 1652.08,149.485C1652.07,149.584 1652.07,149.684 1652.07,149.784C1652.07,151.953 1653.84,153.722 1656.01,153.722C1658.17,153.722 1659.94,151.953 1659.94,149.784C1659.94,149.416 1659.89,149.059 1659.8,148.72ZM1666.34,149.937L1667.02,151.306C1667.02,151.306 1665.65,151.306 1665.65,151.306L1666.34,149.937ZM1652.2,148.768C1652.84,148.689 1653.42,148.489 1653.93,148.196C1654.04,148.13 1654.18,148.134 1654.29,148.206C1655,148.661 1655.87,148.93 1656.82,148.93C1658.25,148.93 1659.57,148.38 1660.12,147.283C1660.43,146.648 1660.49,145.839 1660.18,144.866C1659.09,145.648 1657.62,145.826 1656.68,145.845C1656.67,145.846 1656.66,145.847 1656.64,145.847L1656.5,145.847L1656.5,145.847L1656.01,145.847C1654.19,145.847 1652.65,147.089 1652.2,148.768Z"/>
            </g>
        </g>
    </g>
</svg>
