<svg width="257" height="59" viewBox="0 0 257 59" fill="none" xmlns="http://www.w3.org/2000/svg">
<g clip-path="url(#clip0_125_57)">
<path d="M65.4895 39.7563C67.1438 39.9635 69.3778 40.1292 72.3577 40.1292C77.7828 40.1292 82.2142 38.8464 84.988 36.3222C87.6351 33.9182 89.3308 30.1882 89.3308 25.2153C89.3308 20.4487 87.6765 17.1331 84.988 14.938C82.422 12.7859 78.8186 11.7102 73.5997 11.7102C70.5767 11.7102 67.7234 11.9174 65.4895 12.2895V39.7563ZM70.5767 15.973C71.2805 15.8072 72.4405 15.6829 74.0559 15.6829C80.434 15.6829 83.9952 19.2057 83.9538 25.381C83.9538 32.468 80.0192 36.115 73.3927 36.0736C72.3577 36.0736 71.2805 36.0736 70.5767 35.9493V15.973Z" fill="#4C4C4C"/>
<path d="M109.41 31.1795C109.492 30.7246 109.575 29.9796 109.575 29.0282C109.575 24.5931 107.425 19.21 100.884 19.21C94.4244 19.21 91.033 24.4688 91.033 30.0624C91.033 36.2394 94.879 40.2536 101.423 40.2536C104.322 40.2536 106.722 39.7158 108.459 39.0122L107.715 35.4928C106.184 36.0737 104.488 36.4052 102.126 36.4052C98.8956 36.4052 96.0374 34.829 95.9132 31.1795H109.41ZM95.9132 27.6211C96.1202 25.5469 97.4458 22.6855 100.594 22.6855C103.991 22.6855 104.819 25.7549 104.778 27.6211H95.9132Z" fill="#4C4C4C"/>
<path d="M111.195 38.8465C112.684 39.6744 114.876 40.2536 117.318 40.2536C122.661 40.2536 125.514 37.6051 125.514 33.9597C125.473 30.9756 123.777 29.1103 120.137 27.7835C117.567 26.872 116.613 26.2496 116.613 24.9652C116.613 23.7213 117.608 22.8512 119.433 22.8512C121.214 22.8512 122.827 23.5142 123.694 24.0114L124.687 20.4099C123.529 19.7892 121.585 19.21 119.349 19.21C114.67 19.21 111.733 21.9819 111.733 25.5453C111.692 27.9078 113.346 30.0633 117.276 31.4314C119.764 32.3015 120.593 33.0059 120.593 34.3741C120.593 35.7008 119.598 36.6124 117.359 36.6124C115.538 36.6124 113.346 35.8665 112.188 35.1613L111.195 38.8465Z" fill="#4C4C4C"/>
<path d="M144.392 39.8393C144.185 38.5962 144.103 36.8146 144.103 34.9915V27.7023C144.103 23.3078 142.241 19.21 135.784 19.21C132.594 19.21 129.988 20.0793 128.499 20.9892L129.491 24.3031C130.856 23.4321 132.925 22.8098 134.914 22.8098C138.477 22.8098 139.015 25.0083 139.015 26.3367V26.6681C131.559 26.6267 127.051 29.1915 127.051 34.2871C127.051 37.3574 129.326 40.295 133.381 40.295C135.992 40.295 138.105 39.178 139.347 37.6051H139.471L139.801 39.8393H144.392ZM139.14 32.7556C139.14 33.0879 139.098 33.5023 138.974 33.8752C138.519 35.3271 137.027 36.6538 134.997 36.6538C133.381 36.6538 132.097 35.7414 132.097 33.7509C132.097 30.6823 135.535 29.895 139.14 29.9779V32.7556Z" fill="#4C4C4C"/>
<path d="M153.376 39.8391V19.6656H148.248V39.8391H153.376ZM150.812 11.2544C149.116 11.2544 147.958 12.4551 147.958 14.028C147.958 15.5594 149.075 16.7602 150.77 16.7602C152.549 16.7602 153.666 15.5594 153.666 14.028C153.625 12.4551 152.549 11.2544 150.812 11.2544Z" fill="#4C4C4C"/>
<path d="M157.604 39.8393H162.733V27.9891C162.733 27.409 162.774 26.7875 162.94 26.3317C163.479 24.7986 164.887 23.3484 166.917 23.3484C169.692 23.3484 170.769 25.5444 170.769 28.4448V39.8393H175.856V27.8648C175.856 21.4864 172.217 19.21 168.698 19.21C165.343 19.21 163.147 21.1134 162.278 22.6863H162.154L161.906 19.6657H157.438C157.563 21.406 157.604 23.3526 157.604 25.6721V39.8393Z" fill="#4C4C4C"/>
<path d="M185.13 10.4258H180.043V39.8392H185.13V32.9627L186.869 30.9333L192.665 39.8392H198.916L190.388 27.9094L197.84 19.6656H191.713L186.827 26.1691C186.289 26.8735 185.71 27.7436 185.213 28.5301H185.13V10.4258Z" fill="#4C4C4C"/>
<path d="M216.263 39.8393C216.056 38.5962 215.973 36.8146 215.973 34.9915V27.7023C215.973 23.3078 214.112 19.21 207.654 19.21C204.465 19.21 201.858 20.0793 200.369 20.9892L201.361 24.3031C202.727 23.4321 204.796 22.8098 206.785 22.8098C210.347 22.8098 210.886 25.0083 210.886 26.3367V26.6681C203.43 26.6267 198.921 29.1915 198.921 34.2871C198.921 37.3574 201.196 40.295 205.251 40.295C207.862 40.295 209.975 39.178 211.217 37.6051H211.341L211.671 39.8393H216.263ZM211.01 32.7556C211.01 33.0879 210.968 33.5023 210.844 33.8752C210.389 35.3271 208.898 36.6538 206.867 36.6538C205.251 36.6538 203.967 35.7414 203.967 33.7509C203.967 30.6823 207.406 29.895 211.01 29.9779V32.7556Z" fill="#4C4C4C"/>
<path d="M229.265 19.21C223.177 19.21 218.834 23.2656 218.834 29.8975C218.834 36.3638 223.218 40.295 228.933 40.295C234.069 40.295 239.281 36.9844 239.281 29.566C239.281 23.4313 235.269 19.21 229.265 19.21ZM229.14 22.9341C232.62 22.9341 234.028 26.5397 234.028 29.6904C234.028 33.7526 231.999 36.6124 229.099 36.6124C225.992 36.6124 224.087 33.6697 224.087 29.7732C224.087 26.4154 225.537 22.9341 229.14 22.9341Z" fill="#4C4C4C"/>
<path d="M239.99 39.8391H257V35.7835H246.363V35.7006C247.398 34.6233 248.35 33.4623 249.343 32.2599L256.751 22.769V19.6655H240.735V23.7211H250.543V23.804C249.468 24.965 248.598 25.9594 247.564 27.2033L239.99 36.9005V39.8391Z" fill="#4C4C4C"/>
<path fill-rule="evenodd" clip-rule="evenodd" d="M16.16 2.80961C18.7668 3.74214 22.0186 4.05813 23.902 3.7357C25.8562 3.40169 28.6078 2.00579 30.7381 0.236621C31.0114 0.0100847 31.3818 -0.0594178 31.7181 0.0525631C31.2847 -0.141151 42.0304 3.07282 44.3813 4.12377C44.9562 4.3812 45.2976 4.73517 45.6976 5.38968C47.7334 8.72015 56.1372 23.1251 56.1372 23.1251C56.3796 23.5312 56.251 23.9965 55.9784 24.3827C54.0255 27.1468 50.2933 29.0543 45.6423 29.2127C46.4358 36.0454 48.2806 43.9639 50.4637 51.8212C50.5415 52.1005 50.4978 52.3998 50.3435 52.6443C50.1892 52.8895 49.9493 53.0112 49.6535 53.1084C38.8917 56.6338 27.9641 58.6611 16.8396 58.8992C16.5246 58.9056 16.2616 58.8773 16.0326 58.6997C15.8037 58.5221 15.6603 58.2563 15.6378 57.9673C15.0044 49.8358 13.6463 41.8317 12.0568 35.1393C8.07192 36.483 3.98803 36.0866 0.597327 34.3477C0.176785 34.1321 -0.0707829 33.6848 0.0179553 33.2208C0.0179553 33.2208 3.08843 16.5994 3.86392 12.772C4.01632 12.0204 4.21566 11.5705 4.66771 11.1322C6.51771 9.33989 15.5176 2.64164 15.1768 2.97179C15.4546 2.75169 15.8262 2.68991 16.16 2.80961ZM24.992 30.0905C28.2232 29.501 30.3677 26.3977 29.7787 23.1638L28.3833 15.5021C27.7943 12.2681 24.693 10.1218 21.4624 10.7113C18.0067 11.342 14.526 11.9772 11.0749 12.6066L14.6051 31.9858C18.0563 31.3564 21.537 30.7212 24.992 30.0905ZM31.2075 21.4429L33.5282 21.0194C33.8594 20.9589 34.204 21.1249 34.3745 21.4364L37.6706 27.7775L42.9473 26.8147L39.1136 19.4008C38.7091 18.5899 38.1458 18.0068 37.2642 17.7114C37.9902 17.1502 38.2834 16.4121 38.4037 15.5046L39.3618 7.44524L34.0851 8.40802L33.2517 15.2717C33.2022 15.625 32.9386 15.9024 32.6068 15.9629L30.2861 16.3863L31.2075 21.4429ZM17.048 16.7416L22.3832 15.7679C22.8256 15.6874 23.2507 15.9815 23.331 16.4237L24.7264 24.086C24.8074 24.5281 24.5136 24.9535 24.0712 25.034L18.7359 26.0077L17.048 16.7416Z" fill="#4C4C4C"/>
</g>
<defs>
<clipPath id="clip0_125_57">
<rect width="257" height="59" fill="white"/>
</clipPath>
</defs>
</svg>
