<svg width="1630" height="403" viewBox="0 0 1630 403" fill="none" xmlns="http://www.w3.org/2000/svg">
<path fill-rule="evenodd" clip-rule="evenodd" d="M110.594 19.2121C128.434 25.5887 150.689 27.7495 163.579 25.5447C176.952 23.2607 195.783 13.7156 210.363 1.61801C212.233 0.068959 214.768 -0.406299 217.069 0.359426C214.103 -0.96519 287.643 21.012 303.732 28.1983C307.667 29.9586 310.003 32.3791 312.741 36.8546C326.673 59.6283 384.186 158.13 384.186 158.13C385.845 160.906 384.965 164.088 383.099 166.729C369.734 185.63 344.193 198.673 312.362 199.756C317.793 246.478 330.418 300.625 345.359 354.353C345.891 356.263 345.592 358.309 344.536 359.982C343.48 361.658 341.838 362.49 339.814 363.155C266.164 387.262 191.378 401.124 115.246 402.752C113.089 402.796 111.289 402.603 109.723 401.388C108.156 400.173 107.175 398.356 107.021 396.38C102.686 340.777 93.3916 286.045 82.513 240.282C55.2418 249.471 27.2929 246.76 4.08793 234.869C1.20986 233.395 -0.484417 230.337 0.122881 227.164C0.122881 227.164 21.1363 113.506 26.4435 87.3352C27.4865 82.1952 28.8507 79.119 31.9444 76.1221C44.6053 63.8661 106.198 18.0635 103.865 20.3211C105.766 18.816 108.31 18.3936 110.594 19.2121ZM171.038 205.759C193.151 201.727 207.828 180.507 203.797 158.394L194.247 106.003C190.216 83.8895 168.991 69.2131 146.882 73.2441C123.233 77.5568 99.4117 81.9003 75.7931 86.2042L99.953 218.719C123.572 214.415 147.393 210.071 171.038 205.759ZM213.575 146.626L229.457 143.73C231.724 143.317 234.082 144.452 235.249 146.582L257.807 189.942L293.919 183.359L267.682 132.663C264.914 127.118 261.059 123.131 255.025 121.111C259.994 117.273 262 112.226 262.823 106.021L269.38 50.9105L233.268 57.494L227.565 104.428C227.226 106.844 225.422 108.74 223.151 109.154L207.269 112.05L213.575 146.626ZM116.671 114.479L153.184 107.821C156.212 107.27 159.121 109.282 159.671 112.305L169.22 164.7C169.775 167.723 167.764 170.632 164.736 171.182L128.223 177.84L116.671 114.479Z" fill="#4C4C4C"/>
<path d="M404 292.289C414.584 293.614 428.877 294.674 447.942 294.674C482.651 294.674 511.003 286.471 528.75 270.331C545.686 254.959 556.535 231.11 556.535 199.312C556.535 168.834 545.95 147.633 528.75 133.597C512.333 119.836 489.278 112.958 455.888 112.958C436.547 112.958 418.293 114.283 404 116.662V292.289ZM436.547 140.215C441.05 139.155 448.472 138.36 458.807 138.36C499.614 138.36 522.398 160.885 522.133 200.372C522.133 245.687 496.96 269.006 454.564 268.742C447.942 268.742 441.05 268.741 436.547 267.947V140.215Z" fill="#4C4C4C"/>
<path d="M685.455 237.662C685.988 234.737 686.521 229.947 686.521 223.831C686.521 195.317 672.677 160.708 630.57 160.708C588.98 160.708 567.146 194.518 567.146 230.48C567.146 270.192 591.907 296 634.035 296C652.703 296 668.151 292.542 679.335 288.019L674.543 265.392C664.692 269.127 653.769 271.258 638.566 271.258C617.766 271.258 599.364 261.125 598.565 237.662H685.455ZM598.565 214.784C599.897 201.449 608.432 183.053 628.699 183.053C650.571 183.053 655.901 202.786 655.635 214.784H598.565Z" fill="#4C4C4C"/>
<path d="M697.132 286.953C706.652 292.276 720.66 296 736.267 296C770.416 296 788.653 278.973 788.653 255.536C788.388 236.351 777.55 224.358 754.286 215.829C737.86 209.968 731.763 205.967 731.763 197.709C731.763 189.712 738.124 184.118 749.783 184.118C761.166 184.118 771.475 188.38 777.021 191.577L783.366 168.423C775.968 164.432 763.542 160.708 749.248 160.708C719.343 160.708 700.572 178.529 700.572 201.439C700.307 216.628 710.881 230.485 736.002 239.281C751.899 244.875 757.197 249.404 757.197 258.2C757.197 266.729 750.841 272.59 736.531 272.59C724.894 272.59 710.881 267.795 703.482 263.261L697.132 286.953Z" fill="#4C4C4C"/>
<path d="M909.354 293.075C908.024 285.099 907.492 273.668 907.492 261.97V215.199C907.492 187.002 895.533 160.708 854.045 160.708C833.553 160.708 816.807 166.286 807.242 172.124L813.615 193.388C822.387 187.8 835.681 183.806 848.459 183.806C871.35 183.806 874.808 197.913 874.808 206.436V208.563C826.904 208.297 797.938 224.754 797.938 257.45C797.938 277.15 812.556 296 838.607 296C855.38 296 868.956 288.832 876.936 278.74H877.734L879.856 293.075H909.354ZM875.606 247.624C875.606 249.756 875.34 252.415 874.542 254.807C871.616 264.123 862.035 272.636 848.991 272.636C838.607 272.636 830.356 266.782 830.356 254.01C830.356 234.32 852.449 229.269 875.606 229.8V247.624Z" fill="#4C4C4C"/>
<path d="M965.897 293.347V164.166H933.721V293.347H965.897ZM949.809 110.306C939.17 110.306 931.903 117.995 931.903 128.066C931.903 137.873 938.911 145.562 949.549 145.562C960.708 145.562 967.715 137.873 967.715 128.066C967.456 117.995 960.708 110.306 949.809 110.306Z" fill="#4C4C4C"/>
<path d="M993.966 293.347H1026.47V217.155C1026.47 213.425 1026.73 209.429 1027.78 206.498C1031.2 196.641 1040.12 187.317 1052.98 187.317C1070.57 187.317 1077.4 201.437 1077.4 220.085V293.347H1109.64V216.355C1109.64 175.345 1086.58 160.708 1064.28 160.708C1043.01 160.708 1029.09 172.947 1023.59 183.06H1022.8L1021.23 163.639H992.917C993.704 174.828 993.966 187.344 993.966 202.257V293.347Z" fill="#4C4C4C"/>
<path d="M1170.03 105H1137.49V293.347H1170.03V249.314L1181.15 236.319L1218.22 293.347H1258.19L1203.65 216.956L1251.31 164.167H1212.13L1180.88 205.812C1177.44 210.322 1173.73 215.894 1170.56 220.93H1170.03V105Z" fill="#4C4C4C"/>
<path d="M1368.28 293.075C1366.97 285.099 1366.44 273.668 1366.44 261.97V215.199C1366.44 187.002 1354.63 160.708 1313.63 160.708C1293.39 160.708 1276.84 166.286 1267.39 172.124L1273.68 193.388C1282.35 187.8 1295.49 183.806 1308.11 183.806C1330.73 183.806 1334.15 197.913 1334.15 206.436V208.563C1286.82 208.297 1258.19 224.754 1258.19 257.45C1258.19 277.15 1272.64 296 1298.38 296C1314.95 296 1328.37 288.832 1336.25 278.74H1337.04L1339.14 293.075H1368.28ZM1334.94 247.624C1334.94 249.756 1334.68 252.415 1333.89 254.807C1331 264.123 1321.53 272.636 1308.64 272.636C1298.38 272.636 1290.23 266.782 1290.23 254.01C1290.23 234.32 1312.06 229.269 1334.94 229.8V247.624Z" fill="#4C4C4C"/>
<path d="M1451.84 160.708C1413.14 160.708 1385.53 186.731 1385.53 229.285C1385.53 270.775 1413.4 296 1449.73 296C1482.38 296 1515.51 274.757 1515.51 227.158C1515.51 187.794 1490.01 160.708 1451.84 160.708ZM1451.05 184.604C1473.17 184.604 1482.12 207.739 1482.12 227.955C1482.12 254.02 1469.22 272.37 1450.78 272.37C1431.03 272.37 1418.92 253.489 1418.92 228.487C1418.92 206.941 1428.14 184.604 1451.05 184.604Z" fill="#4C4C4C"/>
<path d="M1520.82 293.347H1629.58V267.482H1561.57V266.954C1568.19 260.083 1574.27 252.679 1580.63 245.01L1627.99 184.48V164.688H1525.58V190.553H1588.3V191.081C1581.42 198.486 1575.86 204.828 1569.25 212.761L1520.82 274.606V293.347Z" fill="#4C4C4C"/>
</svg>
