<?xml version="1.0" encoding="UTF-8"?>
<svg id="Layer_1" data-name="Layer 1" xmlns="http://www.w3.org/2000/svg" viewBox="0 0 196 121.22">
  <defs>
    <style>
      .cls-1 {
        fill: #fff;
      }

      .cls-2, .cls-3 {
        fill: #4d4d4d;
      }

      .cls-3 {
        fill-rule: evenodd;
      }
    </style>
  </defs>
  <rect class="cls-1" width="196" height="121.12"/>
  <g>
    <g>
      <path class="cls-2" d="m27.65,94.01h2.01v-6.75h1.9c1.83.07,2.66.88,3.12,3.03.44,1.94.79,3.28,1.04,3.72h2.08c-.32-.6-.69-2.1-1.2-4.28-.37-1.62-1.09-2.73-2.29-3.14v-.07c1.64-.55,2.93-1.92,2.93-3.98,0-1.2-.44-2.27-1.22-2.96-.97-.88-2.36-1.27-4.51-1.27-1.39,0-2.84.12-3.86.32v15.38Zm2.01-13.97c.32-.09,1.02-.19,1.99-.19,2.13.02,3.59.9,3.59,2.92,0,1.78-1.36,2.96-3.52,2.96h-2.06v-5.69Z"/>
      <path class="cls-2" d="m42.29,94.01v-11.19h-2.03v11.19h2.03Zm-1.02-15.61c-.74,0-1.27.55-1.27,1.27s.51,1.25,1.22,1.25c.81,0,1.32-.55,1.29-1.25,0-.72-.48-1.27-1.25-1.27Z"/>
      <path class="cls-2" d="m47.33,94.01l.09-1.85h.07c.83,1.48,2.13,2.1,3.75,2.1,2.5,0,5.02-1.99,5.02-5.99.02-3.4-1.94-5.71-4.72-5.71-1.8,0-3.1.81-3.82,2.06h-.05v-7.03h-2.01v13.53c0,.99-.05,2.13-.09,2.89h1.76Zm.35-6.5c0-.32.07-.6.12-.83.42-1.55,1.71-2.5,3.1-2.5,2.17,0,3.33,1.92,3.33,4.16,0,2.57-1.27,4.31-3.4,4.31-1.48,0-2.66-.97-3.05-2.38-.05-.23-.09-.49-.09-.74v-2.01Z"/>
      <path class="cls-2" d="m68.19,82.82h-2.03v6.87c0,.37-.07.74-.19,1.04-.37.9-1.32,1.85-2.68,1.85-1.85,0-2.5-1.43-2.5-3.56v-6.2h-2.03v6.55c0,3.93,2.1,4.9,3.86,4.9,1.99,0,3.17-1.18,3.7-2.08h.05l.12,1.82h1.8c-.07-.88-.09-1.9-.09-3.05v-8.14Z"/>
      <path class="cls-2" d="m79.62,94.01c-.14-.76-.19-1.71-.19-2.68v-4.18c0-2.25-.83-4.58-4.25-4.58-1.41,0-2.75.39-3.68.99l.46,1.34c.79-.51,1.87-.83,2.91-.83,2.29,0,2.55,1.67,2.55,2.59v.23c-4.33-.02-6.73,1.45-6.73,4.16,0,1.62,1.15,3.21,3.42,3.21,1.6,0,2.8-.78,3.43-1.66h.07l.16,1.41h1.85Zm-2.15-3.77c0,.21-.05.44-.12.65-.32.95-1.25,1.87-2.71,1.87-1.04,0-1.92-.62-1.92-1.94,0-2.18,2.52-2.57,4.74-2.52v1.94Z"/>
      <path class="cls-2" d="m82.72,94.01h2.03v-6.73c0-.35.05-.69.14-.95.35-1.13,1.39-2.08,2.73-2.08,1.92,0,2.59,1.5,2.59,3.31v6.45h2.03v-6.68c0-3.84-2.4-4.76-3.95-4.76-1.85,0-3.15,1.04-3.7,2.1h-.05l-.12-1.85h-1.8c.07.92.09,1.87.09,3.03v8.16Z"/>
      <path class="cls-2" d="m100.53,93.97c1.02.12,2.22.18,3.65.18,3.03,0,5.44-.78,6.89-2.24,1.46-1.43,2.24-3.52,2.24-6.06s-.81-4.33-2.19-5.6c-1.36-1.27-3.42-1.94-6.32-1.94-1.6,0-3.05.14-4.28.32v15.33Zm2.01-13.85c.53-.12,1.32-.21,2.36-.21,4.26,0,6.34,2.34,6.32,6.02,0,4.21-2.34,6.62-6.64,6.62-.79,0-1.53-.02-2.04-.12v-12.31Z"/>
      <path class="cls-2" d="m124.95,88.79c.02-.21.07-.53.07-.95,0-2.06-.97-5.27-4.62-5.27-3.26,0-5.25,2.66-5.25,6.03s2.06,5.64,5.5,5.64c1.78,0,3.01-.37,3.72-.69l-.35-1.46c-.76.32-1.64.58-3.1.58-2.04,0-3.8-1.13-3.84-3.89h7.86Zm-7.84-1.45c.16-1.41,1.06-3.31,3.12-3.31,2.29,0,2.85,2.01,2.82,3.31h-5.95Z"/>
      <path class="cls-2" d="m126.75,93.48c.79.46,1.92.76,3.14.76,2.66,0,4.19-1.38,4.19-3.35,0-1.67-.99-2.64-2.94-3.38-1.46-.56-2.13-.97-2.13-1.9,0-.83.67-1.53,1.88-1.53,1.04,0,1.85.37,2.29.65l.51-1.48c-.62-.37-1.62-.69-2.75-.69-2.41,0-3.86,1.48-3.86,3.28,0,1.34.95,2.45,2.96,3.17,1.5.56,2.08,1.09,2.08,2.06s-.69,1.67-2.18,1.67c-1.02,0-2.08-.42-2.68-.81l-.51,1.55Z"/>
      <path class="cls-2" d="m144.75,94.01c-.14-.76-.19-1.71-.19-2.68v-4.18c0-2.25-.83-4.58-4.25-4.58-1.41,0-2.75.39-3.68.99l.46,1.34c.79-.51,1.87-.83,2.91-.83,2.29,0,2.55,1.67,2.55,2.59v.23c-4.33-.02-6.73,1.45-6.73,4.16,0,1.62,1.15,3.21,3.42,3.21,1.6,0,2.8-.78,3.43-1.66h.07l.16,1.41h1.85Zm-2.15-3.77c0,.21-.05.44-.12.65-.32.95-1.25,1.87-2.71,1.87-1.04,0-1.92-.62-1.92-1.94,0-2.18,2.52-2.57,4.74-2.52v1.94Z"/>
      <path class="cls-2" d="m149.88,94.01v-11.19h-2.03v11.19h2.03Zm-1.02-15.61c-.74,0-1.27.55-1.27,1.27s.51,1.25,1.22,1.25c.81,0,1.32-.55,1.29-1.25,0-.72-.48-1.27-1.25-1.27Z"/>
      <path class="cls-2" d="m153.26,94.01h2.03v-6.73c0-.35.04-.69.14-.95.35-1.13,1.39-2.08,2.73-2.08,1.92,0,2.59,1.5,2.59,3.31v6.45h2.03v-6.68c0-3.84-2.4-4.76-3.96-4.76-1.85,0-3.15,1.04-3.7,2.1h-.05l-.12-1.85h-1.8c.07.92.09,1.87.09,3.03v8.16Z"/>
      <path class="cls-2" d="m64.39,116.55h2.01v-6.24c.46.12,1.02.14,1.62.14,1.97,0,3.7-.58,4.77-1.71.79-.81,1.2-1.92,1.2-3.33s-.51-2.52-1.36-3.26c-.92-.83-2.38-1.29-4.37-1.29-1.62,0-2.89.14-3.86.3v15.4Zm2.01-13.95c.35-.09,1.02-.16,1.9-.16,2.22,0,3.68.99,3.68,3.05s-1.48,3.33-3.91,3.33c-.67,0-1.23-.05-1.67-.16v-6.06Z"/>
      <path class="cls-2" d="m78.29,116.55v-11.19h-2.03v11.19h2.03Zm-1.02-15.61c-.74,0-1.27.55-1.27,1.27s.51,1.25,1.22,1.25c.81,0,1.32-.55,1.29-1.25,0-.72-.48-1.27-1.25-1.27Z"/>
      <rect class="cls-2" x="81.67" y="100.13" width="2.03" height="16.42"/>
      <path class="cls-2" d="m89.16,116.55v-11.19h-2.03v11.19h2.03Zm-1.02-15.61c-.74,0-1.27.55-1.27,1.27s.51,1.25,1.22,1.25c.81,0,1.32-.55,1.29-1.25,0-.72-.48-1.27-1.25-1.27Z"/>
      <path class="cls-2" d="m92.54,116.55h2.03v-6.75c0-.39.02-.69.14-.97.37-1.11,1.41-2.04,2.73-2.04,1.92,0,2.59,1.53,2.59,3.33v6.43h2.03v-6.66c0-3.86-2.4-4.78-3.91-4.78-.76,0-1.48.23-2.08.58-.62.35-1.13.85-1.46,1.43h-.05v-6.98h-2.03v16.42Z"/>
      <path class="cls-2" d="m113.42,116.55c-.14-.76-.19-1.71-.19-2.68v-4.18c0-2.25-.83-4.58-4.25-4.58-1.41,0-2.75.39-3.68.99l.46,1.34c.79-.51,1.87-.83,2.91-.83,2.29,0,2.55,1.67,2.55,2.59v.23c-4.33-.02-6.73,1.45-6.73,4.16,0,1.62,1.15,3.21,3.42,3.21,1.6,0,2.8-.78,3.43-1.66h.07l.16,1.41h1.85Zm-2.15-3.77c0,.21-.05.44-.12.65-.32.95-1.25,1.87-2.71,1.87-1.04,0-1.92-.62-1.92-1.94,0-2.18,2.52-2.57,4.74-2.52v1.94Z"/>
      <path class="cls-2" d="m116.52,116.55h2.03v-6.73c0-.35.05-.69.14-.95.35-1.13,1.39-2.08,2.73-2.08,1.92,0,2.59,1.5,2.59,3.31v6.45h2.03v-6.68c0-3.84-2.4-4.76-3.95-4.76-1.85,0-3.15,1.04-3.7,2.1h-.05l-.12-1.85h-1.8c.07.93.09,1.87.09,3.03v8.16Z"/>
    </g>
    <g>
      <path class="cls-3" d="m78.9.25c-7.5,0-13.59,6.09-13.59,13.59s6.09,13.59,13.59,13.59,13.59-6.09,13.59-13.59S86.4.25,78.9.25Zm0,4.21c5.18,0,9.38,4.2,9.38,9.38s-4.2,9.38-9.38,9.38-9.38-4.2-9.38-9.38,4.2-9.38,9.38-9.38Z"/>
      <path class="cls-3" d="m111.54,34.79c-7.5,0-13.59,6.09-13.59,13.59s6.09,13.59,13.59,13.59,13.59-6.09,13.59-13.59-6.09-13.59-13.59-13.59Zm0,4.21c5.18,0,9.38,4.2,9.38,9.38s-4.2,9.38-9.38,9.38-9.38-4.2-9.38-9.38,4.2-9.38,9.38-9.38Z"/>
      <path class="cls-3" d="m125.13,8.1c0-4.33-3.52-7.85-7.85-7.85h-11.49c-4.33,0-7.85,3.52-7.85,7.85v11.49c0,4.33,3.52,7.85,7.85,7.85h11.49c4.33,0,7.85-3.52,7.85-7.85v-11.49Zm-4.21,0v11.49c0,2.01-1.63,3.64-3.64,3.64h-11.49c-2.01,0-3.64-1.63-3.64-3.64v-11.49c0-2.01,1.63-3.64,3.64-3.64h11.49c2.01,0,3.64,1.63,3.64,3.64Z"/>
      <path class="cls-3" d="m92.49,42.64c0-4.33-3.52-7.85-7.85-7.85h-11.49c-4.33,0-7.85,3.52-7.85,7.85v11.49c0,4.33,3.52,7.85,7.85,7.85h11.49c4.33,0,7.85-3.52,7.85-7.85v-11.49Zm-4.21,0v11.49c0,2.01-1.63,3.64-3.64,3.64h-11.49c-2.01,0-3.64-1.63-3.64-3.64v-11.49c0-2.01,1.63-3.64,3.64-3.64h11.49c2.01,0,3.64,1.63,3.64,3.64Z"/>
    </g>
  </g>
</svg>