<?xml version="1.0" encoding="UTF-8" standalone="no"?>
<!DOCTYPE svg PUBLIC "-//W3C//DTD SVG 1.1//EN" "http://www.w3.org/Graphics/SVG/1.1/DTD/svg11.dtd">
<svg width="100%" height="100%" viewBox="0 0 189 163" version="1.1" xmlns="http://www.w3.org/2000/svg" xmlns:xlink="http://www.w3.org/1999/xlink" xml:space="preserve" xmlns:serif="http://www.serif.com/" style="fill-rule:evenodd;clip-rule:evenodd;stroke-linejoin:round;stroke-miterlimit:2;">
    <g transform="matrix(1,0,0,1,-317.212,-652.475)">
        <g transform="matrix(0.966211,0,0,0.966211,17.1832,21.6871)">
            <g transform="matrix(0.575878,0,0,0.575878,-92.968,411.431)">
                <path d="M700.65,654.35L705.689,654.35L705.689,637.414L710.448,637.414C715.032,637.588 717.121,639.618 718.282,645.012C719.384,649.884 720.254,653.248 720.891,654.35L726.105,654.35C725.293,652.842 724.366,649.072 723.091,643.62C722.165,639.56 720.369,636.778 717.353,635.735L717.353,635.562C721.47,634.172 724.713,630.75 724.713,625.586C724.713,622.568 723.613,619.899 721.644,618.16C719.21,615.96 715.728,614.976 710.332,614.976C706.85,614.976 703.199,615.265 700.65,615.786L700.65,654.35ZM705.689,619.319C706.502,619.086 708.242,618.854 710.68,618.854C716.018,618.912 719.674,621.117 719.674,626.166C719.674,630.634 716.251,633.594 710.854,633.594L705.689,633.594L705.689,619.319Z" style="fill:rgb(76,76,76);fill-rule:nonzero;"/>
                <path d="M737.357,654.35L737.357,626.286L732.26,626.286L732.26,654.35L737.357,654.35ZM734.809,615.208C732.955,615.208 731.622,616.598 731.622,618.394C731.622,620.132 732.897,621.522 734.693,621.522C736.721,621.522 737.995,620.132 737.937,618.394C737.937,616.598 736.721,615.208 734.809,615.208Z" style="fill:rgb(76,76,76);fill-rule:nonzero;"/>
                <path d="M750.002,654.35L750.234,649.717L750.408,649.717C752.496,653.425 755.745,654.988 759.807,654.988C766.074,654.988 772.389,650.007 772.389,639.97C772.447,631.441 767.524,625.648 760.561,625.648C756.035,625.648 752.786,627.674 750.987,630.803L750.871,630.803L750.871,613.178L745.832,613.178L745.832,647.106C745.832,649.594 745.716,652.436 745.6,654.35L750.002,654.35ZM750.871,638.052C750.871,637.24 751.045,636.544 751.161,635.964C752.206,632.078 755.455,629.7 758.937,629.7C764.391,629.7 767.292,634.514 767.292,640.14C767.292,646.584 764.101,650.936 758.763,650.936C755.049,650.936 752.09,648.499 751.103,644.96C750.987,644.379 750.871,643.741 750.871,643.103L750.871,638.052Z" style="fill:rgb(76,76,76);fill-rule:nonzero;"/>
                <path d="M802.317,626.286L797.22,626.286L797.22,643.512C797.22,644.44 797.046,645.368 796.756,646.122C795.828,648.384 793.448,650.762 790.024,650.762C785.382,650.762 783.757,647.166 783.757,641.83L783.757,626.286L778.66,626.286L778.66,642.7C778.66,652.556 783.931,654.988 788.342,654.988C793.332,654.988 796.292,652.035 797.626,649.776L797.742,649.776L798.031,654.35L802.549,654.35C802.375,652.147 802.317,649.596 802.317,646.696L802.317,626.286Z" style="fill:rgb(76,76,76);fill-rule:nonzero;"/>
                <path d="M830.969,654.35C830.621,652.436 830.505,650.058 830.505,647.622L830.505,637.13C830.505,631.5 828.42,625.648 819.837,625.648C816.297,625.648 812.932,626.632 810.615,628.137L811.774,631.5C813.743,630.223 816.471,629.41 819.082,629.41C824.828,629.41 825.466,633.591 825.466,635.913L825.466,636.494C814.614,636.435 808.588,640.14 808.588,646.926C808.588,650.993 811.484,654.988 817.167,654.988C821.172,654.988 824.19,653.02 825.756,650.819L825.93,650.819L826.335,654.35L830.969,654.35ZM825.582,644.896C825.582,645.422 825.466,646.002 825.292,646.525C824.48,648.904 822.158,651.226 818.502,651.226C815.89,651.226 813.685,649.659 813.685,646.35C813.685,640.895 820.011,639.909 825.582,640.024L825.582,644.896Z" style="fill:rgb(76,76,76);fill-rule:nonzero;"/>
                <path d="M838.748,654.35L843.845,654.35L843.845,637.472C843.845,636.602 843.961,635.732 844.193,635.094C845.064,632.252 847.675,629.874 851.041,629.874C855.858,629.874 857.54,633.644 857.54,638.168L857.54,654.35L862.637,654.35L862.637,637.588C862.637,627.964 856.612,625.648 852.724,625.648C848.081,625.648 844.832,628.253 843.44,630.918L843.324,630.918L843.034,626.286L838.516,626.286C838.69,628.605 838.748,630.982 838.748,633.882L838.748,654.35Z" style="fill:rgb(76,76,76);fill-rule:nonzero;"/>
                <path d="M883.408,654.235C885.957,654.525 888.969,654.698 892.566,654.698C900.167,654.698 906.201,652.73 909.856,649.079C913.506,645.482 915.475,640.261 915.475,633.88C915.475,627.556 913.448,623.031 909.972,619.841C906.549,616.655 901.385,614.976 894.133,614.976C890.13,614.976 886.478,615.323 883.408,615.786L883.408,654.235ZM888.447,619.492C889.782,619.202 891.754,618.97 894.365,618.97C905.041,618.97 910.262,624.83 910.204,634.054C910.204,644.612 904.344,650.646 893.553,650.646C891.58,650.646 889.724,650.588 888.447,650.355L888.447,619.492Z" style="fill:rgb(76,76,76);fill-rule:nonzero;"/>
                <path d="M944.649,641.242C944.707,640.721 944.823,639.911 944.823,638.869C944.823,633.706 942.391,625.648 933.227,625.648C925.045,625.648 920.064,632.313 920.064,640.779C920.064,649.252 925.219,654.93 933.865,654.93C938.334,654.93 941.406,654.004 943.202,653.193L942.333,649.542C940.422,650.355 938.218,650.994 934.562,650.994C929.455,650.994 925.045,648.149 924.929,641.242L944.649,641.242ZM924.987,637.596C925.393,634.054 927.656,629.294 932.821,629.294C938.566,629.294 939.958,634.345 939.9,637.596L924.987,637.596Z" style="fill:rgb(76,76,76);fill-rule:nonzero;"/>
                <path d="M949.18,653.02C951.151,654.178 953.988,654.93 957.063,654.93C963.737,654.93 967.559,651.457 967.559,646.526C967.559,642.349 965.069,639.912 960.198,638.055C956.541,636.663 954.857,635.618 954.857,633.298C954.857,631.209 956.541,629.468 959.559,629.468C962.172,629.468 964.2,630.397 965.3,631.093L966.575,627.384C965.011,626.458 962.52,625.648 959.676,625.648C953.641,625.648 949.992,629.353 949.992,633.878C949.992,637.243 952.367,640.028 957.411,641.826C961.185,643.219 962.636,644.553 962.636,646.99C962.636,649.311 960.895,651.168 957.179,651.168C954.625,651.168 951.961,650.123 950.456,649.137L949.18,653.02Z" style="fill:rgb(76,76,76);fill-rule:nonzero;"/>
                <path d="M994.297,654.35C993.949,652.436 993.833,650.058 993.833,647.622L993.833,637.13C993.833,631.5 991.748,625.648 983.165,625.648C979.625,625.648 976.26,626.632 973.943,628.137L975.102,631.5C977.071,630.223 979.799,629.41 982.41,629.41C988.156,629.41 988.794,633.591 988.794,635.913L988.794,636.494C977.942,636.435 971.916,640.14 971.916,646.926C971.916,650.993 974.812,654.988 980.495,654.988C984.5,654.988 987.518,653.02 989.084,650.819L989.258,650.819L989.663,654.35L994.297,654.35ZM988.91,644.896C988.91,645.422 988.794,646.002 988.62,646.525C987.808,648.904 985.486,651.226 981.83,651.226C979.218,651.226 977.013,649.659 977.013,646.35C977.013,640.895 983.339,639.909 988.91,640.024L988.91,644.896Z" style="fill:rgb(76,76,76);fill-rule:nonzero;"/>
                <path d="M1007.17,654.35L1007.17,626.286L1002.08,626.286L1002.08,654.35L1007.17,654.35ZM1004.62,615.208C1002.77,615.208 1001.44,616.598 1001.44,618.394C1001.44,620.132 1002.71,621.522 1004.51,621.522C1006.54,621.522 1007.81,620.132 1007.75,618.394C1007.75,616.598 1006.54,615.208 1004.62,615.208Z" style="fill:rgb(76,76,76);fill-rule:nonzero;"/>
                <path d="M1015.65,654.35L1020.75,654.35L1020.75,637.472C1020.75,636.602 1020.86,635.732 1021.09,635.094C1021.96,632.252 1024.58,629.874 1027.94,629.874C1032.76,629.874 1034.44,633.644 1034.44,638.168L1034.44,654.35L1039.54,654.35L1039.54,637.588C1039.54,627.964 1033.51,625.648 1029.62,625.648C1024.98,625.648 1021.73,628.253 1020.34,630.918L1020.22,630.918L1019.93,626.286L1015.42,626.286C1015.59,628.605 1015.65,630.982 1015.65,633.882L1015.65,654.35Z" style="fill:rgb(76,76,76);fill-rule:nonzero;"/>
                <path d="M792.783,710.862L797.822,710.862L797.822,695.203C798.983,695.492 800.375,695.55 801.884,695.55C806.817,695.55 811.169,694.103 813.834,691.265C815.804,689.234 816.846,686.449 816.846,682.909C816.846,679.428 815.572,676.585 813.429,674.729C811.111,672.645 807.455,671.487 802.465,671.487C798.402,671.487 795.216,671.835 792.783,672.24L792.783,710.862ZM797.822,675.888C798.693,675.656 800.375,675.482 802.581,675.482C808.151,675.482 811.807,677.977 811.807,683.142C811.807,688.538 808.093,691.497 802,691.497C800.317,691.497 798.925,691.381 797.822,691.091L797.822,675.888Z" style="fill:rgb(76,76,76);fill-rule:nonzero;"/>
                <path d="M827.634,710.862L827.634,682.797L822.537,682.797L822.537,710.862L827.634,710.862ZM825.086,671.719C823.232,671.719 821.899,673.11 821.899,674.906C821.899,676.644 823.174,678.034 824.97,678.034C826.998,678.034 828.272,676.644 828.214,674.906C828.214,673.11 826.998,671.719 825.086,671.719Z" style="fill:rgb(76,76,76);fill-rule:nonzero;"/>
                <rect x="836.109" y="669.689" width="5.097" height="41.173" style="fill:rgb(76,76,76);fill-rule:nonzero;"/>
                <path d="M854.894,710.862L854.894,682.797L849.797,682.797L849.797,710.862L854.894,710.862ZM852.346,671.719C850.492,671.719 849.159,673.11 849.159,674.906C849.159,676.644 850.434,678.034 852.23,678.034C854.258,678.034 855.532,676.644 855.474,674.906C855.474,673.11 854.258,671.719 852.346,671.719Z" style="fill:rgb(76,76,76);fill-rule:nonzero;"/>
                <path d="M863.369,710.862L868.466,710.862L868.466,693.926C868.466,692.94 868.524,692.186 868.814,691.49C869.743,688.706 872.354,686.386 875.662,686.386C880.479,686.386 882.161,690.214 882.161,694.738L882.161,710.862L887.258,710.862L887.258,694.158C887.258,684.475 881.233,682.159 877.461,682.159C875.546,682.159 873.747,682.738 872.238,683.607C870.671,684.475 869.395,685.749 868.582,687.198L868.466,687.198L868.466,669.689L863.369,669.689L863.369,710.862Z" style="fill:rgb(76,76,76);fill-rule:nonzero;"/>
                <path d="M915.736,710.862C915.388,708.948 915.272,706.57 915.272,704.134L915.272,693.642C915.272,688.012 913.187,682.159 904.604,682.159C901.064,682.159 897.699,683.143 895.382,684.649L896.541,688.012C898.51,686.735 901.238,685.922 903.849,685.922C909.595,685.922 910.233,690.102 910.233,692.425L910.233,693.005C899.381,692.947 893.355,696.652 893.355,703.438C893.355,707.505 896.251,711.5 901.934,711.5C905.939,711.5 908.957,709.532 910.523,707.331L910.697,707.331L911.102,710.862L915.736,710.862ZM910.349,701.408C910.349,701.934 910.233,702.514 910.059,703.036C909.247,705.416 906.925,707.737 903.269,707.737C900.657,707.737 898.452,706.17 898.452,702.862C898.452,697.407 904.778,696.42 910.349,696.536L910.349,701.408Z" style="fill:rgb(76,76,76);fill-rule:nonzero;"/>
                <path d="M923.515,710.862L928.612,710.862L928.612,693.984C928.612,693.114 928.728,692.244 928.96,691.606C929.831,688.764 932.442,686.386 935.808,686.386C940.625,686.386 942.307,690.156 942.307,694.68L942.307,710.862L947.404,710.862L947.404,694.1C947.404,684.475 941.379,682.159 937.491,682.159C932.848,682.159 929.599,684.765 928.207,687.43L928.091,687.43L927.801,682.797L923.283,682.797C923.457,685.117 923.515,687.494 923.515,690.393L923.515,710.862Z" style="fill:rgb(76,76,76);fill-rule:nonzero;"/>
            </g>
            <g transform="matrix(0.935052,0,0,0.935052,28.8881,38.5505)">
                <g transform="matrix(1,0,0,1,-1.49595,0)">
                    <path d="M381.841,656.965C370.255,656.965 360.849,666.371 360.849,677.957C360.849,689.543 370.255,698.949 381.841,698.949C393.427,698.949 402.833,689.543 402.833,677.957C402.833,666.371 393.427,656.965 381.841,656.965ZM381.841,663.465C389.839,663.465 396.333,669.959 396.333,677.957C396.333,685.955 389.839,692.449 381.841,692.449C373.843,692.449 367.349,685.955 367.349,677.957C367.349,669.959 373.843,663.465 381.841,663.465Z" style="fill:rgb(76,76,76);"/>
                </g>
                <g transform="matrix(1,0,0,1,48.9157,53.3495)">
                    <path d="M381.841,656.965C370.255,656.965 360.849,666.371 360.849,677.957C360.849,689.543 370.255,698.949 381.841,698.949C393.427,698.949 402.833,689.543 402.833,677.957C402.833,666.371 393.427,656.965 381.841,656.965ZM381.841,663.465C389.839,663.465 396.333,669.959 396.333,677.957C396.333,685.955 389.839,692.449 381.841,692.449C373.843,692.449 367.349,685.955 367.349,677.957C367.349,669.959 373.843,663.465 381.841,663.465Z" style="fill:rgb(76,76,76);"/>
                </g>
                <g transform="matrix(1,0,0,1,-5.76751,0)">
                    <path d="M457.516,669.086C457.516,662.396 452.085,656.965 445.395,656.965L427.653,656.965C420.964,656.965 415.532,662.396 415.532,669.086L415.532,686.828C415.532,693.518 420.964,698.949 427.653,698.949C427.653,698.949 445.395,698.949 445.395,698.949C452.085,698.949 457.516,693.518 457.516,686.828C457.516,686.828 457.516,669.086 457.516,669.086ZM451.016,669.086L451.016,686.828C451.016,689.93 448.497,692.449 445.395,692.449L427.653,692.449C424.551,692.449 422.032,689.93 422.032,686.828C422.032,686.828 422.032,669.086 422.032,669.086C422.032,665.984 424.551,663.465 427.653,663.465C427.653,663.465 445.395,663.465 445.395,663.465C448.497,663.465 451.016,665.984 451.016,669.086Z" style="fill:rgb(76,76,76);"/>
                </g>
                <g transform="matrix(1,0,0,1,-56.1791,53.3495)">
                    <path d="M457.516,669.086C457.516,662.396 452.085,656.965 445.395,656.965L427.653,656.965C420.964,656.965 415.532,662.396 415.532,669.086L415.532,686.828C415.532,693.518 420.964,698.949 427.653,698.949L445.395,698.949C452.085,698.949 457.516,693.518 457.516,686.828C457.516,686.828 457.516,669.086 457.516,669.086ZM451.016,669.086L451.016,686.828C451.016,689.93 448.497,692.449 445.395,692.449C445.395,692.449 427.653,692.449 427.653,692.449C424.551,692.449 422.032,689.93 422.032,686.828C422.032,686.828 422.032,669.086 422.032,669.086C422.032,665.984 424.551,663.465 427.653,663.465C427.653,663.465 445.395,663.465 445.395,663.465C448.497,663.465 451.016,665.984 451.016,669.086Z" style="fill:rgb(76,76,76);"/>
                </g>
            </g>
        </g>
    </g>
</svg>
