<?xml version="1.0" encoding="UTF-8"?>
<svg id="Layer_1" data-name="Layer 1" xmlns="http://www.w3.org/2000/svg" viewBox="0 0 196 121.12">
  <defs>
    <style>
      .cls-1 {
        fill: #fff;
      }

      .cls-2 {
        fill: #4d4d4d;
      }
    </style>
  </defs>
  <rect class="cls-1" width="196" height="121.12"/>
  <g>
    <g>
      <path class="cls-2" d="m34.63,93.83h1.97v-5.83l1.45-1.68,5.04,7.51h2.34l-5.97-8.8,5.53-6.49h-2.45l-4.67,5.74c-.39.5-.79,1.04-1.2,1.63h-.07v-7.37h-1.97v15.29Z"/>
      <path class="cls-2" d="m55.91,82.85h-1.99v6.74c0,.36-.07.73-.18,1.02-.36.88-1.29,1.81-2.63,1.81-1.82,0-2.45-1.41-2.45-3.49v-6.08h-1.99v6.42c0,3.85,2.06,4.81,3.79,4.81,1.95,0,3.11-1.15,3.63-2.04h.05l.11,1.79h1.77c-.07-.86-.09-1.86-.09-2.99v-7.98Z"/>
      <path class="cls-2" d="m67.11,93.83c-.14-.75-.18-1.68-.18-2.63v-4.1c0-2.2-.82-4.49-4.17-4.49-1.38,0-2.7.38-3.61.97l.45,1.32c.77-.5,1.84-.82,2.86-.82,2.25,0,2.5,1.64,2.5,2.54v.23c-4.24-.02-6.6,1.43-6.6,4.08,0,1.59,1.13,3.15,3.36,3.15,1.57,0,2.75-.77,3.36-1.63h.07l.16,1.38h1.81Zm-2.11-3.7c0,.21-.05.43-.11.64-.32.93-1.23,1.84-2.66,1.84-1.02,0-1.88-.61-1.88-1.91,0-2.13,2.47-2.52,4.65-2.47v1.91Z"/>
      <rect class="cls-2" x="70.15" y="77.73" width="1.99" height="16.1"/>
      <path class="cls-2" d="m77.5,93.83v-10.98h-1.99v10.98h1.99Zm-1-15.31c-.73,0-1.25.54-1.25,1.25s.5,1.22,1.2,1.22c.79,0,1.29-.54,1.27-1.22,0-.7-.48-1.25-1.22-1.25Z"/>
      <path class="cls-2" d="m81.27,80.22v2.63h-1.7v1.52h1.7v5.99c0,1.29.2,2.27.77,2.86.48.54,1.22.84,2.15.84.77,0,1.38-.11,1.77-.27l-.09-1.5c-.25.07-.64.14-1.16.14-1.11,0-1.5-.77-1.5-2.13v-5.92h2.86v-1.52h-2.86v-3.15l-1.95.52Z"/>
      <path class="cls-2" d="m96.21,93.83c-.14-.75-.18-1.68-.18-2.63v-4.1c0-2.2-.82-4.49-4.17-4.49-1.38,0-2.7.38-3.61.97l.45,1.32c.77-.5,1.84-.82,2.86-.82,2.25,0,2.5,1.64,2.5,2.54v.23c-4.24-.02-6.6,1.43-6.6,4.08,0,1.59,1.13,3.15,3.36,3.15,1.57,0,2.75-.77,3.36-1.63h.07l.16,1.38h1.81Zm-2.11-3.7c0,.21-.05.43-.11.64-.32.93-1.23,1.84-2.66,1.84-1.02,0-1.88-.61-1.88-1.91,0-2.13,2.47-2.52,4.65-2.47v1.91Z"/>
      <path class="cls-2" d="m98.49,93.31c.77.45,1.88.75,3.08.75,2.61,0,4.1-1.36,4.1-3.29,0-1.63-.97-2.59-2.88-3.31-1.43-.54-2.09-.95-2.09-1.86,0-.82.66-1.5,1.84-1.5,1.02,0,1.82.36,2.25.64l.5-1.45c-.61-.36-1.59-.68-2.7-.68-2.36,0-3.79,1.45-3.79,3.22,0,1.32.93,2.41,2.9,3.11,1.48.54,2.04,1.07,2.04,2.02s-.68,1.63-2.13,1.63c-1,0-2.04-.41-2.63-.79l-.5,1.52Z"/>
      <path class="cls-2" d="m123.39,91.77c-.79.39-2.02.64-3.22.64-3.72,0-5.88-2.41-5.88-6.15,0-4.02,2.38-6.31,5.97-6.31,1.27,0,2.34.27,3.08.64l.48-1.61c-.52-.27-1.72-.68-3.63-.68-4.74,0-7.98,3.24-7.98,8.03s3.24,7.73,7.55,7.73c1.86,0,3.31-.36,4.04-.72l-.41-1.56Z"/>
      <path class="cls-2" d="m134.78,88.7c.02-.2.07-.52.07-.93,0-2.02-.95-5.17-4.54-5.17-3.2,0-5.15,2.61-5.15,5.92s2.02,5.53,5.4,5.53c1.75,0,2.95-.36,3.65-.68l-.34-1.43c-.75.32-1.61.57-3.04.57-2,0-3.72-1.11-3.77-3.81h7.71Zm-7.69-1.43c.16-1.39,1.04-3.25,3.06-3.25,2.25,0,2.79,1.98,2.77,3.25h-5.83Z"/>
      <path class="cls-2" d="m137.77,80.22v2.63h-1.7v1.52h1.7v5.99c0,1.29.2,2.27.77,2.86.48.54,1.22.84,2.15.84.77,0,1.38-.11,1.77-.27l-.09-1.5c-.25.07-.64.14-1.16.14-1.11,0-1.5-.77-1.5-2.13v-5.92h2.86v-1.52h-2.86v-3.15l-1.95.52Z"/>
      <path class="cls-2" d="m152.72,93.83c-.13-.75-.18-1.68-.18-2.63v-4.1c0-2.2-.81-4.49-4.17-4.49-1.38,0-2.7.38-3.61.97l.45,1.32c.77-.5,1.84-.82,2.86-.82,2.25,0,2.5,1.64,2.5,2.54v.23c-4.24-.02-6.6,1.43-6.6,4.08,0,1.59,1.13,3.15,3.36,3.15,1.57,0,2.75-.77,3.36-1.63h.07l.16,1.38h1.81Zm-2.1-3.7c0,.21-.05.43-.11.64-.32.93-1.23,1.84-2.66,1.84-1.02,0-1.88-.61-1.88-1.91,0-2.13,2.47-2.52,4.65-2.47v1.91Z"/>
      <path class="cls-2" d="m157.73,77.73h-1.97v16.1h1.97v-4.13l1.02-1.13,3.79,5.26h2.42l-4.83-6.46,4.24-4.51h-2.41l-3.22,3.79c-.32.39-.7.86-.97,1.25h-.05v-10.16Z"/>
      <path class="cls-2" d="m30.28,115.93h1.97v-6.62h1.86c1.79.07,2.61.86,3.06,2.97.43,1.91.77,3.22,1.02,3.65h2.04c-.32-.59-.68-2.06-1.18-4.2-.36-1.59-1.06-2.68-2.24-3.08v-.07c1.61-.54,2.88-1.88,2.88-3.9,0-1.18-.43-2.22-1.2-2.9-.95-.86-2.31-1.25-4.42-1.25-1.36,0-2.79.11-3.79.32v15.08Zm1.97-13.7c.32-.09,1-.18,1.95-.18,2.09.02,3.52.89,3.52,2.86,0,1.75-1.34,2.9-3.45,2.9h-2.02v-5.58Z"/>
      <path class="cls-2" d="m51.32,110.8c.02-.2.07-.52.07-.93,0-2.02-.95-5.17-4.54-5.17-3.2,0-5.15,2.61-5.15,5.92s2.02,5.53,5.4,5.53c1.75,0,2.95-.36,3.65-.68l-.34-1.43c-.75.32-1.61.57-3.04.57-2,0-3.72-1.11-3.77-3.81h7.71Zm-7.69-1.43c.16-1.38,1.04-3.25,3.06-3.25,2.25,0,2.79,1.98,2.77,3.25h-5.83Z"/>
      <path class="cls-2" d="m53.1,115.41c.77.45,1.88.75,3.08.75,2.61,0,4.1-1.36,4.1-3.29,0-1.63-.97-2.59-2.88-3.31-1.43-.54-2.09-.95-2.09-1.86,0-.82.66-1.5,1.84-1.5,1.02,0,1.82.36,2.25.64l.5-1.45c-.61-.36-1.59-.68-2.7-.68-2.36,0-3.79,1.45-3.79,3.22,0,1.32.93,2.41,2.9,3.11,1.48.54,2.04,1.07,2.04,2.02s-.68,1.63-2.13,1.63c-1,0-2.04-.41-2.63-.79l-.5,1.52Z"/>
      <path class="cls-2" d="m67.5,104.71c-3.04,0-5.44,2.15-5.44,5.83,0,3.47,2.29,5.65,5.26,5.65,2.66,0,5.47-1.77,5.47-5.83,0-3.36-2.13-5.65-5.28-5.65Zm-.05,1.49c2.36,0,3.29,2.36,3.29,4.22,0,2.47-1.43,4.27-3.34,4.27s-3.34-1.82-3.34-4.22c0-2.09,1.02-4.27,3.38-4.27Z"/>
      <rect class="cls-2" x="75.3" y="99.83" width="1.99" height="16.1"/>
      <path class="cls-2" d="m89.84,104.95h-1.99v6.74c0,.36-.07.73-.18,1.02-.36.88-1.29,1.81-2.63,1.81-1.82,0-2.45-1.41-2.45-3.49v-6.08h-1.99v6.42c0,3.86,2.06,4.81,3.79,4.81,1.95,0,3.11-1.15,3.63-2.04h.05l.11,1.79h1.77c-.07-.86-.09-1.86-.09-2.99v-7.98Z"/>
      <path class="cls-2" d="m92.38,115.41c.77.45,1.88.75,3.08.75,2.61,0,4.1-1.36,4.1-3.29,0-1.63-.97-2.59-2.88-3.31-1.43-.54-2.09-.95-2.09-1.86,0-.82.66-1.5,1.84-1.5,1.02,0,1.82.36,2.25.64l.5-1.45c-.61-.36-1.59-.68-2.7-.68-2.36,0-3.79,1.45-3.79,3.22,0,1.32.93,2.41,2.9,3.11,1.48.54,2.04,1.07,2.04,2.02s-.68,1.63-2.13,1.63c-1,0-2.04-.41-2.63-.79l-.5,1.52Z"/>
      <path class="cls-2" d="m104.13,115.93v-10.98h-1.99v10.98h1.99Zm-1-15.31c-.73,0-1.25.54-1.25,1.25s.5,1.22,1.2,1.22c.79,0,1.29-.54,1.27-1.22,0-.7-.48-1.25-1.22-1.25Z"/>
      <path class="cls-2" d="m114.3,115.93h1.99v-13.61h4.67v-1.68h-11.32v1.68h4.65v13.61Z"/>
      <path class="cls-2" d="m124.32,115.93v-10.98h-1.99v10.98h1.99Zm-1-15.31c-.73,0-1.25.54-1.25,1.25s.5,1.22,1.2,1.22c.79,0,1.29-.54,1.27-1.22,0-.7-.48-1.25-1.22-1.25Z"/>
      <path class="cls-2" d="m127.63,115.93h1.99v-6.6c0-.34.05-.68.14-.93.34-1.11,1.36-2.04,2.68-2.04,1.88,0,2.54,1.47,2.54,3.24v6.33h1.99v-6.56c0-3.76-2.36-4.67-3.88-4.67-1.82,0-3.09,1.02-3.63,2.06h-.05l-.11-1.81h-1.77c.07.91.09,1.84.09,2.97v8.01Z"/>
      <path class="cls-2" d="m147.94,104.95l-.09,1.65h-.05c-.48-.91-1.52-1.9-3.43-1.9-2.52,0-4.94,2.11-4.94,5.83,0,3.04,1.95,5.35,4.67,5.35,1.7,0,2.88-.82,3.49-1.83h.05v1.22c0,2.77-1.5,3.84-3.54,3.84-1.36,0-2.5-.41-3.22-.86l-.5,1.52c.88.59,2.34.91,3.65.91,1.38,0,2.93-.32,3.99-1.31,1.06-.95,1.56-2.5,1.56-5.01v-6.38c0-1.34.05-2.22.09-3.01h-1.74Zm-.32,6.31c0,.34-.05.73-.16,1.07-.43,1.27-1.54,2.04-2.77,2.04-2.16,0-3.25-1.79-3.25-3.95,0-2.54,1.36-4.15,3.27-4.15,1.45,0,2.43.95,2.79,2.11.09.27.11.57.11.91v1.98Z"/>
      <path class="cls-2" d="m160.61,104.95l-.09,1.65h-.04c-.48-.91-1.52-1.9-3.43-1.9-2.52,0-4.94,2.11-4.94,5.83,0,3.04,1.95,5.35,4.67,5.35,1.7,0,2.88-.82,3.5-1.83h.04v1.22c0,2.77-1.5,3.84-3.54,3.84-1.36,0-2.5-.41-3.22-.86l-.5,1.52c.88.59,2.33.91,3.65.91,1.38,0,2.93-.32,3.99-1.31,1.06-.95,1.56-2.5,1.56-5.01v-6.38c0-1.34.05-2.22.09-3.01h-1.74Zm-.32,6.31c0,.34-.04.73-.16,1.07-.43,1.27-1.54,2.04-2.77,2.04-2.15,0-3.25-1.79-3.25-3.95,0-2.54,1.36-4.15,3.27-4.15,1.45,0,2.42.95,2.79,2.11.09.27.11.57.11.91v1.98Z"/>
      <path class="cls-2" d="m167.44,115.93v-10.98h-1.99v10.98h1.99Zm-1-15.31c-.73,0-1.25.54-1.25,1.25s.5,1.22,1.2,1.22c.79,0,1.29-.54,1.27-1.22,0-.7-.48-1.25-1.22-1.25Z"/>
    </g>
    <g>
      <path class="cls-2" d="m123.08,11.2h-9.4c-1.21,0-2.19.98-2.19,2.19s.98,2.19,2.19,2.19h4.1l-8.01,8.01c-.86.86-.86,2.25,0,3.1.86.86,2.25.86,3.1,0l8.01-8.01v4.1c0,1.21.98,2.19,2.19,2.19s2.19-.98,2.19-2.19v-9.4c0-1.21-.98-2.19-2.19-2.19Z"/>
      <path class="cls-2" d="m123.08,1.8h-51.72c-6.41,0-11.6,5.18-11.6,11.6v37.61c0,6.41,5.18,11.6,11.6,11.6h51.72c6.41,0,11.6-5.18,11.6-11.6V13.4c0-6.41-5.18-11.6-11.6-11.6Zm-16.3,49.21c0,3.98-3.22,7.21-7.21,7.21h-28.21c-3.98,0-7.21-3.22-7.21-7.21v-11.75c0-3.98,3.22-7.21,7.21-7.21h28.21c3.98,0,7.21,3.22,7.21,7.21v11.75h0Zm23.51,0c0,3.98-3.22,7.21-7.21,7.21h-14.42c1.63-2.04,2.51-4.56,2.51-7.21v-11.75c0-6.41-5.18-11.6-11.6-11.6h-28.21c-2.65,0-5.17.89-7.21,2.51V13.4c0-3.98,3.22-7.21,7.21-7.21h51.72c3.98,0,7.21,3.22,7.21,7.21v37.61h0Z"/>
    </g>
  </g>
</svg>