<?xml version="1.0" encoding="UTF-8" standalone="no"?>
<!DOCTYPE svg PUBLIC "-//W3C//DTD SVG 1.1//EN" "http://www.w3.org/Graphics/SVG/1.1/DTD/svg11.dtd">
<svg width="100%" height="100%" viewBox="0 0 196 170" version="1.1" xmlns="http://www.w3.org/2000/svg" xmlns:xlink="http://www.w3.org/1999/xlink" xml:space="preserve" xmlns:serif="http://www.serif.com/" style="fill-rule:evenodd;clip-rule:evenodd;stroke-linejoin:round;stroke-miterlimit:2;">
    <g transform="matrix(1,0,0,1,-576.111,-652.475)">
        <g transform="matrix(0.966211,0,0,0.966211,30.6665,21.6871)">
            <g transform="matrix(0.575878,0,0,0.575878,164.488,411.431)">
                <path d="M705.783,654.35L710.822,654.35L710.822,639.447L714.534,635.156L727.41,654.35L733.384,654.35L718.13,631.85L732.282,615.266L726.018,615.266L714.07,629.937C713.084,631.213 712.04,632.604 710.996,634.112L710.822,634.112L710.822,615.266L705.783,615.266L705.783,654.35Z" style="fill:rgb(76,76,76);fill-rule:nonzero;"/>
                <path d="M760.18,626.286L755.083,626.286L755.083,643.512C755.083,644.44 754.909,645.368 754.619,646.122C753.691,648.384 751.311,650.762 747.887,650.762C743.245,650.762 741.62,647.166 741.62,641.83L741.62,626.286L736.523,626.286L736.523,642.7C736.523,652.556 741.794,654.988 746.205,654.988C751.195,654.988 754.155,652.035 755.489,649.776L755.605,649.776L755.894,654.35L760.412,654.35C760.238,652.147 760.18,649.596 760.18,646.696L760.18,626.286Z" style="fill:rgb(76,76,76);fill-rule:nonzero;"/>
                <path d="M788.832,654.35C788.484,652.436 788.368,650.058 788.368,647.622L788.368,637.13C788.368,631.5 786.283,625.648 777.7,625.648C774.16,625.648 770.795,626.632 768.478,628.137L769.637,631.5C771.606,630.223 774.334,629.41 776.945,629.41C782.691,629.41 783.329,633.591 783.329,635.913L783.329,636.494C772.477,636.435 766.451,640.14 766.451,646.926C766.451,650.993 769.347,654.988 775.03,654.988C779.035,654.988 782.053,653.02 783.619,650.819L783.793,650.819L784.198,654.35L788.832,654.35ZM783.445,644.896C783.445,645.422 783.329,646.002 783.155,646.525C782.343,648.904 780.021,651.226 776.365,651.226C773.753,651.226 771.548,649.659 771.548,646.35C771.548,640.895 777.874,639.909 783.445,640.024L783.445,644.896Z" style="fill:rgb(76,76,76);fill-rule:nonzero;"/>
                <rect x="796.611" y="613.178" width="5.097" height="41.173" style="fill:rgb(76,76,76);fill-rule:nonzero;"/>
                <path d="M815.396,654.35L815.396,626.286L810.299,626.286L810.299,654.35L815.396,654.35ZM812.848,615.208C810.994,615.208 809.661,616.598 809.661,618.394C809.661,620.132 810.936,621.522 812.732,621.522C814.76,621.522 816.034,620.132 815.976,618.394C815.976,616.598 814.76,615.208 812.848,615.208Z" style="fill:rgb(76,76,76);fill-rule:nonzero;"/>
                <path d="M825.031,619.558L825.031,626.286L820.681,626.286L820.681,630.164L825.031,630.164L825.031,645.482C825.031,648.789 825.553,651.283 827,652.788C828.217,654.178 830.128,654.93 832.506,654.93C834.478,654.93 836.044,654.641 837.03,654.236L836.798,650.413C836.16,650.587 835.174,650.762 833.84,650.762C830.998,650.762 830.012,648.789 830.012,645.308L830.012,630.164L837.32,630.164L837.32,626.286L830.012,626.286L830.012,618.224L825.031,619.558Z" style="fill:rgb(76,76,76);fill-rule:nonzero;"/>
                <path d="M863.246,654.35C862.898,652.436 862.782,650.058 862.782,647.622L862.782,637.13C862.782,631.5 860.697,625.648 852.114,625.648C848.574,625.648 845.209,626.632 842.892,628.137L844.051,631.5C846.02,630.223 848.748,629.41 851.359,629.41C857.105,629.41 857.743,633.591 857.743,635.913L857.743,636.494C846.891,636.435 840.865,640.14 840.865,646.926C840.865,650.993 843.761,654.988 849.444,654.988C853.449,654.988 856.467,653.02 858.033,650.819L858.207,650.819L858.612,654.35L863.246,654.35ZM857.859,644.896C857.859,645.422 857.743,646.002 857.569,646.525C856.757,648.904 854.435,651.226 850.779,651.226C848.167,651.226 845.962,649.659 845.962,646.35C845.962,640.895 852.288,639.909 857.859,640.024L857.859,644.896Z" style="fill:rgb(76,76,76);fill-rule:nonzero;"/>
                <path d="M869.053,653.02C871.024,654.178 873.861,654.93 876.936,654.93C883.61,654.93 887.432,651.457 887.432,646.526C887.432,642.349 884.942,639.912 880.071,638.055C876.414,636.663 874.73,635.618 874.73,633.298C874.73,631.209 876.414,629.468 879.432,629.468C882.045,629.468 884.073,630.397 885.173,631.093L886.448,627.384C884.884,626.458 882.393,625.648 879.549,625.648C873.514,625.648 869.865,629.353 869.865,633.878C869.865,637.243 872.24,640.028 877.284,641.826C881.058,643.219 882.509,644.553 882.509,646.99C882.509,649.311 880.768,651.168 877.052,651.168C874.498,651.168 871.834,650.123 870.329,649.137L869.053,653.02Z" style="fill:rgb(76,76,76);fill-rule:nonzero;"/>
                <path d="M932.73,649.079C930.7,650.065 927.568,650.704 924.494,650.704C914.982,650.704 909.472,644.554 909.472,634.982C909.472,624.714 915.562,618.854 924.726,618.854C927.974,618.854 930.7,619.55 932.614,620.479L933.832,616.368C932.498,615.67 929.424,614.628 924.552,614.628C912.43,614.628 904.143,622.915 904.143,635.156C904.143,647.977 912.43,654.93 923.45,654.93C928.206,654.93 931.918,654.004 933.774,653.077L932.73,649.079Z" style="fill:rgb(76,76,76);fill-rule:nonzero;"/>
                <path d="M961.846,641.242C961.904,640.721 962.02,639.911 962.02,638.869C962.02,633.706 959.588,625.648 950.424,625.648C942.242,625.648 937.261,632.313 937.261,640.779C937.261,649.252 942.416,654.93 951.062,654.93C955.531,654.93 958.603,654.004 960.399,653.193L959.53,649.542C957.619,650.355 955.415,650.994 951.759,650.994C946.652,650.994 942.242,648.149 942.126,641.242L961.846,641.242ZM942.184,637.596C942.59,634.054 944.853,629.294 950.018,629.294C955.763,629.294 957.155,634.345 957.097,637.596L942.184,637.596Z" style="fill:rgb(76,76,76);fill-rule:nonzero;"/>
                <path d="M969.509,619.558L969.509,626.286L965.159,626.286L965.159,630.164L969.509,630.164L969.509,645.482C969.509,648.789 970.031,651.283 971.478,652.788C972.695,654.178 974.606,654.93 976.984,654.93C978.956,654.93 980.522,654.641 981.508,654.236L981.276,650.413C980.638,650.587 979.652,650.762 978.318,650.762C975.476,650.762 974.49,648.789 974.49,645.308L974.49,630.164L981.798,630.164L981.798,626.286L974.49,626.286L974.49,618.224L969.509,619.558Z" style="fill:rgb(76,76,76);fill-rule:nonzero;"/>
                <path d="M1007.72,654.35C1007.38,652.436 1007.26,650.058 1007.26,647.622L1007.26,637.13C1007.26,631.5 1005.18,625.648 996.592,625.648C993.052,625.648 989.687,626.632 987.37,628.137L988.529,631.5C990.498,630.223 993.226,629.41 995.837,629.41C1001.58,629.41 1002.22,633.591 1002.22,635.913L1002.22,636.494C991.369,636.435 985.343,640.14 985.343,646.926C985.343,650.993 988.239,654.988 993.922,654.988C997.927,654.988 1000.95,653.02 1002.51,650.819L1002.69,650.819L1003.09,654.35L1007.72,654.35ZM1002.34,644.896C1002.34,645.422 1002.22,646.002 1002.05,646.525C1001.24,648.904 998.913,651.226 995.257,651.226C992.645,651.226 990.44,649.659 990.44,646.35C990.44,640.895 996.766,639.909 1002.34,640.024L1002.34,644.896Z" style="fill:rgb(76,76,76);fill-rule:nonzero;"/>
                <path d="M1020.54,613.178L1015.5,613.178L1015.5,654.35L1020.54,654.35L1020.54,643.797L1023.15,640.898L1032.84,654.35L1039.04,654.35L1026.69,637.825L1037.54,626.286L1031.39,626.286L1023.15,635.969C1022.34,636.955 1021.35,638.172 1020.66,639.158L1020.54,639.158L1020.54,613.178Z" style="fill:rgb(76,76,76);fill-rule:nonzero;"/>
                <path d="M694.647,710.862L699.686,710.862L699.686,693.926L704.445,693.926C709.029,694.1 711.118,696.13 712.279,701.524C713.381,706.396 714.251,709.76 714.888,710.862L720.102,710.862C719.29,709.354 718.363,705.584 717.088,700.132C716.162,696.072 714.366,693.289 711.35,692.247L711.35,692.074C715.467,690.684 718.71,687.262 718.71,682.097C718.71,679.08 717.61,676.411 715.641,674.671C713.207,672.471 709.725,671.487 704.329,671.487C700.847,671.487 697.196,671.777 694.647,672.298L694.647,710.862ZM699.686,675.83C700.499,675.598 702.239,675.366 704.677,675.366C710.015,675.424 713.671,677.629 713.671,682.678C713.671,687.146 710.248,690.105 704.851,690.105L699.686,690.105L699.686,675.83Z" style="fill:rgb(76,76,76);fill-rule:nonzero;"/>
                <path d="M748.464,697.754C748.522,697.233 748.638,696.423 748.638,695.381C748.638,690.218 746.206,682.159 737.042,682.159C728.86,682.159 723.879,688.825 723.879,697.291C723.879,705.764 729.034,711.442 737.68,711.442C742.149,711.442 745.221,710.516 747.017,709.705L746.148,706.054C744.237,706.867 742.033,707.505 738.377,707.505C733.27,707.505 728.86,704.661 728.744,697.754L748.464,697.754ZM728.802,694.107C729.208,690.566 731.471,685.806 736.636,685.806C742.381,685.806 743.773,690.857 743.715,694.107L728.802,694.107Z" style="fill:rgb(76,76,76);fill-rule:nonzero;"/>
                <path d="M752.995,709.532C754.966,710.69 757.803,711.442 760.878,711.442C767.552,711.442 771.374,707.969 771.374,703.038C771.374,698.86 768.884,696.424 764.013,694.567C760.356,693.174 758.672,692.13 758.672,689.809C758.672,687.721 760.356,685.98 763.374,685.98C765.987,685.98 768.015,686.908 769.115,687.605L770.39,683.896C768.826,682.97 766.335,682.159 763.491,682.159C757.456,682.159 753.807,685.864 753.807,690.39C753.807,693.755 756.182,696.54 761.226,698.338C765,699.731 766.451,701.065 766.451,703.502C766.451,705.823 764.71,707.679 760.994,707.679C758.44,707.679 755.776,706.635 754.271,705.649L752.995,709.532Z" style="fill:rgb(76,76,76);fill-rule:nonzero;"/>
                <path d="M789.822,682.159C782.047,682.159 775.905,687.663 775.905,697.062C775.905,705.939 781.756,711.5 789.358,711.5C796.147,711.5 803.332,706.983 803.332,696.598C803.332,688.011 797.887,682.159 789.822,682.159ZM789.706,685.98C795.74,685.98 798.119,692.014 798.119,696.772C798.119,703.096 794.464,707.679 789.59,707.679C784.6,707.679 781.06,703.038 781.06,696.888C781.06,691.55 783.671,685.98 789.706,685.98Z" style="fill:rgb(76,76,76);fill-rule:nonzero;"/>
                <rect x="809.777" y="669.689" width="5.097" height="41.173" style="fill:rgb(76,76,76);fill-rule:nonzero;"/>
                <path d="M846.948,682.797L841.851,682.797L841.851,700.023C841.851,700.951 841.677,701.879 841.387,702.633C840.459,704.895 838.079,707.273 834.655,707.273C830.013,707.273 828.388,703.677 828.388,698.341L828.388,682.797L823.291,682.797L823.291,699.211C823.291,709.068 828.562,711.5 832.973,711.5C837.963,711.5 840.923,708.547 842.257,706.287L842.373,706.287L842.662,710.862L847.18,710.862C847.006,708.659 846.948,706.107 846.948,703.208L846.948,682.797Z" style="fill:rgb(76,76,76);fill-rule:nonzero;"/>
                <path d="M853.451,709.532C855.422,710.69 858.259,711.442 861.334,711.442C868.008,711.442 871.83,707.969 871.83,703.038C871.83,698.86 869.34,696.424 864.469,694.567C860.812,693.174 859.128,692.13 859.128,689.809C859.128,687.721 860.812,685.98 863.83,685.98C866.443,685.98 868.471,686.908 869.571,687.605L870.846,683.896C869.282,682.97 866.791,682.159 863.947,682.159C857.912,682.159 854.263,685.864 854.263,690.39C854.263,693.755 856.638,696.54 861.682,698.338C865.456,699.731 866.907,701.065 866.907,703.502C866.907,705.823 865.166,707.679 861.45,707.679C858.896,707.679 856.232,706.635 854.727,705.649L853.451,709.532Z" style="fill:rgb(76,76,76);fill-rule:nonzero;"/>
                <path d="M883.488,710.862L883.488,682.797L878.391,682.797L878.391,710.862L883.488,710.862ZM880.94,671.719C879.086,671.719 877.753,673.11 877.753,674.906C877.753,676.644 879.028,678.034 880.824,678.034C882.852,678.034 884.126,676.644 884.068,674.906C884.068,673.11 882.852,671.719 880.94,671.719Z" style="fill:rgb(76,76,76);fill-rule:nonzero;"/>
                <path d="M909.479,710.862L914.576,710.862L914.576,676.062L926.524,676.062L926.524,671.777L897.589,671.777L897.589,676.062L909.479,676.062L909.479,710.862Z" style="fill:rgb(76,76,76);fill-rule:nonzero;"/>
                <path d="M935.108,710.862L935.108,682.797L930.011,682.797L930.011,710.862L935.108,710.862ZM932.56,671.719C930.706,671.719 929.373,673.11 929.373,674.906C929.373,676.644 930.648,678.034 932.444,678.034C934.472,678.034 935.746,676.644 935.688,674.906C935.688,673.11 934.472,671.719 932.56,671.719Z" style="fill:rgb(76,76,76);fill-rule:nonzero;"/>
                <path d="M943.583,710.862L948.68,710.862L948.68,693.984C948.68,693.114 948.796,692.244 949.028,691.606C949.899,688.764 952.51,686.386 955.876,686.386C960.693,686.386 962.375,690.156 962.375,694.68L962.375,710.862L967.472,710.862L967.472,694.1C967.472,684.475 961.447,682.159 957.559,682.159C952.916,682.159 949.667,684.765 948.275,687.43L948.159,687.43L947.869,682.797L943.351,682.797C943.525,685.117 943.583,687.494 943.583,690.393L943.583,710.862Z" style="fill:rgb(76,76,76);fill-rule:nonzero;"/>
                <path d="M995.492,682.797L995.261,687.024L995.145,687.024C993.927,684.707 991.258,682.159 986.384,682.159C979.943,682.159 973.743,687.547 973.743,697.062C973.743,704.837 978.724,710.746 985.687,710.746C990.039,710.746 993.057,708.662 994.623,706.055L994.739,706.055L994.739,709.183C994.739,716.261 990.91,718.989 985.687,718.989C982.206,718.989 979.304,717.944 977.45,716.783L976.176,720.668C978.435,722.174 982.148,722.984 985.513,722.984C989.053,722.984 992.999,722.174 995.724,719.626C998.446,717.19 999.72,713.242 999.72,706.809L999.72,690.506C999.72,687.089 999.836,684.827 999.952,682.797L995.492,682.797ZM994.681,698.921C994.681,699.791 994.565,700.777 994.275,701.647C993.173,704.895 990.329,706.867 987.196,706.867C981.683,706.867 978.898,702.285 978.898,696.775C978.898,690.274 982.38,686.154 987.254,686.154C990.968,686.154 993.463,688.591 994.391,691.55C994.623,692.246 994.681,693 994.681,693.871L994.681,698.921Z" style="fill:rgb(76,76,76);fill-rule:nonzero;"/>
                <path d="M1027.91,682.797L1027.68,687.024L1027.57,687.024C1026.35,684.707 1023.68,682.159 1018.81,682.159C1012.37,682.159 1006.17,687.547 1006.17,697.062C1006.17,704.837 1011.15,710.746 1018.11,710.746C1022.46,710.746 1025.48,708.662 1027.05,706.055L1027.16,706.055L1027.16,709.183C1027.16,716.261 1023.33,718.989 1018.11,718.989C1014.63,718.989 1011.73,717.944 1009.87,716.783L1008.6,720.668C1010.86,722.174 1014.57,722.984 1017.94,722.984C1021.48,722.984 1025.42,722.174 1028.15,719.626C1030.87,717.19 1032.14,713.242 1032.14,706.809L1032.14,690.506C1032.14,687.089 1032.26,684.827 1032.37,682.797L1027.91,682.797ZM1027.1,698.921C1027.1,699.791 1026.99,700.777 1026.7,701.647C1025.6,704.895 1022.75,706.867 1019.62,706.867C1014.11,706.867 1011.32,702.285 1011.32,696.775C1011.32,690.274 1014.8,686.154 1019.68,686.154C1023.39,686.154 1025.88,688.591 1026.81,691.55C1027.05,692.246 1027.1,693 1027.1,693.871L1027.1,698.921Z" style="fill:rgb(76,76,76);fill-rule:nonzero;"/>
                <path d="M1045.37,710.862L1045.37,682.797L1040.27,682.797L1040.27,710.862L1045.37,710.862ZM1042.82,671.719C1040.96,671.719 1039.63,673.11 1039.63,674.906C1039.63,676.644 1040.91,678.034 1042.7,678.034C1044.73,678.034 1046,676.644 1045.95,674.906C1045.95,673.11 1044.73,671.719 1042.82,671.719Z" style="fill:rgb(76,76,76);fill-rule:nonzero;"/>
            </g>
            <g transform="matrix(0.214489,0,0,0.214489,610.763,642.509)">
                <path d="M432.733,112.467L368.466,112.467C360.182,112.467 353.466,119.183 353.466,127.467C353.466,135.751 360.182,142.467 368.466,142.467L396.519,142.467L341.793,197.193C335.935,203.051 335.935,212.548 341.793,218.406C347.65,224.264 357.148,224.264 363.006,218.406L417.733,163.679L417.733,191.733C417.733,200.017 424.449,206.733 432.733,206.733C441.017,206.733 447.733,200.017 447.733,191.733L447.733,127.466C447.733,119.183 441.018,112.467 432.733,112.467Z" style="fill:rgb(76,76,76);fill-rule:nonzero;"/>
                <path d="M432.733,48.2L79.267,48.2C35.487,48.2 0,83.615 0,127.467L0,384.533C0,428.312 35.415,463.8 79.267,463.8L432.734,463.8C476.514,463.8 512.001,428.386 512.001,384.533L512.001,127.467C512,83.688 476.585,48.2 432.733,48.2ZM321.333,384.533C321.333,411.747 299.322,433.8 272.066,433.8L79.266,433.8C52.053,433.8 30,411.789 30,384.533L30,304.2C30,276.987 52.012,254.933 79.267,254.933L272.067,254.933C299.279,254.933 321.334,276.944 321.334,304.2L321.334,384.533L321.333,384.533ZM482,384.533C482,411.746 459.989,433.8 432.733,433.8L334.152,433.8C345.277,419.835 351.332,402.655 351.332,384.533L351.332,304.2C351.332,260.421 315.918,224.933 272.065,224.933L79.265,224.933C61.144,224.933 43.963,230.989 29.998,242.114L29.998,127.467C30,100.254 52.011,78.2 79.267,78.2L432.734,78.2C459.947,78.2 482.001,100.211 482.001,127.467L482.001,384.533L482,384.533Z" style="fill:rgb(76,76,76);fill-rule:nonzero;"/>
            </g>
        </g>
    </g>
</svg>
