<?xml version="1.0" encoding="UTF-8"?>
<svg id="Layer_1" data-name="Layer 1" xmlns="http://www.w3.org/2000/svg" viewBox="0 0 196 121.12">
  <defs>
    <style>
      .cls-1 {
        fill: #fff;
      }

      .cls-2 {
        fill: #4d4d4d;
      }
    </style>
  </defs>
  <rect class="cls-1" width="196" height="121.12"/>
  <g>
    <g>
      <path class="cls-2" d="m34,95.46h1.93v-6.01c.45.11.98.13,1.56.13,1.89,0,3.56-.56,4.59-1.64.76-.78,1.16-1.85,1.16-3.21s-.49-2.43-1.31-3.14c-.89-.8-2.29-1.24-4.21-1.24-1.56,0-2.78.13-3.72.29v14.82Zm1.93-13.42c.33-.09.98-.16,1.83-.16,2.14,0,3.54.96,3.54,2.94s-1.43,3.21-3.76,3.21c-.65,0-1.18-.04-1.6-.16v-5.83Z"/>
      <path class="cls-2" d="m45.42,95.46h1.93v-5.74c0-.33.04-.65.09-.91.27-1.47,1.25-2.51,2.63-2.51.27,0,.47.02.67.07v-1.84c-.18-.04-.33-.07-.56-.07-1.31,0-2.49.91-2.98,2.36h-.09l-.07-2.11h-1.71c.07,1,.09,2.09.09,3.36v7.41Z"/>
      <path class="cls-2" d="m57.04,84.45c-2.98,0-5.34,2.11-5.34,5.72,0,3.41,2.25,5.54,5.16,5.54,2.6,0,5.36-1.73,5.36-5.72,0-3.29-2.09-5.54-5.18-5.54Zm-.04,1.47c2.32,0,3.23,2.32,3.23,4.14,0,2.43-1.4,4.19-3.27,4.19s-3.27-1.78-3.27-4.14c0-2.05,1-4.19,3.32-4.19Z"/>
      <path class="cls-2" d="m72.04,79.66v6.43h-.04c-.49-.87-1.6-1.64-3.25-1.64-2.63,0-4.85,2.2-4.83,5.78,0,3.27,2,5.47,4.61,5.47,1.76,0,3.07-.91,3.67-2.11h.04l.09,1.87h1.76c-.07-.73-.09-1.82-.09-2.78v-13.02h-1.96Zm0,11.28c0,.31-.02.58-.09.85-.36,1.47-1.56,2.34-2.87,2.34-2.12,0-3.18-1.8-3.18-3.99,0-2.38,1.2-4.16,3.23-4.16,1.47,0,2.54,1.02,2.83,2.27.07.25.09.58.09.82v1.87Z"/>
      <path class="cls-2" d="m86.26,84.69h-1.96v6.61c0,.36-.07.71-.18,1-.36.87-1.27,1.78-2.58,1.78-1.78,0-2.4-1.38-2.4-3.43v-5.96h-1.96v6.3c0,3.78,2.02,4.71,3.71,4.71,1.91,0,3.05-1.13,3.56-2h.04l.11,1.76h1.73c-.07-.85-.09-1.82-.09-2.94v-7.83Z"/>
      <path class="cls-2" d="m91.44,79.66h-1.93v15.8h1.93v-4.05l1-1.11,3.72,5.16h2.38l-4.74-6.34,4.16-4.43h-2.36l-3.16,3.72c-.31.38-.69.85-.96,1.22h-.04v-9.97Z"/>
      <path class="cls-2" d="m104.73,95.41c.98.11,2.13.18,3.51.18,2.92,0,5.23-.76,6.63-2.16,1.4-1.38,2.16-3.38,2.16-5.83s-.78-4.16-2.11-5.39c-1.31-1.22-3.29-1.87-6.08-1.87-1.54,0-2.94.13-4.12.31v14.75Zm1.93-13.33c.51-.11,1.27-.2,2.27-.2,4.1,0,6.1,2.25,6.08,5.79,0,4.05-2.25,6.37-6.39,6.37-.76,0-1.47-.02-1.96-.11v-11.84Z"/>
      <path class="cls-2" d="m121.44,95.46v-10.77h-1.96v10.77h1.96Zm-.98-15.02c-.71,0-1.22.53-1.22,1.22s.49,1.2,1.18,1.2c.78,0,1.27-.53,1.24-1.2,0-.69-.47-1.22-1.2-1.22Z"/>
      <path class="cls-2" d="m123.94,94.95c.76.44,1.84.73,3.02.73,2.56,0,4.03-1.33,4.03-3.22,0-1.6-.96-2.54-2.82-3.25-1.4-.53-2.05-.94-2.05-1.83,0-.8.65-1.47,1.8-1.47,1,0,1.78.36,2.2.62l.49-1.42c-.6-.36-1.56-.67-2.65-.67-2.32,0-3.72,1.42-3.72,3.16,0,1.29.91,2.36,2.85,3.05,1.45.53,2,1.05,2,1.98s-.67,1.6-2.09,1.6c-.98,0-2-.4-2.58-.78l-.49,1.49Z"/>
      <path class="cls-2" d="m133.95,82.11v2.58h-1.67v1.49h1.67v5.88c0,1.27.2,2.23.76,2.8.47.53,1.2.82,2.11.82.76,0,1.36-.11,1.74-.27l-.09-1.47c-.24.07-.62.13-1.13.13-1.09,0-1.47-.76-1.47-2.09v-5.81h2.8v-1.49h-2.8v-3.09l-1.91.51Z"/>
      <path class="cls-2" d="m140.87,95.46h1.93v-5.74c0-.33.04-.65.09-.91.27-1.47,1.25-2.51,2.62-2.51.27,0,.47.02.67.07v-1.84c-.18-.04-.33-.07-.56-.07-1.31,0-2.49.91-2.98,2.36h-.09l-.07-2.11h-1.71c.07,1,.09,2.09.09,3.36v7.41Z"/>
      <path class="cls-2" d="m152.49,84.45c-2.98,0-5.34,2.11-5.34,5.72,0,3.41,2.25,5.54,5.16,5.54,2.61,0,5.36-1.73,5.36-5.72,0-3.29-2.09-5.54-5.18-5.54Zm-.04,1.47c2.31,0,3.23,2.32,3.23,4.14,0,2.43-1.4,4.19-3.27,4.19s-3.27-1.78-3.27-4.14c0-2.05,1-4.19,3.32-4.19Z"/>
      <path class="cls-2" d="m54.97,117.14h1.93v-6.01c.45.11.98.13,1.56.13,1.89,0,3.56-.56,4.59-1.64.76-.78,1.16-1.85,1.16-3.21s-.49-2.43-1.31-3.14c-.89-.8-2.29-1.24-4.21-1.24-1.56,0-2.78.13-3.72.29v14.82Zm1.93-13.42c.33-.09.98-.16,1.83-.16,2.14,0,3.54.96,3.54,2.94s-1.43,3.21-3.76,3.21c-.65,0-1.18-.04-1.6-.16v-5.83Z"/>
      <path class="cls-2" d="m66.39,117.14h1.93v-5.74c0-.33.04-.65.09-.91.27-1.47,1.25-2.51,2.63-2.51.27,0,.47.02.67.07v-1.84c-.18-.04-.33-.07-.56-.07-1.31,0-2.49.91-2.98,2.36h-.09l-.07-2.11h-1.71c.07,1,.09,2.09.09,3.36v7.41Z"/>
      <path class="cls-2" d="m82.09,112.11c.02-.2.07-.51.07-.91,0-1.98-.93-5.07-4.45-5.07-3.14,0-5.05,2.56-5.05,5.81s1.98,5.43,5.3,5.43c1.71,0,2.89-.36,3.58-.67l-.33-1.4c-.73.31-1.58.56-2.98.56-1.96,0-3.65-1.09-3.7-3.74h7.57Zm-7.54-1.4c.16-1.36,1.02-3.19,3.01-3.19,2.2,0,2.74,1.94,2.72,3.19h-5.72Z"/>
      <path class="cls-2" d="m84.59,117.14h1.91v-6.5c0-.33.04-.67.16-.96.31-.98,1.2-1.96,2.43-1.96,1.49,0,2.25,1.25,2.25,2.96v6.45h1.91v-6.65c0-.36.07-.71.16-.98.33-.96,1.2-1.78,2.32-1.78,1.58,0,2.34,1.25,2.34,3.32v6.1h1.91v-6.34c0-3.74-2.11-4.67-3.54-4.67-1.02,0-1.74.27-2.38.76-.45.33-.87.8-1.2,1.4h-.04c-.47-1.27-1.58-2.16-3.05-2.16-1.78,0-2.78.96-3.38,1.98h-.07l-.09-1.73h-1.71c.07.89.09,1.8.09,2.91v7.85Z"/>
      <path class="cls-2" d="m105.11,117.14v-10.77h-1.96v10.77h1.96Zm-.98-15.02c-.71,0-1.22.53-1.22,1.22s.49,1.2,1.18,1.2c.78,0,1.27-.53,1.24-1.2,0-.69-.47-1.22-1.2-1.22Z"/>
      <path class="cls-2" d="m117.37,106.37h-1.96v6.61c0,.36-.07.71-.18,1-.36.87-1.27,1.78-2.58,1.78-1.78,0-2.4-1.38-2.4-3.43v-5.96h-1.96v6.3c0,3.78,2.02,4.72,3.72,4.72,1.91,0,3.05-1.13,3.56-2h.04l.11,1.76h1.73c-.07-.85-.09-1.82-.09-2.94v-7.83Z"/>
      <path class="cls-2" d="m120.62,117.14h1.91v-6.5c0-.33.04-.67.16-.96.31-.98,1.2-1.96,2.43-1.96,1.49,0,2.25,1.25,2.25,2.96v6.45h1.91v-6.65c0-.36.07-.71.16-.98.33-.96,1.2-1.78,2.32-1.78,1.58,0,2.34,1.25,2.34,3.32v6.1h1.91v-6.34c0-3.74-2.11-4.67-3.54-4.67-1.02,0-1.74.27-2.38.76-.45.33-.87.8-1.2,1.4h-.04c-.47-1.27-1.58-2.16-3.05-2.16-1.78,0-2.78.96-3.38,1.98h-.07l-.09-1.73h-1.71c.07.89.09,1.8.09,2.91v7.85Z"/>
    </g>
    <path class="cls-2" d="m112.77,29.51c-1.16,0-2.12.96-2.12,2.12v26.65c0,1.16-.96,2.12-2.12,2.12h-25.37c-1.16,0-2.12-.96-2.12-2.12v-26.65c0-.07,0-.14,0-.2,0-1.16-.96-2.12-2.12-2.12s-2.12.96-2.12,2.12c0,.07,0,.14,0,.2v3.39l-6.33-2.64c-.97-.42-1.5-1.49-1.23-2.52l4.28-15.75c.52-1.86,1.85-3.39,3.63-4.14l2.58-1.11c.8-.33,1.32-1.12,1.32-1.98,0-1.18-.97-2.15-2.15-2.15-.29,0-.57.06-.83.17l-2.58,1.09c-3.01,1.29-5.25,3.91-6.05,7.08l-4.28,15.69c-.81,3.07.77,6.3,3.69,7.54l7.93,3.31v18.68c0,3.48,2.86,6.35,6.35,6.35h25.41c3.48,0,6.35-2.86,6.35-6.35v-26.65c0-1.16-.96-2.12-2.12-2.12Zm13.76-.75l-4.28-15.69c-.84-3.11-3.08-5.67-6.05-6.92l-11.05-4.8c-.27-.09-.55-.15-.83-.18h-16.94c-1.16,0-2.12.96-2.12,2.12.01,5.8,4.79,10.57,10.59,10.57,4.66-.01,8.78-3.11,10.09-7.58l8.59,3.69c1.77.76,3.11,2.29,3.63,4.14l4.28,15.73c.28,1.03-.25,2.12-1.23,2.54l-.81.34c-.67.37-1.09,1.09-1.09,1.86,0,1.08.83,2,1.91,2.11.28,0,.56-.05.81-.16l.79-.34c2.88-1.23,4.46-4.4,3.71-7.44Zm-30.68-19.12c-2.67-.02-5.05-1.71-5.95-4.22h11.9c-.9,2.51-3.28,4.21-5.95,4.22Z"/>
  </g>
</svg>