<?xml version="1.0" encoding="UTF-8" standalone="no"?>
<!DOCTYPE svg PUBLIC "-//W3C//DTD SVG 1.1//EN" "http://www.w3.org/Graphics/SVG/1.1/DTD/svg11.dtd">
<svg width="100%" height="100%" viewBox="0 0 180 169" version="1.1" xmlns="http://www.w3.org/2000/svg" xmlns:xlink="http://www.w3.org/1999/xlink" xml:space="preserve" xmlns:serif="http://www.serif.com/" style="fill-rule:evenodd;clip-rule:evenodd;stroke-linejoin:round;stroke-miterlimit:2;">
    <g transform="matrix(1,0,0,1,-841.918,-646.574)">
        <g transform="matrix(0.966211,0,0,0.966211,26.5138,21.6871)">
            <g transform="matrix(0.575878,0,0,0.575878,435.12,411.431)">
                <path d="M709.872,654.35L714.911,654.35L714.911,638.691C716.072,638.98 717.464,639.038 718.973,639.038C723.906,639.038 728.258,637.591 730.923,634.753C732.893,632.723 733.935,629.937 733.935,626.398C733.935,622.916 732.661,620.073 730.518,618.218C728.2,616.133 724.544,614.976 719.554,614.976C715.491,614.976 712.305,615.323 709.872,615.728L709.872,654.35ZM714.911,619.376C715.782,619.144 717.464,618.97 719.67,618.97C725.24,618.97 728.896,621.465 728.896,626.63C728.896,632.026 725.182,634.986 719.089,634.986C717.406,634.986 716.014,634.869 714.911,634.579L714.911,619.376Z" style="fill:rgb(76,76,76);fill-rule:nonzero;"/>
                <path d="M739.626,654.35L744.665,654.35L744.665,639.386C744.665,638.516 744.781,637.704 744.897,637.008C745.593,633.18 748.145,630.454 751.741,630.454C752.437,630.454 752.959,630.512 753.481,630.628L753.481,625.822C753.017,625.705 752.611,625.648 752.031,625.648C748.609,625.648 745.535,628.022 744.26,631.788L744.028,631.788L743.854,626.286L739.394,626.286C739.568,628.895 739.626,631.736 739.626,635.041L739.626,654.35Z" style="fill:rgb(76,76,76);fill-rule:nonzero;"/>
                <path d="M769.899,625.648C762.124,625.648 755.982,631.151 755.982,640.55C755.982,649.427 761.833,654.988 769.435,654.988C776.224,654.988 783.409,650.471 783.409,640.086C783.409,631.499 777.964,625.648 769.899,625.648ZM769.783,629.468C775.817,629.468 778.196,635.502 778.196,640.26C778.196,646.584 774.541,651.168 769.667,651.168C764.677,651.168 761.137,646.526 761.137,640.376C761.137,635.038 763.748,629.468 769.783,629.468Z" style="fill:rgb(76,76,76);fill-rule:nonzero;"/>
                <path d="M808.994,613.178L808.994,629.933L808.878,629.933C807.602,627.674 804.7,625.648 800.407,625.648C793.559,625.648 787.766,631.383 787.824,640.724C787.824,649.253 793.037,654.988 799.826,654.988C804.41,654.988 807.834,652.614 809.4,649.485L809.516,649.485L809.747,654.35L814.323,654.35C814.149,652.436 814.091,649.594 814.091,647.1L814.091,613.178L808.994,613.178ZM808.994,642.576C808.994,643.388 808.936,644.084 808.762,644.78C807.834,648.615 804.7,650.878 801.277,650.878C795.764,650.878 792.979,646.178 792.979,640.492C792.979,634.284 796.113,629.642 801.393,629.642C805.223,629.642 808.008,632.311 808.762,635.56C808.936,636.199 808.994,637.069 808.994,637.707L808.994,642.576Z" style="fill:rgb(76,76,76);fill-rule:nonzero;"/>
                <path d="M846.049,626.286L840.952,626.286L840.952,643.512C840.952,644.44 840.778,645.368 840.488,646.122C839.56,648.384 837.18,650.762 833.756,650.762C829.114,650.762 827.489,647.166 827.489,641.83L827.489,626.286L822.392,626.286L822.392,642.7C822.392,652.556 827.663,654.988 832.074,654.988C837.064,654.988 840.024,652.035 841.358,649.776L841.474,649.776L841.763,654.35L846.281,654.35C846.107,652.147 846.049,649.596 846.049,646.696L846.049,626.286Z" style="fill:rgb(76,76,76);fill-rule:nonzero;"/>
                <path d="M859.563,613.178L854.524,613.178L854.524,654.35L859.563,654.35L859.563,643.797L862.173,640.898L871.859,654.35L878.065,654.35L865.711,637.825L876.557,626.286L870.409,626.286L862.173,635.969C861.361,636.955 860.375,638.172 859.679,639.158L859.563,639.158L859.563,613.178Z" style="fill:rgb(76,76,76);fill-rule:nonzero;"/>
                <path d="M894.196,654.235C896.745,654.525 899.757,654.698 903.354,654.698C910.955,654.698 916.989,652.73 920.644,649.079C924.294,645.482 926.263,640.261 926.263,633.88C926.263,627.556 924.236,623.031 920.76,619.841C917.337,616.655 912.173,614.976 904.921,614.976C900.918,614.976 897.266,615.323 894.196,615.786L894.196,654.235ZM899.235,619.492C900.57,619.202 902.542,618.97 905.153,618.97C915.829,618.97 921.05,624.83 920.992,634.054C920.992,644.612 915.132,650.646 904.341,650.646C902.368,650.646 900.512,650.588 899.235,650.355L899.235,619.492Z" style="fill:rgb(76,76,76);fill-rule:nonzero;"/>
                <path d="M937.747,654.35L937.747,626.286L932.65,626.286L932.65,654.35L937.747,654.35ZM935.199,615.208C933.345,615.208 932.012,616.598 932.012,618.394C932.012,620.132 933.287,621.522 935.083,621.522C937.111,621.522 938.385,620.132 938.327,618.394C938.327,616.598 937.111,615.208 935.199,615.208Z" style="fill:rgb(76,76,76);fill-rule:nonzero;"/>
                <path d="M944.25,653.02C946.221,654.178 949.058,654.93 952.133,654.93C958.807,654.93 962.629,651.457 962.629,646.526C962.629,642.349 960.139,639.912 955.268,638.055C951.611,636.663 949.927,635.618 949.927,633.298C949.927,631.209 951.611,629.468 954.629,629.468C957.242,629.468 959.27,630.397 960.37,631.093L961.645,627.384C960.081,626.458 957.59,625.648 954.746,625.648C948.711,625.648 945.062,629.353 945.062,633.878C945.062,637.243 947.437,640.028 952.481,641.826C956.255,643.219 957.706,644.553 957.706,646.99C957.706,649.311 955.965,651.168 952.249,651.168C949.695,651.168 947.031,650.123 945.526,649.137L944.25,653.02Z" style="fill:rgb(76,76,76);fill-rule:nonzero;"/>
                <path d="M970.35,619.558L970.35,626.286L966,626.286L966,630.164L970.35,630.164L970.35,645.482C970.35,648.789 970.872,651.283 972.319,652.788C973.536,654.178 975.447,654.93 977.825,654.93C979.797,654.93 981.363,654.641 982.349,654.236L982.117,650.413C981.479,650.587 980.493,650.762 979.159,650.762C976.317,650.762 975.331,648.789 975.331,645.308L975.331,630.164L982.639,630.164L982.639,626.286L975.331,626.286L975.331,618.224L970.35,619.558Z" style="fill:rgb(76,76,76);fill-rule:nonzero;"/>
                <path d="M988.388,654.35L993.427,654.35L993.427,639.386C993.427,638.516 993.543,637.704 993.659,637.008C994.355,633.18 996.907,630.454 1000.5,630.454C1001.2,630.454 1001.72,630.512 1002.24,630.628L1002.24,625.822C1001.78,625.705 1001.37,625.648 1000.79,625.648C997.371,625.648 994.297,628.022 993.022,631.788L992.79,631.788L992.616,626.286L988.156,626.286C988.33,628.895 988.388,631.736 988.388,635.041L988.388,654.35Z" style="fill:rgb(76,76,76);fill-rule:nonzero;"/>
                <path d="M1018.66,625.648C1010.89,625.648 1004.74,631.151 1004.74,640.55C1004.74,649.427 1010.6,654.988 1018.2,654.988C1024.99,654.988 1032.17,650.471 1032.17,640.086C1032.17,631.499 1026.73,625.648 1018.66,625.648ZM1018.55,629.468C1024.58,629.468 1026.96,635.502 1026.96,640.26C1026.96,646.584 1023.3,651.168 1018.43,651.168C1013.44,651.168 1009.9,646.526 1009.9,640.376C1009.9,635.038 1012.51,629.468 1018.55,629.468Z" style="fill:rgb(76,76,76);fill-rule:nonzero;"/>
                <path d="M764.508,710.862L769.547,710.862L769.547,695.203C770.708,695.492 772.1,695.55 773.609,695.55C778.542,695.55 782.894,694.103 785.559,691.265C787.529,689.234 788.571,686.449 788.571,682.909C788.571,679.428 787.297,676.585 785.154,674.729C782.836,672.645 779.18,671.487 774.19,671.487C770.127,671.487 766.941,671.835 764.508,672.24L764.508,710.862ZM769.547,675.888C770.418,675.656 772.1,675.482 774.306,675.482C779.876,675.482 783.532,677.977 783.532,683.142C783.532,688.538 779.818,691.497 773.725,691.497C772.042,691.497 770.65,691.381 769.547,691.091L769.547,675.888Z" style="fill:rgb(76,76,76);fill-rule:nonzero;"/>
                <path d="M794.262,710.862L799.301,710.862L799.301,695.898C799.301,695.028 799.417,694.216 799.533,693.52C800.229,689.692 802.781,686.966 806.377,686.966C807.073,686.966 807.595,687.024 808.117,687.14L808.117,682.333C807.653,682.217 807.247,682.159 806.667,682.159C803.245,682.159 800.171,684.534 798.896,688.3L798.664,688.3L798.49,682.797L794.03,682.797C794.204,685.407 794.262,688.248 794.262,691.553L794.262,710.862Z" style="fill:rgb(76,76,76);fill-rule:nonzero;"/>
                <path d="M835.203,697.754C835.261,697.233 835.377,696.423 835.377,695.381C835.377,690.218 832.945,682.159 823.781,682.159C815.599,682.159 810.618,688.825 810.618,697.291C810.618,705.764 815.773,711.442 824.419,711.442C828.888,711.442 831.96,710.516 833.756,709.705L832.887,706.054C830.976,706.867 828.772,707.505 825.116,707.505C820.009,707.505 815.599,704.661 815.483,697.754L835.203,697.754ZM815.541,694.107C815.947,690.566 818.21,685.806 823.375,685.806C829.12,685.806 830.512,690.857 830.454,694.107L815.541,694.107Z" style="fill:rgb(76,76,76);fill-rule:nonzero;"/>
                <path d="M841.706,710.862L846.687,710.862L846.687,693.926C846.687,693.056 846.803,692.186 847.093,691.432C847.906,688.88 850.227,686.328 853.419,686.328C857.307,686.328 859.28,689.576 859.28,694.042L859.28,710.862L864.261,710.862L864.261,693.52C864.261,692.592 864.435,691.664 864.667,690.968C865.538,688.474 867.801,686.328 870.703,686.328C874.823,686.328 876.796,689.576 876.796,694.97L876.796,710.862L881.777,710.862L881.777,694.332C881.777,684.591 876.274,682.159 872.56,682.159C869.89,682.159 868.033,682.854 866.35,684.128C865.19,684.996 864.087,686.212 863.219,687.778L863.103,687.778C861.887,684.475 858.99,682.159 855.16,682.159C850.517,682.159 847.906,684.649 846.34,687.314L846.166,687.314L845.934,682.797L841.474,682.797C841.648,685.117 841.706,687.494 841.706,690.393L841.706,710.862Z" style="fill:rgb(76,76,76);fill-rule:nonzero;"/>
                <path d="M895.175,710.862L895.175,682.797L890.078,682.797L890.078,710.862L895.175,710.862ZM892.627,671.719C890.773,671.719 889.44,673.11 889.44,674.906C889.44,676.644 890.715,678.034 892.511,678.034C894.539,678.034 895.813,676.644 895.755,674.906C895.755,673.11 894.539,671.719 892.627,671.719Z" style="fill:rgb(76,76,76);fill-rule:nonzero;"/>
                <path d="M927.133,682.797L922.036,682.797L922.036,700.023C922.036,700.951 921.862,701.879 921.572,702.633C920.644,704.895 918.264,707.273 914.84,707.273C910.198,707.273 908.573,703.677 908.573,698.341L908.573,682.797L903.476,682.797L903.476,699.211C903.476,709.068 908.747,711.5 913.158,711.5C918.148,711.5 921.108,708.547 922.442,706.287L922.558,706.287L922.847,710.862L927.365,710.862C927.191,708.659 927.133,706.107 927.133,703.208L927.133,682.797Z" style="fill:rgb(76,76,76);fill-rule:nonzero;"/>
                <path d="M935.608,710.862L940.589,710.862L940.589,693.926C940.589,693.056 940.705,692.186 940.995,691.432C941.808,688.88 944.129,686.328 947.321,686.328C951.209,686.328 953.182,689.576 953.182,694.042L953.182,710.862L958.163,710.862L958.163,693.52C958.163,692.592 958.337,691.664 958.569,690.968C959.44,688.474 961.703,686.328 964.605,686.328C968.725,686.328 970.698,689.576 970.698,694.97L970.698,710.862L975.679,710.862L975.679,694.332C975.679,684.591 970.176,682.159 966.462,682.159C963.792,682.159 961.935,682.854 960.252,684.128C959.092,684.996 957.989,686.212 957.121,687.778L957.005,687.778C955.789,684.475 952.892,682.159 949.062,682.159C944.419,682.159 941.808,684.649 940.242,687.314L940.068,687.314L939.836,682.797L935.376,682.797C935.55,685.117 935.608,687.494 935.608,690.393L935.608,710.862Z" style="fill:rgb(76,76,76);fill-rule:nonzero;"/>
            </g>
            <g transform="matrix(0.186033,0,0,0.186033,889.116,646.74)">
                <path d="M392.48,228.64C383.088,228.64 375.36,236.368 375.36,245.76L375.36,460.8C375.36,470.192 367.632,477.92 358.24,477.92L153.6,477.92C144.208,477.92 136.48,470.192 136.48,460.8L136.48,245.76C136.533,245.211 136.56,244.659 136.56,244.107C136.56,234.715 128.832,226.987 119.44,226.987C110.048,226.987 102.32,234.715 102.32,244.107C102.32,244.659 102.347,245.211 102.4,245.76L102.4,273.12L51.36,251.84C43.501,248.486 39.251,239.78 41.44,231.52L76,104.48C80.179,89.478 90.962,77.164 105.28,71.04L126.08,62.08C132.51,59.379 136.714,53.054 136.714,46.08C136.714,36.56 128.88,28.726 119.36,28.726C117.052,28.726 114.768,29.186 112.64,30.08L91.84,38.88C67.569,49.255 49.498,70.407 43.04,96L8.48,222.56C1.929,247.296 14.687,273.359 38.24,283.36L102.24,310.08L102.24,460.8C102.24,488.888 125.353,512 153.44,512C153.493,512 153.547,512 153.6,512L358.4,512C386.487,512 409.6,488.887 409.6,460.8L409.6,245.76C409.6,236.368 401.872,228.64 392.48,228.64ZM503.52,222.56L468.96,96C462.152,70.889 444.133,50.27 420.16,40.16L331.04,1.44C328.853,0.739 326.602,0.257 324.32,0L187.68,0C178.288,0 170.56,7.728 170.56,17.12C170.648,63.931 209.189,102.4 256,102.4C293.575,102.3 326.846,77.331 337.44,41.28L406.72,71.04C421.038,77.164 431.821,89.478 436,104.48L470.56,231.36C472.839,239.669 468.573,248.477 460.64,251.84L454.08,254.56C448.648,257.574 445.267,263.317 445.267,269.529C445.267,278.264 451.951,285.669 460.64,286.56C462.889,286.564 465.118,286.13 467.2,285.28L473.6,282.56C496.854,272.663 509.607,247.088 503.52,222.56ZM256,68.32C234.481,68.167 215.24,54.505 208,34.24L304,34.24C296.76,54.505 277.519,68.167 256,68.32Z" style="fill:rgb(76,76,76);fill-rule:nonzero;"/>
            </g>
        </g>
    </g>
</svg>
