<?xml version="1.0" encoding="UTF-8"?>
<svg id="Layer_1" data-name="Layer 1" xmlns="http://www.w3.org/2000/svg" viewBox="0 0 196 121.12">
  <defs>
    <style>
      .cls-1 {
        fill: #fff;
      }

      .cls-2, .cls-3 {
        fill: #4d4d4d;
      }

      .cls-3 {
        fill-rule: evenodd;
      }
    </style>
  </defs>
  <rect class="cls-1" width="196" height="121.12"/>
  <g>
    <g>
      <path class="cls-2" d="m26.95,81.09v14.68h1.89v-6.89h7.11v6.89h1.91v-14.68h-1.91v6.14h-7.11v-6.14h-1.89Z"/>
      <path class="cls-2" d="m48.67,95.77c-.13-.72-.17-1.61-.17-2.53v-3.94c0-2.11-.78-4.31-4.01-4.31-1.33,0-2.59.37-3.46.94l.44,1.26c.74-.48,1.76-.79,2.75-.79,2.16,0,2.4,1.57,2.4,2.44v.22c-4.08-.02-6.34,1.37-6.34,3.92,0,1.53,1.09,3.03,3.22,3.03,1.5,0,2.64-.74,3.23-1.57h.07l.15,1.33h1.74Zm-2.02-3.55c0,.2-.04.42-.11.61-.31.89-1.18,1.77-2.55,1.77-.98,0-1.81-.59-1.81-1.83,0-2.05,2.38-2.42,4.47-2.38v1.83Z"/>
      <path class="cls-2" d="m51.59,100.08h1.89v-5.73h.04c.63,1.04,1.85,1.65,3.25,1.65,2.48,0,4.79-1.87,4.79-5.66,0-3.2-1.91-5.36-4.47-5.36-1.72,0-2.96.76-3.75,2.05h-.04l-.09-1.81h-1.72c.04,1,.09,2.09.09,3.44v11.41Zm1.89-10.41c0-.26.07-.54.13-.78.37-1.44,1.59-2.38,2.9-2.38,2.03,0,3.14,1.81,3.14,3.92,0,2.42-1.18,4.08-3.2,4.08-1.37,0-2.53-.92-2.88-2.24-.04-.24-.09-.5-.09-.78v-1.81Z"/>
      <path class="cls-2" d="m63.99,100.08h1.89v-5.73h.04c.63,1.04,1.85,1.65,3.25,1.65,2.48,0,4.79-1.87,4.79-5.66,0-3.2-1.91-5.36-4.47-5.36-1.72,0-2.96.76-3.75,2.05h-.04l-.09-1.81h-1.72c.04,1,.09,2.09.09,3.44v11.41Zm1.89-10.41c0-.26.07-.54.13-.78.37-1.44,1.59-2.38,2.9-2.38,2.03,0,3.14,1.81,3.14,3.92,0,2.42-1.18,4.08-3.2,4.08-1.37,0-2.53-.92-2.88-2.24-.04-.24-.09-.5-.09-.78v-1.81Z"/>
      <path class="cls-2" d="m74.84,85.23l3.9,9.72c.09.24.13.39.13.5s-.07.26-.15.46c-.44.98-1.09,1.72-1.61,2.14-.57.48-1.2.78-1.68.94l.48,1.61c.48-.09,1.42-.41,2.35-1.24,1.31-1.13,2.24-2.98,3.62-6.6l2.88-7.52h-2.03l-2.09,6.19c-.26.76-.48,1.57-.68,2.2h-.04c-.17-.63-.44-1.46-.68-2.16l-2.31-6.23h-2.09Z"/>
      <path class="cls-2" d="m90.44,95.05c.78.52,2.33.94,3.75.94,3.47,0,5.14-1.96,5.14-4.22s-1.26-3.36-3.75-4.32c-2.03-.78-2.92-1.46-2.92-2.83,0-1,.76-2.2,2.77-2.2,1.33,0,2.31.44,2.79.7l.52-1.54c-.65-.37-1.74-.72-3.25-.72-2.86,0-4.75,1.7-4.75,3.98,0,2.07,1.48,3.31,3.88,4.16,1.98.76,2.77,1.55,2.77,2.92,0,1.48-1.13,2.51-3.07,2.51-1.31,0-2.55-.44-3.4-.96l-.48,1.59Z"/>
      <path class="cls-2" d="m101.85,95.77h1.91v-6.36c0-.37.02-.65.13-.92.35-1.05,1.33-1.92,2.57-1.92,1.81,0,2.44,1.44,2.44,3.14v6.06h1.91v-6.27c0-3.64-2.26-4.51-3.68-4.51-.72,0-1.4.22-1.96.54-.59.33-1.07.8-1.37,1.35h-.04v-6.58h-1.91v15.47Z"/>
      <path class="cls-2" d="m118.41,84.99c-2.92,0-5.23,2.07-5.23,5.6,0,3.33,2.2,5.42,5.05,5.42,2.55,0,5.25-1.7,5.25-5.6,0-3.23-2.05-5.42-5.08-5.42Zm-.04,1.44c2.27,0,3.16,2.27,3.16,4.05,0,2.38-1.37,4.1-3.2,4.1s-3.2-1.74-3.2-4.05c0-2.01.98-4.1,3.25-4.1Z"/>
      <path class="cls-2" d="m125.91,100.08h1.89v-5.73h.04c.63,1.04,1.85,1.65,3.25,1.65,2.48,0,4.79-1.87,4.79-5.66,0-3.2-1.91-5.36-4.47-5.36-1.72,0-2.96.76-3.75,2.05h-.04l-.09-1.81h-1.72c.04,1,.09,2.09.09,3.44v11.41Zm1.89-10.41c0-.26.07-.54.13-.78.37-1.44,1.59-2.38,2.9-2.38,2.03,0,3.14,1.81,3.14,3.92,0,2.42-1.18,4.08-3.2,4.08-1.37,0-2.53-.92-2.88-2.24-.04-.24-.09-.5-.09-.78v-1.81Z"/>
      <path class="cls-2" d="m140.22,95.77v-10.54h-1.91v10.54h1.91Zm-.96-14.7c-.7,0-1.2.52-1.2,1.2s.48,1.18,1.15,1.18c.76,0,1.24-.52,1.22-1.18,0-.67-.46-1.2-1.18-1.2Z"/>
      <path class="cls-2" d="m143.4,95.77h1.91v-6.34c0-.33.05-.65.13-.89.33-1.07,1.31-1.96,2.57-1.96,1.81,0,2.44,1.42,2.44,3.12v6.08h1.91v-6.3c0-3.62-2.26-4.49-3.72-4.49-1.74,0-2.96.98-3.49,1.98h-.04l-.11-1.74h-1.7c.07.87.09,1.76.09,2.85v7.69Z"/>
      <path class="cls-2" d="m162.9,85.23l-.09,1.59h-.04c-.46-.87-1.46-1.83-3.29-1.83-2.42,0-4.75,2.02-4.75,5.6,0,2.92,1.87,5.14,4.49,5.14,1.63,0,2.77-.78,3.35-1.76h.05v1.18c0,2.66-1.44,3.68-3.4,3.68-1.31,0-2.4-.39-3.1-.83l-.48,1.46c.85.57,2.24.87,3.5.87,1.33,0,2.81-.3,3.84-1.26,1.03-.92,1.5-2.4,1.5-4.81v-6.12c0-1.28.05-2.13.09-2.9h-1.68Zm-.3,6.06c0,.33-.05.7-.15,1.02-.41,1.22-1.48,1.96-2.66,1.96-2.07,0-3.12-1.72-3.12-3.79,0-2.44,1.31-3.99,3.14-3.99,1.4,0,2.33.92,2.68,2.03.09.26.11.55.11.87v1.9Z"/>
      <path class="cls-2" d="m57.7,101.53v6.29h-.04c-.48-.85-1.57-1.61-3.18-1.61-2.57,0-4.75,2.15-4.73,5.66,0,3.2,1.96,5.36,4.51,5.36,1.72,0,3.01-.89,3.6-2.07h.04l.09,1.83h1.72c-.07-.72-.09-1.79-.09-2.72v-12.74h-1.91Zm0,11.04c0,.31-.02.57-.09.83-.35,1.44-1.53,2.29-2.81,2.29-2.07,0-3.12-1.77-3.12-3.9,0-2.33,1.18-4.08,3.16-4.08,1.44,0,2.48,1,2.77,2.22.07.24.09.57.09.81v1.83Z"/>
      <path class="cls-2" d="m70.38,117c-.13-.72-.17-1.61-.17-2.53v-3.94c0-2.11-.78-4.31-4.01-4.31-1.33,0-2.59.37-3.46.94l.44,1.26c.74-.48,1.76-.79,2.75-.79,2.16,0,2.4,1.57,2.4,2.44v.22c-4.08-.02-6.34,1.37-6.34,3.92,0,1.53,1.09,3.03,3.22,3.03,1.5,0,2.64-.74,3.23-1.57h.07l.15,1.33h1.74Zm-2.02-3.55c0,.2-.04.42-.11.61-.31.89-1.18,1.77-2.55,1.77-.98,0-1.81-.59-1.81-1.83,0-2.05,2.38-2.42,4.47-2.38v1.83Z"/>
      <path class="cls-2" d="m73.3,117h1.91v-6.34c0-.33.04-.65.13-.89.33-1.07,1.31-1.96,2.57-1.96,1.81,0,2.44,1.42,2.44,3.12v6.08h1.91v-6.3c0-3.62-2.26-4.49-3.72-4.49-1.74,0-2.96.98-3.49,1.98h-.04l-.11-1.74h-1.7c.07.87.09,1.76.09,2.85v7.69Z"/>
      <path class="cls-2" d="m97.66,112.38l1.57,4.62h2.03l-5.01-14.68h-2.29l-4.99,14.68h1.96l1.52-4.62h5.21Zm-4.81-1.48l1.44-4.25c.28-.9.52-1.79.74-2.66h.04c.22.85.44,1.72.76,2.68l1.44,4.23h-4.42Z"/>
      <path class="cls-2" d="m103.28,117h1.87v-6.36c0-.33.04-.65.15-.94.31-.96,1.18-1.92,2.38-1.92,1.46,0,2.2,1.22,2.2,2.9v6.32h1.87v-6.51c0-.35.07-.7.15-.96.33-.94,1.18-1.74,2.27-1.74,1.55,0,2.29,1.22,2.29,3.25v5.97h1.87v-6.21c0-3.66-2.07-4.57-3.46-4.57-1,0-1.7.26-2.33.74-.44.33-.85.78-1.18,1.37h-.04c-.46-1.24-1.55-2.11-2.98-2.11-1.74,0-2.73.94-3.31,1.94h-.07l-.09-1.7h-1.68c.07.87.09,1.76.09,2.85v7.69Z"/>
      <path class="cls-2" d="m129.03,117c-.13-.72-.17-1.61-.17-2.53v-3.94c0-2.11-.78-4.31-4.01-4.31-1.33,0-2.59.37-3.46.94l.44,1.26c.74-.48,1.76-.79,2.75-.79,2.16,0,2.4,1.57,2.4,2.44v.22c-4.08-.02-6.34,1.37-6.34,3.92,0,1.53,1.09,3.03,3.22,3.03,1.5,0,2.64-.74,3.23-1.57h.07l.15,1.33h1.74Zm-2.02-3.55c0,.2-.04.42-.11.61-.31.89-1.18,1.77-2.55,1.77-.98,0-1.81-.59-1.81-1.83,0-2.05,2.38-2.42,4.47-2.38v1.83Z"/>
      <path class="cls-2" d="m131.95,117h1.91v-6.34c0-.33.04-.65.13-.89.33-1.07,1.31-1.96,2.57-1.96,1.81,0,2.44,1.42,2.44,3.12v6.08h1.91v-6.3c0-3.62-2.26-4.49-3.72-4.49-1.74,0-2.96.98-3.49,1.98h-.04l-.11-1.74h-1.7c.07.87.09,1.76.09,2.85v7.69Z"/>
    </g>
    <path class="cls-3" d="m95.75,1.4c-1.55-.73-3.29-1.14-5.12-1.14-6.66,0-12.06,5.4-12.06,12.06v4.03h-6.87c-1,0-1.81.81-1.81,1.81v37.69c0,5.38,4.36,9.74,9.74,9.74h2.54s29.69,0,29.69,0c5.38,0,9.42-4.37,9.74-9.74.05-.88.04-1.6,0-2.4-.12-2.38-3.56-1.84-3.56,0,0,1.17-.06,1.71-.06,2.4,0,3.38-2.74,6.12-6.12,6.12h-27.89V19.96h34.01v22.78c0,1,.81,1.81,1.81,1.81s1.81-.81,1.81-1.81v-24.59c0-1-.81-1.81-1.81-1.81h-6.87v-4.03c0-6.66-5.4-12.06-12.06-12.06-1.83,0-3.57.41-5.12,1.14Zm-15.39,18.57v42h-.73c-3.38,0-6.12-2.74-6.12-6.12V19.96h6.85Zm10.2,25.7c1.18,4.8,5.44,7.32,9.82,7.34,4.34.03,8.73-2.39,10.21-7.24.29-.95-.25-1.97-1.2-2.26-.95-.29-1.97.25-2.26,1.2-.97,3.18-3.89,4.7-6.73,4.68-2.79-.02-5.58-1.52-6.33-4.59-.24-.97-1.22-1.56-2.19-1.33-.97.24-1.56,1.22-1.33,2.19Zm3.29-9.69v2.16c0,1,.81,1.81,1.81,1.81s1.81-.81,1.81-1.81v-2.16c0-1-.81-1.81-1.81-1.81s-1.81.81-1.81,1.81Zm13.44,2.16v-2.16c0-1-.81-1.81-1.81-1.81s-1.81.81-1.81,1.81v2.16c0,1,.81,1.81,1.81,1.81s1.81-.81,1.81-1.81Zm-15.16-34.12c-.49-.09-.99-.13-1.51-.13-4.66,0-8.44,3.78-8.44,8.44v4.03h6.63v-4.03c0-3.22,1.26-6.14,3.32-8.3Zm3.62,1.6c-2.01,1.54-3.31,3.97-3.31,6.7v4.03h6.63v-4.03c0-2.73-1.3-5.16-3.31-6.7Zm13.56,10.74v-4.03c0-4.66-3.78-8.44-8.44-8.44-.51,0-1.02.05-1.51.13,2.05,2.16,3.32,5.09,3.32,8.3v4.03h6.63Z"/>
  </g>
</svg>