<?xml version="1.0" encoding="UTF-8" standalone="no"?>
<!DOCTYPE svg PUBLIC "-//W3C//DTD SVG 1.1//EN" "http://www.w3.org/Graphics/SVG/1.1/DTD/svg11.dtd">
<svg width="100%" height="100%" viewBox="0 0 204 174" version="1.1" xmlns="http://www.w3.org/2000/svg" xmlns:xlink="http://www.w3.org/1999/xlink" xml:space="preserve" xmlns:serif="http://www.serif.com/" style="fill-rule:evenodd;clip-rule:evenodd;stroke-linejoin:round;stroke-miterlimit:2;">
    <g transform="matrix(1,0,0,1,-1091.59,-641.841)">
        <g transform="matrix(0.966211,0,0,0.966211,19.4512,21.6871)">
            <g transform="matrix(0.575878,0,0,0.575878,714.04,411.431)">
                <path d="M686.933,615.266L686.933,654.35L691.972,654.35L691.972,636.022L710.887,636.022L710.887,654.35L715.984,654.35L715.984,615.266L710.887,615.266L710.887,631.622L691.972,631.622L691.972,615.266L686.933,615.266Z" style="fill:rgb(76,76,76);fill-rule:nonzero;"/>
                <path d="M744.752,654.35C744.404,652.436 744.288,650.058 744.288,647.622L744.288,637.13C744.288,631.5 742.203,625.648 733.62,625.648C730.08,625.648 726.715,626.632 724.398,628.137L725.557,631.5C727.526,630.223 730.254,629.41 732.865,629.41C738.611,629.41 739.249,633.591 739.249,635.913L739.249,636.494C728.397,636.435 722.371,640.14 722.371,646.926C722.371,650.993 725.267,654.988 730.95,654.988C734.955,654.988 737.973,653.02 739.539,650.819L739.713,650.819L740.118,654.35L744.752,654.35ZM739.365,644.896C739.365,645.422 739.249,646.002 739.075,646.525C738.263,648.904 735.941,651.226 732.285,651.226C729.673,651.226 727.468,649.659 727.468,646.35C727.468,640.895 733.794,639.909 739.365,640.024L739.365,644.896Z" style="fill:rgb(76,76,76);fill-rule:nonzero;"/>
                <path d="M752.531,665.834L757.57,665.834L757.57,650.587L757.686,650.587C759.369,653.367 762.618,654.988 766.332,654.988C772.947,654.988 779.088,650.007 779.088,639.912C779.088,631.383 773.991,625.648 767.202,625.648C762.618,625.648 759.311,627.674 757.223,631.093L757.107,631.093L756.875,626.286L752.299,626.286C752.415,628.954 752.531,631.854 752.531,635.45L752.531,665.834ZM757.57,638.118C757.57,637.422 757.744,636.668 757.918,636.03C758.905,632.195 762.154,629.7 765.636,629.7C771.032,629.7 773.991,634.516 773.991,640.144C773.991,646.584 770.858,650.994 765.462,650.994C761.806,650.994 758.731,648.557 757.802,645.018C757.686,644.379 757.57,643.683 757.57,642.929L757.57,638.118Z" style="fill:rgb(76,76,76);fill-rule:nonzero;"/>
                <path d="M785.533,665.834L790.572,665.834L790.572,650.587L790.688,650.587C792.371,653.367 795.62,654.988 799.334,654.988C805.949,654.988 812.09,650.007 812.09,639.912C812.09,631.383 806.993,625.648 800.204,625.648C795.62,625.648 792.313,627.674 790.225,631.093L790.109,631.093L789.877,626.286L785.301,626.286C785.417,628.954 785.533,631.854 785.533,635.45L785.533,665.834ZM790.572,638.118C790.572,637.422 790.746,636.668 790.92,636.03C791.907,632.195 795.156,629.7 798.638,629.7C804.034,629.7 806.993,634.516 806.993,640.144C806.993,646.584 803.86,650.994 798.464,650.994C794.808,650.994 791.733,648.557 790.804,645.018C790.688,644.379 790.572,643.683 790.572,642.929L790.572,638.118Z" style="fill:rgb(76,76,76);fill-rule:nonzero;"/>
                <path d="M814.417,626.286L824.797,652.154C825.028,652.792 825.144,653.198 825.144,653.488C825.144,653.778 824.97,654.184 824.739,654.706C823.579,657.316 821.839,659.288 820.448,660.39C818.94,661.666 817.259,662.478 815.983,662.884L817.259,667.176C818.534,666.944 821.028,666.074 823.521,663.87C827,660.854 829.493,655.924 833.146,646.296L840.8,626.286L835.408,626.286L829.841,642.758C829.145,644.788 828.565,646.934 828.044,648.616L827.928,648.616C827.464,646.934 826.768,644.73 826.13,642.874L819.984,626.286L814.417,626.286Z" style="fill:rgb(76,76,76);fill-rule:nonzero;"/>
                <path d="M855.945,652.441C858.032,653.83 862.144,654.93 865.916,654.93C875.142,654.93 879.602,649.717 879.602,643.684C879.602,637.941 876.243,634.75 869.631,632.197C864.233,630.109 861.854,628.31 861.854,624.656C861.854,621.987 863.885,618.796 869.224,618.796C872.764,618.796 875.374,619.957 876.648,620.653L878.038,616.542C876.301,615.554 873.403,614.628 869.398,614.628C861.796,614.628 856.757,619.144 856.757,625.236C856.757,630.747 860.696,634.054 867.077,636.316C872.358,638.347 874.447,640.435 874.447,644.09C874.447,648.035 871.43,650.762 866.265,650.762C862.783,650.762 859.479,649.601 857.221,648.209L855.945,652.441Z" style="fill:rgb(76,76,76);fill-rule:nonzero;"/>
                <path d="M886.337,654.35L891.434,654.35L891.434,637.414C891.434,636.428 891.492,635.674 891.782,634.978C892.711,632.194 895.322,629.874 898.63,629.874C903.447,629.874 905.129,633.702 905.129,638.226L905.129,654.35L910.226,654.35L910.226,637.646C910.226,627.964 904.201,625.648 900.429,625.648C898.514,625.648 896.715,626.227 895.206,627.095C893.639,627.964 892.363,629.237 891.55,630.686L891.434,630.686L891.434,613.178L886.337,613.178L886.337,654.35Z" style="fill:rgb(76,76,76);fill-rule:nonzero;"/>
                <path d="M930.414,625.648C922.639,625.648 916.497,631.151 916.497,640.55C916.497,649.427 922.348,654.988 929.95,654.988C936.739,654.988 943.924,650.471 943.924,640.086C943.924,631.499 938.479,625.648 930.414,625.648ZM930.298,629.468C936.332,629.468 938.711,635.502 938.711,640.26C938.711,646.584 935.056,651.168 930.182,651.168C925.192,651.168 921.652,646.526 921.652,640.376C921.652,635.038 924.263,629.468 930.298,629.468Z" style="fill:rgb(76,76,76);fill-rule:nonzero;"/>
                <path d="M950.369,665.834L955.408,665.834L955.408,650.587L955.524,650.587C957.207,653.367 960.456,654.988 964.17,654.988C970.785,654.988 976.926,650.007 976.926,639.912C976.926,631.383 971.829,625.648 965.04,625.648C960.456,625.648 957.149,627.674 955.061,631.093L954.945,631.093L954.713,626.286L950.137,626.286C950.253,628.954 950.369,631.854 950.369,635.45L950.369,665.834ZM955.408,638.118C955.408,637.422 955.582,636.668 955.756,636.03C956.743,632.195 959.992,629.7 963.474,629.7C968.87,629.7 971.829,634.516 971.829,640.144C971.829,646.584 968.696,650.994 963.3,650.994C959.644,650.994 956.569,648.557 955.64,645.018C955.524,644.379 955.408,643.683 955.408,642.929L955.408,638.118Z" style="fill:rgb(76,76,76);fill-rule:nonzero;"/>
                <path d="M988.468,654.35L988.468,626.286L983.371,626.286L983.371,654.35L988.468,654.35ZM985.92,615.208C984.066,615.208 982.733,616.598 982.733,618.394C982.733,620.132 984.008,621.522 985.804,621.522C987.832,621.522 989.106,620.132 989.048,618.394C989.048,616.598 987.832,615.208 985.92,615.208Z" style="fill:rgb(76,76,76);fill-rule:nonzero;"/>
                <path d="M996.943,654.35L1002.04,654.35L1002.04,637.472C1002.04,636.602 1002.16,635.732 1002.39,635.094C1003.26,632.252 1005.87,629.874 1009.24,629.874C1014.05,629.874 1015.74,633.644 1015.74,638.168L1015.74,654.35L1020.83,654.35L1020.83,637.588C1020.83,627.964 1014.81,625.648 1010.92,625.648C1006.28,625.648 1003.03,628.253 1001.63,630.918L1001.52,630.918L1001.23,626.286L996.711,626.286C996.885,628.605 996.943,630.982 996.943,633.882L996.943,654.35Z" style="fill:rgb(76,76,76);fill-rule:nonzero;"/>
                <path d="M1048.85,626.286L1048.62,630.513L1048.51,630.513C1047.29,628.195 1044.62,625.648 1039.74,625.648C1033.3,625.648 1027.1,631.035 1027.1,640.55C1027.1,648.325 1032.08,654.234 1039.05,654.234C1043.4,654.234 1046.42,652.15 1047.98,649.543L1048.1,649.543L1048.1,652.671C1048.1,659.749 1044.27,662.478 1039.05,662.478C1035.57,662.478 1032.66,661.433 1030.81,660.272L1029.54,664.157C1031.8,665.662 1035.51,666.472 1038.87,666.472C1042.41,666.472 1046.36,665.662 1049.08,663.114C1051.81,660.678 1053.08,656.73 1053.08,650.298L1053.08,633.994C1053.08,630.578 1053.2,628.316 1053.31,626.286L1048.85,626.286ZM1048.04,642.41C1048.04,643.28 1047.92,644.266 1047.63,645.136C1046.53,648.384 1043.69,650.356 1040.56,650.356C1035.04,650.356 1032.26,645.774 1032.26,640.264C1032.26,633.762 1035.74,629.642 1040.61,629.642C1044.33,629.642 1046.82,632.079 1047.75,635.038C1047.98,635.734 1048.04,636.489 1048.04,637.359L1048.04,642.41Z" style="fill:rgb(76,76,76);fill-rule:nonzero;"/>
                <path d="M768.8,669.689L768.8,686.444L768.684,686.444C767.408,684.186 764.506,682.159 760.213,682.159C753.365,682.159 747.572,687.895 747.63,697.236C747.63,705.765 752.843,711.5 759.632,711.5C764.216,711.5 767.64,709.126 769.206,705.997L769.322,705.997L769.553,710.862L774.129,710.862C773.955,708.948 773.897,706.106 773.897,703.612L773.897,669.689L768.8,669.689ZM768.8,699.088C768.8,699.9 768.742,700.596 768.568,701.292C767.64,705.127 764.506,707.389 761.083,707.389C755.57,707.389 752.785,702.69 752.785,697.004C752.785,690.796 755.919,686.154 761.199,686.154C765.029,686.154 767.814,688.823 768.568,692.072C768.742,692.71 768.8,693.581 768.8,694.219L768.8,699.088Z" style="fill:rgb(76,76,76);fill-rule:nonzero;"/>
                <path d="M802.549,710.862C802.201,708.948 802.085,706.57 802.085,704.134L802.085,693.642C802.085,688.012 800,682.159 791.417,682.159C787.877,682.159 784.512,683.143 782.195,684.649L783.354,688.012C785.323,686.735 788.051,685.922 790.662,685.922C796.408,685.922 797.046,690.102 797.046,692.425L797.046,693.005C786.194,692.947 780.168,696.652 780.168,703.438C780.168,707.505 783.064,711.5 788.747,711.5C792.752,711.5 795.77,709.532 797.336,707.331L797.51,707.331L797.915,710.862L802.549,710.862ZM797.162,701.408C797.162,701.934 797.046,702.514 796.872,703.036C796.06,705.416 793.738,707.737 790.082,707.737C787.47,707.737 785.265,706.17 785.265,702.862C785.265,697.407 791.591,696.42 797.162,696.536L797.162,701.408Z" style="fill:rgb(76,76,76);fill-rule:nonzero;"/>
                <path d="M810.328,710.862L815.425,710.862L815.425,693.984C815.425,693.114 815.541,692.244 815.773,691.606C816.644,688.764 819.255,686.386 822.621,686.386C827.438,686.386 829.12,690.156 829.12,694.68L829.12,710.862L834.217,710.862L834.217,694.1C834.217,684.475 828.192,682.159 824.304,682.159C819.661,682.159 816.412,684.765 815.02,687.43L814.904,687.43L814.614,682.797L810.096,682.797C810.27,685.117 810.328,687.494 810.328,690.393L810.328,710.862Z" style="fill:rgb(76,76,76);fill-rule:nonzero;"/>
                <path d="M875.167,698.566L879.342,710.862L884.735,710.862L871.398,671.777L865.309,671.777L852.03,710.862L857.249,710.862L861.308,698.566L875.167,698.566ZM862.352,694.629L866.179,683.319C866.933,680.936 867.571,678.557 868.151,676.236L868.267,676.236C868.847,678.499 869.426,680.82 870.296,683.373L874.123,694.629L862.352,694.629Z" style="fill:rgb(76,76,76);fill-rule:nonzero;"/>
                <path d="M890.136,710.862L895.117,710.862L895.117,693.926C895.117,693.056 895.233,692.186 895.523,691.432C896.336,688.88 898.657,686.328 901.849,686.328C905.737,686.328 907.71,689.576 907.71,694.042L907.71,710.862L912.691,710.862L912.691,693.52C912.691,692.592 912.865,691.664 913.097,690.968C913.968,688.474 916.231,686.328 919.133,686.328C923.253,686.328 925.226,689.576 925.226,694.97L925.226,710.862L930.207,710.862L930.207,694.332C930.207,684.591 924.704,682.159 920.99,682.159C918.32,682.159 916.463,682.854 914.78,684.128C913.62,684.996 912.517,686.212 911.649,687.778L911.533,687.778C910.317,684.475 907.42,682.159 903.59,682.159C898.947,682.159 896.336,684.649 894.77,687.314L894.596,687.314L894.364,682.797L889.904,682.797C890.078,685.117 890.136,687.494 890.136,690.393L890.136,710.862Z" style="fill:rgb(76,76,76);fill-rule:nonzero;"/>
                <path d="M958.685,710.862C958.337,708.948 958.221,706.57 958.221,704.134L958.221,693.642C958.221,688.012 956.136,682.159 947.553,682.159C944.013,682.159 940.648,683.143 938.331,684.649L939.49,688.012C941.459,686.735 944.187,685.922 946.798,685.922C952.544,685.922 953.182,690.102 953.182,692.425L953.182,693.005C942.33,692.947 936.304,696.652 936.304,703.438C936.304,707.505 939.2,711.5 944.883,711.5C948.888,711.5 951.906,709.532 953.472,707.331L953.646,707.331L954.051,710.862L958.685,710.862ZM953.298,701.408C953.298,701.934 953.182,702.514 953.008,703.036C952.196,705.416 949.874,707.737 946.218,707.737C943.606,707.737 941.401,706.17 941.401,702.862C941.401,697.407 947.727,696.42 953.298,696.536L953.298,701.408Z" style="fill:rgb(76,76,76);fill-rule:nonzero;"/>
                <path d="M966.464,710.862L971.561,710.862L971.561,693.984C971.561,693.114 971.677,692.244 971.909,691.606C972.78,688.764 975.391,686.386 978.757,686.386C983.574,686.386 985.256,690.156 985.256,694.68L985.256,710.862L990.353,710.862L990.353,694.1C990.353,684.475 984.328,682.159 980.44,682.159C975.797,682.159 972.548,684.765 971.156,687.43L971.04,687.43L970.75,682.797L966.232,682.797C966.406,685.117 966.464,687.494 966.464,690.393L966.464,710.862Z" style="fill:rgb(76,76,76);fill-rule:nonzero;"/>
            </g>
            <g transform="matrix(0.200426,0,0,0.200426,1163.79,640.606)">
                <path d="M256,14.887C244.114,9.29 230.83,6.163 216.815,6.163C165.89,6.163 124.608,47.445 124.608,98.37L124.608,129.222L72.043,129.222C64.401,129.222 58.206,135.417 58.206,143.059C58.206,143.059 58.206,431.32 58.206,431.32C58.206,472.475 91.569,505.838 132.724,505.838L152.128,505.838L152.168,505.837L379.276,505.837C420.431,505.837 451.324,472.4 453.794,431.319C454.199,424.584 454.101,419.114 453.794,412.962C452.883,394.741 426.588,398.895 426.588,412.962C426.588,421.9 426.12,426.061 426.12,431.319C426.12,457.19 405.147,478.163 379.276,478.163L165.965,478.163L165.965,156.896L426.12,156.896C426.12,156.896 426.12,331.17 426.12,331.17C426.12,338.807 432.32,345.007 439.957,345.007C447.594,345.007 453.794,338.807 453.794,331.17L453.794,143.059C453.794,135.417 447.599,129.222 439.957,129.222L387.392,129.222L387.392,98.37C387.392,47.446 346.11,6.163 295.185,6.163C281.171,6.163 267.887,9.29 256,14.887ZM138.29,156.896L138.29,478.164L132.724,478.164C106.853,478.164 85.88,457.191 85.88,431.32C85.88,431.32 85.88,156.896 85.88,156.896L138.29,156.896ZM216.318,353.48C225.334,390.218 257.923,409.432 291.449,409.636C324.624,409.838 358.207,391.382 369.549,354.222C371.778,346.918 367.658,339.178 360.354,336.948C353.05,334.719 345.31,338.839 343.08,346.143C335.654,370.474 313.339,382.095 291.618,381.963C270.246,381.833 248.942,370.304 243.194,346.884C241.374,339.468 233.875,334.924 226.458,336.744C219.042,338.565 214.498,346.064 216.318,353.48ZM241.462,279.352L241.462,295.839C241.462,303.476 247.662,309.676 255.299,309.676C262.936,309.676 269.136,303.476 269.136,295.839L269.136,279.352C269.136,271.715 262.936,265.515 255.299,265.515C247.662,265.515 241.462,271.715 241.462,279.352ZM344.276,295.838L344.276,279.351C344.276,271.714 338.076,265.514 330.439,265.514C322.802,265.514 316.602,271.714 316.602,279.351L316.602,295.838C316.602,303.475 322.802,309.675 330.439,309.675C338.076,309.675 344.276,303.475 344.276,295.838ZM228.336,34.863C224.595,34.188 220.746,33.837 216.815,33.837C181.174,33.837 152.282,62.729 152.282,98.37L152.282,129.222L202.978,129.222L202.978,98.37C202.978,73.758 212.621,51.398 228.336,34.863ZM256,47.097C240.59,58.885 230.652,77.466 230.652,98.37L230.652,129.222L281.348,129.222L281.348,98.37C281.348,77.467 271.41,58.885 256,47.097ZM359.718,129.222L359.718,98.37C359.718,62.73 330.826,33.837 295.185,33.837C291.254,33.837 287.405,34.188 283.664,34.863C299.379,51.399 309.022,73.759 309.022,98.37L309.022,129.222L359.718,129.222Z" style="fill:rgb(76,76,76);"/>
            </g>
        </g>
    </g>
</svg>
