<?xml version="1.0" encoding="UTF-8" standalone="no"?>
<!DOCTYPE svg PUBLIC "-//W3C//DTD SVG 1.1//EN" "http://www.w3.org/Graphics/SVG/1.1/DTD/svg11.dtd">
<svg width="100%" height="100%" viewBox="0 0 238 179" version="1.1" xmlns="http://www.w3.org/2000/svg" xmlns:xlink="http://www.w3.org/1999/xlink" xml:space="preserve" xmlns:serif="http://www.serif.com/" style="fill-rule:evenodd;clip-rule:evenodd;stroke-linejoin:round;stroke-miterlimit:2;">
    <g transform="matrix(1,0,0,1,-1365.78,-643.485)">
        <g transform="matrix(0.966211,0,0,0.966211,47.6916,21.6871)">
            <g transform="matrix(0.575878,0,0,0.575878,985.031,411.431)">
                <path d="M744.179,654.35L749.218,654.35L749.218,638.691C750.379,638.98 751.771,639.038 753.28,639.038C758.213,639.038 762.565,637.591 765.23,634.753C767.2,632.723 768.242,629.937 768.242,626.398C768.242,622.916 766.968,620.073 764.825,618.218C762.507,616.133 758.851,614.976 753.861,614.976C749.798,614.976 746.612,615.323 744.179,615.728L744.179,654.35ZM749.218,619.376C750.089,619.144 751.771,618.97 753.977,618.97C759.547,618.97 763.203,621.465 763.203,626.63C763.203,632.026 759.489,634.986 753.396,634.986C751.713,634.986 750.321,634.869 749.218,634.579L749.218,619.376Z" style="fill:rgb(76,76,76);fill-rule:nonzero;"/>
                <path d="M773.933,654.35L778.972,654.35L778.972,639.386C778.972,638.516 779.088,637.704 779.204,637.008C779.9,633.18 782.452,630.454 786.048,630.454C786.744,630.454 787.266,630.512 787.788,630.628L787.788,625.822C787.324,625.705 786.918,625.648 786.338,625.648C782.916,625.648 779.842,628.022 778.567,631.788L778.335,631.788L778.161,626.286L773.701,626.286C773.875,628.895 773.933,631.736 773.933,635.041L773.933,654.35Z" style="fill:rgb(76,76,76);fill-rule:nonzero;"/>
                <path d="M804.206,625.648C796.431,625.648 790.289,631.151 790.289,640.55C790.289,649.427 796.14,654.988 803.742,654.988C810.531,654.988 817.716,650.471 817.716,640.086C817.716,631.499 812.271,625.648 804.206,625.648ZM804.09,629.468C810.124,629.468 812.503,635.502 812.503,640.26C812.503,646.584 808.848,651.168 803.974,651.168C798.984,651.168 795.444,646.526 795.444,640.376C795.444,635.038 798.055,629.468 804.09,629.468Z" style="fill:rgb(76,76,76);fill-rule:nonzero;"/>
                <path d="M822.189,653.02C824.16,654.178 826.997,654.93 830.072,654.93C836.746,654.93 840.568,651.457 840.568,646.526C840.568,642.349 838.078,639.912 833.207,638.055C829.55,636.663 827.866,635.618 827.866,633.298C827.866,631.209 829.55,629.468 832.568,629.468C835.181,629.468 837.209,630.397 838.309,631.093L839.584,627.384C838.02,626.458 835.529,625.648 832.685,625.648C826.65,625.648 823.001,629.353 823.001,633.878C823.001,637.243 825.376,640.028 830.42,641.826C834.194,643.219 835.645,644.553 835.645,646.99C835.645,649.311 833.904,651.168 830.188,651.168C827.634,651.168 824.97,650.123 823.465,649.137L822.189,653.02Z" style="fill:rgb(76,76,76);fill-rule:nonzero;"/>
                <path d="M869.684,641.242C869.742,640.721 869.858,639.911 869.858,638.869C869.858,633.706 867.426,625.648 858.262,625.648C850.08,625.648 845.099,632.313 845.099,640.779C845.099,649.252 850.254,654.93 858.9,654.93C863.369,654.93 866.441,654.004 868.237,653.193L867.368,649.542C865.457,650.355 863.253,650.994 859.597,650.994C854.49,650.994 850.08,648.149 849.964,641.242L869.684,641.242ZM850.022,637.596C850.428,634.054 852.691,629.294 857.856,629.294C863.601,629.294 864.993,634.345 864.935,637.596L850.022,637.596Z" style="fill:rgb(76,76,76);fill-rule:nonzero;"/>
                <path d="M874.215,653.02C876.186,654.178 879.023,654.93 882.098,654.93C888.772,654.93 892.594,651.457 892.594,646.526C892.594,642.349 890.104,639.912 885.233,638.055C881.576,636.663 879.892,635.618 879.892,633.298C879.892,631.209 881.576,629.468 884.594,629.468C887.207,629.468 889.235,630.397 890.335,631.093L891.61,627.384C890.046,626.458 887.555,625.648 884.711,625.648C878.676,625.648 875.027,629.353 875.027,633.878C875.027,637.243 877.402,640.028 882.446,641.826C886.22,643.219 887.671,644.553 887.671,646.99C887.671,649.311 885.93,651.168 882.214,651.168C879.66,651.168 876.996,650.123 875.491,649.137L874.215,653.02Z" style="fill:rgb(76,76,76);fill-rule:nonzero;"/>
                <path d="M930.591,613.178L930.591,629.933L930.475,629.933C929.199,627.674 926.297,625.648 922.004,625.648C915.156,625.648 909.363,631.383 909.421,640.724C909.421,649.253 914.634,654.988 921.423,654.988C926.007,654.988 929.431,652.614 930.997,649.485L931.113,649.485L931.344,654.35L935.92,654.35C935.746,652.436 935.688,649.594 935.688,647.1L935.688,613.178L930.591,613.178ZM930.591,642.576C930.591,643.388 930.533,644.084 930.359,644.78C929.431,648.615 926.297,650.878 922.874,650.878C917.361,650.878 914.576,646.178 914.576,640.492C914.576,634.284 917.71,629.642 922.99,629.642C926.82,629.642 929.605,632.311 930.359,635.56C930.533,636.199 930.591,637.069 930.591,637.707L930.591,642.576Z" style="fill:rgb(76,76,76);fill-rule:nonzero;"/>
                <path d="M964.34,654.35C963.992,652.436 963.876,650.058 963.876,647.622L963.876,637.13C963.876,631.5 961.791,625.648 953.208,625.648C949.668,625.648 946.303,626.632 943.986,628.137L945.145,631.5C947.114,630.223 949.842,629.41 952.453,629.41C958.199,629.41 958.837,633.591 958.837,635.913L958.837,636.494C947.985,636.435 941.959,640.14 941.959,646.926C941.959,650.993 944.855,654.988 950.538,654.988C954.543,654.988 957.561,653.02 959.127,650.819L959.301,650.819L959.706,654.35L964.34,654.35ZM958.953,644.896C958.953,645.422 958.837,646.002 958.663,646.525C957.851,648.904 955.529,651.226 951.873,651.226C949.261,651.226 947.056,649.659 947.056,646.35C947.056,640.895 953.382,639.909 958.953,640.024L958.953,644.896Z" style="fill:rgb(76,76,76);fill-rule:nonzero;"/>
                <path d="M972.119,654.35L977.216,654.35L977.216,637.472C977.216,636.602 977.332,635.732 977.564,635.094C978.435,632.252 981.046,629.874 984.412,629.874C989.229,629.874 990.911,633.644 990.911,638.168L990.911,654.35L996.008,654.35L996.008,637.588C996.008,627.964 989.983,625.648 986.095,625.648C981.452,625.648 978.203,628.253 976.811,630.918L976.695,630.918L976.405,626.286L971.887,626.286C972.061,628.605 972.119,630.982 972.119,633.882L972.119,654.35Z" style="fill:rgb(76,76,76);fill-rule:nonzero;"/>
                <path d="M658.397,710.862L663.436,710.862L663.436,695.203C664.597,695.492 665.989,695.55 667.498,695.55C672.431,695.55 676.783,694.103 679.448,691.265C681.418,689.234 682.46,686.449 682.46,682.909C682.46,679.428 681.186,676.585 679.043,674.729C676.725,672.645 673.069,671.487 668.079,671.487C664.016,671.487 660.83,671.835 658.397,672.24L658.397,710.862ZM663.436,675.888C664.307,675.656 665.989,675.482 668.195,675.482C673.765,675.482 677.421,677.977 677.421,683.142C677.421,688.538 673.707,691.497 667.614,691.497C665.931,691.497 664.539,691.381 663.436,691.091L663.436,675.888Z" style="fill:rgb(76,76,76);fill-rule:nonzero;"/>
                <path d="M710.184,697.754C710.242,697.233 710.358,696.423 710.358,695.381C710.358,690.218 707.926,682.159 698.762,682.159C690.58,682.159 685.599,688.825 685.599,697.291C685.599,705.764 690.754,711.442 699.4,711.442C703.869,711.442 706.941,710.516 708.737,709.705L707.868,706.054C705.957,706.867 703.753,707.505 700.097,707.505C694.99,707.505 690.58,704.661 690.464,697.754L710.184,697.754ZM690.522,694.107C690.928,690.566 693.191,685.806 698.356,685.806C704.101,685.806 705.493,690.857 705.435,694.107L690.522,694.107Z" style="fill:rgb(76,76,76);fill-rule:nonzero;"/>
                <path d="M716.687,710.862L721.784,710.862L721.784,693.984C721.784,693.114 721.9,692.244 722.132,691.606C723.003,688.764 725.614,686.386 728.98,686.386C733.797,686.386 735.479,690.156 735.479,694.68L735.479,710.862L740.576,710.862L740.576,694.1C740.576,684.475 734.551,682.159 730.663,682.159C726.02,682.159 722.771,684.765 721.379,687.43L721.263,687.43L720.973,682.797L716.455,682.797C716.629,685.117 716.687,687.494 716.687,690.393L716.687,710.862Z" style="fill:rgb(76,76,76);fill-rule:nonzero;"/>
                <path d="M768.596,682.797L768.365,687.024L768.249,687.024C767.031,684.707 764.362,682.159 759.488,682.159C753.047,682.159 746.847,687.547 746.847,697.062C746.847,704.837 751.828,710.746 758.791,710.746C763.143,710.746 766.161,708.662 767.727,706.055L767.843,706.055L767.843,709.183C767.843,716.261 764.014,718.989 758.791,718.989C755.31,718.989 752.408,717.944 750.554,716.783L749.28,720.668C751.539,722.174 755.252,722.984 758.617,722.984C762.157,722.984 766.103,722.174 768.828,719.626C771.55,717.19 772.824,713.242 772.824,706.809L772.824,690.506C772.824,687.089 772.94,684.827 773.056,682.797L768.596,682.797ZM767.785,698.921C767.785,699.791 767.669,700.777 767.379,701.647C766.277,704.895 763.433,706.867 760.3,706.867C754.787,706.867 752.002,702.285 752.002,696.775C752.002,690.274 755.484,686.154 760.358,686.154C764.072,686.154 766.567,688.591 767.495,691.55C767.727,692.246 767.785,693 767.785,693.871L767.785,698.921Z" style="fill:rgb(76,76,76);fill-rule:nonzero;"/>
                <path d="M786.048,710.862L786.048,682.797L780.951,682.797L780.951,710.862L786.048,710.862ZM783.5,671.719C781.646,671.719 780.313,673.11 780.313,674.906C780.313,676.644 781.588,678.034 783.384,678.034C785.412,678.034 786.686,676.644 786.628,674.906C786.628,673.11 785.412,671.719 783.5,671.719Z" style="fill:rgb(76,76,76);fill-rule:nonzero;"/>
                <path d="M794.523,710.862L799.562,710.862L799.562,695.898C799.562,695.028 799.678,694.216 799.794,693.52C800.49,689.692 803.042,686.966 806.638,686.966C807.334,686.966 807.856,687.024 808.378,687.14L808.378,682.333C807.914,682.217 807.508,682.159 806.928,682.159C803.506,682.159 800.432,684.534 799.157,688.3L798.925,688.3L798.751,682.797L794.291,682.797C794.465,685.407 794.523,688.248 794.523,691.553L794.523,710.862Z" style="fill:rgb(76,76,76);fill-rule:nonzero;"/>
                <path d="M818.818,710.862L818.818,682.797L813.721,682.797L813.721,710.862L818.818,710.862ZM816.27,671.719C814.416,671.719 813.083,673.11 813.083,674.906C813.083,676.644 814.358,678.034 816.154,678.034C818.182,678.034 819.456,676.644 819.398,674.906C819.398,673.11 818.182,671.719 816.27,671.719Z" style="fill:rgb(76,76,76);fill-rule:nonzero;"/>
                <path d="M827.293,710.862L832.274,710.862L832.274,693.926C832.274,693.056 832.39,692.186 832.68,691.432C833.493,688.88 835.814,686.328 839.006,686.328C842.894,686.328 844.867,689.576 844.867,694.042L844.867,710.862L849.848,710.862L849.848,693.52C849.848,692.592 850.022,691.664 850.254,690.968C851.125,688.474 853.388,686.328 856.29,686.328C860.41,686.328 862.383,689.576 862.383,694.97L862.383,710.862L867.364,710.862L867.364,694.332C867.364,684.591 861.861,682.159 858.147,682.159C855.477,682.159 853.62,682.854 851.937,684.128C850.777,684.996 849.674,686.212 848.806,687.778L848.69,687.778C847.474,684.475 844.577,682.159 840.747,682.159C836.104,682.159 833.493,684.649 831.927,687.314L831.753,687.314L831.521,682.797L827.061,682.797C827.235,685.117 827.293,687.494 827.293,690.393L827.293,710.862Z" style="fill:rgb(76,76,76);fill-rule:nonzero;"/>
                <path d="M895.842,710.862C895.494,708.948 895.378,706.57 895.378,704.134L895.378,693.642C895.378,688.012 893.293,682.159 884.71,682.159C881.17,682.159 877.805,683.143 875.488,684.649L876.647,688.012C878.616,686.735 881.344,685.922 883.955,685.922C889.701,685.922 890.339,690.102 890.339,692.425L890.339,693.005C879.487,692.947 873.461,696.652 873.461,703.438C873.461,707.505 876.357,711.5 882.04,711.5C886.045,711.5 889.063,709.532 890.629,707.331L890.803,707.331L891.208,710.862L895.842,710.862ZM890.455,701.408C890.455,701.934 890.339,702.514 890.165,703.036C889.353,705.416 887.031,707.737 883.375,707.737C880.763,707.737 878.558,706.17 878.558,702.862C878.558,697.407 884.884,696.42 890.455,696.536L890.455,701.408Z" style="fill:rgb(76,76,76);fill-rule:nonzero;"/>
                <path d="M903.621,710.862L908.718,710.862L908.718,693.984C908.718,693.114 908.834,692.244 909.066,691.606C909.937,688.764 912.548,686.386 915.914,686.386C920.731,686.386 922.413,690.156 922.413,694.68L922.413,710.862L927.51,710.862L927.51,694.1C927.51,684.475 921.485,682.159 917.597,682.159C912.954,682.159 909.705,684.765 908.313,687.43L908.197,687.43L907.907,682.797L903.389,682.797C903.563,685.117 903.621,687.494 903.621,690.393L903.621,710.862Z" style="fill:rgb(76,76,76);fill-rule:nonzero;"/>
                <path d="M974.548,705.591C972.518,706.577 969.386,707.215 966.312,707.215C956.8,707.215 951.29,701.066 951.29,691.494C951.29,681.225 957.38,675.366 966.544,675.366C969.792,675.366 972.518,676.062 974.432,676.99L975.65,672.879C974.316,672.182 971.242,671.139 966.37,671.139C954.248,671.139 945.961,679.427 945.961,691.668C945.961,704.489 954.248,711.442 965.268,711.442C970.024,711.442 973.736,710.516 975.592,709.589L974.548,705.591Z" style="fill:rgb(76,76,76);fill-rule:nonzero;"/>
                <path d="M1003.66,697.754C1003.72,697.233 1003.84,696.423 1003.84,695.381C1003.84,690.218 1001.41,682.159 992.242,682.159C984.06,682.159 979.079,688.825 979.079,697.291C979.079,705.764 984.234,711.442 992.88,711.442C997.349,711.442 1000.42,710.516 1002.22,709.705L1001.35,706.054C999.437,706.867 997.233,707.505 993.577,707.505C988.47,707.505 984.06,704.661 983.944,697.754L1003.66,697.754ZM984.002,694.107C984.408,690.566 986.671,685.806 991.836,685.806C997.581,685.806 998.973,690.857 998.915,694.107L984.002,694.107Z" style="fill:rgb(76,76,76);fill-rule:nonzero;"/>
                <path d="M1010.17,722.346L1015.21,722.346L1015.21,707.099L1015.32,707.099C1017,709.879 1020.25,711.5 1023.97,711.5C1030.58,711.5 1036.72,706.519 1036.72,696.424C1036.72,687.895 1031.63,682.159 1024.84,682.159C1020.25,682.159 1016.95,684.186 1014.86,687.605L1014.74,687.605L1014.51,682.797L1009.94,682.797C1010.05,685.465 1010.17,688.365 1010.17,691.961L1010.17,722.346ZM1015.21,694.629C1015.21,693.933 1015.38,693.179 1015.55,692.541C1016.54,688.707 1019.79,686.212 1023.27,686.212C1028.67,686.212 1031.63,691.028 1031.63,696.656C1031.63,703.096 1028.49,707.505 1023.1,707.505C1019.44,707.505 1016.37,705.069 1015.44,701.529C1015.32,700.891 1015.21,700.195 1015.21,699.441L1015.21,694.629Z" style="fill:rgb(76,76,76);fill-rule:nonzero;"/>
                <path d="M1063.35,710.862C1063,708.948 1062.88,706.57 1062.88,704.134L1062.88,693.642C1062.88,688.012 1060.8,682.159 1052.21,682.159C1048.67,682.159 1045.31,683.143 1042.99,684.649L1044.15,688.012C1046.12,686.735 1048.85,685.922 1051.46,685.922C1057.2,685.922 1057.84,690.102 1057.84,692.425L1057.84,693.005C1046.99,692.947 1040.96,696.652 1040.96,703.438C1040.96,707.505 1043.86,711.5 1049.54,711.5C1053.55,711.5 1056.57,709.532 1058.13,707.331L1058.31,707.331L1058.71,710.862L1063.35,710.862ZM1057.96,701.408C1057.96,701.934 1057.84,702.514 1057.67,703.036C1056.86,705.416 1054.54,707.737 1050.88,707.737C1048.27,707.737 1046.06,706.17 1046.06,702.862C1046.06,697.407 1052.39,696.42 1057.96,696.536L1057.96,701.408Z" style="fill:rgb(76,76,76);fill-rule:nonzero;"/>
                <path d="M1072.05,676.069L1072.05,682.797L1067.7,682.797L1067.7,686.676L1072.05,686.676L1072.05,701.993C1072.05,705.301 1072.58,707.794 1074.02,709.3C1075.24,710.689 1077.15,711.442 1079.53,711.442C1081.5,711.442 1083.07,711.153 1084.05,710.747L1083.82,706.925C1083.18,707.099 1082.2,707.273 1080.86,707.273C1078.02,707.273 1077.03,705.301 1077.03,701.819L1077.03,686.676L1084.34,686.676L1084.34,682.797L1077.03,682.797L1077.03,674.735L1072.05,676.069Z" style="fill:rgb(76,76,76);fill-rule:nonzero;"/>
            </g>
            <g transform="matrix(0.255768,0,0,0.255768,1421.36,627.288)">
                <path d="M469.976,142.411L500.076,237.173C500.696,239.127 500.79,241.21 500.346,243.211L465.707,399.512C464.533,404.817 459.79,408.626 454.357,408.627C454.357,408.627 421.193,408.627 421.193,408.627C419.685,408.627 418.36,409.629 417.948,411.08C411.694,433.127 391.414,448.454 368.497,448.454C345.579,448.454 325.299,433.127 319.045,411.08C318.633,409.629 317.308,408.627 315.8,408.627L242.947,408.627C241.439,408.627 240.114,409.629 239.702,411.08C233.448,433.127 213.168,448.454 190.251,448.454C167.333,448.454 147.053,433.127 140.799,411.08C140.387,409.629 139.062,408.627 137.554,408.627L91.916,408.627C85.538,408.627 80.289,403.379 80.289,397C80.289,396.153 80.381,395.309 80.565,394.482L95.656,326.382C95.877,325.383 95.633,324.338 94.993,323.541C94.353,322.743 93.386,322.279 92.363,322.279L23,322.279C16.621,322.279 11.373,317.031 11.373,310.652C11.373,304.273 16.621,299.025 23,299.025C23,299.025 323,299.025 323,299.025C324.581,299.025 325.951,297.926 326.293,296.382L371.835,90.908C372.056,89.909 371.812,88.864 371.172,88.067C370.532,87.269 369.565,86.805 368.542,86.805L175.276,86.805C173.695,86.805 172.326,87.904 171.983,89.448L161.231,137.939C161.01,138.937 161.254,139.982 161.894,140.78C162.534,141.578 163.501,142.042 164.524,142.042L254.824,142.042C261.203,142.042 266.451,147.29 266.451,153.669C266.451,160.048 261.203,165.296 254.824,165.296L56.2,165.296C49.821,165.296 44.573,160.048 44.573,153.669C44.573,147.29 49.821,142.042 56.2,142.042C56.2,142.042 133.792,142.042 133.792,142.042C135.373,142.042 136.742,140.943 137.085,139.399L151.885,72.661C153.061,67.358 157.804,63.551 163.236,63.551L387.23,63.551C393.609,63.551 398.858,68.799 398.858,75.178C398.858,76.024 398.765,76.868 398.582,77.694L386.945,130.201C386.724,131.2 386.968,132.245 387.608,133.042C388.248,133.84 389.215,134.304 390.238,134.304L458.891,134.304C463.944,134.302 468.446,137.595 469.976,142.411ZM190.236,425.195L190.257,425.195C205.708,425.168 218.41,412.454 218.422,397.003C218.422,397.001 218.422,397 218.422,396.999C218.416,381.54 205.694,368.823 190.236,368.823C174.774,368.823 162.05,381.547 162.05,397.009C162.05,412.471 174.774,425.195 190.236,425.195ZM368.479,425.195L368.499,425.195C383.95,425.169 396.653,412.454 396.665,397.003C396.665,397.001 396.665,397 396.665,396.999C396.659,381.54 383.937,368.823 368.479,368.823C353.017,368.823 340.293,381.547 340.293,397.009C340.293,412.471 353.017,425.195 368.479,425.195ZM442.314,385.373C443.895,385.373 445.265,384.274 445.607,382.73L476.768,242.12C476.896,241.539 476.869,240.935 476.689,240.369L451.129,159.912C450.684,158.512 449.384,157.56 447.915,157.56L383.588,157.56C382.007,157.56 380.637,158.659 380.295,160.203L346.395,313.171C345.22,318.475 340.477,322.283 335.044,322.283C335.044,322.283 123.09,322.283 123.09,322.283C121.508,322.283 120.139,323.382 119.797,324.926L107.312,381.27C107.091,382.269 107.335,383.314 107.975,384.111C108.615,384.909 109.582,385.373 110.605,385.373L137.556,385.373C139.063,385.373 140.388,384.372 140.8,382.923C147.067,360.887 167.341,345.575 190.251,345.575C213.16,345.575 233.434,360.887 239.701,382.923C240.113,384.372 241.438,385.373 242.945,385.373L315.8,385.373C317.307,385.373 318.632,384.372 319.044,382.923C325.311,360.888 345.585,345.575 368.493,345.575C391.402,345.575 411.676,360.888 417.943,382.923C418.355,384.372 419.68,385.373 421.187,385.373L442.314,385.373ZM11.38,232.24L11.382,232.161C11.382,225.782 16.63,220.534 23.009,220.534C23.009,220.534 25.509,220.534 25.509,220.534C31.888,220.534 37.136,225.782 37.136,232.161C37.136,238.54 31.888,243.788 25.509,243.788L23.006,243.788C16.654,243.788 11.422,238.583 11.38,232.24ZM74.6,243.788C68.221,243.788 62.973,238.54 62.973,232.161C62.973,225.782 68.221,220.534 74.6,220.534C74.6,220.534 273.2,220.534 273.2,220.534C279.579,220.534 284.827,225.782 284.827,232.161C284.827,238.54 279.579,243.788 273.2,243.788C273.2,243.788 74.6,243.788 74.6,243.788ZM303.922,165.296C297.543,165.296 292.295,160.048 292.295,153.669C292.295,147.29 297.543,142.042 303.922,142.042C303.922,142.042 306.422,142.042 306.422,142.042C312.801,142.042 318.049,147.29 318.049,153.669C318.049,160.048 312.801,165.296 306.422,165.296L303.922,165.296Z" style="fill:rgb(76,76,76);fill-rule:nonzero;"/>
            </g>
        </g>
    </g>
</svg>
