<?xml version="1.0" encoding="UTF-8"?>
<svg id="Layer_1" data-name="Layer 1" xmlns="http://www.w3.org/2000/svg" viewBox="0 0 196 121.12">
  <defs>
    <style>
      .cls-1 {
        fill: #fff;
      }

      .cls-2 {
        fill: #4d4d4d;
      }
    </style>
  </defs>
  <rect class="cls-1" width="196" height="121.12"/>
  <g>
    <g>
      <path class="cls-2" d="m48.77,95.02h1.89v-5.86c.43.11.96.13,1.52.13,1.85,0,3.47-.54,4.47-1.6.74-.76,1.13-1.8,1.13-3.13s-.48-2.37-1.28-3.06c-.87-.78-2.24-1.21-4.1-1.21-1.52,0-2.71.13-3.62.28v14.45Zm1.89-13.09c.33-.09.96-.15,1.78-.15,2.08,0,3.45.93,3.45,2.87s-1.39,3.13-3.67,3.13c-.63,0-1.15-.04-1.56-.15v-5.69Z"/>
      <path class="cls-2" d="m59.9,95.02h1.89v-5.6c0-.33.04-.63.09-.89.26-1.43,1.22-2.45,2.56-2.45.26,0,.46.02.65.07v-1.8c-.17-.04-.33-.07-.54-.07-1.28,0-2.43.89-2.91,2.3h-.09l-.07-2.06h-1.67c.07.98.09,2.04.09,3.28v7.22Z"/>
      <path class="cls-2" d="m71.23,84.28c-2.91,0-5.21,2.06-5.21,5.58,0,3.32,2.19,5.4,5.03,5.4,2.54,0,5.23-1.69,5.23-5.58,0-3.21-2.04-5.4-5.05-5.4Zm-.04,1.43c2.26,0,3.15,2.26,3.15,4.04,0,2.37-1.37,4.08-3.19,4.08s-3.19-1.74-3.19-4.04c0-2,.98-4.08,3.24-4.08Z"/>
      <path class="cls-2" d="m77.96,94.53c.74.43,1.8.71,2.95.71,2.5,0,3.93-1.3,3.93-3.14,0-1.56-.93-2.47-2.75-3.17-1.37-.52-2-.91-2-1.78,0-.78.63-1.43,1.76-1.43.98,0,1.74.35,2.15.61l.48-1.39c-.59-.35-1.52-.65-2.58-.65-2.26,0-3.62,1.39-3.62,3.08,0,1.26.89,2.3,2.78,2.97,1.41.52,1.95,1.02,1.95,1.93s-.65,1.56-2.04,1.56c-.96,0-1.95-.39-2.52-.76l-.48,1.45Z"/>
      <path class="cls-2" d="m95.73,90.12c.02-.19.07-.5.07-.89,0-1.93-.91-4.95-4.34-4.95-3.06,0-4.93,2.49-4.93,5.66s1.93,5.29,5.16,5.29c1.67,0,2.82-.35,3.49-.65l-.33-1.37c-.72.3-1.54.54-2.91.54-1.91,0-3.56-1.06-3.6-3.65h7.38Zm-7.36-1.36c.15-1.33,1-3.11,2.93-3.11,2.15,0,2.67,1.89,2.65,3.11h-5.58Z"/>
      <path class="cls-2" d="m97.42,94.53c.74.43,1.8.71,2.95.71,2.5,0,3.93-1.3,3.93-3.14,0-1.56-.93-2.47-2.75-3.17-1.37-.52-2-.91-2-1.78,0-.78.63-1.43,1.76-1.43.98,0,1.74.35,2.15.61l.48-1.39c-.59-.35-1.52-.65-2.58-.65-2.26,0-3.62,1.39-3.62,3.08,0,1.26.89,2.3,2.78,2.97,1.41.52,1.95,1.02,1.95,1.93s-.65,1.56-2.04,1.56c-.96,0-1.95-.39-2.52-.76l-.48,1.45Z"/>
      <path class="cls-2" d="m118.51,79.62v6.27h-.04c-.48-.85-1.56-1.6-3.17-1.6-2.56,0-4.73,2.15-4.71,5.64,0,3.19,1.95,5.34,4.49,5.34,1.72,0,3-.89,3.58-2.06h.04l.09,1.82h1.71c-.07-.72-.09-1.78-.09-2.71v-12.69h-1.91Zm0,11c0,.3-.02.56-.09.82-.35,1.43-1.52,2.28-2.8,2.28-2.06,0-3.1-1.76-3.1-3.89,0-2.32,1.17-4.06,3.15-4.06,1.43,0,2.48,1,2.76,2.21.07.24.09.56.09.8v1.82Z"/>
      <path class="cls-2" d="m131.14,95.02c-.13-.72-.17-1.61-.17-2.52v-3.93c0-2.11-.78-4.3-3.99-4.3-1.32,0-2.58.37-3.45.93l.43,1.26c.74-.48,1.76-.78,2.73-.78,2.15,0,2.39,1.56,2.39,2.43v.22c-4.06-.02-6.32,1.36-6.32,3.9,0,1.52,1.08,3.02,3.21,3.02,1.5,0,2.63-.74,3.21-1.56h.07l.15,1.32h1.73Zm-2.02-3.54c0,.2-.04.41-.11.61-.3.89-1.17,1.76-2.54,1.76-.98,0-1.8-.59-1.8-1.82,0-2.04,2.37-2.41,4.45-2.37v1.82Z"/>
      <path class="cls-2" d="m134.05,95.02h1.91v-6.32c0-.33.04-.65.13-.89.33-1.06,1.3-1.95,2.56-1.95,1.8,0,2.43,1.41,2.43,3.1v6.05h1.91v-6.27c0-3.6-2.25-4.47-3.71-4.47-1.74,0-2.95.97-3.47,1.97h-.04l-.11-1.73h-1.69c.07.87.09,1.76.09,2.84v7.66Z"/>
      <path class="cls-2" d="m16.67,116.17h1.89v-5.86c.43.11.96.13,1.52.13,1.85,0,3.47-.54,4.47-1.6.74-.76,1.13-1.8,1.13-3.13s-.48-2.37-1.28-3.06c-.87-.78-2.24-1.21-4.1-1.21-1.52,0-2.71.13-3.62.28v14.45Zm1.89-13.09c.33-.09.96-.15,1.78-.15,2.08,0,3.45.93,3.45,2.87s-1.39,3.13-3.67,3.13c-.63,0-1.15-.04-1.56-.15v-5.69Z"/>
      <path class="cls-2" d="m36.05,111.26c.02-.19.07-.5.07-.89,0-1.93-.91-4.95-4.34-4.95-3.06,0-4.93,2.49-4.93,5.66s1.93,5.29,5.16,5.29c1.67,0,2.82-.35,3.49-.65l-.33-1.37c-.72.3-1.54.54-2.91.54-1.91,0-3.56-1.06-3.6-3.65h7.38Zm-7.36-1.36c.15-1.32,1-3.11,2.93-3.11,2.15,0,2.67,1.89,2.65,3.11h-5.58Z"/>
      <path class="cls-2" d="m38.48,116.17h1.91v-6.32c0-.33.04-.65.13-.89.33-1.06,1.3-1.95,2.56-1.95,1.8,0,2.43,1.41,2.43,3.1v6.05h1.91v-6.27c0-3.6-2.25-4.47-3.71-4.47-1.74,0-2.95.98-3.47,1.97h-.04l-.11-1.73h-1.69c.07.87.09,1.76.09,2.84v7.66Z"/>
      <path class="cls-2" d="m57.9,105.67l-.09,1.58h-.04c-.46-.87-1.45-1.82-3.28-1.82-2.41,0-4.73,2.02-4.73,5.58,0,2.91,1.86,5.12,4.47,5.12,1.63,0,2.76-.78,3.34-1.76h.04v1.17c0,2.65-1.43,3.67-3.39,3.67-1.3,0-2.39-.39-3.08-.83l-.48,1.45c.85.56,2.23.87,3.49.87,1.32,0,2.8-.3,3.82-1.26,1.02-.91,1.5-2.39,1.5-4.8v-6.1c0-1.28.04-2.12.09-2.88h-1.67Zm-.3,6.03c0,.33-.04.69-.15,1.02-.41,1.22-1.48,1.95-2.65,1.95-2.06,0-3.1-1.71-3.1-3.78,0-2.43,1.3-3.97,3.13-3.97,1.39,0,2.32.91,2.67,2.02.09.26.11.54.11.87v1.89Z"/>
      <path class="cls-2" d="m64.43,116.17v-10.5h-1.91v10.5h1.91Zm-.95-14.65c-.69,0-1.19.52-1.19,1.19s.48,1.17,1.15,1.17c.76,0,1.24-.52,1.21-1.17,0-.67-.45-1.19-1.17-1.19Z"/>
      <path class="cls-2" d="m67.6,116.17h1.89v-5.6c0-.33.04-.63.09-.89.26-1.43,1.22-2.45,2.56-2.45.26,0,.46.02.65.07v-1.8c-.17-.04-.33-.07-.54-.07-1.28,0-2.43.89-2.91,2.3h-.09l-.07-2.06h-1.67c.07.98.09,2.04.09,3.28v7.22Z"/>
      <path class="cls-2" d="m76.69,116.17v-10.5h-1.91v10.5h1.91Zm-.95-14.65c-.69,0-1.19.52-1.19,1.19s.48,1.17,1.15,1.17c.76,0,1.24-.52,1.21-1.17,0-.67-.45-1.19-1.17-1.19Z"/>
      <path class="cls-2" d="m79.87,116.17h1.86v-6.34c0-.33.04-.65.15-.93.3-.95,1.17-1.91,2.37-1.91,1.45,0,2.19,1.22,2.19,2.89v6.29h1.86v-6.49c0-.35.07-.69.15-.95.33-.93,1.17-1.74,2.26-1.74,1.54,0,2.28,1.22,2.28,3.23v5.95h1.86v-6.18c0-3.64-2.06-4.55-3.45-4.55-1,0-1.69.26-2.32.74-.43.32-.85.78-1.17,1.37h-.04c-.45-1.24-1.54-2.1-2.97-2.1-1.74,0-2.71.93-3.3,1.93h-.07l-.09-1.69h-1.67c.07.87.09,1.76.09,2.84v7.66Z"/>
      <path class="cls-2" d="m105.51,116.17c-.13-.72-.17-1.61-.17-2.52v-3.93c0-2.11-.78-4.3-3.99-4.3-1.32,0-2.58.37-3.45.93l.43,1.26c.74-.48,1.76-.78,2.73-.78,2.15,0,2.39,1.56,2.39,2.43v.22c-4.06-.02-6.32,1.36-6.32,3.9,0,1.52,1.08,3.02,3.21,3.02,1.5,0,2.63-.74,3.21-1.56h.07l.15,1.32h1.73Zm-2.02-3.54c0,.2-.04.41-.11.61-.3.89-1.17,1.76-2.54,1.76-.98,0-1.8-.59-1.8-1.82,0-2.04,2.37-2.41,4.45-2.37v1.82Z"/>
      <path class="cls-2" d="m108.42,116.17h1.91v-6.32c0-.33.04-.65.13-.89.33-1.06,1.3-1.95,2.56-1.95,1.8,0,2.43,1.41,2.43,3.1v6.05h1.91v-6.27c0-3.6-2.25-4.47-3.71-4.47-1.74,0-2.95.98-3.47,1.97h-.04l-.11-1.73h-1.69c.07.87.09,1.76.09,2.84v7.66Z"/>
      <path class="cls-2" d="m134.96,114.2c-.76.37-1.93.61-3.08.61-3.56,0-5.62-2.3-5.62-5.88,0-3.84,2.28-6.03,5.71-6.03,1.22,0,2.24.26,2.95.61l.46-1.54c-.5-.26-1.65-.65-3.47-.65-4.54,0-7.64,3.1-7.64,7.68s3.1,7.4,7.22,7.4c1.78,0,3.17-.35,3.86-.69l-.39-1.5Z"/>
      <path class="cls-2" d="m145.85,111.26c.02-.19.07-.5.07-.89,0-1.93-.91-4.95-4.34-4.95-3.06,0-4.93,2.49-4.93,5.66s1.93,5.29,5.16,5.29c1.67,0,2.82-.35,3.49-.65l-.33-1.37c-.72.3-1.54.54-2.91.54-1.91,0-3.56-1.06-3.6-3.65h7.38Zm-7.36-1.36c.15-1.32,1-3.11,2.93-3.11,2.15,0,2.67,1.89,2.65,3.11h-5.58Z"/>
      <path class="cls-2" d="m148.29,120.47h1.89v-5.7h.04c.63,1.04,1.84,1.65,3.24,1.65,2.47,0,4.77-1.86,4.77-5.64,0-3.19-1.9-5.34-4.45-5.34-1.72,0-2.95.76-3.73,2.04h-.04l-.09-1.8h-1.71c.04,1,.09,2.08.09,3.43v11.37Zm1.89-10.37c0-.26.06-.54.13-.78.37-1.43,1.59-2.37,2.89-2.37,2.02,0,3.13,1.8,3.13,3.91,0,2.41-1.17,4.06-3.19,4.06-1.37,0-2.52-.91-2.87-2.24-.04-.24-.09-.5-.09-.78v-1.8Z"/>
      <path class="cls-2" d="m168.19,116.17c-.13-.72-.18-1.61-.18-2.52v-3.93c0-2.11-.78-4.3-3.99-4.3-1.32,0-2.58.37-3.45.93l.43,1.26c.74-.48,1.76-.78,2.74-.78,2.15,0,2.39,1.56,2.39,2.43v.22c-4.06-.02-6.32,1.36-6.32,3.9,0,1.52,1.09,3.02,3.21,3.02,1.5,0,2.63-.74,3.21-1.56h.07l.15,1.32h1.74Zm-2.02-3.54c0,.2-.04.41-.11.61-.3.89-1.17,1.76-2.54,1.76-.98,0-1.8-.59-1.8-1.82,0-2.04,2.37-2.41,4.45-2.37v1.82Z"/>
      <path class="cls-2" d="m171.44,103.15v2.52h-1.63v1.45h1.63v5.73c0,1.24.2,2.17.74,2.73.46.52,1.17.8,2.06.8.74,0,1.32-.11,1.69-.26l-.09-1.43c-.24.07-.61.13-1.11.13-1.06,0-1.43-.74-1.43-2.04v-5.67h2.74v-1.45h-2.74v-3.02l-1.86.5Z"/>
    </g>
    <path class="cls-2" d="m131.92,14.1l5,15.75c.1.32.12.67.04,1l-5.76,25.97c-.2.88-.98,1.51-1.89,1.51h-5.51c-.25,0-.47.17-.54.41-1.04,3.66-4.41,6.21-8.22,6.21s-7.18-2.55-8.22-6.21c-.07-.24-.29-.41-.54-.41h-12.11c-.25,0-.47.17-.54.41-1.04,3.66-4.41,6.21-8.22,6.21s-7.18-2.55-8.22-6.21c-.07-.24-.29-.41-.54-.41h-7.58c-1.06,0-1.93-.87-1.93-1.93,0-.14.02-.28.05-.42l2.51-11.32c.04-.17,0-.34-.11-.47-.11-.13-.27-.21-.44-.21h-11.53c-1.06,0-1.93-.87-1.93-1.93s.87-1.93,1.93-1.93h49.85c.26,0,.49-.18.55-.44l7.57-34.15c.04-.17,0-.34-.11-.47-.11-.13-.27-.21-.44-.21h-32.12c-.26,0-.49.18-.55.44l-1.79,8.06c-.04.17,0,.34.11.47s.27.21.44.21h15.01c1.06,0,1.93.87,1.93,1.93s-.87,1.93-1.93,1.93h-33.01c-1.06,0-1.93-.87-1.93-1.93s.87-1.93,1.93-1.93h12.89c.26,0,.49-.18.55-.44l2.46-11.09c.2-.88.98-1.51,1.89-1.51h37.22c1.06,0,1.93.87,1.93,1.93,0,.14-.02.28-.05.42l-1.93,8.73c-.04.17,0,.34.11.47.11.13.27.21.44.21h11.41c.84,0,1.59.55,1.84,1.35Zm-46.49,46.99h0c2.57,0,4.68-2.12,4.68-4.68h0c0-2.57-2.12-4.68-4.68-4.68s-4.68,2.11-4.68,4.68,2.11,4.68,4.68,4.68Zm29.62,0h0c2.57,0,4.68-2.12,4.68-4.68h0c0-2.57-2.12-4.68-4.68-4.68s-4.68,2.11-4.68,4.68,2.11,4.68,4.68,4.68Zm12.27-6.62c.26,0,.49-.18.55-.44l5.18-23.37c.02-.1.02-.2-.01-.29l-4.25-13.37c-.07-.23-.29-.39-.53-.39h-10.69c-.26,0-.49.18-.55.44l-5.63,25.42c-.2.88-.98,1.51-1.89,1.51h-35.22c-.26,0-.49.18-.55.44l-2.07,9.36c-.04.17,0,.34.11.47.11.13.27.21.44.21h4.48c.25,0,.47-.17.54-.41,1.04-3.66,4.41-6.21,8.22-6.21s7.18,2.54,8.22,6.21c.07.24.29.41.54.41h12.11c.25,0,.47-.17.54-.41,1.04-3.66,4.41-6.21,8.22-6.21s7.18,2.54,8.22,6.21c.07.24.29.41.54.41h3.51ZM55.71,29.03h0c0-1.07.87-1.95,1.93-1.95h.42c1.06,0,1.93.87,1.93,1.93s-.87,1.93-1.93,1.93h-.42c-1.06,0-1.93-.86-1.93-1.92Zm10.51,1.92c-1.06,0-1.93-.87-1.93-1.93s.87-1.93,1.93-1.93h33c1.06,0,1.93.87,1.93,1.93s-.87,1.93-1.93,1.93h-33Zm38.11-13.04c-1.06,0-1.93-.87-1.93-1.93s.87-1.93,1.93-1.93h.42c1.06,0,1.93.87,1.93,1.93s-.87,1.93-1.93,1.93h-.42Z"/>
  </g>
</svg>