<?xml version="1.0" encoding="UTF-8" standalone="no"?>
<!DOCTYPE svg PUBLIC "-//W3C//DTD SVG 1.1//EN" "http://www.w3.org/Graphics/SVG/1.1/DTD/svg11.dtd">
<svg width="100%" height="100%" viewBox="0 0 411 500" version="1.1" xmlns="http://www.w3.org/2000/svg" xmlns:xlink="http://www.w3.org/1999/xlink" xml:space="preserve" xmlns:serif="http://www.serif.com/" style="fill-rule:evenodd;clip-rule:evenodd;stroke-linejoin:round;stroke-miterlimit:2;">
    <g transform="matrix(1,0,0,1,-4414.07,-3169.86)">
        <g id="Artboard1" transform="matrix(0.163264,0,0,0.304001,4419.72,3169.86)">
            <rect x="-34.623" y="0" width="2514.94" height="1644.73" style="fill:none;"/>
            <clipPath id="_clip1">
                <rect x="-34.623" y="0" width="2514.94" height="1644.73"/>
            </clipPath>
            <g clip-path="url(#_clip1)">
                <g id="DESIGNED-BY-FREEPIK" serif:id="DESIGNED BY FREEPIK">
                </g>
                <g id="DESIGNED-BY-FREEPIK1" serif:id="DESIGNED BY FREEPIK">
                </g>
                <g id="DESIGNED-BY-FREEPIK2" serif:id="DESIGNED BY FREEPIK">
                </g>
                <g id="DESIGNED-BY-FREEPIK3" serif:id="DESIGNED BY FREEPIK">
                </g>
                <g id="Layer-1" serif:id="Layer 1">
                </g>
                <g id="DESIGNED-BY-FREEPIK4" serif:id="DESIGNED BY FREEPIK">
                </g>
                <g id="DESIGNED-BY-FREEPIK5" serif:id="DESIGNED BY FREEPIK">
                </g>
                <g transform="matrix(1.21773,0,0,1,-266.25,0)">
                    <g transform="matrix(8.92978,0,0,5.83995,-2701.89,-1228.83)">
                        <path d="M323.864,491.403C325.862,491.653 328.56,491.853 332.159,491.853C338.711,491.853 344.063,490.305 347.413,487.259C350.61,484.358 352.658,479.857 352.658,473.856C352.658,468.104 350.66,464.103 347.413,461.454C344.314,458.857 339.962,457.559 333.659,457.559C330.008,457.559 326.562,457.809 323.864,458.258L323.864,491.403ZM330.008,462.703C330.858,462.503 332.259,462.353 334.21,462.353C341.913,462.353 346.214,466.604 346.164,474.056C346.164,482.608 341.412,487.009 333.409,486.959C332.159,486.959 330.858,486.959 330.008,486.809L330.008,462.703Z" style="fill-rule:nonzero;"/>
                        <path d="M376.908,481.053C377.008,480.504 377.108,479.605 377.108,478.457C377.108,473.105 374.511,466.609 366.612,466.609C358.81,466.609 354.714,472.955 354.714,479.705C354.714,487.159 359.359,492.003 367.262,492.003C370.764,492.003 373.662,491.354 375.76,490.505L374.861,486.258C373.013,486.959 370.964,487.359 368.112,487.359C364.21,487.359 360.758,485.457 360.608,481.053L376.908,481.053ZM360.608,476.759C360.858,474.256 362.459,470.803 366.261,470.803C370.364,470.803 371.364,474.507 371.314,476.759L360.608,476.759Z" style="fill-rule:nonzero;"/>
                        <path d="M379.064,490.305C380.863,491.304 383.51,492.003 386.459,492.003C392.912,492.003 396.358,488.807 396.358,484.408C396.308,480.807 394.26,478.556 389.864,476.955C386.76,475.855 385.608,475.104 385.608,473.554C385.608,472.053 386.81,471.003 389.013,471.003C391.164,471.003 393.112,471.803 394.16,472.403L395.359,468.057C393.961,467.308 391.613,466.609 388.912,466.609C383.261,466.609 379.714,469.954 379.714,474.254C379.664,477.105 381.662,479.706 386.409,481.357C389.413,482.407 390.414,483.257 390.414,484.908C390.414,486.509 389.213,487.609 386.509,487.609C384.31,487.609 381.662,486.709 380.264,485.858L379.064,490.305Z" style="fill-rule:nonzero;"/>
                        <path d="M419.158,491.503C418.908,490.003 418.808,487.853 418.808,485.653L418.808,476.857C418.808,471.554 416.56,466.609 408.761,466.609C404.909,466.609 401.761,467.658 399.963,468.756L401.161,472.755C402.81,471.704 405.309,470.953 407.711,470.953C412.014,470.953 412.664,473.606 412.664,475.209L412.664,475.609C403.659,475.559 398.214,478.654 398.214,484.803C398.214,488.508 400.962,492.053 405.859,492.053C409.012,492.053 411.564,490.705 413.064,488.807L413.214,488.807L413.613,491.503L419.158,491.503ZM412.814,482.955C412.814,483.356 412.764,483.856 412.614,484.306C412.064,486.058 410.263,487.659 407.811,487.659C405.859,487.659 404.308,486.558 404.308,484.156C404.308,480.453 408.461,479.503 412.814,479.603L412.814,482.955Z" style="fill-rule:nonzero;"/>
                        <path d="M430.008,491.503L430.008,467.159L423.814,467.159L423.814,491.503L430.008,491.503ZM426.911,457.009C424.863,457.009 423.464,458.458 423.464,460.356C423.464,462.204 424.813,463.653 426.861,463.653C429.009,463.653 430.358,462.204 430.358,460.356C430.308,458.458 429.009,457.009 426.911,457.009Z" style="fill-rule:nonzero;"/>
                        <path d="M435.114,491.503L441.308,491.503L441.308,477.203C441.308,476.503 441.358,475.753 441.558,475.203C442.209,473.353 443.91,471.603 446.361,471.603C449.713,471.603 451.014,474.253 451.014,477.753L451.014,491.503L457.158,491.503L457.158,477.053C457.158,469.356 452.763,466.609 448.513,466.609C444.46,466.609 441.808,468.906 440.759,470.804L440.609,470.804L440.309,467.159L434.914,467.159C435.064,469.259 435.114,471.608 435.114,474.407L435.114,491.503Z" style="fill-rule:nonzero;"/>
                        <path d="M468.358,456.009L462.214,456.009L462.214,491.503L468.358,491.503L468.358,483.205L470.458,480.756L477.458,491.503L485.008,491.503L474.708,477.107L483.708,467.159L476.308,467.159L470.408,475.007C469.758,475.857 469.058,476.907 468.458,477.856L468.358,477.856L468.358,456.009Z" style="fill-rule:nonzero;"/>
                        <path d="M505.958,491.503C505.708,490.003 505.608,487.853 505.608,485.653L505.608,476.857C505.608,471.554 503.36,466.609 495.561,466.609C491.709,466.609 488.561,467.658 486.763,468.756L487.961,472.755C489.61,471.704 492.109,470.953 494.511,470.953C498.814,470.953 499.464,473.606 499.464,475.209L499.464,475.609C490.459,475.559 485.014,478.654 485.014,484.803C485.014,488.508 487.762,492.053 492.659,492.053C495.812,492.053 498.364,490.705 499.864,488.807L500.014,488.807L500.413,491.503L505.958,491.503ZM499.614,482.955C499.614,483.356 499.564,483.856 499.414,484.306C498.864,486.058 497.063,487.659 494.611,487.659C492.659,487.659 491.108,486.558 491.108,484.156C491.108,480.453 495.261,479.503 499.614,479.603L499.614,482.955Z" style="fill-rule:nonzero;"/>
                        <path d="M521.661,466.609C514.309,466.609 509.064,471.503 509.064,479.506C509.064,487.309 514.359,492.053 521.261,492.053C527.464,492.053 533.758,488.058 533.758,479.106C533.758,471.703 528.913,466.609 521.661,466.609ZM521.511,471.103C525.713,471.103 527.414,475.454 527.414,479.256C527.414,484.158 524.963,487.609 521.461,487.609C517.709,487.609 515.408,484.058 515.408,479.356C515.408,475.304 517.159,471.103 521.511,471.103Z" style="fill-rule:nonzero;"/>
                        <path d="M534.614,491.503L555.158,491.503L555.158,486.609L542.312,486.609L542.312,486.509C543.562,485.209 544.711,483.808 545.911,482.357L554.858,470.904L554.858,467.159L535.514,467.159L535.514,472.053L547.36,472.053L547.36,472.153C546.061,473.554 545.011,474.754 543.762,476.255L534.614,487.957L534.614,491.503Z" style="fill-rule:nonzero;"/>
                    </g>
                    <g transform="matrix(22.1351,0,0,14.476,-1912.23,-2015.08)">
                        <path d="M121.164,143.567C125.218,145.016 130.275,145.507 133.204,145.006C136.243,144.487 140.522,142.318 143.835,139.569C144.26,139.217 144.836,139.109 145.359,139.283C144.685,138.982 161.396,143.976 165.052,145.609C165.946,146.009 166.477,146.559 167.099,147.576C170.265,152.751 183.334,175.134 183.334,175.134C183.711,175.765 183.511,176.488 183.087,177.088C180.05,181.383 174.246,184.347 167.013,184.593C168.247,195.21 171.116,207.514 174.511,219.723C174.632,220.157 174.564,220.622 174.324,221.002C174.084,221.383 173.711,221.572 173.251,221.723C156.515,227.201 139.521,230.351 122.221,230.721C121.731,230.731 121.322,230.687 120.966,230.411C120.61,230.135 120.387,229.722 120.352,229.273C119.367,216.638 117.255,204.201 114.783,193.802C108.586,195.89 102.235,195.274 96.962,192.572C96.308,192.237 95.923,191.542 96.061,190.821C96.061,190.821 100.836,164.994 102.042,159.047C102.279,157.879 102.589,157.18 103.292,156.499C106.169,153.714 120.165,143.306 119.635,143.819C120.067,143.477 120.645,143.381 121.164,143.567ZM134.899,185.957C139.924,185.041 143.259,180.219 142.343,175.194L140.173,163.289C139.257,158.264 134.434,154.929 129.41,155.845C124.036,156.825 118.623,157.812 113.256,158.79L118.746,188.902C124.113,187.924 129.526,186.937 134.899,185.957ZM144.565,172.52L148.174,171.862C148.689,171.768 149.225,172.026 149.49,172.51L154.616,182.363L162.822,180.867L156.86,169.347C156.231,168.087 155.355,167.181 153.984,166.722C155.113,165.85 155.569,164.703 155.756,163.293L157.246,150.77L149.04,152.266L147.744,162.931C147.667,163.48 147.257,163.911 146.741,164.005L143.132,164.663L144.565,172.52ZM122.545,165.215L130.842,163.702C131.53,163.577 132.191,164.034 132.316,164.721L134.486,176.627C134.612,177.314 134.155,177.975 133.467,178.1L125.17,179.613L122.545,165.215Z" style="fill:rgb(11,10,10);"/>
                    </g>
                </g>
            </g>
        </g>
    </g>
</svg>
