<?xml version="1.0" encoding="UTF-8" standalone="no"?>
<!DOCTYPE svg PUBLIC "-//W3C//DTD SVG 1.1//EN" "http://www.w3.org/Graphics/SVG/1.1/DTD/svg11.dtd">
<svg width="100%" height="100%" viewBox="0 0 240 185" version="1.1" xmlns="http://www.w3.org/2000/svg" xmlns:xlink="http://www.w3.org/1999/xlink" xml:space="preserve" xmlns:serif="http://www.serif.com/" style="fill-rule:evenodd;clip-rule:evenodd;stroke-linejoin:round;stroke-miterlimit:2;">
    <g transform="matrix(1,0,0,1,-6919,-393.943)">
        <g id="Artboard1" transform="matrix(0.09539,0,0,0.112055,6922.3,393.943)">
            <rect x="-34.623" y="0" width="2514.94" height="1644.73" style="fill:none;"/>
            <g id="DESIGNED-BY-FREEPIK" serif:id="DESIGNED BY FREEPIK">
            </g>
            <g id="DESIGNED-BY-FREEPIK1" serif:id="DESIGNED BY FREEPIK">
            </g>
            <g id="DESIGNED-BY-FREEPIK2" serif:id="DESIGNED BY FREEPIK">
            </g>
            <g id="DESIGNED-BY-FREEPIK3" serif:id="DESIGNED BY FREEPIK">
            </g>
            <g id="Layer-1" serif:id="Layer 1">
            </g>
            <g id="DESIGNED-BY-FREEPIK4" serif:id="DESIGNED BY FREEPIK">
            </g>
            <g id="DESIGNED-BY-FREEPIK5" serif:id="DESIGNED BY FREEPIK">
            </g>
            <g transform="matrix(16.8549,0,0,16.302,-26081.8,-4663.68)">
                <g transform="matrix(1.13029,0,0,1.01114,1120.59,-561.702)">
                    <rect x="375.824" y="838.452" width="131.998" height="99.766" style="fill:rgb(231,231,231);"/>
                </g>
                <g transform="matrix(1.12832,0,0,0.993092,1137.65,272.065)">
                    <path d="M412.018,89.588C412.423,89.644 413.066,89.7 413.906,89.7C415.447,89.7 416.512,89.42 417.155,88.82C417.644,88.358 417.966,87.741 417.966,86.929C417.966,85.528 416.917,84.787 416.021,84.577L416.021,84.535C417.001,84.186 417.616,83.387 417.616,82.463C417.616,81.72 417.308,81.16 416.819,80.796C416.246,80.321 415.461,80.112 414.243,80.112C413.402,80.112 412.549,80.196 412.018,80.321L412.018,89.588ZM413.234,81.132C413.43,81.09 413.752,81.048 414.313,81.048C415.545,81.048 416.372,81.496 416.372,82.589C416.372,83.499 415.615,84.186 414.341,84.186L413.234,84.186L413.234,81.132ZM413.234,85.094L414.243,85.094C415.573,85.094 416.68,85.64 416.68,86.915C416.68,88.288 415.517,88.75 414.257,88.75C413.822,88.75 413.486,88.736 413.234,88.694L413.234,85.094Z" style="fill-rule:nonzero;"/>
                    <path d="M419.564,89.616L420.794,89.616L420.794,85.99C420.794,85.794 420.808,85.598 420.836,85.416C421.004,84.506 421.62,83.848 422.488,83.848C422.656,83.848 422.782,83.862 422.908,83.876L422.908,82.716C422.796,82.702 422.698,82.688 422.572,82.688C421.746,82.688 420.99,83.261 420.682,84.17L420.64,84.17L420.584,82.842L419.508,82.842C419.55,83.472 419.564,84.157 419.564,84.955L419.564,89.616Z" style="fill-rule:nonzero;"/>
                    <path d="M428.844,85.459C428.844,84.101 428.341,82.688 426.255,82.688C425.4,82.688 424.574,82.925 424.015,83.275L424.295,84.101C424.77,83.778 425.428,83.596 426.073,83.596C427.46,83.582 427.614,84.605 427.614,85.166L427.614,85.306C424.994,85.292 423.54,86.186 423.54,87.825C423.54,88.806 424.239,89.77 425.611,89.77C426.577,89.77 427.32,89.295 427.684,88.764L427.726,88.764L427.837,89.616L428.942,89.616C428.872,89.154 428.844,88.58 428.844,87.992L428.844,85.459ZM427.642,87.334C427.642,87.461 427.628,87.601 427.586,87.727C427.39,88.301 426.815,88.862 425.919,88.862C425.302,88.862 424.77,88.497 424.77,87.685C424.77,86.368 426.297,86.13 427.642,86.158L427.642,87.334Z" style="fill-rule:nonzero;"/>
                    <path d="M430.82,89.616L432.05,89.616L432.05,85.528C432.05,85.332 432.078,85.108 432.134,84.954C432.358,84.268 432.989,83.694 433.787,83.694C434.95,83.694 435.356,84.618 435.356,85.71L435.356,89.616L436.586,89.616L436.586,85.57C436.586,83.247 435.132,82.688 434.193,82.688C433.073,82.688 432.288,83.317 431.952,83.946L431.924,83.946L431.854,82.842L430.764,82.842C430.806,83.402 430.82,83.961 430.82,84.675L430.82,89.616Z" style="fill-rule:nonzero;"/>
                    <path d="M443.21,79.678L443.21,83.708L443.182,83.708C442.888,83.177 442.187,82.688 441.137,82.688C439.498,82.688 438.086,84.058 438.1,86.327C438.1,88.386 439.372,89.77 441.011,89.77C442.117,89.77 442.93,89.197 443.308,88.442L443.336,88.442L443.392,89.616L444.496,89.616C444.454,89.154 444.44,88.468 444.44,87.866L444.44,79.678L443.21,79.678ZM443.21,86.774C443.21,86.97 443.196,87.138 443.154,87.292C442.93,88.218 442.173,88.778 441.347,88.778C440.03,88.778 439.344,87.643 439.344,86.257C439.344,84.772 440.1,83.652 441.375,83.652C442.299,83.652 442.972,84.296 443.154,85.066C443.196,85.235 443.21,85.431 443.21,85.599L443.21,86.774Z" style="fill-rule:nonzero;"/>
                </g>
                <g id="apple.svg" transform="matrix(0.0726265,0,0,0.0639224,1618.73,324.299)">
                    <g transform="matrix(1,0,0,1,-245,-245)">
                        <clipPath id="_clip1">
                            <rect x="0" y="0" width="490" height="490"/>
                        </clipPath>
                        <g clip-path="url(#_clip1)">
                            <path d="M251.526,117.173L240.873,117.173L240.873,106.523C240.873,36.883 277.756,0 347.396,0L358.045,0L358.045,10.653C358.045,80.289 321.162,117.173 251.526,117.173ZM336.341,21.705C290.005,24.9 265.773,49.132 262.441,95.604C309.58,92.409 333.278,68.707 336.341,21.705Z" style="fill-rule:nonzero;"/>
                            <path d="M336.742,490.001C319.582,489.99 302.683,485.831 287.477,477.885C265.059,465.882 238.123,465.882 215.708,477.885C200.498,485.831 183.599,489.99 166.439,490.001C94.806,490.001 38.613,391.733 38.613,266.306C38.613,190.007 96.003,127.826 166.439,127.826C179.628,127.826 192.727,130.03 205.187,134.352L244.735,148.064C249.264,149.628 254.187,149.628 258.716,148.064L298.127,134.352C310.548,130.05 323.596,127.846 336.742,127.826C375.221,127.826 411.172,146.336 435.674,178.558L444.994,190.939L430.08,195.199C391.789,206.235 366.284,242.366 368.714,282.143C371.141,321.921 400.85,354.681 440.199,360.974L452.319,362.971L448.59,374.689C426.487,445.792 383.48,490.001 336.742,490.001ZM251.526,447.391C267.501,447.516 283.214,451.491 297.327,458.977C309.475,465.39 323.007,468.726 336.742,468.694C371.628,468.694 404.783,434.741 424.755,379.351C378.888,366.482 347.24,324.594 347.396,276.955C347.579,235.535 371.64,197.938 409.175,180.422C389.604,160.45 363.905,149.129 336.742,149.129C325.956,149.133 315.244,150.931 305.051,154.458L265.507,168.17C256.488,171.267 246.693,171.267 237.678,168.17L197.998,154.458C187.804,150.931 177.092,149.129 166.306,149.129C107.585,149.129 59.787,201.726 59.787,266.306C59.787,376.024 108.518,468.694 166.306,468.694C180.042,468.729 193.578,465.394 205.721,458.977C219.835,451.491 235.548,447.516 251.526,447.391Z" style="fill-rule:nonzero;"/>
                        </g>
                    </g>
                </g>
            </g>
        </g>
    </g>
</svg>
