<?xml version="1.0" encoding="UTF-8" standalone="no"?>
<!DOCTYPE svg PUBLIC "-//W3C//DTD SVG 1.1//EN" "http://www.w3.org/Graphics/SVG/1.1/DTD/svg11.dtd">
<svg width="100%" height="100%" viewBox="0 0 21 21" version="1.1" xmlns="http://www.w3.org/2000/svg" xmlns:xlink="http://www.w3.org/1999/xlink" xml:space="preserve" xmlns:serif="http://www.serif.com/" style="fill-rule:evenodd;clip-rule:evenodd;stroke-linejoin:round;stroke-miterlimit:2;">
    <g transform="matrix(1,0,0,1,-5617.56,-3166.86)">
        <g id="Artboard1" transform="matrix(0.00835011,0,0,0.012768,5617.85,3166.86)">
            <rect x="-34.623" y="0" width="2514.94" height="1644.73" style="fill:none;"/>
            <g id="DESIGNED-BY-FREEPIK" serif:id="DESIGNED BY FREEPIK">
            </g>
            <g id="DESIGNED-BY-FREEPIK1" serif:id="DESIGNED BY FREEPIK">
            </g>
            <g id="DESIGNED-BY-FREEPIK2" serif:id="DESIGNED BY FREEPIK">
            </g>
            <g id="DESIGNED-BY-FREEPIK3" serif:id="DESIGNED BY FREEPIK">
            </g>
            <g id="Layer-1" serif:id="Layer 1">
            </g>
            <g id="DESIGNED-BY-FREEPIK4" serif:id="DESIGNED BY FREEPIK">
            </g>
            <g id="DESIGNED-BY-FREEPIK5" serif:id="DESIGNED BY FREEPIK">
            </g>
            <g transform="matrix(1.13401,0,0,0.741629,130.08,-2064.56)">
                <path d="M660.513,4226.59L660.512,4226.52C635.131,4226.54 609.758,4226.57 584.385,4226.6C579.251,4226.6 574.1,4227.07 569.243,4227.32C560.821,4227.77 553.835,4234 552.436,4242.32C540.215,4314.99 513.618,4366.74 472.132,4395.24C445.238,4413.72 412.252,4422.08 373.732,4420.53C299.966,4417.56 215.307,4360.31 211.75,4244.01C211.453,4234.29 203.485,4226.56 193.758,4226.56C177.035,4226.56 160.054,4225.56 143.233,4226.77C143.231,4226.77 143.23,4226.77 143.228,4226.77C113.993,4228.89 88.296,4224.4 67.86,4211.2C48.213,4198.52 33.805,4177.85 25.254,4148.64L25.254,4146.95C25.254,4125.39 25.254,4024.86 25.254,4008.01C34.138,3976.88 39.995,3944.45 52.948,3915.12C52.949,3915.12 52.949,3915.11 52.95,3915.11C84.926,3842.67 139.91,3792.9 213.548,3763.31C225.561,3758.49 237.21,3748.19 244.811,3737.41C244.812,3737.41 244.813,3737.41 244.814,3737.41C296.579,3663.96 343.948,3587.09 399.787,3516.92C477.928,3418.74 584.003,3369.61 709.331,3366.59C811.689,3364.12 914.225,3363.86 1016.56,3366.66C1150.53,3370.33 1259.58,3426.84 1339.74,3534.37C1387.51,3598.45 1431.08,3665.68 1475.85,3731.96C1475.85,3731.97 1475.85,3731.97 1475.86,3731.97C1487.29,3748.89 1499.32,3754.77 1519.49,3754.84C1519.49,3754.84 1519.5,3754.84 1519.5,3754.84C1571.97,3754.99 1624.62,3750.65 1676.42,3764.53C1793.3,3795.88 1881.45,3894.36 1898.74,4014.29C1899.33,4018.47 1900.74,4022.6 1902,4026.74C1902,4047.44 1902,4185.19 1902,4213.37C1894.6,4224.1 1883.77,4227.41 1869.77,4226.96C1826.81,4225.57 1783.77,4226.56 1739.25,4226.56C1729.38,4226.56 1721.36,4234.5 1721.25,4244.36C1720.63,4300.61 1701.28,4347.31 1658.42,4382.62C1658.41,4382.62 1658.41,4382.62 1658.41,4382.62C1627.88,4407.78 1592.44,4420.65 1552.88,4420.63C1504.95,4420.59 1463.95,4403 1430.52,4368.66C1397.35,4334.58 1383.21,4292.61 1382.84,4244.42C1382.76,4234.53 1374.73,4226.56 1364.84,4226.56L1227.2,4226.56C1205.63,4226.56 1047.82,4226.61 963.494,4226.58C963.488,4226.58 796.551,4226.58 796.551,4226.58C796.227,4226.58 795.903,4226.59 795.579,4226.6C794.338,4226.67 793.072,4226.7 791.784,4226.69C791.782,4226.69 791.781,4226.69 791.779,4226.69C781.43,4226.64 771.081,4226.61 760.743,4226.58C760.696,4226.58 660.528,4226.58 660.528,4226.58L660.513,4226.59ZM511.306,4252.51L511.306,4252.51C511.487,4180.71 454.018,4122.46 382.643,4121.99C310.544,4121.51 251.024,4180.77 251.384,4252.56C251.731,4323.52 310.599,4382.06 381.614,4382.06C381.615,4382.06 381.616,4382.06 381.617,4382.06C453.11,4382.04 511.126,4324.12 511.306,4252.51ZM1681.81,4251.81L1681.81,4251.81C1681.69,4180.3 1623.65,4122.13 1552.33,4121.99C1480.89,4121.85 1422.81,4179.45 1422.21,4251.08C1421.6,4323.28 1480.49,4382.38 1552.73,4382.05C1623.97,4381.73 1681.94,4323.27 1681.81,4251.81L1681.81,4251.81ZM1576.98,4258.59C1576.79,4272.51 1565.74,4283.75 1551.98,4283.74C1537.73,4283.71 1526.5,4271.59 1527.02,4257.16C1527.53,4243.36 1538.94,4232.4 1552.66,4232.79C1566.46,4233.19 1577.18,4244.66 1576.98,4258.59ZM406.368,4257.74C406.408,4271.58 395.793,4282.81 382.116,4283.06C368.268,4283.31 356.037,4271.25 356.368,4257.49C356.368,4257.48 356.368,4257.48 356.368,4257.48C356.683,4244.07 368.465,4232.69 381.875,4232.8C381.877,4232.8 381.879,4232.8 381.88,4232.8C395.54,4232.91 406.327,4243.98 406.368,4257.74L406.368,4257.74ZM1576.98,4258.59C1576.99,4258.48 1576.99,4258.38 1577.02,4258.27C1577.19,4257.7 1576.98,4258.59 1576.98,4258.59ZM982.648,4187.81C982.652,4187.81 982.657,4187.81 982.661,4187.81C1101.92,4187.72 1308.29,4187.69 1368.34,4188.12C1377.77,4188.19 1384.9,4186.38 1391,4182.93C1397.04,4179.53 1402.29,4174.38 1407.2,4166.29C1407.2,4166.29 1407.2,4166.29 1407.2,4166.29C1474.21,4055.76 1629.65,4055.67 1696.69,4166.08C1701.44,4173.91 1706.49,4179.13 1712.35,4182.63C1718.57,4186.34 1725.88,4188.36 1735.71,4188.14C1735.71,4188.14 1735.71,4188.14 1735.71,4188.14C1771.54,4187.32 1807.38,4187.84 1845.61,4187.84C1850.53,4187.84 1855.25,4185.82 1858.64,4182.25C1862.04,4178.68 1863.83,4173.88 1863.58,4168.95C1860.03,4096.94 1872.04,4025.72 1843.53,3957.22C1843.53,3957.22 1843.53,3957.22 1843.53,3957.22C1803.06,3860.03 1708,3794.52 1602.81,3793.32C1564.68,3792.89 1526.53,3792.78 1488.41,3793.38C1476.47,3793.57 1468.05,3788.93 1461.37,3779.09C1415.63,3711.62 1369.37,3644.49 1323.37,3577.19C1244.53,3461.87 1135.26,3404.5 995.622,3404.65C905.974,3404.75 816.315,3404.45 726.667,3404.72C589.411,3405.14 481.471,3461.8 403.455,3574.79C357.544,3641.29 312.662,3708.5 265.916,3774.39C265.913,3774.4 265.909,3774.4 265.905,3774.41C259.645,3783.25 249.223,3791.28 239.025,3794.87C132.872,3832.2 64.815,3925.8 64.019,4038.68C63.803,4068.03 63.803,4097.37 64.031,4126.73C64.181,4146.63 70.009,4161.28 79.785,4171.31C89.683,4181.47 104.162,4187.53 123.919,4187.77C123.92,4187.77 123.922,4187.77 123.924,4187.77C149.846,4188.07 175.818,4188.67 201.668,4187.25C201.675,4187.25 201.682,4187.25 201.689,4187.25C213.477,4186.59 229.221,4177.04 235.508,4166.82C235.509,4166.82 235.511,4166.82 235.512,4166.81C303.844,4055.67 458.893,4055.29 526.674,4166.85C536.949,4183.77 547.76,4188.16 565.934,4188.06C565.934,4188.06 565.934,4188.06 565.934,4188.06C628.02,4187.72 690.106,4187.66 752.175,4187.81C752.216,4187.81 982.648,4187.81 982.648,4187.81ZM590.154,3793.19C537.218,3793.19 484.282,3792.99 431.346,3793.31C431.344,3793.31 431.342,3793.31 431.34,3793.31C421.614,3793.38 412.885,3792.03 408.069,3783.04C403.338,3774.18 406.399,3766.1 411.928,3758.12C411.929,3758.12 411.931,3758.12 411.932,3758.12C441.61,3715.26 470.104,3671.57 500.582,3629.3C554.454,3554.56 628.205,3517.01 720.293,3515.42C720.297,3515.42 720.301,3515.42 720.306,3515.42C730.077,3515.24 739.871,3515.3 749.643,3515.41C758.671,3515.51 765.592,3516.53 769.976,3520.86C774.336,3525.17 775.416,3532.05 775.54,3541.13C776.017,3576.52 775.67,3611.92 775.67,3647.31C775.67,3687.08 775.969,3726.85 775.551,3766.62C775.551,3766.62 775.551,3766.62 775.551,3766.62C775.452,3776.18 774.468,3783.35 769.977,3787.78C765.48,3792.23 758.307,3793.13 748.803,3793.16C695.92,3793.3 643.037,3793.19 590.154,3793.19ZM1102.84,3793.2C1040.03,3793.2 977.218,3793.27 914.406,3793.17C904.221,3793.16 896.646,3792.34 891.942,3787.76C887.351,3783.29 886.497,3776 886.46,3766.14C886.46,3766.14 886.46,3766.14 886.46,3766.14C886.15,3691.54 886.15,3616.96 886.46,3542.36C886.501,3532.45 887.385,3525 892.012,3520.47C896.596,3515.98 903.975,3515.3 913.891,3515.61C913.894,3515.61 913.896,3515.61 913.899,3515.61C964.588,3517.12 1015.94,3515.49 1065.72,3523.39C1065.72,3523.39 1065.73,3523.39 1065.73,3523.39C1129.22,3533.45 1180.11,3569.3 1218.21,3621.02C1218.22,3621.02 1218.22,3621.03 1218.22,3621.03C1251.65,3666.38 1282.45,3713.67 1314.45,3760.08C1319.52,3767.44 1321.49,3775.15 1317.01,3783.12C1317.01,3783.13 1317,3783.13 1317,3783.14C1312.37,3791.39 1304.36,3793.33 1295.12,3793.29C1295.12,3793.29 1295.11,3793.29 1295.11,3793.29C1231.02,3793.04 1166.93,3793.2 1102.84,3793.2ZM717.507,3753.5C727.448,3753.5 735.507,3745.44 735.507,3735.5C735.507,3735.5 735.507,3570.76 735.507,3570.76C735.507,3565.52 733.224,3560.54 729.254,3557.12C725.284,3553.7 720.021,3552.18 714.84,3552.96C697.529,3555.55 681.825,3557.08 666.508,3560.36C573.611,3580.22 528.397,3652.2 482.398,3725.97C478.938,3731.52 478.76,3738.51 481.933,3744.23C485.107,3749.95 491.132,3753.5 497.672,3753.5C497.672,3753.5 717.507,3753.5 717.507,3753.5ZM941.735,3557.5C933.05,3558.95 926.683,3566.46 926.683,3575.26L926.683,3735.02C926.683,3744.96 934.742,3753.02 944.683,3753.02C944.683,3753.02 1224.92,3753.02 1224.92,3753.02C1231.15,3753.02 1236.93,3749.81 1240.21,3744.52C1243.5,3739.23 1243.82,3732.62 1241.06,3727.04C1180.01,3603.57 1088.2,3533.18 941.735,3557.5Z" style="fill-rule:nonzero;"/>
            </g>
        </g>
    </g>
</svg>
