<?xml version="1.0" encoding="UTF-8" standalone="no"?>
<!DOCTYPE svg PUBLIC "-//W3C//DTD SVG 1.1//EN" "http://www.w3.org/Graphics/SVG/1.1/DTD/svg11.dtd">
<svg width="100%" height="100%" viewBox="0 0 240 185" version="1.1" xmlns="http://www.w3.org/2000/svg" xmlns:xlink="http://www.w3.org/1999/xlink" xml:space="preserve" xmlns:serif="http://www.serif.com/" style="fill-rule:evenodd;clip-rule:evenodd;stroke-linecap:round;stroke-linejoin:round;stroke-miterlimit:10;">
    <g transform="matrix(1,0,0,1,-5027.14,-393.943)">
        <g id="Artboard1" transform="matrix(0.09539,0,0,0.112055,5030.45,393.943)">
            <rect x="-34.623" y="0" width="2514.94" height="1644.73" style="fill:none;"/>
            <g id="DESIGNED-BY-FREEPIK" serif:id="DESIGNED BY FREEPIK">
            </g>
            <g id="DESIGNED-BY-FREEPIK1" serif:id="DESIGNED BY FREEPIK">
            </g>
            <g id="DESIGNED-BY-FREEPIK2" serif:id="DESIGNED BY FREEPIK">
            </g>
            <g id="DESIGNED-BY-FREEPIK3" serif:id="DESIGNED BY FREEPIK">
            </g>
            <g id="Layer-1" serif:id="Layer 1">
            </g>
            <g id="DESIGNED-BY-FREEPIK4" serif:id="DESIGNED BY FREEPIK">
            </g>
            <g id="DESIGNED-BY-FREEPIK5" serif:id="DESIGNED BY FREEPIK">
            </g>
            <g transform="matrix(16.8549,0,0,16.302,-6543.98,-4663.68)">
                <g transform="matrix(1.13029,0,0,1.01114,-38.5817,-561.702)">
                    <rect x="375.824" y="838.452" width="131.998" height="99.766" style="fill:rgb(228,228,228);"/>
                </g>
                <g id="path3010" transform="matrix(0.0976472,0,0,-0.0859445,463.759,335.593)">
                    <path d="M-146.03,0L87.259,0" style="fill:none;fill-rule:nonzero;stroke:black;stroke-width:9.64px;"/>
                </g>
                <g id="path3026" transform="matrix(0.0976472,0,0,-0.0859445,480.091,335.593)">
                    <path d="M0,0L48.5,0L48.5,40C48.5,81.974 14.474,116 -27.5,116L-58.889,116L-98.512,173.878C-118.272,202.742 -151.001,220 -185.982,220L-263.136,220C-298.116,220 -330.845,202.742 -350.606,173.878L-390.228,116C-421.73,107.156 -443.5,78.432 -443.5,45.712L-443.5,20C-443.5,8.954 -434.546,0 -423.5,0L-393.289,0" style="fill:none;fill-rule:nonzero;stroke:black;stroke-width:9.64px;"/>
                </g>
                <g id="path3030" transform="matrix(0.0976472,0,0,-0.0859445,449.5,336.624)">
                    <path d="M0,0C0,22.091 -17.909,40 -40,40C-62.091,40 -80,22.091 -80,0C-80,-22.091 -62.091,-40 -40,-40C-17.909,-40 0,-22.091 0,0Z" style="fill:none;fill-rule:nonzero;stroke:black;stroke-width:9.64px;"/>
                </g>
                <g id="path3034" transform="matrix(0.0976472,0,0,-0.0859445,480.091,336.624)">
                    <path d="M0,0C0,22.091 -17.909,40 -40,40C-62.091,40 -80,22.091 -80,0C-80,-22.091 -62.091,-40 -40,-40C-17.909,-40 0,-22.091 0,0Z" style="fill:none;fill-rule:nonzero;stroke:black;stroke-width:9.64px;"/>
                </g>
                <g id="path3046" transform="matrix(0.0976472,0,0,-0.0859445,469.608,325.623)">
                    <path d="M0,0L-24.154,35.283C-36.465,53.265 -56.825,64.001 -78.617,64.001L-105.636,64.001L-105.636,0.001L0,0Z" style="fill:none;fill-rule:nonzero;stroke:black;stroke-width:9.64px;"/>
                </g>
                <g id="path3050" transform="matrix(0.0976472,0,0,-0.0859445,455.387,320.123)">
                    <path d="M0,0L-10.136,0C-31.928,0 -52.288,-10.736 -64.6,-28.719L-88.752,-64L0,-64L0,0Z" style="fill:none;fill-rule:nonzero;stroke:black;stroke-width:9.64px;"/>
                </g>
                <g transform="matrix(1.12832,0,0,0.993092,-13.9601,271.634)">
                    <path d="M418.358,88.33C417.868,88.568 417.112,88.722 416.356,88.722C414.074,88.722 412.744,87.251 412.744,84.941C412.744,82.476 414.214,81.062 416.426,81.062C417.21,81.062 417.868,81.23 418.316,81.454L418.624,80.448C418.302,80.293 417.546,80.042 416.384,80.042C413.458,80.042 411.458,82.028 411.458,84.983C411.458,88.078 413.444,89.756 416.104,89.756C417.252,89.756 418.162,89.532 418.596,89.309L418.358,88.33Z" style="fill-rule:nonzero;"/>
                    <path d="M424.77,85.459C424.77,84.101 424.267,82.688 422.181,82.688C421.326,82.688 420.5,82.925 419.941,83.275L420.221,84.101C420.696,83.778 421.354,83.596 421.999,83.596C423.386,83.582 423.54,84.605 423.54,85.166L423.54,85.306C420.92,85.292 419.466,86.186 419.466,87.825C419.466,88.806 420.165,89.77 421.537,89.77C422.503,89.77 423.246,89.295 423.61,88.764L423.652,88.764L423.763,89.616L424.868,89.616C424.798,89.154 424.77,88.58 424.77,87.992L424.77,85.459ZM423.568,87.334C423.568,87.461 423.554,87.601 423.512,87.727C423.316,88.301 422.741,88.862 421.845,88.862C421.228,88.862 420.696,88.497 420.696,87.685C420.696,86.368 422.223,86.13 423.568,86.158L423.568,87.334Z" style="fill-rule:nonzero;"/>
                    <path d="M426.746,89.616L427.976,89.616L427.976,85.99C427.976,85.794 427.99,85.598 428.018,85.416C428.186,84.506 428.802,83.848 429.67,83.848C429.838,83.848 429.964,83.862 430.09,83.876L430.09,82.716C429.978,82.702 429.88,82.688 429.754,82.688C428.928,82.688 428.172,83.261 427.864,84.17L427.822,84.17L427.766,82.842L426.69,82.842C426.732,83.472 426.746,84.157 426.746,84.955L426.746,89.616Z" style="fill-rule:nonzero;"/>
                </g>
            </g>
        </g>
    </g>
</svg>
