<?xml version="1.0" encoding="utf-8"?>
<!-- Generator: Adobe Illustrator 27.4.0, SVG Export Plug-In . SVG Version: 6.00 Build 0)  -->
<svg version="1.1" id="Layer_1" xmlns:serif="http://www.serif.com/"
	 xmlns="http://www.w3.org/2000/svg" xmlns:xlink="http://www.w3.org/1999/xlink" x="0px" y="0px" viewBox="0 0 80 80"
	 style="enable-background:new 0 0 80 80;" xml:space="preserve">
<style type="text/css">
	.st0{fill:none;}
	.st1{fill-rule:evenodd;clip-rule:evenodd;fill:#E4E4E4;}
	.st2{fill:none;stroke:#000000;stroke-width:0.5611;stroke-miterlimit:10;}
	.st3{font-family:'MyriadPro-Regular';}
	.st4{font-size:8.3552px;}
</style>
<g transform="matrix(1,0,0,1,-6108.2,-393.943)">
	<g id="Artboard1" transform="matrix(0.09539,0,0,0.112055,6111.51,393.943)">
		<rect x="-34.7" y="81.8" class="st0" width="838.3" height="548.2"/>
		<g id="DESIGNED-BY-FREEPIK" serif:id="DESIGNED BY FREEPIK">
		</g>
		<g id="DESIGNED-BY-FREEPIK1" serif:id="DESIGNED BY FREEPIK">
		</g>
		<g id="DESIGNED-BY-FREEPIK2" serif:id="DESIGNED BY FREEPIK">
		</g>
		<g id="DESIGNED-BY-FREEPIK3" serif:id="DESIGNED BY FREEPIK">
		</g>
		<g id="Layer-1" serif:id="Layer 1">
		</g>
		<g id="DESIGNED-BY-FREEPIK4" serif:id="DESIGNED BY FREEPIK">
		</g>
		<g id="DESIGNED-BY-FREEPIK5" serif:id="DESIGNED BY FREEPIK">
		</g>
		<g transform="matrix(16.8549,0,0,16.302,-17710.2,-4663.68)">
			<g transform="matrix(1.13029,0,0,1.01114,623.911,-561.702)">
				<rect x="375.8" y="843.4" class="st1" width="44" height="33.3"/>
			</g>
			<g id="path27" transform="matrix(0.0631796,0,0,-0.0556077,1108.16,343.139)">
				<path class="st2" d="M-627.6,593.8h170.7"/>
			</g>
			<g id="path31" transform="matrix(0.0631796,0,0,-0.0556077,1131.79,332.187)">
				<path class="st2" d="M-876.9,462.5v60H-887v20h-40.7v-20h-10.1V396.9"/>
			</g>
			<g id="path35" transform="matrix(0.0631796,0,0,-0.0556077,1126.03,318.841)">
				<path class="st2" d="M-816.1,302.5v20"/>
			</g>
			<g id="path39" transform="matrix(0.0631796,0,0,-0.0556077,1126.07,343.139)">
				<path class="st2" d="M-816.5,593.8v65.6h60.4v-65.6"/>
			</g>
			<g id="path43" transform="matrix(0.0631796,0,0,-0.0556077,1129.88,334.906)">
				<path class="st2" d="M-856.7,495.1v-49.3"/>
			</g>
			<g id="path47" transform="matrix(0.0631796,0,0,-0.0556077,1133.69,334.906)">
				<path class="st2" d="M-896.9,495.1v-49.3"/>
			</g>
			<g id="path51" transform="matrix(0.0631796,0,0,-0.0556077,1123.18,325.514)">
				<path class="st2" d="M-786,382.5h10"/>
			</g>
			<g id="path55" transform="matrix(0.0631796,0,0,-0.0556077,1125.08,322.178)">
				<path class="st2" d="M-806.1,342.5h10"/>
			</g>
			<g id="path59" transform="matrix(0.0631796,0,0,-0.0556077,1123.18,328.851)">
				<path class="st2" d="M-786,422.5h10"/>
			</g>
			<g id="path63" transform="matrix(0.0631796,0,0,-0.0556077,1126.97,325.514)">
				<path class="st2" d="M-826,382.5h10"/>
			</g>
			<g id="path67" transform="matrix(0.0631796,0,0,-0.0556077,1126.97,328.851)">
				<path class="st2" d="M-826,422.5h10"/>
			</g>
			<g id="path79" transform="matrix(0.0631796,0,0,-0.0556077,1111.17,343.139)">
				<path class="st2" d="M-659.3,593.8v105.6h47.6"/>
			</g>
			<g id="path83" transform="matrix(0.0631796,0,0,-0.0556077,1114.73,328.851)">
				<path class="st2" d="M-696.9,422.5h10"/>
			</g>
			<g id="path87" transform="matrix(0.0631796,0,0,-0.0556077,1114.73,332.423)">
				<path class="st2" d="M-696.9,465.3h10"/>
			</g>
			<g id="path91" transform="matrix(0.0631796,0,0,-0.0556077,1114.73,335.995)">
				<path class="st2" d="M-696.9,508.2h10"/>
			</g>
			<g id="path95" transform="matrix(0.0631796,0,0,-0.0556077,1114.73,339.567)">
				<path class="st2" d="M-696.9,551h10"/>
			</g>
			<g transform="matrix(1.12832,0,0,0.993092,647.613,271.634)">
				<text transform="matrix(0.5512 0 0 0.5512 371.7722 44.5843)" class="st3 st4">Iconic</text>
			</g>
		</g>
	</g>
</g>
</svg>
