<?xml version="1.0" encoding="UTF-8" standalone="no"?>
<!DOCTYPE svg PUBLIC "-//W3C//DTD SVG 1.1//EN" "http://www.w3.org/Graphics/SVG/1.1/DTD/svg11.dtd">
<svg width="100%" height="100%" viewBox="0 0 240 185" version="1.1" xmlns="http://www.w3.org/2000/svg" xmlns:xlink="http://www.w3.org/1999/xlink" xml:space="preserve" xmlns:serif="http://www.serif.com/" style="fill-rule:evenodd;clip-rule:evenodd;stroke-miterlimit:10;">
    <g transform="matrix(1,0,0,1,-6108.2,-393.943)">
        <g id="Artboard1" transform="matrix(0.09539,0,0,0.112055,6111.51,393.943)">
            <rect x="-34.623" y="0" width="2514.94" height="1644.73" style="fill:none;"/>
            <g id="DESIGNED-BY-FREEPIK" serif:id="DESIGNED BY FREEPIK">
            </g>
            <g id="DESIGNED-BY-FREEPIK1" serif:id="DESIGNED BY FREEPIK">
            </g>
            <g id="DESIGNED-BY-FREEPIK2" serif:id="DESIGNED BY FREEPIK">
            </g>
            <g id="DESIGNED-BY-FREEPIK3" serif:id="DESIGNED BY FREEPIK">
            </g>
            <g id="Layer-1" serif:id="Layer 1">
            </g>
            <g id="DESIGNED-BY-FREEPIK4" serif:id="DESIGNED BY FREEPIK">
            </g>
            <g id="DESIGNED-BY-FREEPIK5" serif:id="DESIGNED BY FREEPIK">
            </g>
            <g transform="matrix(16.8549,0,0,16.302,-17710.2,-4663.68)">
                <g transform="matrix(1.13029,0,0,1.01114,623.911,-561.702)">
                    <rect x="375.824" y="838.452" width="131.998" height="99.766" style="fill:rgb(228,228,228);"/>
                </g>
                <g id="path27" transform="matrix(0.0631796,0,0,-0.0556077,1108.16,343.139)">
                    <path d="M0,0L512,0" style="fill:none;fill-rule:nonzero;stroke:black;stroke-width:16.57px;"/>
                </g>
                <g id="path31" transform="matrix(0.0631796,0,0,-0.0556077,1131.79,332.187)">
                    <path d="M0,0L0,180L-30.188,180L-30.188,240L-152.215,240L-152.215,180L-182.403,180L-182.403,-196.948" style="fill:none;fill-rule:nonzero;stroke:black;stroke-width:16.57px;"/>
                </g>
                <g id="path35" transform="matrix(0.0631796,0,0,-0.0556077,1126.03,318.841)">
                    <path d="M0,0L0,60.052" style="fill:none;fill-rule:nonzero;stroke:black;stroke-width:16.57px;"/>
                </g>
                <g id="path39" transform="matrix(0.0631796,0,0,-0.0556077,1126.07,343.139)">
                    <path d="M0,0L0,196.948L181.13,196.948L181.13,0" style="fill:none;fill-rule:nonzero;stroke:black;stroke-width:16.57px;"/>
                </g>
                <g id="path43" transform="matrix(0.0631796,0,0,-0.0556077,1129.88,334.906)">
                    <path d="M0,0L0,-148.05" style="fill:none;fill-rule:nonzero;stroke:black;stroke-width:16.57px;"/>
                </g>
                <g id="path47" transform="matrix(0.0631796,0,0,-0.0556077,1133.69,334.906)">
                    <path d="M0,0L0,-148.05" style="fill:none;fill-rule:nonzero;stroke:black;stroke-width:16.57px;"/>
                </g>
                <g id="path51" transform="matrix(0.0631796,0,0,-0.0556077,1123.18,325.514)">
                    <path d="M0,0L30,0" style="fill:none;fill-rule:nonzero;stroke:black;stroke-width:16.57px;"/>
                </g>
                <g id="path55" transform="matrix(0.0631796,0,0,-0.0556077,1125.08,322.178)">
                    <path d="M0,0L30,0" style="fill:none;fill-rule:nonzero;stroke:black;stroke-width:16.57px;"/>
                </g>
                <g id="path59" transform="matrix(0.0631796,0,0,-0.0556077,1123.18,328.851)">
                    <path d="M0,0L30,0" style="fill:none;fill-rule:nonzero;stroke:black;stroke-width:16.57px;"/>
                </g>
                <g id="path63" transform="matrix(0.0631796,0,0,-0.0556077,1126.97,325.514)">
                    <path d="M0,0L30,0" style="fill:none;fill-rule:nonzero;stroke:black;stroke-width:16.57px;"/>
                </g>
                <g id="path67" transform="matrix(0.0631796,0,0,-0.0556077,1126.97,328.851)">
                    <path d="M0,0L30,0" style="fill:none;fill-rule:nonzero;stroke:black;stroke-width:16.57px;"/>
                </g>
                <g id="path79" transform="matrix(0.0631796,0,0,-0.0556077,1111.17,343.139)">
                    <path d="M0,0L0,316.948L142.789,316.948" style="fill:none;fill-rule:nonzero;stroke:black;stroke-width:16.57px;"/>
                </g>
                <g id="path83" transform="matrix(0.0631796,0,0,-0.0556077,1114.73,328.851)">
                    <path d="M0,0L30,0" style="fill:none;fill-rule:nonzero;stroke:black;stroke-width:16.57px;"/>
                </g>
                <g id="path87" transform="matrix(0.0631796,0,0,-0.0556077,1114.73,332.423)">
                    <path d="M0,0L30,0" style="fill:none;fill-rule:nonzero;stroke:black;stroke-width:16.57px;"/>
                </g>
                <g id="path91" transform="matrix(0.0631796,0,0,-0.0556077,1114.73,335.995)">
                    <path d="M0,0L30,0" style="fill:none;fill-rule:nonzero;stroke:black;stroke-width:16.57px;"/>
                </g>
                <g id="path95" transform="matrix(0.0631796,0,0,-0.0556077,1114.73,339.567)">
                    <path d="M0,0L30,0" style="fill:none;fill-rule:nonzero;stroke:black;stroke-width:16.57px;"/>
                </g>
                <g transform="matrix(1.12832,0,0,0.993092,647.613,271.634)">
                    <path d="M418.358,88.33C417.868,88.568 417.112,88.722 416.356,88.722C414.074,88.722 412.744,87.251 412.744,84.941C412.744,82.476 414.214,81.062 416.426,81.062C417.21,81.062 417.868,81.23 418.316,81.454L418.624,80.448C418.302,80.293 417.546,80.042 416.384,80.042C413.458,80.042 411.458,82.028 411.458,84.983C411.458,88.078 413.444,89.756 416.104,89.756C417.252,89.756 418.162,89.532 418.596,89.309L418.358,88.33Z" style="fill-rule:nonzero;"/>
                    <path d="M421.326,89.616L421.326,82.842L420.096,82.842L420.096,89.616L421.326,89.616ZM420.697,81.706C421.172,81.706 421.466,81.356 421.466,80.951C421.466,80.517 421.158,80.182 420.711,80.182C420.249,80.182 419.942,80.517 419.942,80.951C419.942,81.356 420.235,81.706 420.683,81.706L420.697,81.706Z" style="fill-rule:nonzero;"/>
                    <path d="M423.652,81.596L423.652,82.842L422.602,82.842L422.602,83.778L423.652,83.778L423.652,87.461C423.652,88.26 423.792,88.862 424.127,89.239C424.421,89.56 424.882,89.756 425.456,89.756C425.932,89.756 426.31,89.672 426.548,89.588L426.492,88.652C426.31,88.708 426.114,88.736 425.778,88.736C425.092,88.736 424.854,88.26 424.854,87.419L424.854,83.778L426.618,83.778L426.618,82.842L424.854,82.842L424.854,81.218L423.652,81.596Z" style="fill-rule:nonzero;"/>
                    <path d="M427.236,82.842L429.727,89.084C429.797,89.238 429.825,89.336 429.825,89.406C429.825,89.476 429.783,89.574 429.727,89.7C429.433,90.33 429.027,90.806 428.691,91.072C428.327,91.38 427.922,91.576 427.614,91.674L427.922,92.696C428.23,92.64 428.817,92.43 429.433,91.912C430.273,91.17 430.875,89.994 431.757,87.671L433.604,82.842L432.302,82.842L430.959,86.817C430.791,87.307 430.651,87.825 430.525,88.231L430.497,88.231C430.385,87.825 430.217,87.293 430.049,86.845L428.579,82.842L427.236,82.842Z" style="fill-rule:nonzero;"/>
                </g>
            </g>
        </g>
    </g>
</svg>
