<?xml version="1.0" encoding="UTF-8" standalone="no"?>
<!DOCTYPE svg PUBLIC "-//W3C//DTD SVG 1.1//EN" "http://www.w3.org/Graphics/SVG/1.1/DTD/svg11.dtd">
<svg width="100%" height="100%" viewBox="0 0 21 21" version="1.1" xmlns="http://www.w3.org/2000/svg" xmlns:xlink="http://www.w3.org/1999/xlink" xml:space="preserve" xmlns:serif="http://www.serif.com/" style="fill-rule:evenodd;clip-rule:evenodd;stroke-linejoin:round;stroke-miterlimit:2;">
    <g transform="matrix(1,0,0,1,-5667.73,-3166.86)">
        <g id="Artboard1" transform="matrix(0.00835011,0,0,0.012768,5668.02,3166.86)">
            <rect x="-34.623" y="0" width="2514.94" height="1644.73" style="fill:none;"/>
            <g id="DESIGNED-BY-FREEPIK" serif:id="DESIGNED BY FREEPIK">
            </g>
            <g id="DESIGNED-BY-FREEPIK1" serif:id="DESIGNED BY FREEPIK">
            </g>
            <g id="DESIGNED-BY-FREEPIK2" serif:id="DESIGNED BY FREEPIK">
            </g>
            <g id="DESIGNED-BY-FREEPIK3" serif:id="DESIGNED BY FREEPIK">
            </g>
            <g id="Layer-1" serif:id="Layer 1">
            </g>
            <g id="DESIGNED-BY-FREEPIK4" serif:id="DESIGNED BY FREEPIK">
            </g>
            <g id="DESIGNED-BY-FREEPIK5" serif:id="DESIGNED BY FREEPIK">
            </g>
            <g transform="matrix(4.61629,0,0,3.01899,336.632,242.793)">
                <g>
                    <g id="DESIGNED-BY-FREEPIK6" serif:id="DESIGNED BY FREEPIK">
                        <g transform="matrix(1,0,0,1,200.974,383.952)">
                            <path d="M0,-383.952L0,-350.338L-45.762,-350.338L-45.762,-305.301L-68.502,-305.301L-68.502,-260.306L-176.577,-260.306L-176.577,-22.498L-200.975,-22.498L-200.975,0L182.977,0L182.977,-22.498L158.679,-22.498L158.679,-170.064L90.835,-170.064L90.835,-305L68.193,-305L68.193,-350.08L22.497,-350.08L22.497,-383.952L0,-383.952ZM-45.814,-282.757L-23.524,-282.757L-23.524,-327.417L45.465,-327.417L45.465,-282.849L67.941,-282.849L67.941,-170.234L0.311,-170.234L0.311,-22.769L-45.814,-22.769L-45.814,-282.757ZM-153.809,-237.496L-68.824,-237.496L-68.824,-22.693L-153.809,-22.693L-153.809,-237.496ZM22.995,-147.501L135.866,-147.501L135.866,-22.734L113.397,-22.734L113.397,-122.03L90.97,-122.03L90.97,-22.754L68.193,-22.754L68.193,-122.027L45.712,-122.027L45.712,-22.733L22.995,-22.733L22.995,-147.501Z" style="fill-rule:nonzero;"/>
                        </g>
                        <g transform="matrix(-1,0,0,1,424.12,-203.929)">
                            <rect x="201.06" y="282.873" width="22" height="22.135"/>
                        </g>
                        <g transform="matrix(1,0,0,1,0,-114.071)">
                            <rect x="178.62" y="237.937" width="21.891" height="22.149"/>
                        </g>
                        <g transform="matrix(1,0,0,1,0,-113.956)">
                            <rect x="223.496" y="237.962" width="22.114" height="21.984"/>
                        </g>
                        <g transform="matrix(1,0,0,1,0,-23.955)">
                            <rect x="178.577" y="192.899" width="21.975" height="22.109"/>
                        </g>
                        <g transform="matrix(1,0,0,1,0,-23.961)">
                            <rect x="223.473" y="192.943" width="22.03" height="22.027"/>
                        </g>
                        <g transform="matrix(-1,0,0,1,178.343,-23.937)">
                            <rect x="78.17" y="192.868" width="22.003" height="22.153"/>
                        </g>
                        <g transform="matrix(-1,0,0,1,178.403,72.436)">
                            <rect x="78.184" y="144.74" width="22.035" height="22.036"/>
                        </g>
                        <g transform="matrix(1,0,0,1,0,265.08)">
                            <rect x="78.267" y="48.355" width="21.888" height="22.162"/>
                        </g>
                        <g transform="matrix(-1,0,0,1,178.241,168.804)">
                            <rect x="78.23" y="96.531" width="21.781" height="22.086"/>
                        </g>
                    </g>
                </g>
            </g>
        </g>
    </g>
</svg>
