<?xml version="1.0" encoding="UTF-8" standalone="no"?>
<!DOCTYPE svg PUBLIC "-//W3C//DTD SVG 1.1//EN" "http://www.w3.org/Graphics/SVG/1.1/DTD/svg11.dtd">
<svg width="100%" height="100%" viewBox="0 0 21 21" version="1.1" xmlns="http://www.w3.org/2000/svg" xmlns:xlink="http://www.w3.org/1999/xlink" xml:space="preserve" xmlns:serif="http://www.serif.com/" style="fill-rule:evenodd;clip-rule:evenodd;stroke-linejoin:round;stroke-miterlimit:2;">
    <g transform="matrix(1,0,0,1,-5804.87,-3166.86)">
        <g id="Artboard1" transform="matrix(0.00835011,0,0,0.012768,5805.16,3166.86)">
            <rect x="-34.623" y="0" width="2514.94" height="1644.73" style="fill:none;"/>
            <g id="DESIGNED-BY-FREEPIK" serif:id="DESIGNED BY FREEPIK">
            </g>
            <g id="DESIGNED-BY-FREEPIK1" serif:id="DESIGNED BY FREEPIK">
            </g>
            <g id="DESIGNED-BY-FREEPIK2" serif:id="DESIGNED BY FREEPIK">
            </g>
            <g id="DESIGNED-BY-FREEPIK3" serif:id="DESIGNED BY FREEPIK">
            </g>
            <g id="Layer-1" serif:id="Layer 1">
            </g>
            <g id="DESIGNED-BY-FREEPIK4" serif:id="DESIGNED BY FREEPIK">
            </g>
            <g id="DESIGNED-BY-FREEPIK5" serif:id="DESIGNED BY FREEPIK">
            </g>
            <g id="cute.svg" transform="matrix(3.46178,0,0,2.26396,1222.85,822.367)">
                <g transform="matrix(1,0,0,1,-256,-256)">
                    <g id="_16-cute">
                        <path d="M256,512C115.563,512 0,396.437 0,256C-0,115.563 115.563,0 256,0C396.437,-0 512,115.563 512,256C511.837,396.376 396.376,511.837 256,512ZM256,21.333C127.266,21.333 21.333,127.266 21.333,256C21.333,384.734 127.266,490.667 256,490.667C384.734,490.667 490.667,384.734 490.667,256C490.521,127.321 384.679,21.479 256,21.333Z" style="fill-rule:nonzero;"/>
                        <path d="M432.565,212.267C413.483,202.667 391.648,202.667 352,202.667C346.148,202.667 341.333,197.852 341.333,192C341.333,167.84 379.392,138.667 426.667,138.667L426.667,160C405.387,159.46 384.69,167.098 368.864,181.333C401.483,181.525 421.803,182.944 442.101,193.067L432.565,212.267Z" style="fill-rule:nonzero;"/>
                        <path d="M79.435,212.267L69.899,193.173C90.165,183.029 110.517,181.611 143.136,181.44C127.326,167.166 106.627,159.489 85.333,160L85.333,138.667C132.608,138.667 170.667,167.84 170.667,192C170.667,197.852 165.852,202.667 160,202.667C120.352,202.667 98.517,202.667 79.435,212.267Z" style="fill-rule:nonzero;"/>
                        <path d="M298.667,288C282.793,287.541 267.618,281.312 256,270.485C244.382,281.312 229.207,287.541 213.333,288C161.749,288 138.667,261.216 138.667,234.667L160,234.667C160,253.803 181.44,266.667 213.333,266.667C227.006,265.56 239.673,258.994 248.459,248.459C252.596,244.322 259.404,244.322 263.541,248.459C272.327,258.994 284.994,265.56 298.667,266.667C330.56,266.667 352,253.803 352,234.667L373.333,234.667C373.333,261.216 350.251,288 298.667,288Z" style="fill-rule:nonzero;"/>
                        <path d="M256,416C193.643,416 160,339.061 160,266.667L181.333,266.667C181.333,329.6 209.259,394.667 256,394.667C302.741,394.667 330.667,329.6 330.667,266.667L352,266.667C352,339.061 318.357,416 256,416Z" style="fill-rule:nonzero;"/>
                        <g transform="matrix(0.707,-0.707,0.707,0.707,-65.4293,354.048)">
                            <rect x="379.584" y="245.333" width="30.165" height="21.333" style="fill-rule:nonzero;"/>
                        </g>
                        <g transform="matrix(0.707,-0.707,0.707,0.707,-52.928,384.224)">
                            <rect x="422.251" y="245.333" width="30.165" height="21.333" style="fill-rule:nonzero;"/>
                        </g>
                        <g transform="matrix(0.707,-0.707,0.707,0.707,-159.147,127.776)">
                            <rect x="59.584" y="245.333" width="30.165" height="21.333" style="fill-rule:nonzero;"/>
                        </g>
                        <g transform="matrix(0.707,-0.707,0.707,0.707,-146.656,157.952)">
                            <rect x="102.251" y="245.333" width="30.165" height="21.333" style="fill-rule:nonzero;"/>
                        </g>
                        <path d="M491.2,103.541L476.117,88.459L488.619,75.968C491.33,73.247 491.33,68.78 488.619,66.059C485.859,63.434 481.469,63.434 478.709,66.059L466.208,78.549L451.125,63.467L463.627,50.965C474.775,40.327 492.553,40.327 503.701,50.965C514.692,61.962 514.692,80.054 503.701,91.051L491.2,103.541Z" style="fill-rule:nonzero;"/>
                        <path d="M448.533,60.875L433.451,45.792L445.952,33.301C448.664,30.58 448.664,26.113 445.952,23.392C443.195,20.762 438.8,20.762 436.043,23.392L423.541,35.883L408.459,20.8L420.96,8.299C432.109,-2.34 449.886,-2.34 461.035,8.299C472.026,19.296 472.026,37.387 461.035,48.384L448.533,60.875Z" style="fill-rule:nonzero;"/>
                        <path d="M20.8,103.541L8.299,91.051C-2.692,80.054 -2.692,61.962 8.299,50.965C19.447,40.327 37.225,40.327 48.373,50.965L60.875,63.467L45.792,78.549L33.291,66.048C30.536,63.413 26.136,63.413 23.381,66.048C20.67,68.769 20.67,73.236 23.381,75.957L35.883,88.459L20.8,103.541Z" style="fill-rule:nonzero;"/>
                        <path d="M63.467,60.875L50.965,48.384C39.974,37.387 39.974,19.296 50.965,8.299C62.114,-2.34 79.891,-2.34 91.04,8.299L103.541,20.8L88.459,35.883L75.957,23.381C73.205,20.741 68.801,20.741 66.048,23.381C63.336,26.102 63.336,30.57 66.048,33.291L78.549,45.792L63.467,60.875Z" style="fill-rule:nonzero;"/>
                    </g>
                </g>
            </g>
        </g>
    </g>
</svg>
