<svg width="240" height="185" viewBox="0 0 240 185" fill="none" xmlns="http://www.w3.org/2000/svg">
<g clip-path="url(#clip0_98_144)">
<rect width="240" height="185" fill="#E4E4E4"/>
<path d="M87.916 120.292V127.557H96.1687V120.292H98.3581V137.525H96.1687V129.416H87.916V137.525H85.7266V120.292H87.916Z" fill="black"/>
<path d="M113.348 131.274C113.348 135.836 110.148 137.863 107.284 137.863C103.916 137.863 101.39 135.498 101.39 131.443C101.39 127.388 104.084 124.854 107.453 124.854C110.99 124.854 113.348 127.388 113.348 131.274ZM103.579 131.274C103.579 133.977 105.095 136.005 107.284 136.005C109.474 136.005 110.99 133.977 110.99 131.274C110.99 129.247 109.979 126.544 107.284 126.544C104.59 126.544 103.579 129.078 103.579 131.274Z" fill="black"/>
<path d="M116.042 137.525C116.042 136.68 116.211 135.498 116.211 134.315V119.448H118.4V127.219C119.242 125.868 120.59 125.023 122.611 125.023C125.642 125.023 127.832 127.557 127.832 131.274C127.832 135.667 125.137 137.863 122.274 137.863C120.421 137.863 119.074 137.187 118.232 135.498L118.064 137.525H116.042ZM118.4 132.626C118.4 132.963 118.4 133.132 118.569 133.47C119.074 134.991 120.253 136.174 121.937 136.174C124.295 136.174 125.642 134.315 125.642 131.443C125.642 128.909 124.295 126.881 121.937 126.881C120.421 126.881 118.906 127.895 118.569 129.584C118.569 129.922 118.4 130.091 118.4 130.429V132.626Z" fill="black"/>
<path d="M130.526 137.525C130.526 136.68 130.695 135.498 130.695 134.315V119.448H132.884V127.219C133.726 125.868 135.074 125.023 137.095 125.023C140.126 125.023 142.316 127.557 142.316 131.274C142.316 135.667 139.621 137.863 136.758 137.863C134.905 137.863 133.558 137.187 132.716 135.498L132.547 137.525H130.526ZM132.884 132.626C132.884 132.963 132.884 133.132 133.053 133.47C133.558 134.991 134.737 136.174 136.421 136.174C138.779 136.174 140.126 134.315 140.126 131.443C140.126 128.909 138.779 126.881 136.421 126.881C134.905 126.881 133.39 127.895 133.053 129.584C133.053 129.922 132.884 130.091 132.884 130.429V132.626Z" fill="black"/>
<path d="M145.853 125.192L148.548 132.457C148.885 133.301 149.053 134.315 149.39 134.991C149.558 134.315 149.895 133.301 150.232 132.457L152.59 125.192H154.948L151.579 133.977C149.895 138.201 148.885 140.397 147.369 141.749C146.358 142.763 145.179 143.101 144.674 143.27L144.169 141.411C144.674 141.242 145.516 140.904 146.19 140.397C146.864 139.891 147.537 139.046 148.042 137.863C148.211 137.694 148.211 137.525 148.211 137.356C148.211 137.187 148.211 137.018 148.042 136.849L143.495 125.53H145.853V125.192Z" fill="black"/>
<mask id="mask0_98_144" style="mask-type:luminance" maskUnits="userSpaceOnUse" x="91" y="49" width="55" height="55">
<path d="M145.01 49.6711H91.1157V103.735H145.01V49.6711Z" fill="white"/>
</mask>
<g mask="url(#mask0_98_144)">
<mask id="mask1_98_144" style="mask-type:luminance" maskUnits="userSpaceOnUse" x="91" y="49" width="55" height="55">
<path d="M145.01 49.6711H91.1157V103.735H145.01V49.6711Z" fill="white"/>
</mask>
<g mask="url(#mask1_98_144)">
<path d="M133.895 59.1323H102.231C99.5367 59.1323 97.5156 56.936 97.5156 54.4017C97.5156 51.8675 99.7051 49.6711 102.231 49.6711H133.895C136.589 49.6711 138.61 51.8675 138.61 54.4017C138.61 56.936 136.421 59.1323 133.895 59.1323ZM102.231 51.8675C100.716 51.8675 99.5367 53.0501 99.5367 54.5707C99.5367 56.0912 100.716 57.2739 102.231 57.2739H133.895C135.41 57.2739 136.589 56.0912 136.589 54.5707C136.589 53.0501 135.41 51.8675 133.895 51.8675H102.231Z" fill="black"/>
</g>
<mask id="mask2_98_144" style="mask-type:luminance" maskUnits="userSpaceOnUse" x="91" y="49" width="55" height="55">
<path d="M145.01 49.6711H91.1157V103.735H145.01V49.6711Z" fill="white"/>
</mask>
<g mask="url(#mask2_98_144)">
<path d="M118.063 69.9452C114.695 69.9452 113.179 69.2694 111.495 68.7625C109.979 68.2557 108.631 67.5799 105.6 67.5799C102.737 67.5799 101.221 68.0867 99.7052 68.7625C98.3578 69.2694 97.0104 69.7762 94.4841 69.9452C93.9789 69.9452 93.4736 69.6073 93.3052 68.9315C93.3052 68.4246 93.642 67.9178 94.3157 67.7488C96.3368 67.5799 97.5157 67.242 98.8631 66.7351C100.547 66.0593 102.063 65.5525 105.431 65.5525C108.8 65.5525 110.316 66.2283 112 66.7351C113.516 67.242 114.863 67.9178 117.895 67.9178C120.926 67.9178 122.274 67.4109 123.789 66.7351C125.474 66.0593 126.989 65.5525 130.358 65.5525C133.726 65.5525 135.242 66.2283 136.926 66.7351C138.274 67.242 139.453 67.5799 141.474 67.7488C141.979 67.7488 142.484 68.2557 142.484 68.9315C142.484 69.4383 141.979 69.9452 141.305 69.9452C138.947 69.7762 137.431 69.2694 136.084 68.7625C134.568 68.2557 133.221 67.5799 130.189 67.5799C127.158 67.5799 125.81 68.0867 124.295 68.7625C122.947 69.4383 121.263 69.9452 118.063 69.9452Z" fill="black"/>
</g>
<mask id="mask3_98_144" style="mask-type:luminance" maskUnits="userSpaceOnUse" x="91" y="49" width="55" height="55">
<path d="M145.01 49.6711H91.1157V103.735H145.01V49.6711Z" fill="white"/>
</mask>
<g mask="url(#mask3_98_144)">
<path d="M130.526 103.735H105.6C105.432 103.735 105.263 103.735 105.095 103.566C96.5052 98.8356 91.1157 89.7123 91.1157 79.9132C91.1157 70.7899 95.6631 62.3424 103.242 57.2739C103.41 57.105 103.579 57.105 103.747 57.105H132.042C132.21 57.105 132.379 57.105 132.547 57.2739C140.126 62.3424 144.674 70.7899 144.674 79.9132C144.674 89.7123 139.284 98.8356 130.695 103.566C130.863 103.735 130.695 103.735 130.526 103.735ZM105.937 101.708H130.189C138.105 97.315 142.821 89.0365 142.821 79.9132C142.821 71.6347 138.779 63.863 131.874 59.3013H104.084C97.1789 64.0319 93.1368 71.6347 93.1368 79.9132C93.1368 88.8675 98.021 97.1461 105.937 101.708Z" fill="black"/>
</g>
<mask id="mask4_98_144" style="mask-type:luminance" maskUnits="userSpaceOnUse" x="91" y="49" width="55" height="55">
<path d="M145.01 49.6711H91.1157V103.735H145.01V49.6711Z" fill="white"/>
</mask>
<g mask="url(#mask4_98_144)">
<path d="M122.273 94.4428C114.695 94.4428 108.631 90.7259 108.631 85.8264C108.631 80.9269 114.526 77.21 122.273 77.21C129.852 77.21 135.916 80.9269 135.916 85.8264C135.916 90.7259 129.852 94.4428 122.273 94.4428ZM122.273 79.2374C116.042 79.2374 110.821 82.2785 110.821 85.8264C110.821 89.3743 116.042 92.4154 122.273 92.4154C128.505 92.4154 133.726 89.3743 133.726 85.8264C133.726 82.2785 128.505 79.2374 122.273 79.2374Z" fill="black"/>
</g>
<mask id="mask5_98_144" style="mask-type:luminance" maskUnits="userSpaceOnUse" x="91" y="49" width="55" height="55">
<path d="M145.01 49.6711H91.1157V103.735H145.01V49.6711Z" fill="white"/>
</mask>
<g mask="url(#mask5_98_144)">
<path d="M124.126 94.2739C123.789 94.2739 123.452 94.1049 123.284 93.767C119.916 88.6985 120.421 81.9405 124.631 77.7168C124.968 77.3789 125.642 77.3789 126.147 77.7168C126.484 78.0547 126.484 78.7305 126.147 79.2374C122.61 82.7853 122.105 88.5296 124.968 92.7533C125.305 93.2602 125.137 93.936 124.631 94.2739C124.463 94.2739 124.295 94.2739 124.126 94.2739Z" fill="black"/>
</g>
<mask id="mask6_98_144" style="mask-type:luminance" maskUnits="userSpaceOnUse" x="91" y="49" width="55" height="55">
<path d="M145.01 49.6711H91.1157V103.735H145.01V49.6711Z" fill="white"/>
</mask>
<g mask="url(#mask6_98_144)">
<path d="M118.063 79.7443C117.726 79.7443 117.221 79.5754 117.053 79.2375L114.695 74.6758C114.526 74.3379 114.526 74 114.695 73.6621C114.863 73.3242 115.2 73.1553 115.537 73.1553H118.568C121.6 73.1553 124.126 75.1827 124.8 78.0548C124.968 78.5617 124.632 79.2375 123.958 79.4064C123.453 79.5754 122.779 79.2375 122.61 78.5617C122.105 76.5343 120.421 75.1827 118.4 75.1827H117.053L118.568 78.2238C118.905 78.7306 118.568 79.4064 118.063 79.5754C118.4 79.7443 118.232 79.7443 118.063 79.7443Z" fill="black"/>
</g>
<mask id="mask7_98_144" style="mask-type:luminance" maskUnits="userSpaceOnUse" x="91" y="49" width="55" height="55">
<path d="M145.01 49.6711H91.1157V103.735H145.01V49.6711Z" fill="white"/>
</mask>
<g mask="url(#mask7_98_144)">
<path d="M118.737 98.4976H115.705C115.368 98.4976 115.032 98.3287 114.863 97.9908C114.695 97.6529 114.695 97.315 114.863 96.9771L117.221 92.4154C117.558 91.9086 118.063 91.7396 118.568 91.9086C119.074 92.2465 119.242 92.7533 119.074 93.2602L117.389 96.3013H118.737C120.758 96.3013 122.442 94.9497 122.947 92.9223C123.116 92.4154 123.621 92.0775 124.295 92.0775C124.8 92.2465 125.137 92.7533 125.137 93.4291C124.295 96.4702 121.768 98.4976 118.737 98.4976Z" fill="black"/>
</g>
<mask id="mask8_98_144" style="mask-type:luminance" maskUnits="userSpaceOnUse" x="91" y="49" width="55" height="55">
<path d="M145.01 49.6711H91.1157V103.735H145.01V49.6711Z" fill="white"/>
</mask>
<g mask="url(#mask8_98_144)">
<path d="M109.81 86.84H106.61C103.074 86.84 100.21 83.9679 100.21 80.4199C100.21 79.9131 100.716 79.4062 101.221 79.4062H104.421C107.958 79.4062 110.821 82.2784 110.821 85.8263C110.821 86.3332 110.316 86.84 109.81 86.84ZM102.4 81.4336C102.905 83.2921 104.589 84.6437 106.442 84.6437H108.463C107.958 82.7852 106.274 81.4336 104.421 81.4336H102.4Z" fill="black"/>
</g>
<mask id="mask9_98_144" style="mask-type:luminance" maskUnits="userSpaceOnUse" x="91" y="49" width="55" height="55">
<path d="M145.01 49.6711H91.1157V103.735H145.01V49.6711Z" fill="white"/>
</mask>
<g mask="url(#mask9_98_144)">
<path d="M104.421 92.0776H101.221C100.716 92.0776 100.21 91.5707 100.21 91.0639C100.21 87.516 103.074 84.6438 106.61 84.6438H109.81C110.316 84.6438 110.821 85.1507 110.821 85.6575C110.821 89.2054 107.958 92.0776 104.421 92.0776ZM102.4 89.8812H104.421C106.442 89.8812 108.126 88.5296 108.463 86.6712H106.442C104.589 86.8401 102.905 88.1917 102.4 89.8812Z" fill="black"/>
</g>
</g>
</g>
<defs>
<clipPath id="clip0_98_144">
<rect width="240" height="185" fill="white"/>
</clipPath>
</defs>
</svg>
