<?xml version="1.0" encoding="UTF-8" standalone="no"?>
<!DOCTYPE svg PUBLIC "-//W3C//DTD SVG 1.1//EN" "http://www.w3.org/Graphics/SVG/1.1/DTD/svg11.dtd">
<svg width="100%" height="100%" viewBox="0 0 240 185" version="1.1" xmlns="http://www.w3.org/2000/svg" xmlns:xlink="http://www.w3.org/1999/xlink" xml:space="preserve" xmlns:serif="http://www.serif.com/" style="fill-rule:evenodd;clip-rule:evenodd;stroke-linecap:round;stroke-linejoin:round;stroke-miterlimit:10;">
    <g transform="matrix(1,0,0,1,-4499.42,-393.943)">
        <g id="Artboard1" transform="matrix(0.09539,0,0,0.112055,4502.72,393.943)">
            <rect x="-34.623" y="0" width="2514.94" height="1644.73" style="fill:none;"/>
            <g id="DESIGNED-BY-FREEPIK" serif:id="DESIGNED BY FREEPIK">
            </g>
            <g id="DESIGNED-BY-FREEPIK1" serif:id="DESIGNED BY FREEPIK">
            </g>
            <g id="DESIGNED-BY-FREEPIK2" serif:id="DESIGNED BY FREEPIK">
            </g>
            <g id="DESIGNED-BY-FREEPIK3" serif:id="DESIGNED BY FREEPIK">
            </g>
            <g id="Layer-1" serif:id="Layer 1">
            </g>
            <g id="DESIGNED-BY-FREEPIK4" serif:id="DESIGNED BY FREEPIK">
            </g>
            <g id="DESIGNED-BY-FREEPIK5" serif:id="DESIGNED BY FREEPIK">
            </g>
            <g transform="matrix(16.8549,0,0,16.302,-962.955,-4663.68)">
                <g transform="matrix(1.13029,0,0,1.01114,-369.704,-561.702)">
                    <rect x="375.824" y="838.452" width="131.998" height="99.766" style="fill:rgb(228,228,228);"/>
                </g>
                <g>
                    <g transform="matrix(1.12832,0,0,0.993092,-358.045,271.634)">
                        <rect x="412.004" y="80.182" width="1.23" height="9.434" style="fill-rule:nonzero;"/>
                        <path d="M414.86,89.281C415.335,89.56 416.02,89.756 416.763,89.756C418.345,89.756 419.282,88.918 419.282,87.713C419.282,86.705 418.667,86.117 417.505,85.683C416.622,85.333 416.23,85.08 416.23,84.52C416.23,84.016 416.622,83.596 417.351,83.596C417.982,83.596 418.471,83.834 418.737,83.988L419.03,83.107C418.667,82.869 418.066,82.688 417.379,82.688C415.936,82.688 415.042,83.582 415.042,84.674C415.042,85.473 415.615,86.145 416.847,86.593C417.743,86.929 418.094,87.237 418.094,87.825C418.094,88.4 417.673,88.834 416.791,88.834C416.174,88.834 415.531,88.582 415.154,88.358L414.86,89.281Z" style="fill-rule:nonzero;"/>
                        <rect x="420.866" y="79.678" width="1.23" height="9.938" style="fill-rule:nonzero;"/>
                        <path d="M428.942,85.459C428.942,84.101 428.439,82.688 426.353,82.688C425.498,82.688 424.672,82.925 424.113,83.275L424.393,84.101C424.868,83.778 425.526,83.596 426.171,83.596C427.558,83.582 427.712,84.605 427.712,85.166L427.712,85.306C425.092,85.292 423.638,86.186 423.638,87.825C423.638,88.806 424.337,89.77 425.709,89.77C426.675,89.77 427.418,89.295 427.782,88.764L427.824,88.764L427.935,89.616L429.04,89.616C428.97,89.154 428.942,88.58 428.942,87.992L428.942,85.459ZM427.74,87.334C427.74,87.461 427.726,87.601 427.684,87.727C427.488,88.301 426.913,88.862 426.017,88.862C425.4,88.862 424.868,88.497 424.868,87.685C424.868,86.368 426.395,86.13 427.74,86.158L427.74,87.334Z" style="fill-rule:nonzero;"/>
                        <path d="M430.918,89.616L432.12,89.616L432.12,85.528C432.12,85.318 432.148,85.108 432.218,84.926C432.414,84.31 432.989,83.694 433.745,83.694C434.684,83.694 435.16,84.464 435.16,85.542L435.16,89.616L436.362,89.616L436.362,85.416C436.362,85.206 436.404,84.982 436.46,84.8C436.684,84.212 437.217,83.694 437.931,83.694C438.912,83.694 439.402,84.464 439.402,85.78L439.402,89.616L440.604,89.616L440.604,85.626C440.604,83.275 439.276,82.688 438.365,82.688C437.721,82.688 437.287,82.855 436.88,83.163C436.6,83.373 436.32,83.652 436.11,84.044L436.082,84.044C435.789,83.247 435.09,82.688 434.179,82.688C433.045,82.688 432.414,83.289 432.036,83.932L431.994,83.932L431.938,82.842L430.862,82.842C430.89,83.402 430.918,83.961 430.918,84.675L430.918,89.616Z" style="fill-rule:nonzero;"/>
                        <path d="M443.824,89.616L443.824,82.842L442.594,82.842L442.594,89.616L443.824,89.616ZM443.195,81.706C443.67,81.706 443.964,81.356 443.964,80.951C443.964,80.517 443.656,80.182 443.209,80.182C442.747,80.182 442.44,80.517 442.44,80.951C442.44,81.356 442.733,81.706 443.181,81.706L443.195,81.706Z" style="fill-rule:nonzero;"/>
                        <path d="M450.488,88.442C450.138,88.596 449.676,88.764 448.976,88.764C447.632,88.764 446.624,87.797 446.624,86.229C446.624,84.828 447.464,83.666 449.018,83.666C449.69,83.666 450.152,83.834 450.446,83.988L450.726,83.051C450.39,82.869 449.746,82.688 449.018,82.688C446.806,82.688 445.38,84.212 445.38,86.299C445.38,88.372 446.708,89.756 448.752,89.756C449.662,89.756 450.376,89.518 450.698,89.365L450.488,88.442Z" style="fill-rule:nonzero;"/>
                    </g>
                    <g transform="matrix(0.065588,0,0,0.0577275,111.888,313.952)">
                        <path d="M496.971,276.441C487.429,297.526 474.005,317.283 456.673,334.615C379.55,411.738 254.509,411.738 177.385,334.615C100.261,257.492 100.261,132.451 177.385,55.327C194.717,37.995 214.474,24.571 235.559,15.029C180.912,19.749 127.563,43.003 85.742,84.825C-8.542,179.109 -8.541,331.974 85.742,426.258C180.027,520.542 332.892,520.542 427.175,426.258C468.997,384.437 492.251,331.088 496.971,276.441Z" style="fill:none;fill-rule:nonzero;stroke:black;stroke-width:12.77px;"/>
                    </g>
                </g>
                <g transform="matrix(0.065588,0,0,0.0577275,111.888,313.952)">
                    <path d="M313.549,247.69L259.855,275.919L270.11,216.13L226.671,173.787L286.702,165.064L313.549,110.666L340.396,165.064L400.427,173.787L356.988,216.13L367.243,275.919L313.549,247.69Z" style="fill:none;fill-rule:nonzero;stroke:black;stroke-width:12.77px;"/>
                </g>
            </g>
        </g>
    </g>
</svg>
