<?xml version="1.0" encoding="UTF-8" standalone="no"?>
<!DOCTYPE svg PUBLIC "-//W3C//DTD SVG 1.1//EN" "http://www.w3.org/Graphics/SVG/1.1/DTD/svg11.dtd">
<svg width="100%" height="100%" viewBox="0 0 240 185" version="1.1" xmlns="http://www.w3.org/2000/svg" xmlns:xlink="http://www.w3.org/1999/xlink" xml:space="preserve" xmlns:serif="http://www.serif.com/" style="fill-rule:evenodd;clip-rule:evenodd;stroke-linecap:round;stroke-linejoin:round;stroke-miterlimit:10;">
    <g transform="matrix(1,0,0,1,-5567.67,-393.943)">
        <g id="Artboard1" transform="matrix(0.09539,0,0,0.112055,5570.98,393.943)">
            <rect x="-34.623" y="0" width="2514.94" height="1644.73" style="fill:none;"/>
            <g id="DESIGNED-BY-FREEPIK" serif:id="DESIGNED BY FREEPIK">
            </g>
            <g id="DESIGNED-BY-FREEPIK1" serif:id="DESIGNED BY FREEPIK">
            </g>
            <g id="DESIGNED-BY-FREEPIK2" serif:id="DESIGNED BY FREEPIK">
            </g>
            <g id="DESIGNED-BY-FREEPIK3" serif:id="DESIGNED BY FREEPIK">
            </g>
            <g id="Layer-1" serif:id="Layer 1">
            </g>
            <g id="DESIGNED-BY-FREEPIK4" serif:id="DESIGNED BY FREEPIK">
            </g>
            <g id="DESIGNED-BY-FREEPIK5" serif:id="DESIGNED BY FREEPIK">
            </g>
            <g transform="matrix(16.8549,0,0,16.302,-12125,-4663.68)">
                <g transform="matrix(1.13029,0,0,1.01114,292.541,-561.702)">
                    <rect x="375.824" y="838.452" width="131.998" height="99.766" style="fill:rgb(228,228,228);"/>
                </g>
                <g>
                    <g transform="matrix(1.12832,0,0,0.993092,292.417,271.634)">
                        <path d="M420.192,89.616L421.396,89.616L420.808,80.182L419.254,80.182L417.575,84.744C417.155,85.934 416.819,86.984 416.567,87.936L416.539,87.936C416.287,86.956 415.979,85.906 415.587,84.744L413.977,80.182L412.424,80.182L411.766,89.616L412.928,89.616L413.18,85.57C413.264,84.156 413.333,82.574 413.361,81.398L413.389,81.398C413.655,82.518 414.019,83.736 414.467,85.066L416.007,89.56L416.931,89.56L418.597,84.982C419.072,83.694 419.45,82.49 419.786,81.398L419.814,81.398C419.814,82.56 419.898,84.17 419.968,85.472L420.192,89.616Z" style="fill-rule:nonzero;"/>
                        <path d="M426.087,89.77C427.698,89.77 429.446,88.68 429.446,86.159C429.446,84.1 428.132,82.688 426.185,82.688C424.322,82.688 422.826,84.016 422.826,86.285C422.826,88.428 424.252,89.77 426.073,89.77L426.087,89.77ZM426.115,88.848C424.924,88.848 424.084,87.727 424.084,86.243C424.084,84.954 424.714,83.61 426.157,83.61C427.614,83.61 428.188,85.052 428.188,86.201C428.188,87.741 427.305,88.848 426.129,88.848L426.115,88.848Z" style="fill-rule:nonzero;"/>
                        <path d="M431.282,81.596L431.282,82.842L430.232,82.842L430.232,83.778L431.282,83.778L431.282,87.461C431.282,88.26 431.422,88.862 431.757,89.239C432.051,89.56 432.512,89.756 433.086,89.756C433.562,89.756 433.94,89.672 434.178,89.588L434.122,88.652C433.94,88.708 433.744,88.736 433.408,88.736C432.722,88.736 432.484,88.26 432.484,87.419L432.484,83.778L434.248,83.778L434.248,82.842L432.484,82.842L432.484,81.218L431.282,81.596Z" style="fill-rule:nonzero;"/>
                        <path d="M436.866,89.616L436.866,82.842L435.636,82.842L435.636,89.616L436.866,89.616ZM436.237,81.706C436.712,81.706 437.006,81.356 437.006,80.951C437.006,80.517 436.698,80.182 436.251,80.182C435.789,80.182 435.482,80.517 435.482,80.951C435.482,81.356 435.775,81.706 436.223,81.706L436.237,81.706Z" style="fill-rule:nonzero;"/>
                        <path d="M438.072,82.842L440.647,89.616L441.823,89.616L444.482,82.842L443.194,82.842L441.879,86.635C441.655,87.266 441.459,87.826 441.305,88.386L441.263,88.386C441.123,87.826 440.941,87.266 440.717,86.636L439.387,82.842L438.072,82.842Z" style="fill-rule:nonzero;"/>
                        <path d="M450.362,85.459C450.362,84.101 449.859,82.688 447.773,82.688C446.918,82.688 446.092,82.925 445.533,83.275L445.813,84.101C446.288,83.778 446.946,83.596 447.591,83.596C448.978,83.582 449.132,84.605 449.132,85.166L449.132,85.306C446.512,85.292 445.058,86.186 445.058,87.825C445.058,88.806 445.757,89.77 447.129,89.77C448.095,89.77 448.838,89.295 449.202,88.764L449.244,88.764L449.355,89.616L450.46,89.616C450.39,89.154 450.362,88.58 450.362,87.992L450.362,85.459ZM449.16,87.334C449.16,87.461 449.146,87.601 449.104,87.727C448.908,88.301 448.333,88.862 447.437,88.862C446.82,88.862 446.288,88.497 446.288,87.685C446.288,86.368 447.815,86.13 449.16,86.158L449.16,87.334Z" style="fill-rule:nonzero;"/>
                        <path d="M452.562,81.596L452.562,82.842L451.512,82.842L451.512,83.778L452.562,83.778L452.562,87.461C452.562,88.26 452.702,88.862 453.037,89.239C453.331,89.56 453.792,89.756 454.366,89.756C454.842,89.756 455.22,89.672 455.458,89.588L455.402,88.652C455.22,88.708 455.024,88.736 454.688,88.736C454.002,88.736 453.764,88.26 453.764,87.419L453.764,83.778L455.528,83.778L455.528,82.842L453.764,82.842L453.764,81.218L452.562,81.596Z" style="fill-rule:nonzero;"/>
                        <path d="M458.146,89.616L458.146,82.842L456.916,82.842L456.916,89.616L458.146,89.616ZM457.517,81.706C457.992,81.706 458.286,81.356 458.286,80.951C458.286,80.517 457.978,80.182 457.531,80.182C457.069,80.182 456.762,80.517 456.762,80.951C456.762,81.356 457.055,81.706 457.503,81.706L457.517,81.706Z" style="fill-rule:nonzero;"/>
                        <path d="M462.963,89.77C464.574,89.77 466.322,88.68 466.322,86.159C466.322,84.1 465.008,82.688 463.061,82.688C461.198,82.688 459.702,84.016 459.702,86.285C459.702,88.428 461.128,89.77 462.949,89.77L462.963,89.77ZM462.991,88.848C461.8,88.848 460.96,87.727 460.96,86.243C460.96,84.954 461.59,83.61 463.033,83.61C464.49,83.61 465.064,85.052 465.064,86.201C465.064,87.741 464.181,88.848 463.005,88.848L462.991,88.848Z" style="fill-rule:nonzero;"/>
                        <path d="M467.878,89.616L469.108,89.616L469.108,85.528C469.108,85.332 469.136,85.108 469.192,84.954C469.416,84.268 470.047,83.694 470.845,83.694C472.008,83.694 472.414,84.618 472.414,85.71L472.414,89.616L473.644,89.616L473.644,85.57C473.644,83.247 472.19,82.688 471.251,82.688C470.131,82.688 469.346,83.317 469.01,83.946L468.982,83.946L468.912,82.842L467.822,82.842C467.864,83.402 467.878,83.961 467.878,84.675L467.878,89.616Z" style="fill-rule:nonzero;"/>
                    </g>
                    <g>
                        <g id="path993" transform="matrix(0.0706347,0,0,-0.0621694,791.929,311.787)">
                            <path d="M0,0L0,43.845" style="fill:none;fill-rule:nonzero;stroke:black;stroke-width:13.34px;"/>
                        </g>
                        <g id="path997" transform="matrix(0.0706347,0,0,-0.0621694,779.221,322.972)">
                            <path d="M0,0L-43.845,0" style="fill:none;fill-rule:nonzero;stroke:black;stroke-width:13.34px;"/>
                        </g>
                        <g id="path1001" transform="matrix(0.0706347,0,0,-0.0621694,807.733,322.972)">
                            <path d="M0,0L-43.845,0" style="fill:none;fill-rule:nonzero;stroke:black;stroke-width:13.34px;"/>
                        </g>
                        <g id="path1005" transform="matrix(0.0706347,0,0,-0.0621694,803.104,313.136)">
                            <path d="M0,0L-31.003,-31.003" style="fill:none;fill-rule:nonzero;stroke:black;stroke-width:13.34px;"/>
                        </g>
                        <g id="path1009" transform="matrix(0.0706347,0,0,-0.0621694,804.831,318.523)">
                            <path d="M0,0L-15.152,-5.936" style="fill:none;fill-rule:nonzero;stroke:black;stroke-width:13.34px;"/>
                        </g>
                        <g id="path1013" transform="matrix(0.0706347,0,0,-0.0621694,796.564,312.558)">
                            <path d="M0,0L6.109,15.594" style="fill:none;fill-rule:nonzero;stroke:black;stroke-width:13.34px;"/>
                        </g>
                        <g id="path1017" transform="matrix(0.0706347,0,0,-0.0621694,787.293,312.558)">
                            <path d="M0,0L-6.109,15.594" style="fill:none;fill-rule:nonzero;stroke:black;stroke-width:13.34px;"/>
                        </g>
                        <g id="path1021" transform="matrix(0.0706347,0,0,-0.0621694,780.753,313.136)">
                            <path d="M0,0L31.003,-31.003" style="fill:none;fill-rule:nonzero;stroke:black;stroke-width:13.34px;"/>
                        </g>
                        <g id="path1025" transform="matrix(0.0706347,0,0,-0.0621694,779.026,318.523)">
                            <path d="M0,0L15.152,-5.936" style="fill:none;fill-rule:nonzero;stroke:black;stroke-width:13.34px;"/>
                        </g>
                        <g id="path1037" transform="matrix(0.0706347,0,0,-0.0621694,790.03,322.14)">
                            <path d="M0,0C0,-13.257 -10.747,-24.004 -24.004,-24.004C-37.262,-24.004 -48.009,-13.257 -48.009,0L-48.009,71.311C-48.009,84.568 -37.262,95.315 -24.004,95.315C-10.747,95.315 0,84.568 0,71.311" style="fill:none;fill-rule:nonzero;stroke:black;stroke-width:13.34px;"/>
                        </g>
                        <g id="path1041" transform="matrix(0.0706347,0,0,-0.0621694,786.639,321.464)">
                            <path d="M0,0C0,-13.267 -10.747,-24.021 -24.004,-24.021C-37.261,-24.021 -48.008,-13.267 -48.008,0L-48.008,38.488C-48.008,51.755 -37.261,62.509 -24.004,62.509C-10.747,62.509 0,51.755 0,38.488" style="fill:none;fill-rule:nonzero;stroke:black;stroke-width:13.34px;"/>
                        </g>
                        <g id="path1045" transform="matrix(0.0706347,0,0,-0.0621694,796.946,322.409)">
                            <path d="M0,0L-54.957,11.748C-70.854,15.146 -82.264,29.689 -82.264,46.557C-82.264,53.855 -76.57,59.771 -69.548,59.771L10.495,59.771" style="fill:none;fill-rule:nonzero;stroke:black;stroke-width:13.34px;"/>
                        </g>
                        <g id="path1049" transform="matrix(0.0706347,0,0,-0.0621694,793.421,323.101)">
                            <path d="M0,0C0,-13.267 -10.747,-24.021 -24.004,-24.021C-37.261,-24.021 -48.008,-13.267 -48.008,0L-48.008,101.9C-48.008,115.167 -37.261,125.921 -24.004,125.921C-10.747,125.921 0,115.167 0,101.9" style="fill:none;fill-rule:nonzero;stroke:black;stroke-width:13.34px;"/>
                        </g>
                        <g id="path1053" transform="matrix(0.0706347,0,0,-0.0621694,796.812,322.384)">
                            <path d="M0,0L0,-4.711C0,-17.978 -10.747,-28.732 -24.004,-28.732C-37.261,-28.732 -48.008,-17.978 -48.008,-4.711L-48.008,10.262" style="fill:none;fill-rule:nonzero;stroke:black;stroke-width:13.34px;"/>
                        </g>
                        <g id="path1057" transform="matrix(0.0706347,0,0,-0.0621694,793.421,318.693)">
                            <path d="M0,0L0,48.468C0,61.734 10.747,72.489 24.004,72.489C37.261,72.489 48.008,61.734 48.008,48.468L48.008,0" style="fill:none;fill-rule:nonzero;stroke:black;stroke-width:13.34px;"/>
                        </g>
                        <g id="path1061" transform="matrix(0.0706347,-3.82727e-18,4.11447e-18,-0.0969563,783.248,326.083)">
                            <path d="M0,0L0,46.755" style="fill:none;fill-rule:nonzero;stroke:black;stroke-width:10.18px;"/>
                        </g>
                        <g id="path1065" transform="matrix(0.0706347,0,0,-0.0621694,786.31,335.91)">
                            <path d="M0,0L0,32.51C0,43.87 -4.07,54.774 -11.25,63.339C-43.358,101.645 -43.358,158.056 -43.358,158.056" style="fill:none;fill-rule:nonzero;stroke:black;stroke-width:13.34px;"/>
                        </g>
                        <g id="path1069" transform="matrix(0.0706347,0,0,-0.0621694,798.366,331.396)">
                            <path d="M0,0C-5.258,-7.875 -10.421,-14.401 -14.424,-19.113C-19.335,-24.894 -22.011,-32.243 -22.011,-39.831L-22.011,-72.597" style="fill:none;fill-rule:nonzero;stroke:black;stroke-width:13.34px;"/>
                        </g>
                        <g id="path1073" transform="matrix(0.0706347,0,0,-0.0621694,797.687,318.693)">
                            <path d="M0,0C51.238,0 44.993,-79.169 33.093,-149.304C29.3,-171.66 21.515,-188.709 8.898,-205.46" style="fill:none;fill-rule:nonzero;stroke:black;stroke-width:13.34px;"/>
                        </g>
                        <g id="path1077" transform="matrix(0.0706347,0,0,-0.0621694,796.94,322.435)">
                            <path d="M0,0L-6.639,-25.496C-6.639,-25.496 -59.14,-38.739 -82.174,-95.04" style="fill:none;fill-rule:nonzero;stroke:black;stroke-width:13.34px;"/>
                        </g>
                        <g id="path1081" transform="matrix(0.0706347,0,0,-0.0621694,790.918,339.898)">
                            <path d="M-30,0L92.177,0L92.177,64.149L-73.978,64.149L-73.978,0L-30,0" style="fill:none;fill-rule:nonzero;stroke:black;stroke-width:13.34px;"/>
                        </g>
                    </g>
                </g>
            </g>
        </g>
    </g>
</svg>
