<?xml version="1.0" encoding="UTF-8" standalone="no"?>
<!DOCTYPE svg PUBLIC "-//W3C//DTD SVG 1.1//EN" "http://www.w3.org/Graphics/SVG/1.1/DTD/svg11.dtd">
<svg width="100%" height="100%" viewBox="0 0 240 185" version="1.1" xmlns="http://www.w3.org/2000/svg" xmlns:xlink="http://www.w3.org/1999/xlink" xml:space="preserve" xmlns:serif="http://www.serif.com/" style="fill-rule:evenodd;clip-rule:evenodd;stroke-linejoin:round;stroke-miterlimit:2;">
    <g transform="matrix(1,0,0,1,-4756.88,-393.943)">
        <g id="Artboard1" transform="matrix(0.09539,0,0,0.112055,4760.18,393.943)">
            <rect x="-34.623" y="0" width="2514.94" height="1644.73" style="fill:none;"/>
            <g id="DESIGNED-BY-FREEPIK" serif:id="DESIGNED BY FREEPIK">
            </g>
            <g id="DESIGNED-BY-FREEPIK1" serif:id="DESIGNED BY FREEPIK">
            </g>
            <g id="DESIGNED-BY-FREEPIK2" serif:id="DESIGNED BY FREEPIK">
            </g>
            <g id="DESIGNED-BY-FREEPIK3" serif:id="DESIGNED BY FREEPIK">
            </g>
            <g id="Layer-1" serif:id="Layer 1">
            </g>
            <g id="DESIGNED-BY-FREEPIK4" serif:id="DESIGNED BY FREEPIK">
            </g>
            <g id="DESIGNED-BY-FREEPIK5" serif:id="DESIGNED BY FREEPIK">
            </g>
            <g transform="matrix(16.8549,0,0,16.302,-3753.47,-4663.68)">
                <g transform="matrix(1.13029,0,0,1.01114,-204.143,-561.702)">
                    <rect x="375.824" y="838.452" width="131.998" height="99.766" style="fill:rgb(228,228,228);"/>
                </g>
                <g>
                    <g transform="matrix(1.12832,0,0,0.993092,-205.435,271.634)">
                        <path d="M420.192,89.616L421.396,89.616L420.808,80.182L419.254,80.182L417.575,84.744C417.155,85.934 416.819,86.984 416.567,87.936L416.539,87.936C416.287,86.956 415.979,85.906 415.587,84.744L413.977,80.182L412.424,80.182L411.766,89.616L412.928,89.616L413.18,85.57C413.264,84.156 413.333,82.574 413.361,81.398L413.389,81.398C413.655,82.518 414.019,83.736 414.467,85.066L416.007,89.56L416.931,89.56L418.597,84.982C419.072,83.694 419.45,82.49 419.786,81.398L419.814,81.398C419.814,82.56 419.898,84.17 419.968,85.472L420.192,89.616Z" style="fill-rule:nonzero;"/>
                        <path d="M426.087,89.77C427.698,89.77 429.446,88.68 429.446,86.159C429.446,84.1 428.132,82.688 426.185,82.688C424.322,82.688 422.826,84.016 422.826,86.285C422.826,88.428 424.252,89.77 426.073,89.77L426.087,89.77ZM426.115,88.848C424.924,88.848 424.084,87.727 424.084,86.243C424.084,84.954 424.714,83.61 426.157,83.61C427.614,83.61 428.188,85.052 428.188,86.201C428.188,87.741 427.305,88.848 426.129,88.848L426.115,88.848Z" style="fill-rule:nonzero;"/>
                        <path d="M431.282,81.596L431.282,82.842L430.232,82.842L430.232,83.778L431.282,83.778L431.282,87.461C431.282,88.26 431.422,88.862 431.757,89.239C432.051,89.56 432.512,89.756 433.086,89.756C433.562,89.756 433.94,89.672 434.178,89.588L434.122,88.652C433.94,88.708 433.744,88.736 433.408,88.736C432.722,88.736 432.484,88.26 432.484,87.419L432.484,83.778L434.248,83.778L434.248,82.842L432.484,82.842L432.484,81.218L431.282,81.596Z" style="fill-rule:nonzero;"/>
                        <path d="M438.323,89.77C439.934,89.77 441.682,88.68 441.682,86.159C441.682,84.1 440.368,82.688 438.421,82.688C436.558,82.688 435.062,84.016 435.062,86.285C435.062,88.428 436.488,89.77 438.309,89.77L438.323,89.77ZM438.351,88.848C437.16,88.848 436.32,87.727 436.32,86.243C436.32,84.954 436.95,83.61 438.393,83.61C439.85,83.61 440.424,85.052 440.424,86.201C440.424,87.741 439.541,88.848 438.365,88.848L438.351,88.848Z" style="fill-rule:nonzero;"/>
                        <path d="M443.238,89.616L444.468,89.616L444.468,85.99C444.468,85.794 444.482,85.598 444.51,85.416C444.678,84.506 445.294,83.848 446.162,83.848C446.33,83.848 446.456,83.862 446.582,83.876L446.582,82.716C446.47,82.702 446.372,82.688 446.246,82.688C445.42,82.688 444.664,83.261 444.356,84.17L444.314,84.17L444.258,82.842L443.182,82.842C443.224,83.472 443.238,84.157 443.238,84.955L443.238,89.616Z" style="fill-rule:nonzero;"/>
                        <path d="M452.294,88.442C451.944,88.596 451.482,88.764 450.782,88.764C449.438,88.764 448.43,87.797 448.43,86.229C448.43,84.828 449.27,83.666 450.824,83.666C451.496,83.666 451.958,83.834 452.252,83.988L452.532,83.051C452.196,82.869 451.552,82.688 450.824,82.688C448.612,82.688 447.186,84.212 447.186,86.299C447.186,88.372 448.514,89.756 450.558,89.756C451.468,89.756 452.182,89.518 452.504,89.365L452.294,88.442Z" style="fill-rule:nonzero;"/>
                        <path d="M453.304,82.842L455.795,89.084C455.865,89.238 455.893,89.336 455.893,89.406C455.893,89.476 455.851,89.574 455.795,89.7C455.501,90.33 455.095,90.806 454.759,91.072C454.395,91.38 453.99,91.576 453.682,91.674L453.99,92.696C454.298,92.64 454.885,92.43 455.501,91.912C456.341,91.17 456.943,89.994 457.825,87.671L459.672,82.842L458.37,82.842L457.027,86.817C456.859,87.307 456.719,87.825 456.593,88.231L456.565,88.231C456.453,87.825 456.285,87.293 456.117,86.845L454.647,82.842L453.304,82.842Z" style="fill-rule:nonzero;"/>
                        <path d="M465.272,88.442C464.922,88.596 464.46,88.764 463.76,88.764C462.416,88.764 461.408,87.797 461.408,86.229C461.408,84.828 462.248,83.666 463.802,83.666C464.474,83.666 464.936,83.834 465.23,83.988L465.51,83.051C465.174,82.869 464.53,82.688 463.802,82.688C461.59,82.688 460.164,84.212 460.164,86.299C460.164,88.372 461.492,89.756 463.536,89.756C464.446,89.756 465.16,89.518 465.482,89.365L465.272,88.442Z" style="fill-rule:nonzero;"/>
                        <rect x="466.926" y="79.678" width="1.23" height="9.938" style="fill-rule:nonzero;"/>
                        <path d="M475.674,86.452C475.702,86.312 475.716,86.131 475.716,85.879C475.716,84.633 475.143,82.688 472.931,82.688C470.956,82.688 469.74,84.297 469.74,86.34C469.74,88.371 470.998,89.756 473.071,89.756C474.15,89.756 474.905,89.518 475.339,89.323L475.115,88.441C474.668,88.638 474.122,88.792 473.239,88.792C472.007,88.792 470.956,88.105 470.928,86.452L475.674,86.452ZM470.942,85.572C471.04,84.717 471.572,83.568 472.833,83.568C474.206,83.568 474.542,84.787 474.528,85.572L470.942,85.572Z" style="fill-rule:nonzero;"/>
                    </g>
                    <g transform="matrix(0.0865039,0,0,0.0761367,273.1,307.408)">
                        <path d="M402.622,170.349L421.82,254.992L425.631,255.759C467.512,264.186 497.932,301.283 497.995,344.002C497.994,345.095 497.094,345.995 496,345.995L482.176,345.995L481.633,351.4C477.857,389.023 445.819,418.005 408.008,418.005C370.197,418.005 338.159,389.023 334.383,351.4L333.84,345.995L178.176,345.995L177.633,351.4C173.857,389.023 141.819,418.005 104.008,418.005C66.197,418.005 34.159,389.023 30.383,351.4L29.84,345.995L16,345.995C14.906,345.995 14.005,345.094 14.005,344L14.005,296.005C14.056,261.301 32.54,229.116 62.49,211.582L69.708,207.306C69.708,207.306 63.358,203.146 62.49,196.668C60.658,183.004 77.381,166.028 96.005,166.005C96.927,166.005 224,166.005 224,166.005L224.045,166.005C233.886,166.005 241.984,174.103 241.984,183.944C241.984,191.536 237.165,198.342 230.005,200.864L225.995,202.276L225.995,294.005L333.256,294.005L335.053,291.514C340.734,283.643 347.643,276.734 355.514,271.053L358.005,269.256L358.005,120C358.005,107.928 348.072,97.995 336,97.995C336,97.995 304,97.995 304,97.995C302.906,97.995 302.005,97.094 302.005,96C302.005,94.906 302.906,94.005 304,94.005C304,94.005 336,94.005 336,94.005C350.26,94.005 361.995,105.74 361.995,120C361.995,120 361.995,134.005 361.995,134.005L408.021,134.005C408.084,134.005 408.126,134.004 408.168,134.004C418.005,134.004 426.099,142.099 426.099,151.935C426.099,161.251 418.84,169.094 409.553,169.813L402.622,170.349ZM103.99,414.005L104,414.005C139.091,413.951 168.997,387.558 173.413,352.756L174.271,345.995L138.292,345.995L137.315,350.805C134.11,366.589 120.106,378.035 104,378.035C87.894,378.035 73.89,366.589 70.685,350.805L69.708,345.995L33.737,345.995L34.595,352.756C39.01,387.555 68.912,413.947 103.99,414.005ZM407.99,414.005L408,414.005C443.091,413.951 472.997,387.558 477.413,352.756L478.271,345.995L442.292,345.995L441.315,350.805C438.11,366.589 424.106,378.035 408,378.035C391.894,378.035 377.89,366.589 374.685,350.805L373.708,345.995L337.737,345.995L338.595,352.756C343.01,387.555 372.912,413.947 407.99,414.005ZM438.979,345.995L377.021,345.995L379.801,353.976C383.971,365.944 395.326,374.013 408,374.013C420.674,374.013 432.029,365.944 436.199,353.976L438.979,345.995ZM134.979,345.995L73.021,345.995L75.801,353.976C79.971,365.944 91.326,374.013 104,374.013C116.674,374.013 128.029,365.944 132.199,353.976L134.979,345.995ZM194.071,342.005L312.408,342.005C312.408,342.005 317.942,342.005 317.942,342.005L318.393,336.49C319.242,326.114 321.903,315.967 326.255,306.51L330.174,297.995L224,297.995C222.906,297.995 222.005,297.094 222.005,296C222.005,296 222.005,201.995 222.005,201.995L111.995,201.995C62.646,202.076 21.359,241.876 18.425,287.327C16.854,311.656 17.762,319.549 17.762,319.549C17.762,319.549 20.013,309.142 29.265,293.937C40.6,275.306 74.019,253.988 104.014,253.988C150.548,253.988 189.785,290.117 193.615,336.494L194.071,342.005ZM18.425,335.4L17.762,342.005L190.238,342.005L189.575,335.4C185.186,291.671 147.949,257.985 104,257.985C60.051,257.985 22.814,291.671 18.425,335.4ZM322.425,335.4L321.762,342.005L494.238,342.005L493.575,335.4C489.186,291.671 451.949,257.985 408,257.985C364.051,257.985 326.814,291.671 322.425,335.4ZM398.393,169.995L361.996,169.995L361.986,266.192L370.512,262.251C382.26,256.819 395.049,254.006 407.992,254.005C408.664,254.005 409.32,254.109 409.992,254.109L417.515,254.109L398.393,169.995ZM224,169.995L95.996,169.995C83.316,170.01 72.651,178.171 67.709,189.99C65.034,196.389 70.328,207.384 80.751,202.276C87.644,198.898 111.995,198.005 111.995,198.005L224,198.005C231.683,198.005 238.005,191.683 238.005,184C238.005,176.317 231.683,169.995 224,169.995ZM408,137.995L361.995,137.995L361.995,166.005L408,166.005C415.683,166.005 422.005,159.683 422.005,152C422.005,144.317 415.683,137.995 408,137.995Z" style="fill-rule:nonzero;stroke:black;stroke-width:2.88px;"/>
                    </g>
                </g>
            </g>
        </g>
    </g>
</svg>
