<?xml version="1.0" encoding="UTF-8" standalone="no"?>
<!DOCTYPE svg PUBLIC "-//W3C//DTD SVG 1.1//EN" "http://www.w3.org/Graphics/SVG/1.1/DTD/svg11.dtd">
<svg width="100%" height="100%" viewBox="0 0 21 21" version="1.1" xmlns="http://www.w3.org/2000/svg" xmlns:xlink="http://www.w3.org/1999/xlink" xml:space="preserve" xmlns:serif="http://www.serif.com/" style="fill-rule:evenodd;clip-rule:evenodd;stroke-linejoin:round;stroke-miterlimit:2;">
    <g transform="matrix(1,0,0,1,-5592.43,-3166.86)">
        <g id="Artboard1" transform="matrix(0.00835011,0,0,0.012768,5592.72,3166.86)">
            <rect x="-34.623" y="0" width="2514.94" height="1644.73" style="fill:none;"/>
            <g id="DESIGNED-BY-FREEPIK" serif:id="DESIGNED BY FREEPIK">
            </g>
            <g id="DESIGNED-BY-FREEPIK1" serif:id="DESIGNED BY FREEPIK">
            </g>
            <g id="DESIGNED-BY-FREEPIK2" serif:id="DESIGNED BY FREEPIK">
            </g>
            <g id="DESIGNED-BY-FREEPIK3" serif:id="DESIGNED BY FREEPIK">
            </g>
            <g id="Layer-1" serif:id="Layer 1">
            </g>
            <g id="DESIGNED-BY-FREEPIK4" serif:id="DESIGNED BY FREEPIK">
            </g>
            <g id="DESIGNED-BY-FREEPIK5" serif:id="DESIGNED BY FREEPIK">
            </g>
            <g transform="matrix(1.13254,0,0,0.740664,135.603,-1933.94)">
                <path d="M1856.11,4077.48C1848.59,4077.48 1842.23,4083.05 1841.24,4090.5C1829.42,4179.11 1789.43,4250.57 1716.91,4302.12C1663.81,4339.85 1604.12,4357.62 1539.01,4355.56C1539.01,4355.56 1539.01,4355.56 1539.01,4355.56C1465.66,4353.24 1401.65,4326.82 1347.78,4277.1C1347.78,4277.1 1347.78,4277.1 1347.78,4277.1C1293.85,4227.34 1263.88,4164.9 1254.76,4091.65C1253.82,4084.14 1247.44,4078.5 1239.87,4078.5L680.967,4078.5C673.453,4078.5 667.098,4084.06 666.1,4091.51C653.944,4182.25 611.538,4255.6 534.659,4307.06C534.658,4307.06 534.657,4307.06 534.656,4307.06C480.497,4343.32 420.13,4358.71 355.092,4355.42C241.169,4349.67 102.785,4265.02 78.45,4090.37C77.417,4082.95 71.078,4077.44 63.594,4077.44C54.155,4077.44 44.319,4077.85 34.53,4077.36C34.525,4077.36 34.52,4077.36 34.515,4077.36C24.676,4076.88 17.058,4072.17 17.083,4062.78C17.309,3986.61 13.646,3910 20.521,3834.37C20.521,3834.37 20.521,3834.37 20.521,3834.37C31.756,3710.69 95.058,3616.09 198.946,3548.45C198.948,3548.45 198.95,3548.45 198.951,3548.45C201.199,3546.98 203.374,3545.39 206.455,3543.25C213.217,3538.54 214.911,3529.25 210.249,3522.46C193.229,3497.64 203.831,3472.72 214.209,3449.62C237.992,3396.73 280.317,3366.49 338.417,3365.95C504.559,3364.41 670.713,3365.2 836.867,3365.51C873.711,3365.58 903.175,3389.81 911.906,3425.26C911.906,3425.26 911.907,3425.26 911.907,3425.26C920.383,3459.67 904.52,3493.3 872.612,3511.87C872.611,3511.87 872.611,3511.87 872.61,3511.87C867.637,3514.76 862.014,3519.88 858.32,3525.33C854.828,3530.47 853.058,3535.99 853.017,3540.68C853.017,3540.69 853.017,3540.7 853.017,3540.71C852.297,3641.19 852.489,3741.68 852.489,3845.11C852.489,3853.39 859.205,3860.11 867.489,3860.11L888.568,3860.11C1001.94,3860.11 1115.29,3859.92 1228.66,3860.37C1228.66,3860.37 1228.66,3860.37 1228.66,3860.37C1246.24,3860.44 1257.2,3855.06 1269.08,3841.82C1269.09,3841.81 1269.09,3841.81 1269.1,3841.8C1288.68,3819.93 1310.85,3800.36 1331.04,3778.98C1331.04,3778.98 1331.05,3778.98 1331.05,3778.98C1338.91,3770.64 1345.82,3757.44 1345.85,3746.64C1346.44,3564.31 1346.41,3381.97 1346.22,3199.63C1346.2,3175.34 1337.94,3155.46 1324.02,3141.47C1310.1,3127.48 1290.28,3119.16 1266.16,3118.97C1266.16,3118.97 1266.16,3118.97 1266.16,3118.97C1228.14,3118.67 1190.12,3119.05 1152.1,3118.84C1139.12,3118.76 1130.17,3113.75 1130.02,3103.17C1130.02,3103.17 1130.02,3103.17 1130.02,3103.17C1129.86,3092.11 1139.34,3087.15 1153.16,3087.1C1153.16,3087.1 1153.16,3087.1 1153.16,3087.1C1191.1,3086.94 1229.05,3086.81 1267,3087.11C1330.75,3087.62 1377.4,3134.44 1378.14,3198.31C1378.24,3207.11 1378.15,3215.91 1378.15,3226.68C1378.15,3234.97 1384.87,3241.68 1393.15,3241.68C1446.17,3241.68 1497.46,3241.18 1548.74,3241.83C1594.19,3242.4 1627.79,3279.04 1625.59,3324.38C1624.03,3356.32 1600.76,3384.87 1569.3,3393.75C1569.3,3393.75 1569.3,3393.75 1569.29,3393.75C1563.88,3395.28 1558.46,3396.77 1552.02,3398.56C1544.32,3400.71 1539.65,3408.51 1541.41,3416.32C1562.31,3508.91 1582.72,3600.49 1604.27,3691.8C1604.28,3691.8 1604.28,3691.81 1604.28,3691.81C1605.24,3695.88 1607.68,3700.22 1611.67,3704.06C1617.14,3709.31 1626.15,3713.91 1633.11,3715.78C1633.11,3715.78 1633.11,3715.78 1633.11,3715.78C1743.92,3745.59 1823.75,3812.36 1872.39,3916.06C1892.52,3958.99 1902.41,4004.66 1903.64,4052.07C1903.89,4061.66 1903.55,4068.49 1899.44,4072.63C1895.24,4076.86 1888.18,4077.42 1878.31,4077.49C1878.31,4077.49 1878.31,4077.49 1878.31,4077.49C1871.34,4077.53 1864.36,4077.48 1856.11,4077.48ZM1700.04,4078.16C1693.61,4078.16 1687.89,4082.25 1685.83,4088.34C1662.33,4157.71 1618.91,4198.45 1558.63,4200.57C1558.63,4200.57 1558.63,4200.57 1558.63,4200.57C1479.76,4203.36 1432.04,4161.64 1409.32,4089.47C1407.35,4083.22 1401.56,4078.97 1395.01,4078.97L1304.25,4078.97C1300.04,4078.97 1296.03,4080.74 1293.19,4083.84C1290.35,4086.94 1288.94,4091.09 1289.31,4095.28C1299.49,4211.18 1409.25,4332.5 1565.25,4323.32C1565.25,4323.32 1565.25,4323.32 1565.26,4323.32C1639.26,4318.95 1713.2,4275.23 1758.81,4218.46C1790.09,4179.53 1807.94,4134.56 1804.87,4092.08C1804.31,4084.23 1797.78,4078.16 1789.91,4078.16L1700.04,4078.16ZM129.527,4078.38C125.4,4078.38 121.455,4080.08 118.621,4083.08C115.788,4086.08 114.315,4090.12 114.551,4094.24C120.184,4192.69 213.145,4322.37 370.595,4323.52C532.899,4324.72 625.195,4191.61 630.967,4094.33C631.212,4090.21 629.744,4086.16 626.909,4083.16C624.075,4080.15 620.126,4078.44 615.993,4078.44L525.77,4078.44C519.676,4078.44 514.188,4082.13 511.884,4087.77C479.972,4165.89 437.64,4201.41 371.886,4201.16C371.886,4201.16 371.885,4201.16 371.884,4201.16C307.035,4200.94 263.612,4164.23 233.767,4087.92C231.518,4082.17 225.973,4078.38 219.798,4078.38L129.527,4078.38ZM471.475,4097.15C472.663,4092.77 471.801,4088.08 469.13,4084.41C466.459,4080.73 462.267,4078.47 457.731,4078.24C452.35,4077.98 447.232,4077.53 442.115,4077.52C442.107,4077.52 442.099,4077.52 442.092,4077.52C391.014,4077.47 339.924,4077.5 288.415,4077.5C283.804,4077.5 279.45,4079.62 276.606,4083.25C273.763,4086.88 272.747,4091.61 273.851,4096.09C284.024,4137.35 325.457,4168.4 370.383,4169.29C417.128,4170.22 459.905,4139.84 471.475,4097.15ZM1646.45,4097.4C1647.67,4092.89 1646.72,4088.07 1643.88,4084.36C1641.04,4080.65 1636.64,4078.48 1631.97,4078.48L1463.71,4078.48C1459.1,4078.48 1454.74,4080.6 1451.9,4084.23C1449.06,4087.86 1448.04,4092.6 1449.15,4097.08C1459.08,4137.24 1500.47,4168.41 1545.44,4169.29C1592.2,4170.22 1634.99,4139.77 1646.45,4097.4ZM1854.06,4044.98C1858.22,4044.98 1862.19,4043.25 1865.03,4040.21C1867.86,4037.17 1869.31,4033.09 1869.02,4028.94C1858.69,3879.82 1722.42,3725.31 1524.44,3738.07C1431.06,3744.09 1339.04,3799.98 1283,3872.13C1244.81,3921.29 1223.42,3977.91 1228.23,4031.32C1228.92,4039.06 1235.4,4044.98 1243.17,4044.98L1854.06,4044.98ZM820.631,3535.89C820.631,3527.61 813.915,3520.89 805.631,3520.89L791.585,3520.89C660.77,3520.9 529.895,3518.64 399.14,3521.58C399.14,3521.58 399.139,3521.58 399.139,3521.58C259.32,3524.73 155.371,3591.09 88.423,3713.91C66.02,3755.01 53.605,3799.43 50.539,3849.7C50.14,3856.23 54.027,3862.27 60.142,3864.62C66.256,3866.96 73.184,3865.07 77.257,3859.94C178.871,3732.02 307.297,3677.08 463.81,3718.67C621.289,3760.51 705.273,3872.91 728.96,4031.78C730.056,4039.13 736.366,4044.57 743.796,4044.57L1174.61,4044.57C1181.43,4044.57 1187.4,4039.97 1189.12,4033.37C1200.01,3991.77 1210.49,3951.72 1221.2,3910.75C1222.38,3906.26 1221.4,3901.47 1218.56,3897.79C1215.72,3894.11 1211.34,3891.96 1206.69,3891.96L1186.2,3891.96C1072.23,3891.96 958.273,3892.02 844.315,3891.91C844.315,3891.91 844.314,3891.91 844.314,3891.91C835.536,3891.9 829.13,3891.3 825.216,3887.38C821.3,3883.47 820.694,3877.06 820.678,3868.29C820.559,3779.44 820.631,3690.6 820.631,3601.75L820.631,3535.89ZM51.512,4028.47C51.248,4032.61 52.707,4036.67 55.542,4039.69C58.378,4042.71 62.338,4044.43 66.482,4044.43L678.93,4044.43C683.078,4044.43 687.041,4042.71 689.877,4039.68C692.713,4036.66 694.169,4032.59 693.898,4028.45C684.778,3888.99 561.058,3738.12 373.724,3737.53C185.34,3736.92 60.431,3888.83 51.512,4028.47ZM1557.03,3698.89C1560.96,3698.06 1564.4,3695.69 1566.57,3692.31C1568.75,3688.92 1569.47,3684.8 1568.57,3680.88C1548.63,3593.22 1527.76,3501.48 1506.92,3409.91C1505.36,3403.09 1499.29,3398.24 1492.29,3398.24L1394.18,3398.24C1385.9,3398.24 1379.18,3404.96 1379.18,3413.24L1379.18,3717.73C1379.18,3722.25 1381.22,3726.52 1384.73,3729.37C1388.24,3732.22 1392.84,3733.34 1397.27,3732.41C1449.85,3721.37 1502.2,3710.39 1557.03,3698.89ZM242.784,3469.45C241.654,3473.81 242.549,3478.46 245.22,3482.09C247.891,3485.72 252.055,3487.96 256.56,3488.19C262.591,3488.49 268.385,3489.01 274.19,3489.01C458.349,3489.04 642.512,3489.04 826.674,3489.02C832.77,3489.02 839,3489.19 844.926,3488.04C867.873,3483.6 883.606,3462.94 882.271,3440.49C881.464,3426.92 875.766,3416.05 866.364,3408.45C857.864,3401.57 845.945,3397.3 830.972,3397.27C830.971,3397.27 830.97,3397.27 830.969,3397.27C745.961,3397.1 660.953,3397.2 575.945,3397.2C498.651,3397.2 421.358,3396.95 344.065,3397.32C344.064,3397.32 344.063,3397.32 344.061,3397.32C294.186,3397.57 253.715,3427.21 242.784,3469.45ZM1378.96,3350.17C1378.96,3358.46 1385.67,3365.17 1393.96,3365.17C1447.04,3365.17 1498.39,3365.66 1549.73,3364.89C1549.73,3364.89 1549.73,3364.89 1549.73,3364.89C1575.47,3364.5 1594.02,3343.5 1593.4,3319.34C1592.75,3293.56 1577.45,3275.09 1552.41,3274.42C1552.4,3274.42 1552.4,3274.42 1552.4,3274.42C1499.88,3273.04 1447.3,3273.91 1393.96,3273.91C1385.67,3273.91 1378.96,3280.63 1378.96,3288.91L1378.96,3350.17Z" style="fill-rule:nonzero;"/>
            </g>
        </g>
    </g>
</svg>
