<?xml version="1.0" encoding="UTF-8" standalone="no"?>
<!DOCTYPE svg PUBLIC "-//W3C//DTD SVG 1.1//EN" "http://www.w3.org/Graphics/SVG/1.1/DTD/svg11.dtd">
<svg width="100%" height="100%" viewBox="0 0 21 21" version="1.1" xmlns="http://www.w3.org/2000/svg" xmlns:xlink="http://www.w3.org/1999/xlink" xml:space="preserve" xmlns:serif="http://www.serif.com/" style="fill-rule:evenodd;clip-rule:evenodd;stroke-linejoin:round;stroke-miterlimit:2;">
    <g transform="matrix(1,0,0,1,-5696.02,-3166.86)">
        <g id="Artboard1" transform="matrix(0.00835011,0,0,0.012768,5696.31,3166.86)">
            <rect x="-34.623" y="0" width="2514.94" height="1644.73" style="fill:none;"/>
            <g id="DESIGNED-BY-FREEPIK" serif:id="DESIGNED BY FREEPIK">
            </g>
            <g id="DESIGNED-BY-FREEPIK1" serif:id="DESIGNED BY FREEPIK">
            </g>
            <g id="DESIGNED-BY-FREEPIK2" serif:id="DESIGNED BY FREEPIK">
            </g>
            <g id="DESIGNED-BY-FREEPIK3" serif:id="DESIGNED BY FREEPIK">
            </g>
            <g id="Layer-1" serif:id="Layer 1">
            </g>
            <g id="DESIGNED-BY-FREEPIK4" serif:id="DESIGNED BY FREEPIK">
            </g>
            <g id="DESIGNED-BY-FREEPIK5" serif:id="DESIGNED BY FREEPIK">
            </g>
            <g transform="matrix(5.99717,0,0,3.92206,560.408,195.802)">
                <g id="DESIGNED-BY-FREEPIK6" serif:id="DESIGNED BY FREEPIK">
                    <g transform="matrix(1,0,0,1,83.1414,273.758)">
                        <path d="M0,-182.812C1.625,-186.511 3.337,-189.83 4.563,-193.32C7.046,-200.383 4.457,-206.81 -1.862,-208.643C-12.504,-211.731 -23.241,-214.505 -33.997,-217.175C-35.123,-217.455 -37.521,-216.451 -37.84,-215.529C-40.101,-208.98 -41.974,-202.296 -44.038,-195.432C-29.2,-191.18 -14.638,-187.007 0,-182.812M-19.445,-80.136C-19.831,-80.024 -20.218,-79.911 -20.604,-79.798C-20.604,-72.582 -20.816,-65.359 -20.548,-58.153C-20.241,-49.875 -22.881,-42.847 -27.867,-36.31C-40.213,-20.12 -52.303,-3.736 -64.527,12.547C-67.042,15.897 -68.472,19.586 -67.648,23.735C-66.716,28.421 -63.769,31.545 -59.055,32.622C-54.12,33.75 -50.239,31.795 -47.297,27.882C-32.209,7.813 -17.142,-12.272 -2.105,-32.379C-1.38,-33.348 -0.797,-34.534 -0.519,-35.707C0.688,-40.805 1.806,-45.927 2.836,-51.064C3.034,-52.053 3.09,-53.483 2.536,-54.148C-4.72,-62.869 -12.098,-71.49 -19.445,-80.136M-48.071,-183.807C-55.686,-160.703 -63.234,-137.801 -70.858,-114.669C-69.561,-114.127 -68.577,-113.628 -67.539,-113.294C-56.51,-109.747 -45.417,-106.389 -34.471,-102.603C-30.991,-101.399 -29.313,-102.609 -27.925,-105.358C-27.422,-106.354 -27.03,-107.412 -26.649,-108.463C-19.858,-127.209 -13.076,-145.958 -6.293,-164.707C-5.546,-166.77 -4.803,-168.834 -3.972,-171.138C-18.757,-175.386 -33.108,-179.509 -48.071,-183.807M-16.765,-96.197C-15.473,-94.581 -14.73,-93.602 -13.936,-92.666C2.077,-73.816 18.033,-54.917 34.149,-36.155C39.792,-29.585 42.609,-22.259 42.418,-13.557C42.164,-1.943 42.253,9.68 42.292,21.299C42.297,22.851 42.478,24.649 43.263,25.905C45.493,29.472 53.246,32.343 56.889,31.275C60.802,30.128 63.44,25.875 63.732,20.228C63.758,19.729 63.747,19.229 63.747,18.729C63.747,-0.012 63.701,-18.754 63.774,-37.494C63.795,-42.91 62.021,-47.38 58.3,-51.354C49.248,-61.018 40.397,-70.872 31.427,-80.614C26.565,-85.893 23.307,-91.967 22.15,-99.071C21.722,-101.7 21.6,-104.378 21.3,-107.431C9.568,-100.419 -2.925,-97.34 -16.765,-96.197M-13.263,-109.336C-12.558,-109.205 -12.193,-109.039 -11.863,-109.091C-9.52,-109.462 -7.158,-109.762 -4.852,-110.298C7.604,-113.194 19.186,-117.963 26.495,-129.043C29.712,-133.921 32.223,-139.817 33.002,-145.53C33.431,-148.675 29.615,-152.408 27.686,-155.86C27.138,-156.84 26.49,-157.763 25.898,-158.718C23.277,-162.945 23.598,-166.483 26.79,-168.601C30.087,-170.788 33.587,-169.592 36.347,-165.144C41.873,-156.235 47.382,-147.314 52.776,-138.326C56.809,-131.606 62.681,-128.346 70.443,-128.343C85.692,-128.337 100.94,-128.326 116.189,-128.362C117.796,-128.365 119.786,-128.128 120.922,-128.944C122.763,-130.266 124.042,-132.368 125.559,-134.14C123.759,-135.663 122.032,-137.29 120.114,-138.646C119.524,-139.063 118.409,-138.748 117.534,-138.749C108.785,-138.76 100.033,-138.906 91.288,-138.733C83.464,-138.578 77.637,-141.617 73.397,-148.239C67.403,-157.599 61.178,-166.813 54.995,-176.051C52.149,-180.302 49.542,-184.794 46.178,-188.604C35.061,-201.192 18.85,-197.964 13.123,-182.204C7.756,-167.433 2.439,-152.643 -2.91,-137.865C-6.337,-128.395 -9.78,-118.931 -13.263,-109.336M-32.795,-89.416C-45.006,-93.305 -57.359,-97.213 -69.69,-101.189C-72.051,-101.951 -74.483,-102.706 -76.61,-103.936C-82.567,-107.378 -84.435,-112.743 -82.272,-119.299C-72.542,-148.804 -62.802,-178.305 -53.097,-207.817C-52.006,-211.135 -51.076,-214.506 -50.125,-217.868C-47.599,-226.806 -40.109,-231.436 -31.198,-229.214C-20.543,-226.558 -9.939,-223.693 0.659,-220.816C8.703,-218.633 14.203,-213.608 16.696,-205.694C17.169,-205.613 17.439,-205.475 17.629,-205.547C34.171,-211.832 48.747,-207.308 58.774,-192.517C67.046,-180.315 75.197,-168.029 83.194,-155.647C85.337,-152.329 87.838,-150.803 91.784,-150.945C97.653,-151.155 103.536,-151.098 109.409,-150.953C111.864,-150.892 112.67,-151.699 112.629,-154.161C112.501,-161.785 112.55,-169.413 112.597,-177.038C112.629,-182.08 114.845,-184.692 118.849,-184.597C122.678,-184.507 124.816,-181.887 124.836,-177.111C124.868,-169.11 124.896,-161.109 124.808,-153.109C124.787,-151.166 125.2,-150.073 127.179,-149.153C133.51,-146.21 137.634,-141.363 137.772,-134.102C137.913,-126.71 133.939,-121.549 127.625,-118.309C125.314,-117.123 124.796,-115.803 124.799,-113.441C124.859,-63.434 124.845,-13.428 124.844,36.579C124.844,42.787 122.761,45.826 118.572,45.749C114.513,45.674 112.586,42.786 112.586,36.714C112.582,-12.417 112.583,-61.549 112.583,-110.68L112.583,-115.906C110.961,-115.983 109.648,-116.098 108.336,-116.1C97.709,-116.114 87.067,-116.478 76.46,-116.017C62.288,-115.401 50.193,-118.732 42.045,-132.18C39.513,-124.767 36.973,-118.062 34.945,-111.205C32.479,-102.866 34.545,-95.416 40.407,-89.015C49.271,-79.334 58.032,-69.556 67.042,-60.013C73.313,-53.371 76.199,-45.709 76.114,-36.593C75.941,-17.967 76.247,0.665 75.925,19.287C75.85,23.637 74.724,28.259 72.925,32.232C68.576,41.838 58.147,46.122 48.099,42.764C44.596,41.593 41.159,39.875 38.095,37.809C32.31,33.908 29.628,28.311 29.803,21.175C30.09,9.43 30.017,-2.324 30.168,-14.073C30.234,-19.172 28.782,-23.606 25.343,-27.462C21.444,-31.833 17.733,-36.371 13.536,-41.311C13.169,-40.077 12.82,-39.349 12.748,-38.595C12.037,-31.199 8.247,-25.379 3.84,-19.625C-9.991,-1.57 -23.455,16.765 -37.22,34.87C-47.621,48.55 -66.334,48.624 -75.833,35.215C-81.848,26.726 -81.497,14.827 -74.777,5.79C-62.398,-10.856 -49.986,-27.477 -37.463,-44.014C-34.304,-48.187 -32.68,-52.615 -32.753,-57.867C-32.897,-68.23 -32.795,-78.597 -32.795,-89.416" style="fill-rule:nonzero;"/>
                    </g>
                    <g transform="matrix(1,0,0,1,142.144,12.1705)">
                        <path d="M0,39.54C10.836,39.618 19.913,30.685 19.934,19.922C19.955,9.252 11.194,0.302 0.544,0.114C-10.277,-0.078 -19.392,8.744 -19.554,19.564C-19.715,30.374 -10.819,39.462 0,39.54M0.132,51.759C-17.517,51.814 -31.723,37.618 -31.761,19.888C-31.8,2.21 -17.653,-12.065 0.01,-12.17C17.605,-12.274 32.095,2.041 32.135,19.566C32.176,37.487 18.045,51.702 0.132,51.759" style="fill-rule:nonzero;"/>
                    </g>
                </g>
            </g>
        </g>
    </g>
</svg>
