<?xml version="1.0" encoding="UTF-8" standalone="no"?>
<!DOCTYPE svg PUBLIC "-//W3C//DTD SVG 1.1//EN" "http://www.w3.org/Graphics/SVG/1.1/DTD/svg11.dtd">
<svg width="100%" height="100%" viewBox="0 0 21 21" version="1.1" xmlns="http://www.w3.org/2000/svg" xmlns:xlink="http://www.w3.org/1999/xlink" xml:space="preserve" xmlns:serif="http://www.serif.com/" style="fill-rule:evenodd;clip-rule:evenodd;stroke-linejoin:round;stroke-miterlimit:2;">
    <g transform="matrix(1,0,0,1,-5722.28,-3166.86)">
        <g id="Artboard1" transform="matrix(0.00835011,0,0,0.012768,5722.57,3166.86)">
            <rect x="-34.623" y="0" width="2514.94" height="1644.73" style="fill:none;"/>
            <g id="DESIGNED-BY-FREEPIK" serif:id="DESIGNED BY FREEPIK">
            </g>
            <g id="DESIGNED-BY-FREEPIK1" serif:id="DESIGNED BY FREEPIK">
            </g>
            <g id="DESIGNED-BY-FREEPIK2" serif:id="DESIGNED BY FREEPIK">
            </g>
            <g id="DESIGNED-BY-FREEPIK3" serif:id="DESIGNED BY FREEPIK">
            </g>
            <g id="Layer-1" serif:id="Layer 1">
            </g>
            <g id="DESIGNED-BY-FREEPIK4" serif:id="DESIGNED BY FREEPIK">
            </g>
            <g id="DESIGNED-BY-FREEPIK5" serif:id="DESIGNED BY FREEPIK">
            </g>
            <g transform="matrix(4.6332,0,0,3.03005,1848.39,479.01)">
                <path d="M0,226.661C25.467,195.655 38.988,160.702 41.086,121.023L-41.089,121.023C-39.003,160.661 -25.495,195.563 0,226.661M-311.141,121.031C-308.986,160.753 -295.497,195.725 -270.021,226.636C-244.551,195.636 -231.033,160.682 -228.943,121.031L-311.141,121.031ZM-0.241,0.266C-25.482,31.028 -38.998,65.938 -41.097,105.535L40.962,105.535C39.797,67.704 23.922,27.133 -0.241,0.266M-228.916,105.68C-231.099,65.819 -244.593,30.849 -270.047,-0.015C-295.531,31.054 -309.065,65.998 -311.115,105.68L-228.916,105.68ZM-259.818,237.845C-227.043,269.608 -188.22,286.753 -142.801,289.428L-142.801,121.08L-213.897,121.08C-216.135,165.174 -231.38,203.969 -259.818,237.845M-142.841,105.688L-142.841,-62.819C-188.386,-60.041 -227.16,-42.915 -259.816,-11.206C-231.28,22.762 -216.08,61.686 -213.865,105.688L-142.841,105.688ZM-127.382,289.219C-88.085,289.35 -28.237,262.782 -10.506,237.404C-24.338,221.127 -35.259,203.037 -43.085,183.104C-50.903,163.189 -55.116,142.494 -56.117,121.113L-127.382,121.113L-127.382,289.219ZM-10.189,-11.215C-42.995,-43.004 -81.812,-60.154 -127.211,-62.804L-127.211,105.531L-56.142,105.531C-53.892,61.516 -38.728,22.812 -10.189,-11.215M-134.863,-77.959C-29.287,-77.881 56.336,7.875 56.261,113.463C56.186,219.015 -29.631,304.697 -135.17,304.594C-240.895,304.491 -326.511,218.566 -326.289,112.784C-326.068,7.44 -240.286,-78.036 -134.863,-77.959" style="fill-rule:nonzero;"/>
            </g>
        </g>
    </g>
</svg>
