<svg width="411" height="501" viewBox="0 0 411 501" fill="none" xmlns="http://www.w3.org/2000/svg">
<path d="M0 498.848C3.54713 499.291 8.33698 499.646 14.7264 499.646C26.3585 499.646 35.8601 496.898 41.8075 491.491C47.4833 486.34 51.1192 478.349 51.1192 467.695C51.1192 457.484 47.572 450.381 41.8075 445.678C36.3057 441.067 28.5794 438.763 17.3895 438.763C10.9077 438.763 4.78987 439.206 0 440.004V498.848ZM10.9077 447.895C12.4167 447.54 14.904 447.274 18.3677 447.274C32.0431 447.274 39.6789 454.821 39.5901 468.051C39.5901 483.233 31.1537 491.047 16.9456 490.958C14.7264 490.958 12.4167 490.958 10.9077 490.692V447.895Z" fill="white"/>
<path d="M94.1712 480.473C94.3488 479.498 94.5263 477.902 94.5263 475.864C94.5263 466.362 89.9158 454.83 75.8923 454.83C62.0411 454.83 54.7693 466.096 54.7693 478.079C54.7693 491.313 63.0158 499.913 77.0463 499.913C83.2635 499.913 88.4085 498.761 92.1332 497.253L90.5371 489.713C87.2563 490.958 83.6186 491.668 78.5553 491.668C71.628 491.668 65.4995 488.291 65.2332 480.473H94.1712ZM65.2332 472.849C65.677 468.406 68.5193 462.275 75.2692 462.275C82.5534 462.275 84.3288 468.851 84.24 472.849H65.2332Z" fill="white"/>
<path d="M97.999 496.898C101.193 498.672 105.892 499.913 111.128 499.913C122.584 499.913 128.702 494.239 128.702 486.429C128.613 480.036 124.977 476.04 117.173 473.197C111.662 471.244 109.617 469.911 109.617 467.159C109.617 464.494 111.751 462.63 115.662 462.63C119.481 462.63 122.939 464.051 124.8 465.116L126.928 457.4C124.446 456.07 120.278 454.83 115.483 454.83C105.45 454.83 99.153 460.768 99.153 468.402C99.0642 473.464 102.611 478.081 111.039 481.012C116.372 482.876 118.149 484.386 118.149 487.317C118.149 490.159 116.017 492.112 111.216 492.112C107.312 492.112 102.611 490.514 100.129 489.003L97.999 496.898Z" fill="white"/>
<path d="M169.179 499.025C168.736 496.362 168.558 492.545 168.558 488.639V473.023C168.558 463.609 164.567 454.83 150.721 454.83C143.882 454.83 138.294 456.692 135.102 458.641L137.229 465.741C140.156 463.875 144.593 462.542 148.857 462.542C156.496 462.542 157.65 467.252 157.65 470.098V470.808C141.663 470.719 131.997 476.214 131.997 487.13C131.997 493.708 136.875 500.002 145.569 500.002C151.167 500.002 155.697 497.608 158.36 494.239H158.627L159.335 499.025H169.179ZM157.917 483.849C157.917 484.561 157.828 485.449 157.562 486.248C156.585 489.358 153.388 492.201 149.035 492.201C145.569 492.201 142.816 490.246 142.816 485.982C142.816 479.407 150.189 477.721 157.917 477.898V483.849Z" fill="white"/>
<path d="M188.442 499.025V455.806H177.446V499.025H188.442ZM182.944 437.786C179.308 437.786 176.824 440.359 176.824 443.728C176.824 447.009 179.219 449.582 182.855 449.582C186.668 449.582 189.063 447.009 189.063 443.728C188.975 440.359 186.669 437.786 182.944 437.786Z" fill="white"/>
<path d="M197.507 499.025H208.503V473.638C208.503 472.395 208.592 471.063 208.947 470.087C210.103 466.802 213.123 463.696 217.474 463.696C223.425 463.696 225.735 468.4 225.735 474.614V499.025H236.643V473.371C236.643 459.706 228.84 454.83 221.295 454.83C214.099 454.83 209.391 458.907 207.529 462.277H207.262L206.73 455.806H197.152C197.418 459.534 197.507 463.705 197.507 468.674V499.025Z" fill="white"/>
<path d="M256.526 436.011H245.619V499.025H256.526V484.293L260.255 479.945L272.682 499.025H286.086L267.8 473.467L283.778 455.806H270.64L260.166 469.739C259.012 471.248 257.769 473.112 256.704 474.797H256.526V436.011Z" fill="#FFC900"/>
<path d="M323.279 499.025C322.835 496.362 322.658 492.545 322.658 488.639V473.023C322.658 463.609 318.667 454.83 304.821 454.83C297.982 454.83 292.394 456.692 289.201 458.641L291.328 465.741C294.256 463.875 298.692 462.542 302.957 462.542C310.596 462.542 311.75 467.252 311.75 470.098V470.808C295.763 470.719 286.096 476.214 286.096 487.13C286.096 493.708 290.975 500.002 299.669 500.002C305.267 500.002 309.797 497.608 312.46 494.239H312.727L313.435 499.025H323.279ZM312.016 483.849C312.016 484.561 311.928 485.449 311.661 486.248C310.685 489.358 307.488 492.201 303.134 492.201C299.669 492.201 296.915 490.246 296.915 485.982C296.915 479.407 304.288 477.721 312.016 477.898V483.849Z" fill="#FFC900"/>
<path d="M351.157 454.83C338.105 454.83 328.793 463.518 328.793 477.726C328.793 491.579 338.194 500.002 350.447 500.002C361.46 500.002 372.634 492.909 372.634 477.016C372.634 463.873 364.032 454.83 351.157 454.83ZM350.891 462.808C358.351 462.808 361.371 470.533 361.371 477.282C361.371 485.985 357.02 492.112 350.802 492.112C344.141 492.112 340.056 485.808 340.056 477.46C340.056 470.266 343.165 462.808 350.891 462.808Z" fill="#FFC900"/>
<path d="M374.154 499.025H410.626V490.337H387.82V490.159C390.039 487.851 392.079 485.364 394.21 482.788L410.094 462.455V455.806H375.751V464.495H396.782V464.672C394.476 467.159 392.612 469.29 390.394 471.955L374.154 492.73V499.025Z" fill="#FFC900"/>
<path fill-rule="evenodd" clip-rule="evenodd" d="M115.232 19.2121C133.072 25.5887 155.327 27.7495 168.216 25.5447C181.59 23.2607 200.421 13.7156 215 1.61801C216.871 0.068959 219.405 -0.406299 221.707 0.359426C218.741 -0.96519 292.281 21.012 308.37 28.1983C312.304 29.9586 314.641 32.3791 317.378 36.8546C331.311 59.6283 388.824 158.13 388.824 158.13C390.483 160.906 389.603 164.088 387.737 166.729C374.372 185.63 348.83 198.673 317 199.756C322.43 246.478 335.056 300.625 349.996 354.353C350.529 356.263 350.23 358.309 349.173 359.982C348.117 361.658 346.476 362.49 344.452 363.155C270.801 387.262 196.016 401.124 119.883 402.752C117.727 402.796 115.927 402.603 114.36 401.388C112.794 400.173 111.812 398.356 111.658 396.38C107.324 340.777 98.0293 286.045 87.1507 240.282C59.8795 249.471 31.9306 246.76 8.72562 234.869C5.84756 233.395 4.15328 230.337 4.76058 227.164C4.76058 227.164 25.774 113.506 31.0812 87.3352C32.1242 82.1952 33.4884 79.119 36.5821 76.1221C49.243 63.8661 110.835 18.0635 108.503 20.3211C110.404 18.816 112.948 18.3936 115.232 19.2121ZM175.675 205.759C197.789 201.727 212.465 180.507 208.434 158.394L198.885 106.003C194.854 83.8895 173.629 69.2131 151.52 73.2441C127.871 77.5568 104.049 81.9003 80.4308 86.2042L104.591 218.719C128.209 214.415 152.03 210.071 175.675 205.759ZM218.213 146.626L234.095 143.73C236.361 143.317 238.72 144.452 239.886 146.582L262.444 189.942L298.557 183.359L272.319 132.663C269.551 127.118 265.696 123.131 259.663 121.111C264.631 117.273 266.638 112.226 267.461 106.021L274.018 50.9105L237.906 57.494L232.203 104.428C231.864 106.844 230.059 108.74 227.789 109.154L211.906 112.05L218.213 146.626ZM121.309 114.479L157.822 107.821C160.849 107.27 163.758 109.282 164.308 112.305L173.858 164.7C174.412 167.723 172.401 170.632 169.374 171.182L132.861 177.84L121.309 114.479Z" fill="white"/>
</svg>
