<?xml version="1.0" encoding="UTF-8" standalone="no"?>
<!DOCTYPE svg PUBLIC "-//W3C//DTD SVG 1.1//EN" "http://www.w3.org/Graphics/SVG/1.1/DTD/svg11.dtd">
<svg width="100%" height="100%" viewBox="0 0 21 21" version="1.1" xmlns="http://www.w3.org/2000/svg" xmlns:xlink="http://www.w3.org/1999/xlink" xml:space="preserve" xmlns:serif="http://www.serif.com/" style="fill-rule:evenodd;clip-rule:evenodd;stroke-linecap:round;stroke-linejoin:round;stroke-miterlimit:10;">
    <g transform="matrix(1,0,0,1,-5564.14,-3166.86)">
        <g id="Artboard1" transform="matrix(0.00835011,0,0,0.012768,5564.43,3166.86)">
            <rect x="-34.623" y="0" width="2514.94" height="1644.73" style="fill:none;"/>
            <g id="DESIGNED-BY-FREEPIK" serif:id="DESIGNED BY FREEPIK">
            </g>
            <g id="DESIGNED-BY-FREEPIK1" serif:id="DESIGNED BY FREEPIK">
            </g>
            <g id="DESIGNED-BY-FREEPIK2" serif:id="DESIGNED BY FREEPIK">
            </g>
            <g id="DESIGNED-BY-FREEPIK3" serif:id="DESIGNED BY FREEPIK">
            </g>
            <g id="Layer-1" serif:id="Layer 1">
            </g>
            <g id="DESIGNED-BY-FREEPIK4" serif:id="DESIGNED BY FREEPIK">
            </g>
            <g id="DESIGNED-BY-FREEPIK5" serif:id="DESIGNED BY FREEPIK">
            </g>
            <g transform="matrix(25.2615,0,0,65.1379,-6938.12,-5557.46)">
                <g id="fish-bowl.svg" transform="matrix(0.11724,0,0,0.0297351,323.06,97.9435)">
                    <g transform="matrix(1,0,0,1,-256,-256)">
                        <g id="XMLID_1099_">
                            <path id="XMLID_1109_" d="M406.612,80.286L105.388,80.286C85.979,80.286 70.245,64.552 70.245,45.143C70.245,25.734 85.979,10 105.388,10L406.612,10C426.021,10 441.755,25.734 441.755,45.143C441.755,64.552 426.021,80.286 406.612,80.286Z" style="fill:none;fill-rule:nonzero;stroke:black;stroke-width:20px;"/>
                            <path id="XMLID_22_" d="M479.069,182.305C432.622,179.35 428.32,160.613 373.982,160.613C314.994,160.613 314.994,182.703 256.005,182.703C197.014,182.703 197.014,160.613 138.023,160.613C83.683,160.613 79.381,179.351 32.931,182.305" style="fill:none;fill-rule:nonzero;stroke:black;stroke-width:20px;"/>
                            <path id="XMLID_1107_" d="M390.718,80.286L121.282,80.286C54.268,124.23 10,199.999 10,286.122C10,379.212 61.711,460.217 137.97,502L374.03,502C450.289,460.217 502,379.212 502,286.122C502,199.999 457.732,124.23 390.718,80.286Z" style="fill:none;fill-rule:nonzero;stroke:black;stroke-width:20px;"/>
                            <ellipse id="XMLID_1106_" cx="296.163" cy="341.347" rx="118.813" ry="71.902" style="fill:none;stroke:black;stroke-width:20px;"/>
                            <path id="XMLID_1105_" d="M313.875,412.285C284.26,369.249 288.691,310.358 326.255,272.276" style="fill:none;fill-rule:nonzero;stroke:black;stroke-width:20px;"/>
                            <path id="XMLID_1104_" d="M354.731,329.69" style="fill:none;fill-rule:nonzero;stroke:black;stroke-width:20px;"/>
                            <path id="XMLID_1103_" d="M256.06,274.545L234.241,230.898L263.108,230.898C287.387,230.898 307.739,247.716 313.151,270.338" style="fill:none;fill-rule:nonzero;stroke:black;stroke-width:20px;"/>
                            <path id="XMLID_1102_" d="M313.152,412.356C307.74,434.978 287.387,451.796 263.109,451.796L234.242,451.796L256.061,408.149" style="fill:none;fill-rule:nonzero;stroke:black;stroke-width:20px;"/>
                            <path id="XMLID_1101_" d="M177.35,341.347L147.023,341.347C119.409,341.347 97.023,318.961 97.023,291.347L97.023,291.143L127.35,291.143C154.964,291.143 177.35,313.529 177.35,341.143L177.35,341.347Z" style="fill:none;fill-rule:nonzero;stroke:black;stroke-width:20px;"/>
                            <path id="XMLID_1100_" d="M127.35,391.551L97.024,391.551L97.024,391.347C97.024,363.733 119.41,341.347 147.024,341.347L177.351,341.347L177.351,341.551C177.35,369.165 154.965,391.551 127.35,391.551Z" style="fill:none;fill-rule:nonzero;stroke:black;stroke-width:20px;"/>
                        </g>
                    </g>
                    <g>
                    </g>
                </g>
            </g>
        </g>
    </g>
</svg>
