<?xml version="1.0" encoding="UTF-8" standalone="no"?>
<!DOCTYPE svg PUBLIC "-//W3C//DTD SVG 1.1//EN" "http://www.w3.org/Graphics/SVG/1.1/DTD/svg11.dtd">
<svg width="100%" height="100%" viewBox="0 0 21 21" version="1.1" xmlns="http://www.w3.org/2000/svg" xmlns:xlink="http://www.w3.org/1999/xlink" xml:space="preserve" xmlns:serif="http://www.serif.com/" style="fill-rule:evenodd;clip-rule:evenodd;stroke-linejoin:round;stroke-miterlimit:2;">
    <g transform="matrix(1,0,0,1,-5748.89,-3166.86)">
        <g id="Artboard1" transform="matrix(0.00835011,0,0,0.012768,5749.18,3166.86)">
            <rect x="-34.623" y="0" width="2514.94" height="1644.73" style="fill:none;"/>
            <g id="DESIGNED-BY-FREEPIK" serif:id="DESIGNED BY FREEPIK">
            </g>
            <g id="DESIGNED-BY-FREEPIK1" serif:id="DESIGNED BY FREEPIK">
            </g>
            <g id="DESIGNED-BY-FREEPIK2" serif:id="DESIGNED BY FREEPIK">
            </g>
            <g id="DESIGNED-BY-FREEPIK3" serif:id="DESIGNED BY FREEPIK">
            </g>
            <g id="Layer-1" serif:id="Layer 1">
            </g>
            <g id="DESIGNED-BY-FREEPIK4" serif:id="DESIGNED BY FREEPIK">
            </g>
            <g id="DESIGNED-BY-FREEPIK5" serif:id="DESIGNED BY FREEPIK">
            </g>
            <g transform="matrix(5.92631,0,0,3.87573,193.111,78.3207)">
                <g transform="matrix(1,0,0,1,176.006,44.006)">
                    <path d="M0,-44.006C2.845,-41.862 3.496,-38.949 3.445,-35.518C3.3,-25.803 3.39,-16.085 3.384,-6.367C3.383,-3.685 2.649,-1.128 -0.123,-0.429C-1.821,0 -4.218,-0.253 -5.586,-1.216C-6.847,-2.104 -7.751,-4.338 -7.782,-5.998C-7.973,-16.584 -8.061,-27.18 -7.727,-37.759C-7.66,-39.873 -5.626,-41.925 -4.499,-44.006L0,-44.006Z" style="fill-rule:nonzero;"/>
                </g>
                <g transform="matrix(10.0322,0,0,10.0322,-10220.3,-7013.37)">
                    <path d="M1042.12,737.356L1029.26,737.356C1028.97,737.174 1028.88,736.911 1028.88,736.568C1028.9,735.136 1028.89,733.704 1028.89,732.272C1028.89,731.662 1028.96,731.562 1029.48,731.398C1029.48,730.57 1029.55,729.744 1029.45,728.939C1029.39,728.487 1029.13,728.012 1028.84,727.645C1027.28,725.671 1026.59,723.387 1026.34,720.926C1026.29,720.411 1026.29,718.013 1026.29,718.013L1026.29,718.013C1026.29,715.93 1026.29,713.847 1026.29,711.764C1026.29,709.987 1028.13,708.719 1029.9,709.685C1030.1,708.864 1030.54,708.235 1031.32,707.897C1032.11,707.562 1032.85,707.663 1033.61,708.12C1033.91,707.453 1034.37,706.94 1035.08,706.697C1035.8,706.45 1036.48,706.562 1037.14,706.946C1037.18,706.876 1037.22,706.816 1037.25,706.752C1037.73,705.657 1038.79,705.08 1039.91,705.303C1041.01,705.522 1041.79,706.484 1041.81,707.671C1041.82,708.63 1041.81,709.589 1041.81,710.548C1041.81,710.572 1041.82,710.596 1041.84,710.655C1042.08,710.674 1042.34,710.687 1042.59,710.715C1043.77,710.842 1044.59,711.475 1045.11,712.518C1045.55,713.391 1045.71,714.333 1045.78,715.294C1045.94,717.534 1045.67,719.748 1045.28,721.944C1045.02,723.386 1044.3,725.403 1043.28,726.966C1042.97,727.435 1042.62,727.867 1042.27,728.305C1041.96,728.691 1041.8,729.115 1041.81,729.612C1041.82,730.196 1041.81,730.781 1041.81,731.358C1042.44,731.627 1042.46,731.657 1042.46,732.362C1042.46,733.744 1042.45,735.126 1042.46,736.508C1042.47,736.851 1042.4,737.143 1042.12,737.356ZM1041.38,736.235L1041.38,732.516L1030.04,732.516L1030.04,732.579L1030.03,732.579L1030.03,736.235L1030.04,736.235L1030.04,736.235L1030.11,736.235C1030.41,736.235 1030.71,736.236 1031,736.236L1031,736.235L1041.38,736.235ZM1042.36,726.322C1044.53,722.679 1044.87,719.546 1044.64,715.264C1044.6,714.536 1044.38,713.793 1044.13,713.101C1043.81,712.219 1043.09,711.806 1042.14,711.806C1040.21,711.805 1038.28,711.804 1036.35,711.806C1035.9,711.807 1035.74,711.991 1035.79,712.435C1035.9,713.424 1036.55,714.124 1037.52,714.329C1038.8,714.598 1040.08,714.873 1041.36,715.149C1041.87,715.26 1042.02,715.499 1041.89,716.009C1041.75,716.564 1041.59,717.114 1041.46,717.671C1041.39,717.967 1041.23,718.134 1040.94,718.238C1038.57,719.081 1036.83,720.627 1035.81,722.94C1035.62,723.365 1035.37,723.507 1035.03,723.386C1034.69,723.263 1034.58,722.955 1034.75,722.558C1035.27,721.326 1036,720.234 1036.98,719.328C1037.42,718.925 1037.9,718.566 1038.38,718.17C1038.2,718.053 1038.04,717.944 1037.86,717.82C1037.29,718.603 1036.54,719 1035.57,718.895C1034.62,718.79 1034,718.223 1033.62,717.379C1031.92,718.051 1031.18,717.855 1030.1,716.46C1029.27,717.045 1028.38,717.107 1027.41,716.61C1027.41,717.118 1027.42,717.566 1027.41,718.013L1027.42,718.013L1027.41,720.205C1027.51,721.909 1027.83,723.565 1028.59,725.106C1028.87,725.682 1029.2,726.248 1029.6,726.75C1030.33,727.67 1030.7,728.683 1030.67,729.854C1030.66,730.362 1030.67,730.872 1030.67,731.406L1040.66,731.406C1040.67,731.302 1040.68,731.196 1040.68,731.09C1040.69,730.579 1040.69,730.069 1040.68,729.558C1040.68,728.831 1040.92,728.197 1041.37,727.63C1041.71,727.201 1042.08,726.793 1042.36,726.322ZM1034.62,712.731C1034.62,713.997 1034.61,715.264 1034.62,716.53C1034.63,717.262 1035.13,717.777 1035.82,717.788C1036.52,717.799 1037.05,717.293 1037.08,716.549C1037.1,716.239 1037.1,715.926 1037.08,715.617C1037.07,715.513 1036.97,715.36 1036.88,715.329C1035.64,714.893 1034.95,713.994 1034.62,712.731ZM1040.65,716.143C1039.84,715.97 1039.05,715.803 1038.25,715.635C1038.14,716.551 1038.53,717.165 1039.26,717.263C1039.97,717.359 1040.54,716.916 1040.65,716.143ZM1031.02,712.735L1031.01,712.735C1031.01,713.581 1030.99,714.428 1031.03,715.273C1031.04,715.578 1031.14,715.916 1031.31,716.171C1031.59,716.601 1032.15,716.733 1032.64,716.572C1033.16,716.401 1033.48,715.956 1033.49,715.34C1033.5,713.598 1033.49,711.856 1033.49,710.114C1033.48,709.944 1033.45,709.765 1033.39,709.605C1033.19,709.069 1032.63,708.75 1032.08,708.84C1031.46,708.941 1031.04,709.392 1031.02,710.048C1031,710.943 1031.02,711.839 1031.02,712.735ZM1029.89,713.181C1029.89,712.708 1029.9,712.234 1029.88,711.761C1029.87,711.009 1029.36,710.476 1028.67,710.464C1027.99,710.453 1027.43,710.991 1027.42,711.727C1027.4,712.673 1027.4,713.621 1027.42,714.567C1027.43,715.305 1027.99,715.836 1028.67,715.825C1029.35,715.813 1029.86,715.289 1029.88,714.564C1029.9,714.103 1029.89,713.642 1029.89,713.181ZM1037.04,710.68C1037.06,710.608 1037.08,710.574 1037.08,710.54C1037.09,710.03 1037.1,709.521 1037.09,709.011C1037.07,708.246 1036.55,707.695 1035.86,707.688C1035.14,707.68 1034.62,708.233 1034.62,709.027C1034.61,709.91 1034.61,710.792 1034.62,711.675C1034.62,711.749 1034.64,711.823 1034.66,712.006C1035.04,710.652 1036.03,710.631 1037.04,710.68ZM1040.68,710.66C1040.68,709.649 1040.69,708.657 1040.68,707.665C1040.67,706.902 1040.13,706.377 1039.41,706.391C1038.71,706.404 1038.22,706.926 1038.21,707.686C1038.21,708.594 1038.21,709.502 1038.21,710.411C1038.21,710.493 1038.23,710.575 1038.25,710.66L1040.68,710.66Z" style="fill-rule:nonzero;"/>
                </g>
                <g transform="matrix(10.0322,0,0,9.99694,-10218.4,-6987.35)">
                    <rect x="1030.82" y="736.231" width="2.644" height="1.125" style="fill:none;"/>
                </g>
                <g transform="matrix(1,0,0,1,21.5976,168.071)">
                    <path d="M0,11.247C-5.113,11.246 -10.226,11.297 -15.338,11.229C-19.118,11.178 -21.557,8.962 -21.597,5.741C-21.636,2.565 -19.157,0.076 -15.462,0.044C-4.863,-0.05 5.737,-0.046 16.336,0.036C20.164,0.066 22.48,2.322 22.512,5.613C22.547,9.102 20.225,11.193 16.086,11.235C10.725,11.29 5.362,11.248 0,11.247" style="fill-rule:nonzero;"/>
                </g>
                <g transform="matrix(1,0,0,1,325.221,168.077)">
                    <path d="M0,11.239C-5.237,11.24 -10.476,11.296 -15.712,11.221C-19.569,11.166 -21.822,9.03 -21.817,5.665C-21.812,2.347 -19.526,0.064 -15.704,0.032C-5.105,-0.057 5.495,-0.054 16.094,0.035C19.815,0.066 22.295,2.501 22.292,5.678C22.289,8.909 19.855,11.168 16.086,11.22C10.725,11.293 5.362,11.238 0,11.239" style="fill-rule:nonzero;"/>
                </g>
                <g transform="matrix(1,0,0,1,84.5955,53.468)">
                    <path d="M0,25.102C-1.536,26.821 -2.646,29.17 -4.231,29.552C-6.181,30.023 -9.065,29.513 -10.597,28.264C-14.442,25.13 -17.753,21.339 -21.281,17.813C-25.161,13.936 -29.078,10.094 -32.917,6.175C-35.93,3.099 -36.108,-0.228 -33.522,-2.661C-31.12,-4.921 -27.869,-4.643 -24.941,-1.744C-17.676,5.449 -10.428,12.661 -3.277,19.967C-2.047,21.223 -1.329,22.979 0,25.102" style="fill-rule:nonzero;"/>
                </g>
                <g transform="matrix(1,0,0,1,292.857,84.6629)">
                    <path d="M0,-36.244C1.839,-34.672 4.211,-33.615 4.621,-32.045C5.125,-30.115 4.664,-27.216 3.435,-25.691C0.403,-21.929 -3.306,-18.713 -6.742,-15.278C-10.62,-11.402 -14.474,-7.503 -18.38,-3.657C-21.788,-0.302 -24.891,0 -27.488,-2.678C-29.949,-5.214 -29.628,-8.278 -26.448,-11.48C-19.425,-18.553 -12.402,-25.627 -5.283,-32.604C-3.943,-33.917 -2.16,-34.78 0,-36.244" style="fill-rule:nonzero;"/>
                </g>
                <g transform="matrix(1,0,0,1,224.099,29.9839)">
                    <path d="M0,23.396C-4.703,23.444 -7.51,20.066 -6.38,16.554C-4.971,12.177 -3.289,7.863 -1.381,3.679C-0.059,0.779 2.666,-0.048 5.585,1.031C8.403,2.072 9.783,4.528 8.889,7.343C7.425,11.954 5.649,16.501 3.539,20.849C2.865,22.238 0.715,22.911 0,23.396" style="fill-rule:nonzero;"/>
                </g>
                <g transform="matrix(1,0,0,1,130.893,36.5115)">
                    <path d="M0,11.967C-1.741,13.631 -3.091,15.641 -4.973,16.538C-7.256,17.627 -9.904,16.884 -11.041,14.39C-13.048,9.989 -14.861,5.474 -16.369,0.879C-17.23,-1.745 -16.131,-4.509 -13.436,-5.176C-11.481,-5.66 -7.886,-5.26 -7.176,-4.021C-4.429,0.78 -2.544,6.075 0,11.967" style="fill-rule:nonzero;"/>
                </g>
                <g transform="matrix(1,0,0,1,53.5406,121.145)">
                    <path d="M0,2.321C-0.125,7.026 -3.44,9.693 -7.092,8.581C-11.368,7.279 -15.562,5.601 -19.62,3.717C-22.52,2.371 -23.285,-0.37 -22.144,-3.286C-21.043,-6.102 -18.601,-7.372 -15.77,-6.471C-11.388,-5.077 -7.038,-3.452 -2.923,-1.422C-1.41,-0.675 -0.604,1.504 0,2.321" style="fill-rule:nonzero;"/>
                </g>
                <g transform="matrix(1,0,0,1,316.582,123.085)">
                    <path d="M0,-1.953C-0.727,-1.099 -1.783,1.054 -3.498,1.965C-6.992,3.823 -10.801,5.13 -14.558,6.44C-18.007,7.644 -20.863,6.403 -22.053,3.507C-23.326,0.408 -22.067,-2.48 -18.548,-4.003C-15.01,-5.534 -11.435,-7.018 -7.782,-8.238C-3.714,-9.597 -0.14,-7.173 0,-1.953" style="fill-rule:nonzero;"/>
                </g>
            </g>
        </g>
    </g>
</svg>
