<?xml version="1.0" encoding="UTF-8" standalone="no"?>
<!DOCTYPE svg PUBLIC "-//W3C//DTD SVG 1.1//EN" "http://www.w3.org/Graphics/SVG/1.1/DTD/svg11.dtd">
<svg width="100%" height="100%" viewBox="0 0 240 185" version="1.1" xmlns="http://www.w3.org/2000/svg" xmlns:xlink="http://www.w3.org/1999/xlink" xml:space="preserve" xmlns:serif="http://www.serif.com/" style="fill-rule:evenodd;clip-rule:evenodd;stroke-linejoin:round;stroke-miterlimit:2;">
    <g transform="matrix(1,0,0,1,-5297.41,-393.943)">
        <g id="Artboard1" transform="matrix(0.09539,0,0,0.112055,5300.71,393.943)">
            <rect x="-34.623" y="0" width="2514.94" height="1644.73" style="fill:none;"/>
            <g id="DESIGNED-BY-FREEPIK" serif:id="DESIGNED BY FREEPIK">
            </g>
            <g id="DESIGNED-BY-FREEPIK1" serif:id="DESIGNED BY FREEPIK">
            </g>
            <g id="DESIGNED-BY-FREEPIK2" serif:id="DESIGNED BY FREEPIK">
            </g>
            <g id="DESIGNED-BY-FREEPIK3" serif:id="DESIGNED BY FREEPIK">
            </g>
            <g id="Layer-1" serif:id="Layer 1">
            </g>
            <g id="DESIGNED-BY-FREEPIK4" serif:id="DESIGNED BY FREEPIK">
            </g>
            <g id="DESIGNED-BY-FREEPIK5" serif:id="DESIGNED BY FREEPIK">
            </g>
            <g transform="matrix(16.8549,0,0,16.302,-9334.5,-4663.68)">
                <g transform="matrix(1.13029,0,0,1.01114,126.98,-561.702)">
                    <rect x="375.824" y="838.452" width="131.998" height="99.766" style="fill:rgb(228,228,228);"/>
                </g>
                <g transform="matrix(1.12832,0,0,0.993092,144.445,271.634)">
                    <path d="M411.542,89.141C412.045,89.476 413.038,89.756 413.949,89.756C416.176,89.756 417.238,88.484 417.238,87.041C417.238,85.655 416.441,84.899 414.845,84.269C413.542,83.765 412.968,83.33 412.968,82.462C412.968,81.818 413.458,81.048 414.747,81.048C415.602,81.048 416.231,81.314 416.525,81.496L416.861,80.49C416.455,80.265 415.742,80.042 414.789,80.042C412.954,80.042 411.738,81.132 411.738,82.602C411.738,83.919 412.688,84.731 414.229,85.263C415.503,85.739 416.008,86.257 416.008,87.139C416.008,88.092 415.279,88.736 414.033,88.736C413.192,88.736 412.409,88.47 411.864,88.134L411.542,89.141Z" style="fill-rule:nonzero;"/>
                    <path d="M418.878,92.388L420.108,92.388L420.108,88.708L420.136,88.708C420.542,89.379 421.313,89.77 422.223,89.77C423.806,89.77 425.302,88.568 425.302,86.131C425.302,84.072 424.072,82.688 422.419,82.688C421.327,82.688 420.514,83.163 420.024,84.002L419.996,84.002L419.926,82.842L418.822,82.842C418.864,83.486 418.878,84.186 418.878,85.054L418.878,92.388ZM420.108,85.684C420.108,85.53 420.15,85.348 420.178,85.194C420.416,84.254 421.215,83.666 422.055,83.666C423.357,83.666 424.058,84.828 424.058,86.187C424.058,87.741 423.301,88.806 421.999,88.806C421.13,88.806 420.374,88.218 420.164,87.363C420.122,87.209 420.108,87.027 420.108,86.859L420.108,85.684Z" style="fill-rule:nonzero;"/>
                    <path d="M429.615,89.77C431.226,89.77 432.974,88.68 432.974,86.159C432.974,84.1 431.66,82.688 429.713,82.688C427.85,82.688 426.354,84.016 426.354,86.285C426.354,88.428 427.78,89.77 429.601,89.77L429.615,89.77ZM429.643,88.848C428.452,88.848 427.612,87.727 427.612,86.243C427.612,84.954 428.242,83.61 429.685,83.61C431.142,83.61 431.716,85.052 431.716,86.201C431.716,87.741 430.833,88.848 429.657,88.848L429.643,88.848Z" style="fill-rule:nonzero;"/>
                    <path d="M434.53,89.616L435.76,89.616L435.76,85.99C435.76,85.794 435.774,85.598 435.802,85.416C435.97,84.506 436.586,83.848 437.454,83.848C437.622,83.848 437.748,83.862 437.874,83.876L437.874,82.716C437.762,82.702 437.664,82.688 437.538,82.688C436.712,82.688 435.956,83.261 435.648,84.17L435.606,84.17L435.55,82.842L434.474,82.842C434.516,83.472 434.53,84.157 434.53,84.955L434.53,89.616Z" style="fill-rule:nonzero;"/>
                    <path d="M439.724,81.596L439.724,82.842L438.674,82.842L438.674,83.778L439.724,83.778L439.724,87.461C439.724,88.26 439.864,88.862 440.199,89.239C440.493,89.56 440.954,89.756 441.528,89.756C442.004,89.756 442.382,89.672 442.62,89.588L442.564,88.652C442.382,88.708 442.186,88.736 441.85,88.736C441.164,88.736 440.926,88.26 440.926,87.419L440.926,83.778L442.69,83.778L442.69,82.842L440.926,82.842L440.926,81.218L439.724,81.596Z" style="fill-rule:nonzero;"/>
                </g>
                <g transform="matrix(0.0712505,0,0,0.0627114,635.987,320.467)">
                    <path d="M0,226.661C25.467,195.655 38.988,160.702 41.086,121.023L-41.089,121.023C-39.003,160.661 -25.495,195.563 0,226.661M-311.141,121.031C-308.986,160.753 -295.497,195.725 -270.021,226.636C-244.551,195.636 -231.033,160.682 -228.943,121.031L-311.141,121.031ZM-0.241,0.266C-25.482,31.028 -38.998,65.938 -41.097,105.535L40.962,105.535C39.797,67.704 23.922,27.133 -0.241,0.266M-228.916,105.68C-231.099,65.819 -244.593,30.849 -270.047,-0.015C-295.531,31.054 -309.065,65.998 -311.115,105.68L-228.916,105.68ZM-259.818,237.845C-227.043,269.608 -188.22,286.753 -142.801,289.428L-142.801,121.08L-213.897,121.08C-216.135,165.174 -231.38,203.969 -259.818,237.845M-142.841,105.688L-142.841,-62.819C-188.386,-60.041 -227.16,-42.915 -259.816,-11.206C-231.28,22.762 -216.08,61.686 -213.865,105.688L-142.841,105.688ZM-127.382,289.219C-88.085,289.35 -28.237,262.782 -10.506,237.404C-24.338,221.127 -35.259,203.037 -43.085,183.104C-50.903,163.189 -55.116,142.494 -56.117,121.113L-127.382,121.113L-127.382,289.219ZM-10.189,-11.215C-42.995,-43.004 -81.812,-60.154 -127.211,-62.804L-127.211,105.531L-56.142,105.531C-53.892,61.516 -38.728,22.812 -10.189,-11.215M-134.863,-77.959C-29.287,-77.881 56.336,7.875 56.261,113.463C56.186,219.015 -29.631,304.697 -135.17,304.594C-240.895,304.491 -326.511,218.566 -326.289,112.784C-326.068,7.44 -240.286,-78.036 -134.863,-77.959" style="fill-rule:nonzero;"/>
                </g>
            </g>
        </g>
    </g>
</svg>
