<svg width="117" height="131" viewBox="0 0 117 131" fill="none" xmlns="http://www.w3.org/2000/svg">
<path d="M86.3984 31.2583C86.3984 27.5473 85.6715 23.8728 84.2593 20.4443C82.847 17.0159 80.7771 13.9007 78.1676 11.2767C75.5581 8.65263 72.4602 6.57114 69.0508 5.15103C65.6413 3.73092 61.9871 3 58.2968 3C54.6064 3 50.9522 3.73092 47.5427 5.15103C44.1333 6.57115 41.0354 8.65264 38.4259 11.2767C35.8164 13.9007 33.7465 17.0159 32.3342 20.4443C30.922 23.8728 30.1951 27.5474 30.1951 31.2583L58.2968 31.2583H86.3984Z" stroke="black" stroke-width="5" stroke-linejoin="round"/>
<path d="M83.8984 37.9073C83.8984 39.288 85.0177 40.4073 86.3984 40.4073C87.7791 40.4073 88.8984 39.288 88.8984 37.9073H83.8984ZM83.8984 31.2583V37.9073H88.8984V31.2583H83.8984Z" fill="black"/>
<path d="M83.8984 37.9073C83.8984 39.288 85.0177 40.4073 86.3984 40.4073C87.7791 40.4073 88.8984 39.288 88.8984 37.9073H83.8984ZM83.8984 31.2583V37.9073H88.8984V31.2583H83.8984Z" fill="black"/>
<path d="M27.6951 37.9073C27.6951 39.288 28.8144 40.4073 30.1951 40.4073C31.5758 40.4073 32.6951 39.288 32.6951 37.9073H27.6951ZM27.6951 31.2583V37.9073H32.6951V31.2583H27.6951Z" fill="black"/>
<path d="M114.5 128.5H3L7.53252 30.4272H109.061L114.5 128.5Z" stroke="black" stroke-width="5" stroke-linejoin="round"/>
</svg>
