<svg width="79" height="78" viewBox="0 0 79 78" fill="none" xmlns="http://www.w3.org/2000/svg">
<path d="M38 77.5H58.5L59 77L59.5 74H17.2727" stroke="black" stroke-linejoin="round"/>
<path d="M39 77.5H19L18.5 77L18 74H18.5" stroke="black" stroke-linejoin="round"/>
<path d="M76 77.5H73H70L69.5 77L69 74.5H76.5V77L76 77.5Z" stroke="black" stroke-linejoin="round"/>
<path d="M2.5 77.5H5.5H8.5L9 77L9.5 74.5H2V77L2.5 77.5Z" stroke="black" stroke-linejoin="round"/>
<path d="M63 11C61.0026 16.7481 60.3523 20.2007 60.4986 26.9359M60.5 27C60.4995 26.9786 60.499 26.9572 60.4986 26.9359M60.4986 26.9359C60.7623 31.7559 61.0145 34.8658 62 42.5C63.2714 49.5754 63.2452 54.3227 63 63L62 72H43" stroke="black" stroke-linejoin="round"/>
<path d="M15.1328 11C17.1302 16.7481 17.7805 20.2007 17.6342 26.9359M17.6328 27C17.6333 26.9786 17.6338 26.9572 17.6342 26.9359M17.6342 26.9359C17.3705 31.7559 17.1183 34.8658 16.1328 42.5C14.8614 49.5754 14.8876 54.3227 15.1328 63L16.1328 72H35.1328" stroke="black" stroke-linejoin="round"/>
<path d="M35 72H43" stroke="black" stroke-linejoin="round"/>
<path d="M59 9C61.3522 9.93012 64 12 64 12M64 12C68.6809 17.8592 69.5432 20.5139 70.5 24C73.927 34.4975 75.0346 40.5647 76.5 51.5L77.5 71.5C77.5821 72.0753 77.6398 72.3974 77 73H68.5L67 71.5L65.5 63L63.5 44.5L62 33.5V24.5C62.1366 19.1991 62.7283 16.5622 64 12Z" stroke="black" stroke-linejoin="round"/>
<path d="M19.5493 9C17.1971 9.93012 14.5493 12 14.5493 12M14.5493 12C9.86839 17.8592 9.00611 20.5139 8.04929 24C4.62232 34.4975 3.5147 40.5647 2.04929 51.5L1.04929 71.5C0.96722 72.0753 0.909456 72.3974 1.54929 73H10.0493L11.5493 71.5L13.0493 63L15.0493 44.5L16.5493 33.5V24.5C16.4127 19.1991 15.821 16.5622 14.5493 12Z" stroke="black" stroke-linejoin="round"/>
<path d="M19.5 8.5C22.6137 13.8411 26.0937 15.0543 33 16.5C33 16.5 31.5 20 31.5 21C31.5 22 33 24.5 33 26C33 27.5 32.5 29 32.5 29C32.5 29 31.8905 31.1332 31.5 32.5C31.4601 33.956 31.8651 33.5205 32.5 33L33 32L34 29C34 29 34.5 27 34.5 26C34.5 25 33.5 23 33.5 23C33.5 23 33 21.5 33 21C33 20.5 34.5 16.5 34.5 16.5H39" stroke="black" stroke-linejoin="round"/>
<path d="M59 8.5C55.8863 13.8411 52.4063 15.0543 45.5 16.5C45.5 16.5 47 20 47 21C47 22 45.5 24.5 45.5 26C45.5 27.5 46 29 46 29C46 29 46.6095 31.1332 47 32.5C47.0399 33.956 46.6349 33.5205 46 33L45.5 32L44.5 29C44.5 29 44 27 44 26C44 25 45 23 45 23C45 23 45.5 21.5 45.5 21C45.5 20.5 44 16.5 44 16.5H39.5" stroke="black" stroke-linejoin="round"/>
<path d="M32.5 16.5H34.5C34.5 16.5 36.5 16.5 41 16.5C45.5 16.5 46 16.5 46 16.5" stroke="black" stroke-linejoin="round"/>
<path d="M29.5002 2C26.7052 2.29604 25.2516 2.677 23.0002 4C22.0179 4.5903 21.5295 4.91986 21.0002 5.5C20.5588 5.96276 20.4961 6.31454 20.5002 7C20.7077 8.77284 21.1203 9.44872 22.0002 10.5C27.429 14.8191 31.0342 15.1122 37.5 15.5C34.8024 13.4403 33.1005 11.614 31.5 9C29.8995 6.38598 29.8682 4.79396 29.5002 2ZM29.5002 2L36 1H39.5H40" stroke="black" stroke-linejoin="round"/>
<path d="M48.9998 2C51.7948 2.29604 53.2484 2.677 55.4998 4C56.4821 4.5903 56.9705 4.91986 57.4998 5.5C57.9412 5.96276 58.0039 6.31454 57.9998 7C57.7923 8.77284 57.3797 9.44872 56.4998 10.5C51.071 14.8191 47.4658 15.1122 41 15.5C43.6976 13.4403 45.3995 11.614 47 9C48.6005 6.38598 48.6318 4.79396 48.9998 2ZM48.9998 2L42.5 1H39H38.5" stroke="black" stroke-linejoin="round"/>
<path d="M46 7H32.5C34.6109 10.2046 36.0372 11.9699 39.5 15C42.571 12.0061 43.8773 10.2258 46 7Z" stroke="black" stroke-linejoin="round"/>
</svg>
