<?xml version="1.0" encoding="UTF-8" standalone="no"?>
<!DOCTYPE svg PUBLIC "-//W3C//DTD SVG 1.1//EN" "http://www.w3.org/Graphics/SVG/1.1/DTD/svg11.dtd">
<svg width="100%" height="100%" viewBox="0 0 322 247" version="1.1" xmlns="http://www.w3.org/2000/svg" xmlns:xlink="http://www.w3.org/1999/xlink" xml:space="preserve" xmlns:serif="http://www.serif.com/" style="fill-rule:evenodd;clip-rule:evenodd;stroke-linejoin:round;stroke-miterlimit:2;">
    <g transform="matrix(1,0,0,1,-4856.84,0)">
        <g id="Artboard1" transform="matrix(0.127717,0,0,0.150055,4861.26,0)">
            <rect x="-34.623" y="0" width="2514.94" height="1644.73" style="fill:none;"/>
            <clipPath id="_clip1">
                <rect x="-34.623" y="0" width="2514.94" height="1644.73"/>
            </clipPath>
            <g clip-path="url(#_clip1)">
                <g id="DESIGNED-BY-FREEPIK" serif:id="DESIGNED BY FREEPIK">
                </g>
                <g id="DESIGNED-BY-FREEPIK1" serif:id="DESIGNED BY FREEPIK">
                </g>
                <g id="DESIGNED-BY-FREEPIK2" serif:id="DESIGNED BY FREEPIK">
                </g>
                <g id="DESIGNED-BY-FREEPIK3" serif:id="DESIGNED BY FREEPIK">
                </g>
                <g id="Layer-1" serif:id="Layer 1">
                </g>
                <g id="DESIGNED-BY-FREEPIK4" serif:id="DESIGNED BY FREEPIK">
                </g>
                <g id="DESIGNED-BY-FREEPIK5" serif:id="DESIGNED BY FREEPIK">
                </g>
                <g transform="matrix(12.5887,0,0,12.1736,-5400.82,-1253.05)">
                    <g>
                        <g transform="matrix(1.51362,0,0,1.35406,-142.591,-1032.37)">
                            <rect x="375.824" y="838.452" width="131.998" height="99.766" style="fill:rgb(231,231,231);"/>
                        </g>
                        <g>
                            <g transform="matrix(1.51097,0,0,1.32989,-127.441,84.1616)">
                                <path d="M412.004,80.182L412.004,89.616L413.234,89.616L413.234,85.192L417.8,85.192L417.8,89.616L419.03,89.616L419.03,80.182L417.8,80.182L417.8,84.13L413.234,84.13L413.234,80.182L412.004,80.182Z" style="fill-rule:nonzero;"/>
                                <path d="M423.875,89.77C425.486,89.77 427.234,88.68 427.234,86.159C427.234,84.1 425.92,82.688 423.973,82.688C422.11,82.688 420.614,84.016 420.614,86.285C420.614,88.428 422.04,89.77 423.861,89.77L423.875,89.77ZM423.903,88.848C422.712,88.848 421.872,87.727 421.872,86.243C421.872,84.954 422.502,83.61 423.945,83.61C425.402,83.61 425.976,85.052 425.976,86.201C425.976,87.741 425.093,88.848 423.917,88.848L423.903,88.848Z" style="fill-rule:nonzero;"/>
                                <path d="M431.561,89.77C433.172,89.77 434.92,88.68 434.92,86.159C434.92,84.1 433.606,82.688 431.659,82.688C429.796,82.688 428.3,84.016 428.3,86.285C428.3,88.428 429.726,89.77 431.547,89.77L431.561,89.77ZM431.589,88.848C430.398,88.848 429.558,87.727 429.558,86.243C429.558,84.954 430.188,83.61 431.631,83.61C433.088,83.61 433.662,85.052 433.662,86.201C433.662,87.741 432.779,88.848 431.603,88.848L431.589,88.848Z" style="fill-rule:nonzero;"/>
                                <path d="M441.096,79.678L441.096,83.708L441.068,83.708C440.774,83.177 440.073,82.688 439.023,82.688C437.384,82.688 435.972,84.058 435.986,86.327C435.986,88.386 437.258,89.77 438.897,89.77C440.003,89.77 440.816,89.197 441.194,88.442L441.222,88.442L441.278,89.616L442.382,89.616C442.34,89.154 442.326,88.468 442.326,87.866L442.326,79.678L441.096,79.678ZM441.096,86.774C441.096,86.97 441.082,87.138 441.04,87.292C440.816,88.218 440.059,88.778 439.233,88.778C437.916,88.778 437.23,87.643 437.23,86.257C437.23,84.772 437.986,83.652 439.261,83.652C440.185,83.652 440.858,84.296 441.04,85.066C441.082,85.235 441.096,85.431 441.096,85.599L441.096,86.774Z" style="fill-rule:nonzero;"/>
                                <path d="M445.602,89.616L445.602,82.842L444.372,82.842L444.372,89.616L445.602,89.616ZM444.973,81.706C445.448,81.706 445.742,81.356 445.742,80.951C445.742,80.517 445.434,80.182 444.987,80.182C444.525,80.182 444.218,80.517 444.218,80.951C444.218,81.356 444.511,81.706 444.959,81.706L444.973,81.706Z" style="fill-rule:nonzero;"/>
                                <path d="M453.092,86.452C453.12,86.312 453.134,86.131 453.134,85.879C453.134,84.633 452.561,82.688 450.349,82.688C448.374,82.688 447.158,84.297 447.158,86.34C447.158,88.371 448.416,89.756 450.489,89.756C451.568,89.756 452.323,89.518 452.757,89.323L452.533,88.441C452.086,88.638 451.54,88.792 450.657,88.792C449.425,88.792 448.374,88.105 448.346,86.452L453.092,86.452ZM448.36,85.572C448.458,84.717 448.99,83.568 450.251,83.568C451.624,83.568 451.96,84.787 451.946,85.572L448.36,85.572Z" style="fill-rule:nonzero;"/>
                            </g>
                            <g transform="matrix(0.0976392,0,0,0.0859375,501.274,135.726)">
                                <path d="M150.22,76.672C167.544,88.22 197.588,101.824 244.48,103.764C232.744,93.54 212.66,73.648 201.124,49.06C201.108,49.032 201.1,48.996 201.084,48.968C196.388,38.94 193.08,28.156 192.396,16.896C155.976,23.288 136,35.684 136,52C136,57.252 138.972,69.172 150.22,76.672Z" style="fill-rule:nonzero;"/>
                                <path d="M255.98,40.02C273.996,40.116 290.388,41.052 304.94,42.744C308.62,34.224 311.156,25.084 311.628,15.652C295.6,13.36 276.924,12.132 255.984,12.024C235.072,12.132 216.4,13.36 200.372,15.652C200.832,25.028 203.312,34.144 207.04,42.748C221.592,41.052 237.988,40.116 255.98,40.02Z" style="fill-rule:nonzero;"/>
                                <path d="M267.564,103.764C314.428,101.812 344.464,88.216 361.78,76.672C373.028,69.172 376,57.252 376,52C376,35.684 356.024,23.292 319.604,16.9C317.264,55.96 284.124,89.392 267.564,103.764Z" style="fill-rule:nonzero;"/>
                                <path d="M301.26,50.396C287.68,48.936 272.548,48.112 255.98,48.024C239.444,48.112 224.312,48.936 210.736,50.4C224.696,76.684 248.5,96.952 256.012,102.944C260.768,99.168 271.972,89.776 283.164,76.656C289.272,69.488 295.912,60.504 301.26,50.396Z" style="fill-rule:nonzero;"/>
                                <path d="M20.116,495.976C20.116,496.212 20.1,496.448 20.056,496.68C19.86,497.82 20.204,498.384 20.476,498.708C21.16,499.516 22.52,500 24.116,500L60,500C61.592,500 63.676,497.604 64.056,495.34L67.12,480L20.024,480L20.116,495.976Z" style="fill-rule:nonzero;"/>
                                <path d="M492,480L444.88,480L447.924,495.216C448.324,497.608 450.408,500 452.004,500L488.004,500C489.6,500 490.964,499.516 491.644,498.708C491.916,498.38 492.256,497.82 492.06,496.68C492.02,496.456 492,496.228 492,496L492,480Z" style="fill-rule:nonzero;"/>
                                <path d="M98.052,80.756C79.24,105.868 12.02,213.464 12.124,467.828C12.124,470.128 13.924,472 16.136,472L72,472C73.188,472 75.312,469.704 76.168,466.848C81.396,449.428 90.024,400.584 96.08,365.22C96.976,327.308 99.94,290.02 104.092,271.14C117.032,213.5 114.968,149.48 98.052,80.756Z" style="fill-rule:nonzero;"/>
                                <path d="M407.276,74.176L382.196,62.184C379.712,69.78 374.568,77.764 366.216,83.332C351.284,93.288 327.376,104.68 292.324,109.564C292.908,114.18 294.188,117.08 295.652,120.372C297.692,124.948 300,130.14 300,139.984C300,149.836 297.692,155.028 295.656,159.612C293.692,164.028 292,167.84 292,175.992C292,184.144 293.692,187.956 295.656,192.372C297.692,196.956 300,202.148 300,212C300,214.208 298.208,216 296,216C293.792,216 292,214.208 292,212C292,203.848 290.308,200.036 288.344,195.62C286.308,191.036 284,185.844 284,175.992C284,166.14 286.308,160.948 288.344,156.364C290.308,151.948 292,148.136 292,139.984C292,131.836 290.308,128.028 288.344,123.616C286.824,120.2 285.132,116.368 284.392,110.54C275.588,111.468 266.144,112 256,112C245.856,112 256,112 256,112C244.304,112 233.572,111.276 223.648,110.064C222.936,116.156 221.22,120.096 219.656,123.616C217.692,128.028 216,131.836 216,139.984C216,148.136 217.692,151.948 219.656,156.364C221.692,160.948 224,166.14 224,175.992C224,185.844 221.692,191.036 219.656,195.62C217.692,200.036 216,203.848 216,212C216,214.208 214.208,216 212,216C209.792,216 208,214.208 208,212C208,202.148 210.308,196.956 212.344,192.372C214.308,187.956 216,184.144 216,175.992C216,167.84 214.308,164.028 212.344,159.612C210.308,155.028 208,149.836 208,139.984C208,130.14 210.308,124.948 212.344,120.368C213.86,116.964 215.188,113.908 215.732,108.968C182.832,103.804 160.148,92.904 145.78,83.328C137.432,77.76 132.284,69.776 129.8,62.18L104.692,74.184C122.976,145.888 125.404,212.72 111.9,272.872C107.792,291.54 104.872,328.528 104.008,366.04C104,366.12 104.028,366.192 104.016,366.272C104.012,366.3 104.008,366.324 104.004,366.352C103.196,402.008 104.252,438.088 107.94,459.308C108.668,463.508 112.084,468 116,468L396,468C399.892,468 403.312,463.5 404.064,459.296C411.896,415.484 407.168,307.976 400.08,272.788C387.168,207.94 389.596,141.136 407.276,74.176ZM364,440C364,444.42 360.42,448 356,448L156,448C151.58,448 148,444.42 148,440L148,420C148,416 149.804,413.432 152,412C174.996,396.992 189.14,355.532 192,336C192.576,332.064 196.02,328 200,328L312,328C315.98,328 319.424,332.064 320,336C322.86,355.532 337.004,396.992 360,412C362.196,413.432 364,416 364,420L364,440Z" style="fill-rule:nonzero;"/>
                                <path d="M413.904,80.668C397.584,144.952 395.544,209.016 407.924,271.22C411.668,289.816 414.74,326.712 415.788,364.472C421.916,400.26 430.596,449.408 435.832,466.852C436.688,469.704 438.812,472.004 440,472.004L495.864,472.004C498.076,472.004 499.872,470.132 499.876,467.832C499.98,212.74 432.644,105.544 413.904,80.668Z" style="fill-rule:nonzero;"/>
                                <path d="M123.944,495.34C124.252,497.772 126.248,500 128,500L384,500C385.752,500 387.748,497.772 388.032,495.504L391.28,476L120.72,476L123.944,495.34Z" style="fill-rule:nonzero;"/>
                                <g transform="matrix(3.96547,0,0,3.96547,-70615.8,-16027.1)">
                                    <path d="M17853,4121.93L17841.4,4145.61L17841.7,4157.57L17902,4156.38L17903,4143.94L17890.5,4121.93L17853,4121.93Z"/>
                                </g>
                            </g>
                        </g>
                    </g>
                </g>
            </g>
        </g>
    </g>
</svg>
