<?xml version="1.0" encoding="UTF-8" standalone="no"?>
<!DOCTYPE svg PUBLIC "-//W3C//DTD SVG 1.1//EN" "http://www.w3.org/Graphics/SVG/1.1/DTD/svg11.dtd">
<svg width="100%" height="100%" viewBox="0 0 322 247" version="1.1" xmlns="http://www.w3.org/2000/svg" xmlns:xlink="http://www.w3.org/1999/xlink" xml:space="preserve" xmlns:serif="http://www.serif.com/" style="fill-rule:evenodd;clip-rule:evenodd;stroke-linejoin:round;stroke-miterlimit:2;">
    <g transform="matrix(1,0,0,1,-6317.88,0)">
        <g id="Artboard1" transform="matrix(0.127717,0,0,0.150055,6322.3,0)">
            <rect x="-34.623" y="0" width="2514.94" height="1644.73" style="fill:none;"/>
            <clipPath id="_clip1">
                <rect x="-34.623" y="0" width="2514.94" height="1644.73"/>
            </clipPath>
            <g clip-path="url(#_clip1)">
                <g id="DESIGNED-BY-FREEPIK" serif:id="DESIGNED BY FREEPIK">
                </g>
                <g id="DESIGNED-BY-FREEPIK1" serif:id="DESIGNED BY FREEPIK">
                </g>
                <g id="DESIGNED-BY-FREEPIK2" serif:id="DESIGNED BY FREEPIK">
                </g>
                <g id="DESIGNED-BY-FREEPIK3" serif:id="DESIGNED BY FREEPIK">
                </g>
                <g id="Layer-1" serif:id="Layer 1">
                </g>
                <g id="DESIGNED-BY-FREEPIK4" serif:id="DESIGNED BY FREEPIK">
                </g>
                <g id="DESIGNED-BY-FREEPIK5" serif:id="DESIGNED BY FREEPIK">
                </g>
                <g transform="matrix(12.5887,0,0,12.1736,-16565,-1253.05)">
                    <g transform="matrix(1.51362,0,0,1.35406,744.249,-1032.37)">
                        <rect x="375.824" y="838.452" width="131.998" height="99.766" style="fill:rgb(231,231,231);"/>
                    </g>
                    <g>
                        <g transform="matrix(1.51097,0,0,1.32989,762.127,83.4913)">
                            <path d="M411.542,89.141C412.045,89.476 413.038,89.756 413.949,89.756C416.176,89.756 417.238,88.484 417.238,87.041C417.238,85.655 416.441,84.899 414.845,84.269C413.542,83.765 412.968,83.33 412.968,82.462C412.968,81.818 413.458,81.048 414.747,81.048C415.602,81.048 416.231,81.314 416.525,81.496L416.861,80.49C416.455,80.265 415.742,80.042 414.789,80.042C412.954,80.042 411.738,81.132 411.738,82.602C411.738,83.919 412.688,84.731 414.229,85.263C415.503,85.739 416.008,86.257 416.008,87.139C416.008,88.092 415.279,88.736 414.033,88.736C413.192,88.736 412.409,88.47 411.864,88.134L411.542,89.141Z" style="fill-rule:nonzero;"/>
                            <path d="M419.158,81.596L419.158,82.842L418.108,82.842L418.108,83.778L419.158,83.778L419.158,87.461C419.158,88.26 419.298,88.862 419.633,89.239C419.927,89.56 420.388,89.756 420.962,89.756C421.438,89.756 421.816,89.672 422.054,89.588L421.998,88.652C421.816,88.708 421.62,88.736 421.284,88.736C420.598,88.736 420.36,88.26 420.36,87.419L420.36,83.778L422.124,83.778L422.124,82.842L420.36,82.842L420.36,81.218L419.158,81.596Z" style="fill-rule:nonzero;"/>
                            <path d="M424.742,89.616L424.742,82.842L423.512,82.842L423.512,89.616L424.742,89.616ZM424.113,81.706C424.588,81.706 424.882,81.356 424.882,80.951C424.882,80.517 424.574,80.182 424.127,80.182C423.665,80.182 423.358,80.517 423.358,80.951C423.358,81.356 423.651,81.706 424.099,81.706L424.113,81.706Z" style="fill-rule:nonzero;"/>
                            <path d="M431.406,88.442C431.056,88.596 430.594,88.764 429.894,88.764C428.55,88.764 427.542,87.797 427.542,86.229C427.542,84.828 428.382,83.666 429.936,83.666C430.608,83.666 431.07,83.834 431.364,83.988L431.644,83.051C431.308,82.869 430.664,82.688 429.936,82.688C427.724,82.688 426.298,84.212 426.298,86.299C426.298,88.372 427.626,89.756 429.67,89.756C430.58,89.756 431.294,89.518 431.616,89.365L431.406,88.442Z" style="fill-rule:nonzero;"/>
                            <path d="M434.29,79.678L433.06,79.678L433.06,89.616L434.29,89.616L434.29,87.069L434.92,86.369L437.244,89.616L438.742,89.616L435.76,85.627L438.378,82.842L436.908,82.842L434.906,85.179C434.71,85.417 434.486,85.711 434.318,85.949L434.29,85.949L434.29,79.678Z" style="fill-rule:nonzero;"/>
                            <path d="M445.07,86.452C445.098,86.312 445.112,86.131 445.112,85.879C445.112,84.633 444.539,82.688 442.327,82.688C440.352,82.688 439.136,84.297 439.136,86.34C439.136,88.371 440.394,89.756 442.467,89.756C443.546,89.756 444.301,89.518 444.735,89.323L444.511,88.441C444.064,88.638 443.518,88.792 442.635,88.792C441.403,88.792 440.352,88.105 440.324,86.452L445.07,86.452ZM440.338,85.572C440.436,84.717 440.968,83.568 442.229,83.568C443.602,83.568 443.938,84.787 443.924,85.572L440.338,85.572Z" style="fill-rule:nonzero;"/>
                            <path d="M446.64,89.616L447.87,89.616L447.87,85.99C447.87,85.794 447.884,85.598 447.912,85.416C448.08,84.506 448.696,83.848 449.564,83.848C449.732,83.848 449.858,83.862 449.984,83.876L449.984,82.716C449.872,82.702 449.774,82.688 449.648,82.688C448.822,82.688 448.066,83.261 447.758,84.17L447.716,84.17L447.66,82.842L446.584,82.842C446.626,83.472 446.64,84.157 446.64,84.955L446.64,89.616Z" style="fill-rule:nonzero;"/>
                        </g>
                        <g transform="matrix(-0.81899,-8.82771e-17,3.9639e-16,-2.84886,2664.78,737.307)">
                            <g id="sticker.svg" transform="matrix(0.0898599,0,0,0.022737,1528.43,201.913)">
                                <g transform="matrix(1,0,0,1,-256,-256)">
                                    <clipPath id="_clip2">
                                        <rect x="0" y="0" width="512" height="512"/>
                                    </clipPath>
                                    <g clip-path="url(#_clip2)">
                                        <g>
                                            <path d="M436.953,255.698C436.693,156.04 355.542,75.042 255.824,75.042C155.945,75.042 74.689,156.299 74.689,256.177C74.689,355.981 155.824,437.188 255.601,437.309C269.427,395.442 292.954,357.082 325.037,324.999C357.019,293.017 395.24,269.541 436.953,255.698Z" style="fill-rule:nonzero;"/>
                                            <path d="M44.688,256.177C44.688,139.756 139.403,45.041 255.824,45.041C369.369,45.041 462.251,135.139 466.771,247.594C481.551,244.422 496.661,242.401 511.999,241.593C504.397,107.093 392.585,0 256.214,0C114.938,0 0.001,114.937 0.001,256.213C0.001,392.595 107.111,504.415 241.628,512C242.427,496.788 244.421,481.8 247.546,467.136C134.948,462.772 44.688,369.825 44.688,256.177Z" style="fill-rule:nonzero;"/>
                                            <path d="M274.202,488.221L488.258,274.165C378.275,291.1 291.137,378.238 274.202,488.221Z" style="fill-rule:nonzero;"/>
                                        </g>
                                    </g>
                                </g>
                                <g>
                                </g>
                            </g>
                        </g>
                    </g>
                </g>
            </g>
        </g>
    </g>
</svg>
