<?xml version="1.0" encoding="UTF-8" standalone="no"?>
<!DOCTYPE svg PUBLIC "-//W3C//DTD SVG 1.1//EN" "http://www.w3.org/Graphics/SVG/1.1/DTD/svg11.dtd">
<svg width="100%" height="100%" viewBox="0 0 322 247" version="1.1" xmlns="http://www.w3.org/2000/svg" xmlns:xlink="http://www.w3.org/1999/xlink" xml:space="preserve" xmlns:serif="http://www.serif.com/" style="fill-rule:evenodd;clip-rule:evenodd;stroke-linejoin:round;stroke-miterlimit:2;">
    <g transform="matrix(1,0,0,1,-5222.1,0)">
        <g id="Artboard1" transform="matrix(0.127717,0,0,0.150055,5226.52,0)">
            <rect x="-34.623" y="0" width="2514.94" height="1644.73" style="fill:none;"/>
            <clipPath id="_clip1">
                <rect x="-34.623" y="0" width="2514.94" height="1644.73"/>
            </clipPath>
            <g clip-path="url(#_clip1)">
                <g id="DESIGNED-BY-FREEPIK" serif:id="DESIGNED BY FREEPIK">
                </g>
                <g id="DESIGNED-BY-FREEPIK1" serif:id="DESIGNED BY FREEPIK">
                </g>
                <g id="DESIGNED-BY-FREEPIK2" serif:id="DESIGNED BY FREEPIK">
                </g>
                <g id="DESIGNED-BY-FREEPIK3" serif:id="DESIGNED BY FREEPIK">
                </g>
                <g id="Layer-1" serif:id="Layer 1">
                </g>
                <g id="DESIGNED-BY-FREEPIK4" serif:id="DESIGNED BY FREEPIK">
                </g>
                <g id="DESIGNED-BY-FREEPIK5" serif:id="DESIGNED BY FREEPIK">
                </g>
                <g transform="matrix(12.5887,0,0,12.1736,-8191.85,-1253.05)">
                    <g>
                        <g transform="matrix(1.51362,0,0,1.35406,79.1192,-1032.37)">
                            <rect x="375.824" y="838.452" width="131.998" height="99.766" style="fill:rgb(231,231,231);"/>
                        </g>
                        <g>
                            <g transform="matrix(1.51097,0,0,1.32989,91.2864,84.1616)">
                                <path d="M411.542,89.141C412.045,89.476 413.038,89.756 413.949,89.756C416.176,89.756 417.238,88.484 417.238,87.041C417.238,85.655 416.441,84.899 414.845,84.269C413.542,83.765 412.968,83.33 412.968,82.462C412.968,81.818 413.458,81.048 414.747,81.048C415.602,81.048 416.231,81.314 416.525,81.496L416.861,80.49C416.455,80.265 415.742,80.042 414.789,80.042C412.954,80.042 411.738,81.132 411.738,82.602C411.738,83.919 412.688,84.731 414.229,85.263C415.503,85.739 416.008,86.257 416.008,87.139C416.008,88.092 415.279,88.736 414.033,88.736C413.192,88.736 412.409,88.47 411.864,88.134L411.542,89.141Z" style="fill-rule:nonzero;"/>
                                <path d="M417.996,82.842L420.039,89.616L421.159,89.616L422.251,86.398C422.489,85.669 422.699,84.954 422.867,84.142L422.895,84.142C423.063,84.94 423.259,85.613 423.497,86.383L424.533,89.616L425.652,89.616L427.836,82.842L426.618,82.842L425.652,86.243C425.428,87.041 425.246,87.755 425.134,88.442L425.092,88.442C424.939,87.755 424.743,87.027 424.491,86.229L423.441,82.842L422.405,82.842L421.299,86.285C421.075,87.027 420.851,87.755 420.697,88.442L420.655,88.442C420.529,87.741 420.347,87.027 420.165,86.271L419.256,82.842L417.996,82.842Z" style="fill-rule:nonzero;"/>
                                <path d="M434.374,86.452C434.402,86.312 434.416,86.131 434.416,85.879C434.416,84.633 433.843,82.688 431.631,82.688C429.656,82.688 428.44,84.297 428.44,86.34C428.44,88.371 429.698,89.756 431.771,89.756C432.85,89.756 433.605,89.518 434.039,89.323L433.815,88.441C433.368,88.638 432.822,88.792 431.939,88.792C430.707,88.792 429.656,88.105 429.628,86.452L434.374,86.452ZM429.642,85.572C429.74,84.717 430.272,83.568 431.533,83.568C432.906,83.568 433.242,84.787 433.228,85.572L429.642,85.572Z" style="fill-rule:nonzero;"/>
                                <path d="M440.716,85.459C440.716,84.101 440.213,82.688 438.127,82.688C437.272,82.688 436.446,82.925 435.887,83.275L436.167,84.101C436.642,83.778 437.3,83.596 437.945,83.596C439.332,83.582 439.486,84.605 439.486,85.166L439.486,85.306C436.866,85.292 435.412,86.186 435.412,87.825C435.412,88.806 436.111,89.77 437.483,89.77C438.449,89.77 439.192,89.295 439.556,88.764L439.598,88.764L439.709,89.616L440.814,89.616C440.744,89.154 440.716,88.58 440.716,87.992L440.716,85.459ZM439.514,87.334C439.514,87.461 439.5,87.601 439.458,87.727C439.262,88.301 438.687,88.862 437.791,88.862C437.174,88.862 436.642,88.497 436.642,87.685C436.642,86.368 438.169,86.13 439.514,86.158L439.514,87.334Z" style="fill-rule:nonzero;"/>
                                <path d="M442.916,81.596L442.916,82.842L441.866,82.842L441.866,83.778L442.916,83.778L442.916,87.461C442.916,88.26 443.056,88.862 443.391,89.239C443.685,89.56 444.146,89.756 444.72,89.756C445.196,89.756 445.574,89.672 445.812,89.588L445.756,88.652C445.574,88.708 445.378,88.736 445.042,88.736C444.356,88.736 444.118,88.26 444.118,87.419L444.118,83.778L445.882,83.778L445.882,82.842L444.118,82.842L444.118,81.218L442.916,81.596Z" style="fill-rule:nonzero;"/>
                                <path d="M452.63,86.452C452.658,86.312 452.672,86.131 452.672,85.879C452.672,84.633 452.099,82.688 449.887,82.688C447.912,82.688 446.696,84.297 446.696,86.34C446.696,88.371 447.954,89.756 450.027,89.756C451.106,89.756 451.861,89.518 452.295,89.323L452.071,88.441C451.624,88.638 451.078,88.792 450.195,88.792C448.963,88.792 447.912,88.105 447.884,86.452L452.63,86.452ZM447.898,85.572C447.996,84.717 448.528,83.568 449.789,83.568C451.162,83.568 451.498,84.787 451.484,85.572L447.898,85.572Z" style="fill-rule:nonzero;"/>
                                <path d="M454.2,89.616L455.43,89.616L455.43,85.99C455.43,85.794 455.444,85.598 455.472,85.416C455.64,84.506 456.256,83.848 457.124,83.848C457.292,83.848 457.418,83.862 457.544,83.876L457.544,82.716C457.432,82.702 457.334,82.688 457.208,82.688C456.382,82.688 455.626,83.261 455.318,84.17L455.276,84.17L455.22,82.842L454.144,82.842C454.186,83.472 454.2,84.157 454.2,84.955L454.2,89.616Z" style="fill-rule:nonzero;"/>
                            </g>
                            <g transform="matrix(0.100493,0,0,0.420361,634.348,81.717)">
                                <g transform="matrix(1,0,0,0.210413,888.185,132.439)">
                                    <rect x="132.6" y="432.8" width="246.7" height="34.2" style="fill-rule:nonzero;"/>
                                </g>
                                <g transform="matrix(1,0,0,0.210413,888.185,132.439)">
                                    <path d="M20.5,452.2L70.9,454.8L76.3,425.9L22.9,422.8L20.5,452.2Z" style="fill-rule:nonzero;"/>
                                </g>
                                <g transform="matrix(1,0,0,0.210413,888.185,132.439)">
                                    <path d="M256,120.4C297,120.4 330.6,87 333.1,45L318.6,45C317.5,60.6 311,75.4 300.2,86.7C277.5,111.1 239.3,112.6 214.9,89.9C213.8,88.9 212.8,87.8 211.7,86.7C200.9,75.4 194.4,60.6 193.3,45L178.8,45C181.4,87 215,120.4 256,120.4Z" style="fill-rule:nonzero;"/>
                                </g>
                                <g transform="matrix(1,0,0,0.210413,888.185,132.439)">
                                    <path d="M256,96C270,95.9 283.4,90.1 293,79.8C302,70.4 307.6,58.1 308.6,45L203.4,45C204.5,58 210,70.3 219,79.8C228.6,90 242,95.9 256,96Z" style="fill-rule:nonzero;"/>
                                </g>
                                <g transform="matrix(1,0,0,0.210413,888.185,132.439)">
                                    <path d="M467.5,215.8C463.7,186.6 457.4,157.9 448.5,129.9C433.7,83 392.1,49.7 343.1,45.4C340.4,92.7 302.4,130.3 256,130.3C209.6,130.3 171.6,92.7 168.9,45.4C119.9,49.6 78.3,82.9 63.5,129.8C54.7,157.8 48.3,186.6 44.5,215.7L19,412.6L84.1,416.4L111.1,330.6L111.3,330.7L111.9,238.7C112.1,212.5 109.2,190 101.9,161.3C101.2,158.6 102.8,155.9 105.5,155.2C108.2,154.5 110.9,156.1 111.6,158.8C119.1,188.4 122.1,211.6 121.9,238.7L120.6,422.8L391.2,422.8L390,238.7C389.8,211.5 392.8,188.4 400.3,158.8C401,156.1 403.7,154.5 406.4,155.2C409.1,155.9 410.7,158.6 410,161.3C402.7,190 399.8,212.5 400,238.7L400.6,330.7L400.8,330.6L427.8,416.4L492.9,412.6L467.5,215.8Z" style="fill-rule:nonzero;"/>
                                </g>
                                <g transform="matrix(1,0,0,0.210413,888.185,132.439)">
                                    <path d="M435.7,425.9L441.1,454.8L491.5,452.2L489.1,422.8L435.7,425.9Z" style="fill-rule:nonzero;"/>
                                </g>
                            </g>
                        </g>
                    </g>
                </g>
            </g>
        </g>
    </g>
</svg>
