<?xml version="1.0" encoding="UTF-8" standalone="no"?>
<!DOCTYPE svg PUBLIC "-//W3C//DTD SVG 1.1//EN" "http://www.w3.org/Graphics/SVG/1.1/DTD/svg11.dtd">
<svg width="100%" height="100%" viewBox="0 0 322 247" version="1.1" xmlns="http://www.w3.org/2000/svg" xmlns:xlink="http://www.w3.org/1999/xlink" xml:space="preserve" xmlns:serif="http://www.serif.com/" style="fill-rule:evenodd;clip-rule:evenodd;stroke-linejoin:round;stroke-miterlimit:2;">
    <g transform="matrix(1,0,0,1,-5952.62,0)">
        <g id="Artboard1" transform="matrix(0.127717,0,0,0.150055,5957.04,0)">
            <rect x="-34.623" y="0" width="2514.94" height="1644.73" style="fill:none;"/>
            <clipPath id="_clip1">
                <rect x="-34.623" y="0" width="2514.94" height="1644.73"/>
            </clipPath>
            <g clip-path="url(#_clip1)">
                <g id="DESIGNED-BY-FREEPIK" serif:id="DESIGNED BY FREEPIK">
                </g>
                <g id="DESIGNED-BY-FREEPIK1" serif:id="DESIGNED BY FREEPIK">
                </g>
                <g id="DESIGNED-BY-FREEPIK2" serif:id="DESIGNED BY FREEPIK">
                </g>
                <g id="DESIGNED-BY-FREEPIK3" serif:id="DESIGNED BY FREEPIK">
                </g>
                <g id="Layer-1" serif:id="Layer 1">
                </g>
                <g id="DESIGNED-BY-FREEPIK4" serif:id="DESIGNED BY FREEPIK">
                </g>
                <g id="DESIGNED-BY-FREEPIK5" serif:id="DESIGNED BY FREEPIK">
                </g>
                <g transform="matrix(12.5887,0,0,12.1736,-13773.9,-1253.05)">
                    <g transform="matrix(1.51362,0,0,1.35406,522.539,-1032.37)">
                        <rect x="375.824" y="838.452" width="131.998" height="99.766" style="fill:rgb(231,231,231);"/>
                    </g>
                    <g>
                        <g transform="matrix(1.51097,0,0,1.32989,553.679,79.8649)">
                            <path d="M412.018,89.588C412.423,89.644 413.066,89.7 413.906,89.7C415.447,89.7 416.512,89.42 417.155,88.82C417.644,88.358 417.966,87.741 417.966,86.929C417.966,85.528 416.917,84.787 416.021,84.577L416.021,84.535C417.001,84.186 417.616,83.387 417.616,82.463C417.616,81.72 417.308,81.16 416.819,80.796C416.246,80.321 415.461,80.112 414.243,80.112C413.402,80.112 412.549,80.196 412.018,80.321L412.018,89.588ZM413.234,81.132C413.43,81.09 413.752,81.048 414.313,81.048C415.545,81.048 416.372,81.496 416.372,82.589C416.372,83.499 415.615,84.186 414.341,84.186L413.234,84.186L413.234,81.132ZM413.234,85.094L414.243,85.094C415.573,85.094 416.68,85.64 416.68,86.915C416.68,88.288 415.517,88.75 414.257,88.75C413.822,88.75 413.486,88.736 413.234,88.694L413.234,85.094Z" style="fill-rule:nonzero;"/>
                            <path d="M424.336,85.459C424.336,84.101 423.833,82.688 421.747,82.688C420.892,82.688 420.066,82.925 419.507,83.275L419.787,84.101C420.262,83.778 420.92,83.596 421.565,83.596C422.952,83.582 423.106,84.605 423.106,85.166L423.106,85.306C420.486,85.292 419.032,86.186 419.032,87.825C419.032,88.806 419.731,89.77 421.103,89.77C422.069,89.77 422.812,89.295 423.176,88.764L423.218,88.764L423.329,89.616L424.434,89.616C424.364,89.154 424.336,88.58 424.336,87.992L424.336,85.459ZM423.134,87.334C423.134,87.461 423.12,87.601 423.078,87.727C422.882,88.301 422.307,88.862 421.411,88.862C420.794,88.862 420.262,88.497 420.262,87.685C420.262,86.368 421.789,86.13 423.134,86.158L423.134,87.334Z" style="fill-rule:nonzero;"/>
                            <path d="M432.106,84.688C432.106,83.878 432.12,83.318 432.162,82.842L431.071,82.842L431.03,83.862L431.002,83.862C430.694,83.289 430.063,82.688 428.887,82.688C427.318,82.688 425.822,83.974 425.822,86.271C425.822,88.162 427.024,89.588 428.705,89.588C429.755,89.588 430.498,89.085 430.862,88.456L430.89,88.456L430.89,89.197C430.89,90.919 429.965,91.578 428.705,91.578C427.864,91.578 427.164,91.326 426.717,91.031L426.409,91.983C426.954,92.346 427.85,92.542 428.663,92.542C429.517,92.542 430.47,92.332 431.141,91.731C431.784,91.129 432.106,90.191 432.106,88.624L432.106,84.688ZM430.876,86.719C430.876,86.943 430.848,87.181 430.778,87.377C430.526,88.176 429.839,88.652 429.069,88.652C427.752,88.652 427.066,87.531 427.066,86.215C427.066,84.632 427.906,83.638 429.083,83.638C429.993,83.638 430.582,84.226 430.806,84.954C430.862,85.122 430.876,85.305 430.876,85.501L430.876,86.719Z" style="fill-rule:nonzero;"/>
                        </g>
                        <g transform="matrix(0.0992161,0,0,0.0873254,1166.49,135.382)">
                            <path d="M64,496L449.6,496L432,124L352,124L352,112C352,59.336 308.664,16 256,16C203.336,16 160,59.336 160,112L160,124L80.8,124L64,496ZM192,112C192,76.891 220.891,48 256,48C291.109,48 320,76.891 320,112L320,124L192,124L192,112Z" style="fill-rule:nonzero;"/>
                        </g>
                    </g>
                </g>
            </g>
        </g>
    </g>
</svg>
