<?xml version="1.0" encoding="UTF-8" standalone="no"?>
<!DOCTYPE svg PUBLIC "-//W3C//DTD SVG 1.1//EN" "http://www.w3.org/Graphics/SVG/1.1/DTD/svg11.dtd">
<svg width="100%" height="100%" viewBox="0 0 322 247" version="1.1" xmlns="http://www.w3.org/2000/svg" xmlns:xlink="http://www.w3.org/1999/xlink" xml:space="preserve" xmlns:serif="http://www.serif.com/" style="fill-rule:evenodd;clip-rule:evenodd;stroke-linejoin:round;stroke-miterlimit:2;">
    <g transform="matrix(1,0,0,1,-5587.36,0)">
        <g id="Artboard1" transform="matrix(0.127717,0,0,0.150055,5591.78,0)">
            <rect x="-34.623" y="0" width="2514.94" height="1644.73" style="fill:none;"/>
            <clipPath id="_clip1">
                <rect x="-34.623" y="0" width="2514.94" height="1644.73"/>
            </clipPath>
            <g clip-path="url(#_clip1)">
                <g id="DESIGNED-BY-FREEPIK" serif:id="DESIGNED BY FREEPIK">
                </g>
                <g id="DESIGNED-BY-FREEPIK1" serif:id="DESIGNED BY FREEPIK">
                </g>
                <g id="DESIGNED-BY-FREEPIK2" serif:id="DESIGNED BY FREEPIK">
                </g>
                <g id="DESIGNED-BY-FREEPIK3" serif:id="DESIGNED BY FREEPIK">
                </g>
                <g id="Layer-1" serif:id="Layer 1">
                </g>
                <g id="DESIGNED-BY-FREEPIK4" serif:id="DESIGNED BY FREEPIK">
                </g>
                <g id="DESIGNED-BY-FREEPIK5" serif:id="DESIGNED BY FREEPIK">
                </g>
                <g transform="matrix(12.5887,0,0,12.1736,-10982.9,-1253.05)">
                    <g transform="matrix(1.51362,0,0,1.35406,300.829,-1032.37)">
                        <rect x="375.824" y="838.452" width="131.998" height="99.766" style="fill:rgb(231,231,231);"/>
                    </g>
                    <g>
                        <g transform="matrix(1.51097,0,0,1.32989,330.511,83.5844)">
                            <path d="M413.81,89.616L415.04,89.616L415.04,81.216L417.924,81.216L417.924,80.182L410.94,80.182L410.94,81.216L413.81,81.216L413.81,89.616Z" style="fill-rule:nonzero;"/>
                            <path d="M420.711,89.77C422.322,89.77 424.07,88.68 424.07,86.159C424.07,84.1 422.756,82.688 420.809,82.688C418.946,82.688 417.45,84.016 417.45,86.285C417.45,88.428 418.876,89.77 420.697,89.77L420.711,89.77ZM420.739,88.848C419.548,88.848 418.708,87.727 418.708,86.243C418.708,84.954 419.338,83.61 420.781,83.61C422.238,83.61 422.812,85.052 422.812,86.201C422.812,87.741 421.929,88.848 420.753,88.848L420.739,88.848Z" style="fill-rule:nonzero;"/>
                            <path d="M425.626,92.388L426.856,92.388L426.856,88.708L426.884,88.708C427.29,89.379 428.061,89.77 428.971,89.77C430.554,89.77 432.05,88.568 432.05,86.131C432.05,84.072 430.82,82.688 429.167,82.688C428.075,82.688 427.262,83.163 426.772,84.002L426.744,84.002L426.674,82.842L425.57,82.842C425.612,83.486 425.626,84.186 425.626,85.054L425.626,92.388ZM426.856,85.684C426.856,85.53 426.898,85.348 426.926,85.194C427.164,84.254 427.963,83.666 428.803,83.666C430.105,83.666 430.806,84.828 430.806,86.187C430.806,87.741 430.049,88.806 428.747,88.806C427.878,88.806 427.122,88.218 426.912,87.363C426.87,87.209 426.856,87.027 426.856,86.859L426.856,85.684Z" style="fill-rule:nonzero;"/>
                            <path d="M434.822,89.616L434.822,82.842L433.592,82.842L433.592,89.616L434.822,89.616ZM434.193,81.706C434.668,81.706 434.962,81.356 434.962,80.951C434.962,80.517 434.654,80.182 434.207,80.182C433.745,80.182 433.438,80.517 433.438,80.951C433.438,81.356 433.731,81.706 434.179,81.706L434.193,81.706Z" style="fill-rule:nonzero;"/>
                        </g>
                        <g transform="matrix(0.0969741,0,0,0.0853521,946.277,139.536)">
                            <path d="M466.76,154.04C446.96,125.148 411.452,98.132 366.048,83.596C363.204,82.657 361.088,80.237 360.54,77.292C357.735,63.391 345.408,53.303 331.227,53.303C320.623,53.303 310.784,58.943 305.424,68.092C303.938,70.71 301.122,72.305 298.112,72.232C188.512,68.848 111.24,139.344 100.98,260.108C100.783,262.587 99.815,264.943 98.212,266.844C84.564,282.888 18.9,360.208 16.536,363.864C8.296,376.596 7.536,396.7 22.752,407.656C29.632,412.89 38.02,415.767 46.664,415.86C70.156,415.86 92.08,394.288 108.532,377.48C110.567,375.389 113.594,374.575 116.404,375.364C174.532,392.196 216.608,438.164 243.88,452.52C255.067,458.294 267.873,460.153 280.24,457.8C329.32,449.72 381.36,390.04 400.64,365.88C405.633,359.661 413.313,356.193 421.28,356.56C431.36,357 442.32,357.04 452.52,356.96C475.438,356.663 494.892,339.468 498,316.76C506.6,255.88 502.52,206.2 466.76,154.04ZM46.664,403.86C40.539,403.758 34.609,401.673 29.768,397.92C25.699,395.011 23.045,390.512 22.468,385.544C22.268,383.891 22.268,382.221 22.468,380.568C41.332,368.864 66.548,365.212 98.008,371.048C83.352,385.952 64.436,403.86 46.664,403.86ZM385.932,348.828C384.986,351.147 382.718,352.67 380.214,352.67C379.396,352.67 378.587,352.507 377.832,352.192C352.144,340.884 327.155,328.049 303,313.756C269.336,294.648 237.544,276.6 197.2,267.132C171.182,261.089 144.179,260.601 117.96,265.7C117.577,265.776 117.188,265.814 116.798,265.814C113.565,265.814 110.883,263.2 110.8,259.968C110.804,256.977 112.971,254.395 115.916,253.872C143.722,248.494 172.352,249.032 199.936,255.452C241.936,265.312 274.476,283.772 308.908,303.32C328.572,314.484 368.656,334.056 382.908,340.968C385.811,342.376 387.135,345.844 385.908,348.828L385.932,348.828Z" style="fill-rule:nonzero;"/>
                        </g>
                    </g>
                </g>
            </g>
        </g>
    </g>
</svg>
