<?xml version="1.0" encoding="UTF-8" standalone="no"?>
<!DOCTYPE svg PUBLIC "-//W3C//DTD SVG 1.1//EN" "http://www.w3.org/Graphics/SVG/1.1/DTD/svg11.dtd">
<svg width="100%" height="100%" viewBox="0 0 322 247" version="1.1" xmlns="http://www.w3.org/2000/svg" xmlns:xlink="http://www.w3.org/1999/xlink" xml:space="preserve" xmlns:serif="http://www.serif.com/" style="fill-rule:evenodd;clip-rule:evenodd;stroke-linejoin:round;stroke-miterlimit:2;">
    <g transform="matrix(1,0,0,1,-4499.43,0)">
        <g id="Artboard1" transform="matrix(0.127717,0,0,0.150055,4503.85,0)">
            <rect x="-34.623" y="0" width="2514.94" height="1644.73" style="fill:none;"/>
            <clipPath id="_clip1">
                <rect x="-34.623" y="0" width="2514.94" height="1644.73"/>
            </clipPath>
            <g clip-path="url(#_clip1)">
                <g id="DESIGNED-BY-FREEPIK" serif:id="DESIGNED BY FREEPIK">
                </g>
                <g id="DESIGNED-BY-FREEPIK1" serif:id="DESIGNED BY FREEPIK">
                </g>
                <g id="DESIGNED-BY-FREEPIK2" serif:id="DESIGNED BY FREEPIK">
                </g>
                <g id="DESIGNED-BY-FREEPIK3" serif:id="DESIGNED BY FREEPIK">
                </g>
                <g id="Layer-1" serif:id="Layer 1">
                </g>
                <g id="DESIGNED-BY-FREEPIK4" serif:id="DESIGNED BY FREEPIK">
                </g>
                <g id="DESIGNED-BY-FREEPIK5" serif:id="DESIGNED BY FREEPIK">
                </g>
                <g transform="matrix(12.5887,0,0,12.1736,-2609.78,-1253.05)">
                    <g transform="matrix(1.51362,0,0,1.35406,-364.301,-1032.37)">
                        <rect x="375.824" y="838.452" width="131.998" height="99.766" style="fill:rgb(231,231,231);"/>
                    </g>
                    <g transform="matrix(1.51097,0,0,1.32989,-344.476,83.4913)">
                        <path d="M413.81,89.616L415.04,89.616L415.04,81.216L417.924,81.216L417.924,80.182L410.94,80.182L410.94,81.216L413.81,81.216L413.81,89.616Z" style="fill-rule:nonzero;"/>
                        <path d="M421.468,89.141C421.971,89.476 422.964,89.756 423.875,89.756C426.102,89.756 427.164,88.484 427.164,87.041C427.164,85.655 426.367,84.899 424.771,84.269C423.468,83.765 422.894,83.33 422.894,82.462C422.894,81.818 423.384,81.048 424.673,81.048C425.528,81.048 426.157,81.314 426.451,81.496L426.787,80.49C426.381,80.265 425.668,80.042 424.715,80.042C422.88,80.042 421.664,81.132 421.664,82.602C421.664,83.919 422.614,84.731 424.155,85.263C425.429,85.739 425.934,86.257 425.934,87.139C425.934,88.092 425.205,88.736 423.959,88.736C423.118,88.736 422.335,88.47 421.79,88.134L421.468,89.141Z" style="fill-rule:nonzero;"/>
                        <path d="M428.804,89.616L430.034,89.616L430.034,85.528C430.034,85.29 430.048,85.108 430.118,84.94C430.356,84.268 430.973,83.708 431.771,83.708C432.934,83.708 433.34,84.618 433.34,85.71L433.34,89.616L434.57,89.616L434.57,85.584C434.57,83.247 433.116,82.688 432.205,82.688C431.743,82.688 431.309,82.814 430.945,83.037C430.566,83.233 430.258,83.554 430.062,83.904L430.034,83.904L430.034,79.678L428.804,79.678L428.804,89.616Z" style="fill-rule:nonzero;"/>
                        <path d="M437.804,89.616L437.804,82.842L436.574,82.842L436.574,89.616L437.804,89.616ZM437.175,81.706C437.65,81.706 437.944,81.356 437.944,80.951C437.944,80.517 437.636,80.182 437.189,80.182C436.727,80.182 436.42,80.517 436.42,80.951C436.42,81.356 436.713,81.706 437.161,81.706L437.175,81.706Z" style="fill-rule:nonzero;"/>
                        <path d="M439.85,89.616L441.08,89.616L441.08,85.99C441.08,85.794 441.094,85.598 441.122,85.416C441.29,84.506 441.906,83.848 442.774,83.848C442.942,83.848 443.068,83.862 443.194,83.876L443.194,82.716C443.082,82.702 442.984,82.688 442.858,82.688C442.032,82.688 441.276,83.261 440.968,84.17L440.926,84.17L440.87,82.842L439.794,82.842C439.836,83.472 439.85,84.157 439.85,84.955L439.85,89.616Z" style="fill-rule:nonzero;"/>
                        <path d="M445.044,81.596L445.044,82.842L443.994,82.842L443.994,83.778L445.044,83.778L445.044,87.461C445.044,88.26 445.184,88.862 445.519,89.239C445.813,89.56 446.274,89.756 446.848,89.756C447.324,89.756 447.702,89.672 447.94,89.588L447.884,88.652C447.702,88.708 447.506,88.736 447.17,88.736C446.484,88.736 446.246,88.26 446.246,87.419L446.246,83.778L448.01,83.778L448.01,82.842L446.246,82.842L446.246,81.218L445.044,81.596Z" style="fill-rule:nonzero;"/>
                    </g>
                    <g transform="matrix(0.10147,0,0,0.0893094,278.49,134.874)">
                        <path d="M42.667,192L106.667,192L106.667,480C106.667,485.888 111.445,490.667 117.333,490.667L394.667,490.667C400.555,490.667 405.333,485.888 405.333,480L405.333,192L469.333,192C474.773,192 479.328,187.915 479.936,182.507L490.603,86.507C491.157,81.504 488.149,76.8 483.381,75.211L323.381,21.877C319.275,20.512 314.731,21.76 311.904,25.056C284.171,59.029 227.84,59.008 200.107,25.056C197.28,21.771 192.747,20.512 188.629,21.877L28.629,75.211C23.851,76.8 20.843,81.515 21.397,86.507L32.064,182.507C32.672,187.915 37.227,192 42.667,192Z" style="fill-rule:nonzero;"/>
                    </g>
                </g>
            </g>
        </g>
    </g>
</svg>
